M48
; DRILL file {KiCad (5.1.9)-1} date 10/28/21 21:28:12
; FORMAT={-:-/ absolute / metric / decimal}
; #@! TF.CreationDate,2021-10-28T21:28:12+02:00
; #@! TF.GenerationSoftware,Kicad,Pcbnew,(5.1.9)-1
; #@! TF.FileFunction,Plated,1,2,PTH
FMAT,2
METRIC
T1C0.300
T2C0.400
T3C0.762
T4C0.890
T5C1.000
T6C1.016
T7C1.500
T8C1.700
T9C2.010
%
G90
G05
T1
X89.6Y-90.2
X91.8Y-90.0
X93.1Y-86.5
X94.2Y-93.6
X98.4Y-90.5
T2
X95.0Y-90.8
X101.2Y-89.8
X139.2Y-93.4
X141.9Y-93.4
X174.0Y-58.8
X174.1Y-56.9
X175.5Y-57.25
X178.8Y-62.0
X180.2Y-56.1
X181.377Y-52.578
X182.4Y-55.7
X182.6Y-57.1
X183.2Y-75.3
X184.2Y-47.4
X189.0Y-50.9
X191.3Y-56.9
X192.2Y-58.8
X194.1Y-113.975
X196.9Y-61.8
X200.1Y-56.9
X200.9Y-117.9
X201.0Y-51.6
X201.0Y-81.2
X202.9Y-48.0
X205.2Y-99.1
X208.1Y-96.1
X208.3Y-110.2
X210.7Y-108.8
X216.8Y-120.0
T3
X178.1Y-82.9
X178.1Y-88.0
X183.2Y-82.9
X183.2Y-88.0
X188.3Y-82.9
X188.3Y-88.0
X193.4Y-82.9
X193.4Y-88.0
T4
X217.3Y-74.96
X217.3Y-77.5
X217.3Y-99.86
X217.3Y-102.4
X217.32Y-52.58
X217.32Y-55.12
T5
X75.34Y-50.63
X75.34Y-53.17
X75.34Y-55.71
X75.34Y-58.25
X75.34Y-60.79
X75.34Y-63.33
X75.34Y-65.87
X75.34Y-68.41
X75.34Y-70.95
X75.34Y-73.49
X75.34Y-76.03
X75.34Y-78.57
X75.34Y-81.11
X75.34Y-83.65
X75.34Y-86.19
X75.34Y-88.73
X75.34Y-91.27
X75.34Y-93.81
X75.34Y-96.35
X75.34Y-98.89
X75.34Y-101.43
X75.34Y-103.97
X75.34Y-106.51
X75.34Y-109.05
X75.34Y-111.59
X75.34Y-114.13
X75.34Y-116.67
X75.34Y-119.21
X75.34Y-121.75
X75.34Y-124.29
X75.34Y-126.83
X75.34Y-129.37
X80.42Y-50.63
X80.42Y-53.17
X80.42Y-55.71
X80.42Y-58.25
X80.42Y-60.79
X80.42Y-63.33
X80.42Y-65.87
X80.42Y-68.41
X80.42Y-70.95
X80.42Y-73.49
X80.42Y-76.03
X80.42Y-78.57
X80.42Y-81.11
X80.42Y-83.65
X80.42Y-86.19
X80.42Y-88.73
X80.42Y-91.27
X80.42Y-93.81
X80.42Y-96.35
X80.42Y-98.89
X80.42Y-101.43
X80.42Y-103.97
X80.42Y-106.51
X80.42Y-109.05
X80.42Y-111.59
X80.42Y-114.13
X80.42Y-116.67
X80.42Y-119.21
X80.42Y-121.75
X80.42Y-124.29
X80.42Y-126.83
X80.42Y-129.37
X213.8Y-122.5
X221.42Y-125.04
X226.5Y-122.5
T6
X111.9Y-89.52
X111.9Y-92.06
X111.9Y-94.6
T7
X210.2Y-77.5
T8
X207.66Y-74.96
X207.66Y-80.04
X212.74Y-74.96
X212.74Y-80.04
T9
X222.38Y-72.42
X222.38Y-82.58
X222.38Y-97.32
X222.38Y-107.48
X222.4Y-50.04
X222.4Y-60.2
T0
M30
