G04 #@! TF.GenerationSoftware,KiCad,Pcbnew,(5.1.9)-1*
G04 #@! TF.CreationDate,2021-10-27T20:53:23+02:00*
G04 #@! TF.ProjectId,PDH-module,5044482d-6d6f-4647-956c-652e6b696361,1.0*
G04 #@! TF.SameCoordinates,Original*
G04 #@! TF.FileFunction,Other,Fab,Top*
%FSLAX46Y46*%
G04 Gerber Fmt 4.6, Leading zero omitted, Abs format (unit mm)*
G04 Created by KiCad (PCBNEW (5.1.9)-1) date 2021-10-27 20:53:23*
%MOMM*%
%LPD*%
G01*
G04 APERTURE LIST*
%ADD10C,0.100000*%
%ADD11C,0.150000*%
%ADD12C,0.120000*%
%ADD13C,0.060000*%
G04 APERTURE END LIST*
D10*
X90850000Y-94900000D02*
X88350000Y-94900000D01*
X88350000Y-94900000D02*
X88350000Y-91700000D01*
X88350000Y-91700000D02*
X90850000Y-91700000D01*
X90850000Y-91700000D02*
X90850000Y-94900000D01*
X90850000Y-85300000D02*
X90850000Y-88500000D01*
X88350000Y-85300000D02*
X90850000Y-85300000D01*
X88350000Y-88500000D02*
X88350000Y-85300000D01*
X90850000Y-88500000D02*
X88350000Y-88500000D01*
X95800000Y-94500000D02*
X95800000Y-95300000D01*
X95800000Y-95300000D02*
X94200000Y-95300000D01*
X94200000Y-95300000D02*
X94200000Y-94500000D01*
X94200000Y-94500000D02*
X95800000Y-94500000D01*
X95912500Y-86800000D02*
X94312500Y-86800000D01*
X95912500Y-86000000D02*
X95912500Y-86800000D01*
X94312500Y-86000000D02*
X95912500Y-86000000D01*
X94312500Y-86800000D02*
X94312500Y-86000000D01*
X183800000Y-50900000D02*
X183800000Y-49300000D01*
X184600000Y-50900000D02*
X183800000Y-50900000D01*
X184600000Y-49300000D02*
X184600000Y-50900000D01*
X183800000Y-49300000D02*
X184600000Y-49300000D01*
X102450000Y-94700000D02*
X99950000Y-94700000D01*
X99950000Y-94700000D02*
X99950000Y-91500000D01*
X99950000Y-91500000D02*
X102450000Y-91500000D01*
X102450000Y-91500000D02*
X102450000Y-94700000D01*
X102350000Y-85200000D02*
X102350000Y-88400000D01*
X99850000Y-85200000D02*
X102350000Y-85200000D01*
X99850000Y-88400000D02*
X99850000Y-85200000D01*
X102350000Y-88400000D02*
X99850000Y-88400000D01*
X178400000Y-58600000D02*
X179200000Y-58600000D01*
X179200000Y-58600000D02*
X179200000Y-60200000D01*
X179200000Y-60200000D02*
X178400000Y-60200000D01*
X178400000Y-60200000D02*
X178400000Y-58600000D01*
X196500000Y-58700000D02*
X197300000Y-58700000D01*
X197300000Y-58700000D02*
X197300000Y-60300000D01*
X197300000Y-60300000D02*
X196500000Y-60300000D01*
X196500000Y-60300000D02*
X196500000Y-58700000D01*
X203300000Y-49300000D02*
X203300000Y-50900000D01*
X202500000Y-49300000D02*
X203300000Y-49300000D01*
X202500000Y-50900000D02*
X202500000Y-49300000D01*
X203300000Y-50900000D02*
X202500000Y-50900000D01*
X237300000Y-72500000D02*
X238300000Y-82500000D01*
X236300000Y-72500000D02*
X237300000Y-82500000D01*
X235300000Y-72500000D02*
X236300000Y-82500000D01*
X234300000Y-72500000D02*
X235300000Y-82500000D01*
X233300000Y-72500000D02*
X234300000Y-82500000D01*
X232300000Y-72500000D02*
X233300000Y-82500000D01*
X246370000Y-77500000D02*
G75*
G03*
X246370000Y-77500000I-1000000J0D01*
G01*
X238700000Y-82300000D02*
X250600000Y-82300000D01*
X250600000Y-82300000D02*
X250600000Y-72700000D01*
X250600000Y-72700000D02*
X238700000Y-72700000D01*
X230000000Y-83850000D02*
X238700000Y-83850000D01*
X238700000Y-83850000D02*
X238700000Y-71150000D01*
X238700000Y-71150000D02*
X230000000Y-71150000D01*
X215100000Y-70150000D02*
X215100000Y-84850000D01*
X215100000Y-84850000D02*
X230000000Y-84850000D01*
X230000000Y-84850000D02*
X230000000Y-70150000D01*
X230000000Y-70150000D02*
X215100000Y-70150000D01*
X231300000Y-72500000D02*
X232300000Y-82500000D01*
X237300000Y-97400000D02*
X238300000Y-107400000D01*
X236300000Y-97400000D02*
X237300000Y-107400000D01*
X235300000Y-97400000D02*
X236300000Y-107400000D01*
X234300000Y-97400000D02*
X235300000Y-107400000D01*
X233300000Y-97400000D02*
X234300000Y-107400000D01*
X232300000Y-97400000D02*
X233300000Y-107400000D01*
X246370000Y-102400000D02*
G75*
G03*
X246370000Y-102400000I-1000000J0D01*
G01*
X238700000Y-107200000D02*
X250600000Y-107200000D01*
X250600000Y-107200000D02*
X250600000Y-97600000D01*
X250600000Y-97600000D02*
X238700000Y-97600000D01*
X230000000Y-108750000D02*
X238700000Y-108750000D01*
X238700000Y-108750000D02*
X238700000Y-96050000D01*
X238700000Y-96050000D02*
X230000000Y-96050000D01*
X215100000Y-95050000D02*
X215100000Y-109750000D01*
X215100000Y-109750000D02*
X230000000Y-109750000D01*
X230000000Y-109750000D02*
X230000000Y-95050000D01*
X230000000Y-95050000D02*
X215100000Y-95050000D01*
X231300000Y-97400000D02*
X232300000Y-107400000D01*
X231320000Y-50120000D02*
X232320000Y-60120000D01*
X230020000Y-47770000D02*
X215120000Y-47770000D01*
X230020000Y-62470000D02*
X230020000Y-47770000D01*
X215120000Y-62470000D02*
X230020000Y-62470000D01*
X215120000Y-47770000D02*
X215120000Y-62470000D01*
X238720000Y-48770000D02*
X230020000Y-48770000D01*
X238720000Y-61470000D02*
X238720000Y-48770000D01*
X230020000Y-61470000D02*
X238720000Y-61470000D01*
X250620000Y-50320000D02*
X238720000Y-50320000D01*
X250620000Y-59920000D02*
X250620000Y-50320000D01*
X238720000Y-59920000D02*
X250620000Y-59920000D01*
X246390000Y-55120000D02*
G75*
G03*
X246390000Y-55120000I-1000000J0D01*
G01*
X232320000Y-50120000D02*
X233320000Y-60120000D01*
X233320000Y-50120000D02*
X234320000Y-60120000D01*
X234320000Y-50120000D02*
X235320000Y-60120000D01*
X235320000Y-50120000D02*
X236320000Y-60120000D01*
X236320000Y-50120000D02*
X237320000Y-60120000D01*
X237320000Y-50120000D02*
X238320000Y-60120000D01*
X195600000Y-57700000D02*
X194800000Y-57700000D01*
X194800000Y-57700000D02*
X194800000Y-56100000D01*
X194800000Y-56100000D02*
X195600000Y-56100000D01*
X195600000Y-56100000D02*
X195600000Y-57700000D01*
X195600000Y-52800000D02*
X195600000Y-54400000D01*
X194800000Y-52800000D02*
X195600000Y-52800000D01*
X194800000Y-54400000D02*
X194800000Y-52800000D01*
X195600000Y-54400000D02*
X194800000Y-54400000D01*
X207300000Y-53850000D02*
X210500000Y-53850000D01*
X207300000Y-56350000D02*
X207300000Y-53850000D01*
X210500000Y-56350000D02*
X207300000Y-56350000D01*
X210500000Y-53850000D02*
X210500000Y-56350000D01*
X175300000Y-51200000D02*
X175300000Y-50400000D01*
X175300000Y-50400000D02*
X176900000Y-50400000D01*
X176900000Y-50400000D02*
X176900000Y-51200000D01*
X176900000Y-51200000D02*
X175300000Y-51200000D01*
X188200000Y-57700000D02*
X187400000Y-57700000D01*
X187400000Y-57700000D02*
X187400000Y-56100000D01*
X187400000Y-56100000D02*
X188200000Y-56100000D01*
X188200000Y-56100000D02*
X188200000Y-57700000D01*
X174800000Y-54200000D02*
X174800000Y-52600000D01*
X175600000Y-54200000D02*
X174800000Y-54200000D01*
X175600000Y-52600000D02*
X175600000Y-54200000D01*
X174800000Y-52600000D02*
X175600000Y-52600000D01*
X187400000Y-54200000D02*
X187400000Y-52600000D01*
X188200000Y-54200000D02*
X187400000Y-54200000D01*
X188200000Y-52600000D02*
X188200000Y-54200000D01*
X187400000Y-52600000D02*
X188200000Y-52600000D01*
X176600000Y-54200000D02*
X176600000Y-52600000D01*
X177400000Y-54200000D02*
X176600000Y-54200000D01*
X177400000Y-52600000D02*
X177400000Y-54200000D01*
X176600000Y-52600000D02*
X177400000Y-52600000D01*
X186500000Y-54200000D02*
X185700000Y-54200000D01*
X185700000Y-54200000D02*
X185700000Y-52600000D01*
X185700000Y-52600000D02*
X186500000Y-52600000D01*
X186500000Y-52600000D02*
X186500000Y-54200000D01*
X197950000Y-53325000D02*
X198925000Y-52350000D01*
X197950000Y-57250000D02*
X197950000Y-53325000D01*
X201850000Y-57250000D02*
X197950000Y-57250000D01*
X201850000Y-52350000D02*
X201850000Y-57250000D01*
X198925000Y-52350000D02*
X201850000Y-52350000D01*
X95500000Y-92010000D02*
X93500000Y-92010000D01*
X93500000Y-92010000D02*
X93500000Y-88010000D01*
X93500000Y-88010000D02*
X96500000Y-88010000D01*
X96500000Y-88010000D02*
X96500000Y-91010000D01*
X96500000Y-91010000D02*
X95500000Y-92010000D01*
D11*
X179550000Y-53350000D02*
X180550000Y-52350000D01*
X179550000Y-57250000D02*
X179550000Y-53350000D01*
X183450000Y-57250000D02*
X179550000Y-57250000D01*
X183450000Y-52350000D02*
X183450000Y-57250000D01*
X180550000Y-52350000D02*
X183450000Y-52350000D01*
D10*
X211425000Y-102800000D02*
X211425000Y-102000000D01*
X211425000Y-102000000D02*
X213025000Y-102000000D01*
X213025000Y-102000000D02*
X213025000Y-102800000D01*
X213025000Y-102800000D02*
X211425000Y-102800000D01*
X203200000Y-77100000D02*
X204800000Y-77100000D01*
X203200000Y-77900000D02*
X203200000Y-77100000D01*
X204800000Y-77900000D02*
X203200000Y-77900000D01*
X204800000Y-77100000D02*
X204800000Y-77900000D01*
X213375000Y-74325000D02*
X213375000Y-80675000D01*
X207025000Y-80675000D02*
X213375000Y-80675000D01*
X207025000Y-74325000D02*
X207025000Y-80675000D01*
X207025000Y-74325000D02*
X213375000Y-74325000D01*
X213375000Y-77500000D02*
G75*
G03*
X213375000Y-77500000I-3175000J0D01*
G01*
X215400000Y-119587500D02*
X215400000Y-120412500D01*
X215400000Y-120412500D02*
X213800000Y-120412500D01*
X213800000Y-120412500D02*
X213800000Y-119587500D01*
X213800000Y-119587500D02*
X215400000Y-119587500D01*
X206855000Y-99200000D02*
X209345000Y-99200000D01*
X209345000Y-99200000D02*
X209345000Y-102400000D01*
X209345000Y-102400000D02*
X206855000Y-102400000D01*
X206855000Y-102400000D02*
X206855000Y-99200000D01*
X206800000Y-118512500D02*
X205200000Y-118512500D01*
X206800000Y-117687500D02*
X206800000Y-118512500D01*
X205200000Y-117687500D02*
X206800000Y-117687500D01*
X205200000Y-118512500D02*
X205200000Y-117687500D01*
X195900000Y-110255000D02*
X199100000Y-110255000D01*
X195900000Y-112745000D02*
X195900000Y-110255000D01*
X199100000Y-112745000D02*
X195900000Y-112745000D01*
X199100000Y-110255000D02*
X199100000Y-112745000D01*
X182787500Y-78800000D02*
X182787500Y-77200000D01*
X183612500Y-78800000D02*
X182787500Y-78800000D01*
X183612500Y-77200000D02*
X183612500Y-78800000D01*
X182787500Y-77200000D02*
X183612500Y-77200000D01*
X201412500Y-79100000D02*
X200587500Y-79100000D01*
X200587500Y-79100000D02*
X200587500Y-77500000D01*
X200587500Y-77500000D02*
X201412500Y-77500000D01*
X201412500Y-77500000D02*
X201412500Y-79100000D01*
X207850000Y-115475000D02*
X206875000Y-116450000D01*
X207850000Y-111550000D02*
X207850000Y-115475000D01*
X203950000Y-111550000D02*
X207850000Y-111550000D01*
X203950000Y-116450000D02*
X203950000Y-111550000D01*
X206875000Y-116450000D02*
X203950000Y-116450000D01*
X211100000Y-112000000D02*
X210300000Y-112000000D01*
X210300000Y-112000000D02*
X210300000Y-110400000D01*
X210300000Y-110400000D02*
X211100000Y-110400000D01*
X211100000Y-110400000D02*
X211100000Y-112000000D01*
X200500000Y-116400000D02*
X200500000Y-114800000D01*
X201300000Y-116400000D02*
X200500000Y-116400000D01*
X201300000Y-114800000D02*
X201300000Y-116400000D01*
X200500000Y-114800000D02*
X201300000Y-114800000D01*
X231320000Y-123770000D02*
X230560000Y-123770000D01*
X229800000Y-124950000D02*
X231320000Y-124950000D01*
X229800000Y-122590000D02*
X229800000Y-124950000D01*
X231320000Y-122590000D02*
X229800000Y-122590000D01*
X231320000Y-124950000D02*
X231320000Y-122590000D01*
X210800000Y-126170000D02*
X229800000Y-126170000D01*
X210800000Y-121370000D02*
X210800000Y-126170000D01*
X229800000Y-121370000D02*
X210800000Y-121370000D01*
X229800000Y-126170000D02*
X229800000Y-121370000D01*
D11*
X92332380Y-93942857D02*
X92332380Y-94514285D01*
X92332380Y-94228571D02*
X91332380Y-94228571D01*
X91475238Y-94323809D01*
X91570476Y-94419047D01*
X91618095Y-94514285D01*
X91332380Y-93323809D02*
X91332380Y-93228571D01*
X91380000Y-93133333D01*
X91427619Y-93085714D01*
X91522857Y-93038095D01*
X91713333Y-92990476D01*
X91951428Y-92990476D01*
X92141904Y-93038095D01*
X92237142Y-93085714D01*
X92284761Y-93133333D01*
X92332380Y-93228571D01*
X92332380Y-93323809D01*
X92284761Y-93419047D01*
X92237142Y-93466666D01*
X92141904Y-93514285D01*
X91951428Y-93561904D01*
X91713333Y-93561904D01*
X91522857Y-93514285D01*
X91427619Y-93466666D01*
X91380000Y-93419047D01*
X91332380Y-93323809D01*
X91665714Y-92133333D02*
X92332380Y-92133333D01*
X91665714Y-92561904D02*
X92189523Y-92561904D01*
X92284761Y-92514285D01*
X92332380Y-92419047D01*
X92332380Y-92276190D01*
X92284761Y-92180952D01*
X92237142Y-92133333D01*
D12*
X89885714Y-93433333D02*
X89923809Y-93471428D01*
X89961904Y-93585714D01*
X89961904Y-93661904D01*
X89923809Y-93776190D01*
X89847619Y-93852380D01*
X89771428Y-93890476D01*
X89619047Y-93928571D01*
X89504761Y-93928571D01*
X89352380Y-93890476D01*
X89276190Y-93852380D01*
X89200000Y-93776190D01*
X89161904Y-93661904D01*
X89161904Y-93585714D01*
X89200000Y-93471428D01*
X89238095Y-93433333D01*
X89961904Y-92671428D02*
X89961904Y-93128571D01*
X89961904Y-92900000D02*
X89161904Y-92900000D01*
X89276190Y-92976190D01*
X89352380Y-93052380D01*
X89390476Y-93128571D01*
D11*
X92332380Y-87542857D02*
X92332380Y-88114285D01*
X92332380Y-87828571D02*
X91332380Y-87828571D01*
X91475238Y-87923809D01*
X91570476Y-88019047D01*
X91618095Y-88114285D01*
X91332380Y-86923809D02*
X91332380Y-86828571D01*
X91380000Y-86733333D01*
X91427619Y-86685714D01*
X91522857Y-86638095D01*
X91713333Y-86590476D01*
X91951428Y-86590476D01*
X92141904Y-86638095D01*
X92237142Y-86685714D01*
X92284761Y-86733333D01*
X92332380Y-86828571D01*
X92332380Y-86923809D01*
X92284761Y-87019047D01*
X92237142Y-87066666D01*
X92141904Y-87114285D01*
X91951428Y-87161904D01*
X91713333Y-87161904D01*
X91522857Y-87114285D01*
X91427619Y-87066666D01*
X91380000Y-87019047D01*
X91332380Y-86923809D01*
X91665714Y-85733333D02*
X92332380Y-85733333D01*
X91665714Y-86161904D02*
X92189523Y-86161904D01*
X92284761Y-86114285D01*
X92332380Y-86019047D01*
X92332380Y-85876190D01*
X92284761Y-85780952D01*
X92237142Y-85733333D01*
D12*
X89885714Y-87033333D02*
X89923809Y-87071428D01*
X89961904Y-87185714D01*
X89961904Y-87261904D01*
X89923809Y-87376190D01*
X89847619Y-87452380D01*
X89771428Y-87490476D01*
X89619047Y-87528571D01*
X89504761Y-87528571D01*
X89352380Y-87490476D01*
X89276190Y-87452380D01*
X89200000Y-87376190D01*
X89161904Y-87261904D01*
X89161904Y-87185714D01*
X89200000Y-87071428D01*
X89238095Y-87033333D01*
X89238095Y-86728571D02*
X89200000Y-86690476D01*
X89161904Y-86614285D01*
X89161904Y-86423809D01*
X89200000Y-86347619D01*
X89238095Y-86309523D01*
X89314285Y-86271428D01*
X89390476Y-86271428D01*
X89504761Y-86309523D01*
X89961904Y-86766666D01*
X89961904Y-86271428D01*
D11*
X92214285Y-93922380D02*
X91642857Y-93922380D01*
X91928571Y-93922380D02*
X91928571Y-92922380D01*
X91833333Y-93065238D01*
X91738095Y-93160476D01*
X91642857Y-93208095D01*
X92833333Y-92922380D02*
X92928571Y-92922380D01*
X93023809Y-92970000D01*
X93071428Y-93017619D01*
X93119047Y-93112857D01*
X93166666Y-93303333D01*
X93166666Y-93541428D01*
X93119047Y-93731904D01*
X93071428Y-93827142D01*
X93023809Y-93874761D01*
X92928571Y-93922380D01*
X92833333Y-93922380D01*
X92738095Y-93874761D01*
X92690476Y-93827142D01*
X92642857Y-93731904D01*
X92595238Y-93541428D01*
X92595238Y-93303333D01*
X92642857Y-93112857D01*
X92690476Y-93017619D01*
X92738095Y-92970000D01*
X92833333Y-92922380D01*
X93595238Y-93255714D02*
X93595238Y-93922380D01*
X93595238Y-93350952D02*
X93642857Y-93303333D01*
X93738095Y-93255714D01*
X93880952Y-93255714D01*
X93976190Y-93303333D01*
X94023809Y-93398571D01*
X94023809Y-93922380D01*
X94785714Y-94303333D02*
X94738095Y-94255714D01*
X94642857Y-94112857D01*
X94595238Y-94017619D01*
X94547619Y-93874761D01*
X94500000Y-93636666D01*
X94500000Y-93446190D01*
X94547619Y-93208095D01*
X94595238Y-93065238D01*
X94642857Y-92970000D01*
X94738095Y-92827142D01*
X94785714Y-92779523D01*
X95738095Y-93827142D02*
X95690476Y-93874761D01*
X95547619Y-93922380D01*
X95452380Y-93922380D01*
X95309523Y-93874761D01*
X95214285Y-93779523D01*
X95166666Y-93684285D01*
X95119047Y-93493809D01*
X95119047Y-93350952D01*
X95166666Y-93160476D01*
X95214285Y-93065238D01*
X95309523Y-92970000D01*
X95452380Y-92922380D01*
X95547619Y-92922380D01*
X95690476Y-92970000D01*
X95738095Y-93017619D01*
X96357142Y-92922380D02*
X96452380Y-92922380D01*
X96547619Y-92970000D01*
X96595238Y-93017619D01*
X96642857Y-93112857D01*
X96690476Y-93303333D01*
X96690476Y-93541428D01*
X96642857Y-93731904D01*
X96595238Y-93827142D01*
X96547619Y-93874761D01*
X96452380Y-93922380D01*
X96357142Y-93922380D01*
X96261904Y-93874761D01*
X96214285Y-93827142D01*
X96166666Y-93731904D01*
X96119047Y-93541428D01*
X96119047Y-93303333D01*
X96166666Y-93112857D01*
X96214285Y-93017619D01*
X96261904Y-92970000D01*
X96357142Y-92922380D01*
X97642857Y-92970000D02*
X97547619Y-92922380D01*
X97404761Y-92922380D01*
X97261904Y-92970000D01*
X97166666Y-93065238D01*
X97119047Y-93160476D01*
X97071428Y-93350952D01*
X97071428Y-93493809D01*
X97119047Y-93684285D01*
X97166666Y-93779523D01*
X97261904Y-93874761D01*
X97404761Y-93922380D01*
X97500000Y-93922380D01*
X97642857Y-93874761D01*
X97690476Y-93827142D01*
X97690476Y-93493809D01*
X97500000Y-93493809D01*
X98023809Y-94303333D02*
X98071428Y-94255714D01*
X98166666Y-94112857D01*
X98214285Y-94017619D01*
X98261904Y-93874761D01*
X98309523Y-93636666D01*
X98309523Y-93446190D01*
X98261904Y-93208095D01*
X98214285Y-93065238D01*
X98166666Y-92970000D01*
X98071428Y-92827142D01*
X98023809Y-92779523D01*
D13*
X94933333Y-95042857D02*
X94914285Y-95061904D01*
X94857142Y-95080952D01*
X94819047Y-95080952D01*
X94761904Y-95061904D01*
X94723809Y-95023809D01*
X94704761Y-94985714D01*
X94685714Y-94909523D01*
X94685714Y-94852380D01*
X94704761Y-94776190D01*
X94723809Y-94738095D01*
X94761904Y-94700000D01*
X94819047Y-94680952D01*
X94857142Y-94680952D01*
X94914285Y-94700000D01*
X94933333Y-94719047D01*
X95295238Y-94680952D02*
X95104761Y-94680952D01*
X95085714Y-94871428D01*
X95104761Y-94852380D01*
X95142857Y-94833333D01*
X95238095Y-94833333D01*
X95276190Y-94852380D01*
X95295238Y-94871428D01*
X95314285Y-94909523D01*
X95314285Y-95004761D01*
X95295238Y-95042857D01*
X95276190Y-95061904D01*
X95238095Y-95080952D01*
X95142857Y-95080952D01*
X95104761Y-95061904D01*
X95085714Y-95042857D01*
D11*
X92326785Y-88282380D02*
X91755357Y-88282380D01*
X92041071Y-88282380D02*
X92041071Y-87282380D01*
X91945833Y-87425238D01*
X91850595Y-87520476D01*
X91755357Y-87568095D01*
X92945833Y-87282380D02*
X93041071Y-87282380D01*
X93136309Y-87330000D01*
X93183928Y-87377619D01*
X93231547Y-87472857D01*
X93279166Y-87663333D01*
X93279166Y-87901428D01*
X93231547Y-88091904D01*
X93183928Y-88187142D01*
X93136309Y-88234761D01*
X93041071Y-88282380D01*
X92945833Y-88282380D01*
X92850595Y-88234761D01*
X92802976Y-88187142D01*
X92755357Y-88091904D01*
X92707738Y-87901428D01*
X92707738Y-87663333D01*
X92755357Y-87472857D01*
X92802976Y-87377619D01*
X92850595Y-87330000D01*
X92945833Y-87282380D01*
X93707738Y-87615714D02*
X93707738Y-88282380D01*
X93707738Y-87710952D02*
X93755357Y-87663333D01*
X93850595Y-87615714D01*
X93993452Y-87615714D01*
X94088690Y-87663333D01*
X94136309Y-87758571D01*
X94136309Y-88282380D01*
X94898214Y-88663333D02*
X94850595Y-88615714D01*
X94755357Y-88472857D01*
X94707738Y-88377619D01*
X94660119Y-88234761D01*
X94612500Y-87996666D01*
X94612500Y-87806190D01*
X94660119Y-87568095D01*
X94707738Y-87425238D01*
X94755357Y-87330000D01*
X94850595Y-87187142D01*
X94898214Y-87139523D01*
X95850595Y-88187142D02*
X95802976Y-88234761D01*
X95660119Y-88282380D01*
X95564880Y-88282380D01*
X95422023Y-88234761D01*
X95326785Y-88139523D01*
X95279166Y-88044285D01*
X95231547Y-87853809D01*
X95231547Y-87710952D01*
X95279166Y-87520476D01*
X95326785Y-87425238D01*
X95422023Y-87330000D01*
X95564880Y-87282380D01*
X95660119Y-87282380D01*
X95802976Y-87330000D01*
X95850595Y-87377619D01*
X96469642Y-87282380D02*
X96564880Y-87282380D01*
X96660119Y-87330000D01*
X96707738Y-87377619D01*
X96755357Y-87472857D01*
X96802976Y-87663333D01*
X96802976Y-87901428D01*
X96755357Y-88091904D01*
X96707738Y-88187142D01*
X96660119Y-88234761D01*
X96564880Y-88282380D01*
X96469642Y-88282380D01*
X96374404Y-88234761D01*
X96326785Y-88187142D01*
X96279166Y-88091904D01*
X96231547Y-87901428D01*
X96231547Y-87663333D01*
X96279166Y-87472857D01*
X96326785Y-87377619D01*
X96374404Y-87330000D01*
X96469642Y-87282380D01*
X97755357Y-87330000D02*
X97660119Y-87282380D01*
X97517261Y-87282380D01*
X97374404Y-87330000D01*
X97279166Y-87425238D01*
X97231547Y-87520476D01*
X97183928Y-87710952D01*
X97183928Y-87853809D01*
X97231547Y-88044285D01*
X97279166Y-88139523D01*
X97374404Y-88234761D01*
X97517261Y-88282380D01*
X97612500Y-88282380D01*
X97755357Y-88234761D01*
X97802976Y-88187142D01*
X97802976Y-87853809D01*
X97612500Y-87853809D01*
X98136309Y-88663333D02*
X98183928Y-88615714D01*
X98279166Y-88472857D01*
X98326785Y-88377619D01*
X98374404Y-88234761D01*
X98422023Y-87996666D01*
X98422023Y-87806190D01*
X98374404Y-87568095D01*
X98326785Y-87425238D01*
X98279166Y-87330000D01*
X98183928Y-87187142D01*
X98136309Y-87139523D01*
D13*
X95045833Y-86542857D02*
X95026785Y-86561904D01*
X94969642Y-86580952D01*
X94931547Y-86580952D01*
X94874404Y-86561904D01*
X94836309Y-86523809D01*
X94817261Y-86485714D01*
X94798214Y-86409523D01*
X94798214Y-86352380D01*
X94817261Y-86276190D01*
X94836309Y-86238095D01*
X94874404Y-86200000D01*
X94931547Y-86180952D01*
X94969642Y-86180952D01*
X95026785Y-86200000D01*
X95045833Y-86219047D01*
X95388690Y-86180952D02*
X95312500Y-86180952D01*
X95274404Y-86200000D01*
X95255357Y-86219047D01*
X95217261Y-86276190D01*
X95198214Y-86352380D01*
X95198214Y-86504761D01*
X95217261Y-86542857D01*
X95236309Y-86561904D01*
X95274404Y-86580952D01*
X95350595Y-86580952D01*
X95388690Y-86561904D01*
X95407738Y-86542857D01*
X95426785Y-86504761D01*
X95426785Y-86409523D01*
X95407738Y-86371428D01*
X95388690Y-86352380D01*
X95350595Y-86333333D01*
X95274404Y-86333333D01*
X95236309Y-86352380D01*
X95217261Y-86371428D01*
X95198214Y-86409523D01*
D11*
X183222380Y-51219047D02*
X183222380Y-51790476D01*
X183222380Y-51504761D02*
X182222380Y-51504761D01*
X182365238Y-51600000D01*
X182460476Y-51695238D01*
X182508095Y-51790476D01*
X182222380Y-50600000D02*
X182222380Y-50504761D01*
X182270000Y-50409523D01*
X182317619Y-50361904D01*
X182412857Y-50314285D01*
X182603333Y-50266666D01*
X182841428Y-50266666D01*
X183031904Y-50314285D01*
X183127142Y-50361904D01*
X183174761Y-50409523D01*
X183222380Y-50504761D01*
X183222380Y-50600000D01*
X183174761Y-50695238D01*
X183127142Y-50742857D01*
X183031904Y-50790476D01*
X182841428Y-50838095D01*
X182603333Y-50838095D01*
X182412857Y-50790476D01*
X182317619Y-50742857D01*
X182270000Y-50695238D01*
X182222380Y-50600000D01*
X182222380Y-49647619D02*
X182222380Y-49552380D01*
X182270000Y-49457142D01*
X182317619Y-49409523D01*
X182412857Y-49361904D01*
X182603333Y-49314285D01*
X182841428Y-49314285D01*
X183031904Y-49361904D01*
X183127142Y-49409523D01*
X183174761Y-49457142D01*
X183222380Y-49552380D01*
X183222380Y-49647619D01*
X183174761Y-49742857D01*
X183127142Y-49790476D01*
X183031904Y-49838095D01*
X182841428Y-49885714D01*
X182603333Y-49885714D01*
X182412857Y-49838095D01*
X182317619Y-49790476D01*
X182270000Y-49742857D01*
X182222380Y-49647619D01*
X182555714Y-48885714D02*
X183222380Y-48885714D01*
X182650952Y-48885714D02*
X182603333Y-48838095D01*
X182555714Y-48742857D01*
X182555714Y-48600000D01*
X182603333Y-48504761D01*
X182698571Y-48457142D01*
X183222380Y-48457142D01*
D13*
X184342857Y-50166666D02*
X184361904Y-50185714D01*
X184380952Y-50242857D01*
X184380952Y-50280952D01*
X184361904Y-50338095D01*
X184323809Y-50376190D01*
X184285714Y-50395238D01*
X184209523Y-50414285D01*
X184152380Y-50414285D01*
X184076190Y-50395238D01*
X184038095Y-50376190D01*
X184000000Y-50338095D01*
X183980952Y-50280952D01*
X183980952Y-50242857D01*
X184000000Y-50185714D01*
X184019047Y-50166666D01*
X183980952Y-50033333D02*
X183980952Y-49766666D01*
X184380952Y-49938095D01*
D11*
X103932380Y-93742857D02*
X103932380Y-94314285D01*
X103932380Y-94028571D02*
X102932380Y-94028571D01*
X103075238Y-94123809D01*
X103170476Y-94219047D01*
X103218095Y-94314285D01*
X102932380Y-93123809D02*
X102932380Y-93028571D01*
X102980000Y-92933333D01*
X103027619Y-92885714D01*
X103122857Y-92838095D01*
X103313333Y-92790476D01*
X103551428Y-92790476D01*
X103741904Y-92838095D01*
X103837142Y-92885714D01*
X103884761Y-92933333D01*
X103932380Y-93028571D01*
X103932380Y-93123809D01*
X103884761Y-93219047D01*
X103837142Y-93266666D01*
X103741904Y-93314285D01*
X103551428Y-93361904D01*
X103313333Y-93361904D01*
X103122857Y-93314285D01*
X103027619Y-93266666D01*
X102980000Y-93219047D01*
X102932380Y-93123809D01*
X103265714Y-91933333D02*
X103932380Y-91933333D01*
X103265714Y-92361904D02*
X103789523Y-92361904D01*
X103884761Y-92314285D01*
X103932380Y-92219047D01*
X103932380Y-92076190D01*
X103884761Y-91980952D01*
X103837142Y-91933333D01*
D12*
X101485714Y-93233333D02*
X101523809Y-93271428D01*
X101561904Y-93385714D01*
X101561904Y-93461904D01*
X101523809Y-93576190D01*
X101447619Y-93652380D01*
X101371428Y-93690476D01*
X101219047Y-93728571D01*
X101104761Y-93728571D01*
X100952380Y-93690476D01*
X100876190Y-93652380D01*
X100800000Y-93576190D01*
X100761904Y-93461904D01*
X100761904Y-93385714D01*
X100800000Y-93271428D01*
X100838095Y-93233333D01*
X101104761Y-92776190D02*
X101066666Y-92852380D01*
X101028571Y-92890476D01*
X100952380Y-92928571D01*
X100914285Y-92928571D01*
X100838095Y-92890476D01*
X100800000Y-92852380D01*
X100761904Y-92776190D01*
X100761904Y-92623809D01*
X100800000Y-92547619D01*
X100838095Y-92509523D01*
X100914285Y-92471428D01*
X100952380Y-92471428D01*
X101028571Y-92509523D01*
X101066666Y-92547619D01*
X101104761Y-92623809D01*
X101104761Y-92776190D01*
X101142857Y-92852380D01*
X101180952Y-92890476D01*
X101257142Y-92928571D01*
X101409523Y-92928571D01*
X101485714Y-92890476D01*
X101523809Y-92852380D01*
X101561904Y-92776190D01*
X101561904Y-92623809D01*
X101523809Y-92547619D01*
X101485714Y-92509523D01*
X101409523Y-92471428D01*
X101257142Y-92471428D01*
X101180952Y-92509523D01*
X101142857Y-92547619D01*
X101104761Y-92623809D01*
D11*
X103832380Y-87442857D02*
X103832380Y-88014285D01*
X103832380Y-87728571D02*
X102832380Y-87728571D01*
X102975238Y-87823809D01*
X103070476Y-87919047D01*
X103118095Y-88014285D01*
X102832380Y-86823809D02*
X102832380Y-86728571D01*
X102880000Y-86633333D01*
X102927619Y-86585714D01*
X103022857Y-86538095D01*
X103213333Y-86490476D01*
X103451428Y-86490476D01*
X103641904Y-86538095D01*
X103737142Y-86585714D01*
X103784761Y-86633333D01*
X103832380Y-86728571D01*
X103832380Y-86823809D01*
X103784761Y-86919047D01*
X103737142Y-86966666D01*
X103641904Y-87014285D01*
X103451428Y-87061904D01*
X103213333Y-87061904D01*
X103022857Y-87014285D01*
X102927619Y-86966666D01*
X102880000Y-86919047D01*
X102832380Y-86823809D01*
X103165714Y-85633333D02*
X103832380Y-85633333D01*
X103165714Y-86061904D02*
X103689523Y-86061904D01*
X103784761Y-86014285D01*
X103832380Y-85919047D01*
X103832380Y-85776190D01*
X103784761Y-85680952D01*
X103737142Y-85633333D01*
D12*
X101385714Y-86933333D02*
X101423809Y-86971428D01*
X101461904Y-87085714D01*
X101461904Y-87161904D01*
X101423809Y-87276190D01*
X101347619Y-87352380D01*
X101271428Y-87390476D01*
X101119047Y-87428571D01*
X101004761Y-87428571D01*
X100852380Y-87390476D01*
X100776190Y-87352380D01*
X100700000Y-87276190D01*
X100661904Y-87161904D01*
X100661904Y-87085714D01*
X100700000Y-86971428D01*
X100738095Y-86933333D01*
X101461904Y-86552380D02*
X101461904Y-86400000D01*
X101423809Y-86323809D01*
X101385714Y-86285714D01*
X101271428Y-86209523D01*
X101119047Y-86171428D01*
X100814285Y-86171428D01*
X100738095Y-86209523D01*
X100700000Y-86247619D01*
X100661904Y-86323809D01*
X100661904Y-86476190D01*
X100700000Y-86552380D01*
X100738095Y-86590476D01*
X100814285Y-86628571D01*
X101004761Y-86628571D01*
X101080952Y-86590476D01*
X101119047Y-86552380D01*
X101157142Y-86476190D01*
X101157142Y-86323809D01*
X101119047Y-86247619D01*
X101080952Y-86209523D01*
X101004761Y-86171428D01*
D11*
X177822380Y-60519047D02*
X177822380Y-61090476D01*
X177822380Y-60804761D02*
X176822380Y-60804761D01*
X176965238Y-60900000D01*
X177060476Y-60995238D01*
X177108095Y-61090476D01*
X176822380Y-59900000D02*
X176822380Y-59804761D01*
X176870000Y-59709523D01*
X176917619Y-59661904D01*
X177012857Y-59614285D01*
X177203333Y-59566666D01*
X177441428Y-59566666D01*
X177631904Y-59614285D01*
X177727142Y-59661904D01*
X177774761Y-59709523D01*
X177822380Y-59804761D01*
X177822380Y-59900000D01*
X177774761Y-59995238D01*
X177727142Y-60042857D01*
X177631904Y-60090476D01*
X177441428Y-60138095D01*
X177203333Y-60138095D01*
X177012857Y-60090476D01*
X176917619Y-60042857D01*
X176870000Y-59995238D01*
X176822380Y-59900000D01*
X176822380Y-58947619D02*
X176822380Y-58852380D01*
X176870000Y-58757142D01*
X176917619Y-58709523D01*
X177012857Y-58661904D01*
X177203333Y-58614285D01*
X177441428Y-58614285D01*
X177631904Y-58661904D01*
X177727142Y-58709523D01*
X177774761Y-58757142D01*
X177822380Y-58852380D01*
X177822380Y-58947619D01*
X177774761Y-59042857D01*
X177727142Y-59090476D01*
X177631904Y-59138095D01*
X177441428Y-59185714D01*
X177203333Y-59185714D01*
X177012857Y-59138095D01*
X176917619Y-59090476D01*
X176870000Y-59042857D01*
X176822380Y-58947619D01*
X177155714Y-58185714D02*
X177822380Y-58185714D01*
X177250952Y-58185714D02*
X177203333Y-58138095D01*
X177155714Y-58042857D01*
X177155714Y-57900000D01*
X177203333Y-57804761D01*
X177298571Y-57757142D01*
X177822380Y-57757142D01*
D13*
X178942857Y-59657142D02*
X178961904Y-59676190D01*
X178980952Y-59733333D01*
X178980952Y-59771428D01*
X178961904Y-59828571D01*
X178923809Y-59866666D01*
X178885714Y-59885714D01*
X178809523Y-59904761D01*
X178752380Y-59904761D01*
X178676190Y-59885714D01*
X178638095Y-59866666D01*
X178600000Y-59828571D01*
X178580952Y-59771428D01*
X178580952Y-59733333D01*
X178600000Y-59676190D01*
X178619047Y-59657142D01*
X178980952Y-59276190D02*
X178980952Y-59504761D01*
X178980952Y-59390476D02*
X178580952Y-59390476D01*
X178638095Y-59428571D01*
X178676190Y-59466666D01*
X178695238Y-59504761D01*
X178580952Y-59028571D02*
X178580952Y-58990476D01*
X178600000Y-58952380D01*
X178619047Y-58933333D01*
X178657142Y-58914285D01*
X178733333Y-58895238D01*
X178828571Y-58895238D01*
X178904761Y-58914285D01*
X178942857Y-58933333D01*
X178961904Y-58952380D01*
X178980952Y-58990476D01*
X178980952Y-59028571D01*
X178961904Y-59066666D01*
X178942857Y-59085714D01*
X178904761Y-59104761D01*
X178828571Y-59123809D01*
X178733333Y-59123809D01*
X178657142Y-59104761D01*
X178619047Y-59085714D01*
X178600000Y-59066666D01*
X178580952Y-59028571D01*
D11*
X195922380Y-60619047D02*
X195922380Y-61190476D01*
X195922380Y-60904761D02*
X194922380Y-60904761D01*
X195065238Y-61000000D01*
X195160476Y-61095238D01*
X195208095Y-61190476D01*
X194922380Y-60000000D02*
X194922380Y-59904761D01*
X194970000Y-59809523D01*
X195017619Y-59761904D01*
X195112857Y-59714285D01*
X195303333Y-59666666D01*
X195541428Y-59666666D01*
X195731904Y-59714285D01*
X195827142Y-59761904D01*
X195874761Y-59809523D01*
X195922380Y-59904761D01*
X195922380Y-60000000D01*
X195874761Y-60095238D01*
X195827142Y-60142857D01*
X195731904Y-60190476D01*
X195541428Y-60238095D01*
X195303333Y-60238095D01*
X195112857Y-60190476D01*
X195017619Y-60142857D01*
X194970000Y-60095238D01*
X194922380Y-60000000D01*
X194922380Y-59047619D02*
X194922380Y-58952380D01*
X194970000Y-58857142D01*
X195017619Y-58809523D01*
X195112857Y-58761904D01*
X195303333Y-58714285D01*
X195541428Y-58714285D01*
X195731904Y-58761904D01*
X195827142Y-58809523D01*
X195874761Y-58857142D01*
X195922380Y-58952380D01*
X195922380Y-59047619D01*
X195874761Y-59142857D01*
X195827142Y-59190476D01*
X195731904Y-59238095D01*
X195541428Y-59285714D01*
X195303333Y-59285714D01*
X195112857Y-59238095D01*
X195017619Y-59190476D01*
X194970000Y-59142857D01*
X194922380Y-59047619D01*
X195255714Y-58285714D02*
X195922380Y-58285714D01*
X195350952Y-58285714D02*
X195303333Y-58238095D01*
X195255714Y-58142857D01*
X195255714Y-58000000D01*
X195303333Y-57904761D01*
X195398571Y-57857142D01*
X195922380Y-57857142D01*
D13*
X197042857Y-59757142D02*
X197061904Y-59776190D01*
X197080952Y-59833333D01*
X197080952Y-59871428D01*
X197061904Y-59928571D01*
X197023809Y-59966666D01*
X196985714Y-59985714D01*
X196909523Y-60004761D01*
X196852380Y-60004761D01*
X196776190Y-59985714D01*
X196738095Y-59966666D01*
X196700000Y-59928571D01*
X196680952Y-59871428D01*
X196680952Y-59833333D01*
X196700000Y-59776190D01*
X196719047Y-59757142D01*
X197080952Y-59376190D02*
X197080952Y-59604761D01*
X197080952Y-59490476D02*
X196680952Y-59490476D01*
X196738095Y-59528571D01*
X196776190Y-59566666D01*
X196795238Y-59604761D01*
X196680952Y-59242857D02*
X196680952Y-58995238D01*
X196833333Y-59128571D01*
X196833333Y-59071428D01*
X196852380Y-59033333D01*
X196871428Y-59014285D01*
X196909523Y-58995238D01*
X197004761Y-58995238D01*
X197042857Y-59014285D01*
X197061904Y-59033333D01*
X197080952Y-59071428D01*
X197080952Y-59185714D01*
X197061904Y-59223809D01*
X197042857Y-59242857D01*
D11*
X204782380Y-51219047D02*
X204782380Y-51790476D01*
X204782380Y-51504761D02*
X203782380Y-51504761D01*
X203925238Y-51600000D01*
X204020476Y-51695238D01*
X204068095Y-51790476D01*
X203782380Y-50600000D02*
X203782380Y-50504761D01*
X203830000Y-50409523D01*
X203877619Y-50361904D01*
X203972857Y-50314285D01*
X204163333Y-50266666D01*
X204401428Y-50266666D01*
X204591904Y-50314285D01*
X204687142Y-50361904D01*
X204734761Y-50409523D01*
X204782380Y-50504761D01*
X204782380Y-50600000D01*
X204734761Y-50695238D01*
X204687142Y-50742857D01*
X204591904Y-50790476D01*
X204401428Y-50838095D01*
X204163333Y-50838095D01*
X203972857Y-50790476D01*
X203877619Y-50742857D01*
X203830000Y-50695238D01*
X203782380Y-50600000D01*
X203782380Y-49647619D02*
X203782380Y-49552380D01*
X203830000Y-49457142D01*
X203877619Y-49409523D01*
X203972857Y-49361904D01*
X204163333Y-49314285D01*
X204401428Y-49314285D01*
X204591904Y-49361904D01*
X204687142Y-49409523D01*
X204734761Y-49457142D01*
X204782380Y-49552380D01*
X204782380Y-49647619D01*
X204734761Y-49742857D01*
X204687142Y-49790476D01*
X204591904Y-49838095D01*
X204401428Y-49885714D01*
X204163333Y-49885714D01*
X203972857Y-49838095D01*
X203877619Y-49790476D01*
X203830000Y-49742857D01*
X203782380Y-49647619D01*
X204115714Y-48885714D02*
X204782380Y-48885714D01*
X204210952Y-48885714D02*
X204163333Y-48838095D01*
X204115714Y-48742857D01*
X204115714Y-48600000D01*
X204163333Y-48504761D01*
X204258571Y-48457142D01*
X204782380Y-48457142D01*
D13*
X203042857Y-50357142D02*
X203061904Y-50376190D01*
X203080952Y-50433333D01*
X203080952Y-50471428D01*
X203061904Y-50528571D01*
X203023809Y-50566666D01*
X202985714Y-50585714D01*
X202909523Y-50604761D01*
X202852380Y-50604761D01*
X202776190Y-50585714D01*
X202738095Y-50566666D01*
X202700000Y-50528571D01*
X202680952Y-50471428D01*
X202680952Y-50433333D01*
X202700000Y-50376190D01*
X202719047Y-50357142D01*
X203080952Y-49976190D02*
X203080952Y-50204761D01*
X203080952Y-50090476D02*
X202680952Y-50090476D01*
X202738095Y-50128571D01*
X202776190Y-50166666D01*
X202795238Y-50204761D01*
X202814285Y-49633333D02*
X203080952Y-49633333D01*
X202661904Y-49728571D02*
X202947619Y-49823809D01*
X202947619Y-49576190D01*
D11*
X65537142Y-91571428D02*
X65584761Y-91619047D01*
X65632380Y-91761904D01*
X65632380Y-91857142D01*
X65584761Y-92000000D01*
X65489523Y-92095238D01*
X65394285Y-92142857D01*
X65203809Y-92190476D01*
X65060952Y-92190476D01*
X64870476Y-92142857D01*
X64775238Y-92095238D01*
X64680000Y-92000000D01*
X64632380Y-91857142D01*
X64632380Y-91761904D01*
X64680000Y-91619047D01*
X64727619Y-91571428D01*
X64632380Y-90714285D02*
X64632380Y-90904761D01*
X64680000Y-91000000D01*
X64727619Y-91047619D01*
X64870476Y-91142857D01*
X65060952Y-91190476D01*
X65441904Y-91190476D01*
X65537142Y-91142857D01*
X65584761Y-91095238D01*
X65632380Y-91000000D01*
X65632380Y-90809523D01*
X65584761Y-90714285D01*
X65537142Y-90666666D01*
X65441904Y-90619047D01*
X65203809Y-90619047D01*
X65108571Y-90666666D01*
X65060952Y-90714285D01*
X65013333Y-90809523D01*
X65013333Y-91000000D01*
X65060952Y-91095238D01*
X65108571Y-91142857D01*
X65203809Y-91190476D01*
X64965714Y-89761904D02*
X65632380Y-89761904D01*
X64584761Y-90000000D02*
X65299047Y-90238095D01*
X65299047Y-89619047D01*
X65346666Y-89285714D02*
X65346666Y-88809523D01*
X65632380Y-89380952D02*
X64632380Y-89047619D01*
X65632380Y-88714285D01*
X65537142Y-87809523D02*
X65584761Y-87857142D01*
X65632380Y-88000000D01*
X65632380Y-88095238D01*
X65584761Y-88238095D01*
X65489523Y-88333333D01*
X65394285Y-88380952D01*
X65203809Y-88428571D01*
X65060952Y-88428571D01*
X64870476Y-88380952D01*
X64775238Y-88333333D01*
X64680000Y-88238095D01*
X64632380Y-88095238D01*
X64632380Y-88000000D01*
X64680000Y-87857142D01*
X64727619Y-87809523D01*
X216752380Y-77833333D02*
X217466666Y-77833333D01*
X217609523Y-77880952D01*
X217704761Y-77976190D01*
X217752380Y-78119047D01*
X217752380Y-78214285D01*
X216847619Y-77404761D02*
X216800000Y-77357142D01*
X216752380Y-77261904D01*
X216752380Y-77023809D01*
X216800000Y-76928571D01*
X216847619Y-76880952D01*
X216942857Y-76833333D01*
X217038095Y-76833333D01*
X217180952Y-76880952D01*
X217752380Y-77452380D01*
X217752380Y-76833333D01*
X222252380Y-102733333D02*
X222966666Y-102733333D01*
X223109523Y-102780952D01*
X223204761Y-102876190D01*
X223252380Y-103019047D01*
X223252380Y-103114285D01*
X222252380Y-102352380D02*
X222252380Y-101733333D01*
X222633333Y-102066666D01*
X222633333Y-101923809D01*
X222680952Y-101828571D01*
X222728571Y-101780952D01*
X222823809Y-101733333D01*
X223061904Y-101733333D01*
X223157142Y-101780952D01*
X223204761Y-101828571D01*
X223252380Y-101923809D01*
X223252380Y-102209523D01*
X223204761Y-102304761D01*
X223157142Y-102352380D01*
X216772380Y-55453333D02*
X217486666Y-55453333D01*
X217629523Y-55500952D01*
X217724761Y-55596190D01*
X217772380Y-55739047D01*
X217772380Y-55834285D01*
X216772380Y-54500952D02*
X216772380Y-54977142D01*
X217248571Y-55024761D01*
X217200952Y-54977142D01*
X217153333Y-54881904D01*
X217153333Y-54643809D01*
X217200952Y-54548571D01*
X217248571Y-54500952D01*
X217343809Y-54453333D01*
X217581904Y-54453333D01*
X217677142Y-54500952D01*
X217724761Y-54548571D01*
X217772380Y-54643809D01*
X217772380Y-54881904D01*
X217724761Y-54977142D01*
X217677142Y-55024761D01*
X93519047Y-50032380D02*
X93042857Y-50032380D01*
X93042857Y-49032380D01*
X93995238Y-50032380D02*
X93900000Y-49984761D01*
X93852380Y-49937142D01*
X93804761Y-49841904D01*
X93804761Y-49556190D01*
X93852380Y-49460952D01*
X93900000Y-49413333D01*
X93995238Y-49365714D01*
X94138095Y-49365714D01*
X94233333Y-49413333D01*
X94280952Y-49460952D01*
X94328571Y-49556190D01*
X94328571Y-49841904D01*
X94280952Y-49937142D01*
X94233333Y-49984761D01*
X94138095Y-50032380D01*
X93995238Y-50032380D01*
X95185714Y-49365714D02*
X95185714Y-50175238D01*
X95138095Y-50270476D01*
X95090476Y-50318095D01*
X94995238Y-50365714D01*
X94852380Y-50365714D01*
X94757142Y-50318095D01*
X95185714Y-49984761D02*
X95090476Y-50032380D01*
X94900000Y-50032380D01*
X94804761Y-49984761D01*
X94757142Y-49937142D01*
X94709523Y-49841904D01*
X94709523Y-49556190D01*
X94757142Y-49460952D01*
X94804761Y-49413333D01*
X94900000Y-49365714D01*
X95090476Y-49365714D01*
X95185714Y-49413333D01*
X95804761Y-50032380D02*
X95709523Y-49984761D01*
X95661904Y-49937142D01*
X95614285Y-49841904D01*
X95614285Y-49556190D01*
X95661904Y-49460952D01*
X95709523Y-49413333D01*
X95804761Y-49365714D01*
X95947619Y-49365714D01*
X96042857Y-49413333D01*
X96090476Y-49460952D01*
X96138095Y-49556190D01*
X96138095Y-49841904D01*
X96090476Y-49937142D01*
X96042857Y-49984761D01*
X95947619Y-50032380D01*
X95804761Y-50032380D01*
X96328571Y-50127619D02*
X97090476Y-50127619D01*
X97280952Y-49746666D02*
X97757142Y-49746666D01*
X97185714Y-50032380D02*
X97519047Y-49032380D01*
X97852380Y-50032380D01*
X98185714Y-50032380D02*
X98185714Y-49032380D01*
X98566666Y-49032380D01*
X98661904Y-49080000D01*
X98709523Y-49127619D01*
X98757142Y-49222857D01*
X98757142Y-49365714D01*
X98709523Y-49460952D01*
X98661904Y-49508571D01*
X98566666Y-49556190D01*
X98185714Y-49556190D01*
X99852380Y-50127619D02*
X99757142Y-50080000D01*
X99661904Y-49984761D01*
X99519047Y-49841904D01*
X99423809Y-49794285D01*
X99328571Y-49794285D01*
X99376190Y-50032380D02*
X99280952Y-49984761D01*
X99185714Y-49889523D01*
X99138095Y-49699047D01*
X99138095Y-49365714D01*
X99185714Y-49175238D01*
X99280952Y-49080000D01*
X99376190Y-49032380D01*
X99566666Y-49032380D01*
X99661904Y-49080000D01*
X99757142Y-49175238D01*
X99804761Y-49365714D01*
X99804761Y-49699047D01*
X99757142Y-49889523D01*
X99661904Y-49984761D01*
X99566666Y-50032380D01*
X99376190Y-50032380D01*
X197082380Y-57019047D02*
X197082380Y-57590476D01*
X197082380Y-57304761D02*
X196082380Y-57304761D01*
X196225238Y-57400000D01*
X196320476Y-57495238D01*
X196368095Y-57590476D01*
X197082380Y-56590476D02*
X196082380Y-56590476D01*
X196701428Y-56495238D02*
X197082380Y-56209523D01*
X196415714Y-56209523D02*
X196796666Y-56590476D01*
D13*
X195380952Y-56966666D02*
X195190476Y-57100000D01*
X195380952Y-57195238D02*
X194980952Y-57195238D01*
X194980952Y-57042857D01*
X195000000Y-57004761D01*
X195019047Y-56985714D01*
X195057142Y-56966666D01*
X195114285Y-56966666D01*
X195152380Y-56985714D01*
X195171428Y-57004761D01*
X195190476Y-57042857D01*
X195190476Y-57195238D01*
X194980952Y-56833333D02*
X194980952Y-56585714D01*
X195133333Y-56719047D01*
X195133333Y-56661904D01*
X195152380Y-56623809D01*
X195171428Y-56604761D01*
X195209523Y-56585714D01*
X195304761Y-56585714D01*
X195342857Y-56604761D01*
X195361904Y-56623809D01*
X195380952Y-56661904D01*
X195380952Y-56776190D01*
X195361904Y-56814285D01*
X195342857Y-56833333D01*
D11*
X197082380Y-53719047D02*
X197082380Y-54290476D01*
X197082380Y-54004761D02*
X196082380Y-54004761D01*
X196225238Y-54100000D01*
X196320476Y-54195238D01*
X196368095Y-54290476D01*
X197082380Y-53290476D02*
X196082380Y-53290476D01*
X196701428Y-53195238D02*
X197082380Y-52909523D01*
X196415714Y-52909523D02*
X196796666Y-53290476D01*
D13*
X195380952Y-53666666D02*
X195190476Y-53800000D01*
X195380952Y-53895238D02*
X194980952Y-53895238D01*
X194980952Y-53742857D01*
X195000000Y-53704761D01*
X195019047Y-53685714D01*
X195057142Y-53666666D01*
X195114285Y-53666666D01*
X195152380Y-53685714D01*
X195171428Y-53704761D01*
X195190476Y-53742857D01*
X195190476Y-53895238D01*
X194980952Y-53304761D02*
X194980952Y-53495238D01*
X195171428Y-53514285D01*
X195152380Y-53495238D01*
X195133333Y-53457142D01*
X195133333Y-53361904D01*
X195152380Y-53323809D01*
X195171428Y-53304761D01*
X195209523Y-53285714D01*
X195304761Y-53285714D01*
X195342857Y-53304761D01*
X195361904Y-53323809D01*
X195380952Y-53361904D01*
X195380952Y-53457142D01*
X195361904Y-53495238D01*
X195342857Y-53514285D01*
D11*
X207900000Y-52605714D02*
X207900000Y-53272380D01*
X207661904Y-52224761D02*
X207423809Y-52939047D01*
X208042857Y-52939047D01*
X208471428Y-53272380D02*
X208661904Y-53272380D01*
X208757142Y-53224761D01*
X208804761Y-53177142D01*
X208900000Y-53034285D01*
X208947619Y-52843809D01*
X208947619Y-52462857D01*
X208900000Y-52367619D01*
X208852380Y-52320000D01*
X208757142Y-52272380D01*
X208566666Y-52272380D01*
X208471428Y-52320000D01*
X208423809Y-52367619D01*
X208376190Y-52462857D01*
X208376190Y-52700952D01*
X208423809Y-52796190D01*
X208471428Y-52843809D01*
X208566666Y-52891428D01*
X208757142Y-52891428D01*
X208852380Y-52843809D01*
X208900000Y-52796190D01*
X208947619Y-52700952D01*
X209376190Y-53177142D02*
X209423809Y-53224761D01*
X209376190Y-53272380D01*
X209328571Y-53224761D01*
X209376190Y-53177142D01*
X209376190Y-53272380D01*
X209900000Y-53272380D02*
X210090476Y-53272380D01*
X210185714Y-53224761D01*
X210233333Y-53177142D01*
X210328571Y-53034285D01*
X210376190Y-52843809D01*
X210376190Y-52462857D01*
X210328571Y-52367619D01*
X210280952Y-52320000D01*
X210185714Y-52272380D01*
X209995238Y-52272380D01*
X209900000Y-52320000D01*
X209852380Y-52367619D01*
X209804761Y-52462857D01*
X209804761Y-52700952D01*
X209852380Y-52796190D01*
X209900000Y-52843809D01*
X209995238Y-52891428D01*
X210185714Y-52891428D01*
X210280952Y-52843809D01*
X210328571Y-52796190D01*
X210376190Y-52700952D01*
D12*
X208766666Y-55461904D02*
X208500000Y-55080952D01*
X208309523Y-55461904D02*
X208309523Y-54661904D01*
X208614285Y-54661904D01*
X208690476Y-54700000D01*
X208728571Y-54738095D01*
X208766666Y-54814285D01*
X208766666Y-54928571D01*
X208728571Y-55004761D01*
X208690476Y-55042857D01*
X208614285Y-55080952D01*
X208309523Y-55080952D01*
X209223809Y-55004761D02*
X209147619Y-54966666D01*
X209109523Y-54928571D01*
X209071428Y-54852380D01*
X209071428Y-54814285D01*
X209109523Y-54738095D01*
X209147619Y-54700000D01*
X209223809Y-54661904D01*
X209376190Y-54661904D01*
X209452380Y-54700000D01*
X209490476Y-54738095D01*
X209528571Y-54814285D01*
X209528571Y-54852380D01*
X209490476Y-54928571D01*
X209452380Y-54966666D01*
X209376190Y-55004761D01*
X209223809Y-55004761D01*
X209147619Y-55042857D01*
X209109523Y-55080952D01*
X209071428Y-55157142D01*
X209071428Y-55309523D01*
X209109523Y-55385714D01*
X209147619Y-55423809D01*
X209223809Y-55461904D01*
X209376190Y-55461904D01*
X209452380Y-55423809D01*
X209490476Y-55385714D01*
X209528571Y-55309523D01*
X209528571Y-55157142D01*
X209490476Y-55080952D01*
X209452380Y-55042857D01*
X209376190Y-55004761D01*
D11*
X175433333Y-52682380D02*
X174861904Y-52682380D01*
X175147619Y-52682380D02*
X175147619Y-51682380D01*
X175052380Y-51825238D01*
X174957142Y-51920476D01*
X174861904Y-51968095D01*
X176338095Y-51682380D02*
X175861904Y-51682380D01*
X175814285Y-52158571D01*
X175861904Y-52110952D01*
X175957142Y-52063333D01*
X176195238Y-52063333D01*
X176290476Y-52110952D01*
X176338095Y-52158571D01*
X176385714Y-52253809D01*
X176385714Y-52491904D01*
X176338095Y-52587142D01*
X176290476Y-52634761D01*
X176195238Y-52682380D01*
X175957142Y-52682380D01*
X175861904Y-52634761D01*
X175814285Y-52587142D01*
X177242857Y-52015714D02*
X177242857Y-52682380D01*
X177004761Y-51634761D02*
X176766666Y-52349047D01*
X177385714Y-52349047D01*
D13*
X175480952Y-50980952D02*
X175347619Y-50790476D01*
X175252380Y-50980952D02*
X175252380Y-50580952D01*
X175404761Y-50580952D01*
X175442857Y-50600000D01*
X175461904Y-50619047D01*
X175480952Y-50657142D01*
X175480952Y-50714285D01*
X175461904Y-50752380D01*
X175442857Y-50771428D01*
X175404761Y-50790476D01*
X175252380Y-50790476D01*
X175861904Y-50980952D02*
X175633333Y-50980952D01*
X175747619Y-50980952D02*
X175747619Y-50580952D01*
X175709523Y-50638095D01*
X175671428Y-50676190D01*
X175633333Y-50695238D01*
X176242857Y-50980952D02*
X176014285Y-50980952D01*
X176128571Y-50980952D02*
X176128571Y-50580952D01*
X176090476Y-50638095D01*
X176052380Y-50676190D01*
X176014285Y-50695238D01*
X176395238Y-50866666D02*
X176585714Y-50866666D01*
X176357142Y-50980952D02*
X176490476Y-50580952D01*
X176623809Y-50980952D01*
X176966666Y-50980952D02*
X176738095Y-50980952D01*
X176852380Y-50980952D02*
X176852380Y-50580952D01*
X176814285Y-50638095D01*
X176776190Y-50676190D01*
X176738095Y-50695238D01*
D11*
X189682380Y-57566666D02*
X189682380Y-58138095D01*
X189682380Y-57852380D02*
X188682380Y-57852380D01*
X188825238Y-57947619D01*
X188920476Y-58042857D01*
X188968095Y-58138095D01*
X188682380Y-56661904D02*
X188682380Y-57138095D01*
X189158571Y-57185714D01*
X189110952Y-57138095D01*
X189063333Y-57042857D01*
X189063333Y-56804761D01*
X189110952Y-56709523D01*
X189158571Y-56661904D01*
X189253809Y-56614285D01*
X189491904Y-56614285D01*
X189587142Y-56661904D01*
X189634761Y-56709523D01*
X189682380Y-56804761D01*
X189682380Y-57042857D01*
X189634761Y-57138095D01*
X189587142Y-57185714D01*
X189110952Y-56042857D02*
X189063333Y-56138095D01*
X189015714Y-56185714D01*
X188920476Y-56233333D01*
X188872857Y-56233333D01*
X188777619Y-56185714D01*
X188730000Y-56138095D01*
X188682380Y-56042857D01*
X188682380Y-55852380D01*
X188730000Y-55757142D01*
X188777619Y-55709523D01*
X188872857Y-55661904D01*
X188920476Y-55661904D01*
X189015714Y-55709523D01*
X189063333Y-55757142D01*
X189110952Y-55852380D01*
X189110952Y-56042857D01*
X189158571Y-56138095D01*
X189206190Y-56185714D01*
X189301428Y-56233333D01*
X189491904Y-56233333D01*
X189587142Y-56185714D01*
X189634761Y-56138095D01*
X189682380Y-56042857D01*
X189682380Y-55852380D01*
X189634761Y-55757142D01*
X189587142Y-55709523D01*
X189491904Y-55661904D01*
X189301428Y-55661904D01*
X189206190Y-55709523D01*
X189158571Y-55757142D01*
X189110952Y-55852380D01*
D13*
X187980952Y-57519047D02*
X187790476Y-57652380D01*
X187980952Y-57747619D02*
X187580952Y-57747619D01*
X187580952Y-57595238D01*
X187600000Y-57557142D01*
X187619047Y-57538095D01*
X187657142Y-57519047D01*
X187714285Y-57519047D01*
X187752380Y-57538095D01*
X187771428Y-57557142D01*
X187790476Y-57595238D01*
X187790476Y-57747619D01*
X187980952Y-57138095D02*
X187980952Y-57366666D01*
X187980952Y-57252380D02*
X187580952Y-57252380D01*
X187638095Y-57290476D01*
X187676190Y-57328571D01*
X187695238Y-57366666D01*
X187619047Y-56985714D02*
X187600000Y-56966666D01*
X187580952Y-56928571D01*
X187580952Y-56833333D01*
X187600000Y-56795238D01*
X187619047Y-56776190D01*
X187657142Y-56757142D01*
X187695238Y-56757142D01*
X187752380Y-56776190D01*
X187980952Y-57004761D01*
X187980952Y-56757142D01*
X187866666Y-56604761D02*
X187866666Y-56414285D01*
X187980952Y-56642857D02*
X187580952Y-56509523D01*
X187980952Y-56376190D01*
X187980952Y-56033333D02*
X187980952Y-56261904D01*
X187980952Y-56147619D02*
X187580952Y-56147619D01*
X187638095Y-56185714D01*
X187676190Y-56223809D01*
X187695238Y-56261904D01*
D11*
X174222380Y-54066666D02*
X174222380Y-54638095D01*
X174222380Y-54352380D02*
X173222380Y-54352380D01*
X173365238Y-54447619D01*
X173460476Y-54542857D01*
X173508095Y-54638095D01*
X173222380Y-53161904D02*
X173222380Y-53638095D01*
X173698571Y-53685714D01*
X173650952Y-53638095D01*
X173603333Y-53542857D01*
X173603333Y-53304761D01*
X173650952Y-53209523D01*
X173698571Y-53161904D01*
X173793809Y-53114285D01*
X174031904Y-53114285D01*
X174127142Y-53161904D01*
X174174761Y-53209523D01*
X174222380Y-53304761D01*
X174222380Y-53542857D01*
X174174761Y-53638095D01*
X174127142Y-53685714D01*
X173555714Y-52257142D02*
X174222380Y-52257142D01*
X173174761Y-52495238D02*
X173889047Y-52733333D01*
X173889047Y-52114285D01*
D13*
X175380952Y-54019047D02*
X175190476Y-54152380D01*
X175380952Y-54247619D02*
X174980952Y-54247619D01*
X174980952Y-54095238D01*
X175000000Y-54057142D01*
X175019047Y-54038095D01*
X175057142Y-54019047D01*
X175114285Y-54019047D01*
X175152380Y-54038095D01*
X175171428Y-54057142D01*
X175190476Y-54095238D01*
X175190476Y-54247619D01*
X175019047Y-53866666D02*
X175000000Y-53847619D01*
X174980952Y-53809523D01*
X174980952Y-53714285D01*
X175000000Y-53676190D01*
X175019047Y-53657142D01*
X175057142Y-53638095D01*
X175095238Y-53638095D01*
X175152380Y-53657142D01*
X175380952Y-53885714D01*
X175380952Y-53638095D01*
X175380952Y-53257142D02*
X175380952Y-53485714D01*
X175380952Y-53371428D02*
X174980952Y-53371428D01*
X175038095Y-53409523D01*
X175076190Y-53447619D01*
X175095238Y-53485714D01*
X175266666Y-53104761D02*
X175266666Y-52914285D01*
X175380952Y-53142857D02*
X174980952Y-53009523D01*
X175380952Y-52876190D01*
X175380952Y-52533333D02*
X175380952Y-52761904D01*
X175380952Y-52647619D02*
X174980952Y-52647619D01*
X175038095Y-52685714D01*
X175076190Y-52723809D01*
X175095238Y-52761904D01*
D11*
X186822380Y-54066666D02*
X186822380Y-54638095D01*
X186822380Y-54352380D02*
X185822380Y-54352380D01*
X185965238Y-54447619D01*
X186060476Y-54542857D01*
X186108095Y-54638095D01*
X185822380Y-53161904D02*
X185822380Y-53638095D01*
X186298571Y-53685714D01*
X186250952Y-53638095D01*
X186203333Y-53542857D01*
X186203333Y-53304761D01*
X186250952Y-53209523D01*
X186298571Y-53161904D01*
X186393809Y-53114285D01*
X186631904Y-53114285D01*
X186727142Y-53161904D01*
X186774761Y-53209523D01*
X186822380Y-53304761D01*
X186822380Y-53542857D01*
X186774761Y-53638095D01*
X186727142Y-53685714D01*
X186250952Y-52542857D02*
X186203333Y-52638095D01*
X186155714Y-52685714D01*
X186060476Y-52733333D01*
X186012857Y-52733333D01*
X185917619Y-52685714D01*
X185870000Y-52638095D01*
X185822380Y-52542857D01*
X185822380Y-52352380D01*
X185870000Y-52257142D01*
X185917619Y-52209523D01*
X186012857Y-52161904D01*
X186060476Y-52161904D01*
X186155714Y-52209523D01*
X186203333Y-52257142D01*
X186250952Y-52352380D01*
X186250952Y-52542857D01*
X186298571Y-52638095D01*
X186346190Y-52685714D01*
X186441428Y-52733333D01*
X186631904Y-52733333D01*
X186727142Y-52685714D01*
X186774761Y-52638095D01*
X186822380Y-52542857D01*
X186822380Y-52352380D01*
X186774761Y-52257142D01*
X186727142Y-52209523D01*
X186631904Y-52161904D01*
X186441428Y-52161904D01*
X186346190Y-52209523D01*
X186298571Y-52257142D01*
X186250952Y-52352380D01*
D13*
X187980952Y-54019047D02*
X187790476Y-54152380D01*
X187980952Y-54247619D02*
X187580952Y-54247619D01*
X187580952Y-54095238D01*
X187600000Y-54057142D01*
X187619047Y-54038095D01*
X187657142Y-54019047D01*
X187714285Y-54019047D01*
X187752380Y-54038095D01*
X187771428Y-54057142D01*
X187790476Y-54095238D01*
X187790476Y-54247619D01*
X187619047Y-53866666D02*
X187600000Y-53847619D01*
X187580952Y-53809523D01*
X187580952Y-53714285D01*
X187600000Y-53676190D01*
X187619047Y-53657142D01*
X187657142Y-53638095D01*
X187695238Y-53638095D01*
X187752380Y-53657142D01*
X187980952Y-53885714D01*
X187980952Y-53638095D01*
X187619047Y-53485714D02*
X187600000Y-53466666D01*
X187580952Y-53428571D01*
X187580952Y-53333333D01*
X187600000Y-53295238D01*
X187619047Y-53276190D01*
X187657142Y-53257142D01*
X187695238Y-53257142D01*
X187752380Y-53276190D01*
X187980952Y-53504761D01*
X187980952Y-53257142D01*
X187866666Y-53104761D02*
X187866666Y-52914285D01*
X187980952Y-53142857D02*
X187580952Y-53009523D01*
X187980952Y-52876190D01*
X187980952Y-52533333D02*
X187980952Y-52761904D01*
X187980952Y-52647619D02*
X187580952Y-52647619D01*
X187638095Y-52685714D01*
X187676190Y-52723809D01*
X187695238Y-52761904D01*
D11*
X176022380Y-54066666D02*
X176022380Y-54638095D01*
X176022380Y-54352380D02*
X175022380Y-54352380D01*
X175165238Y-54447619D01*
X175260476Y-54542857D01*
X175308095Y-54638095D01*
X176022380Y-53590476D02*
X176022380Y-53400000D01*
X175974761Y-53304761D01*
X175927142Y-53257142D01*
X175784285Y-53161904D01*
X175593809Y-53114285D01*
X175212857Y-53114285D01*
X175117619Y-53161904D01*
X175070000Y-53209523D01*
X175022380Y-53304761D01*
X175022380Y-53495238D01*
X175070000Y-53590476D01*
X175117619Y-53638095D01*
X175212857Y-53685714D01*
X175450952Y-53685714D01*
X175546190Y-53638095D01*
X175593809Y-53590476D01*
X175641428Y-53495238D01*
X175641428Y-53304761D01*
X175593809Y-53209523D01*
X175546190Y-53161904D01*
X175450952Y-53114285D01*
X175022380Y-52257142D02*
X175022380Y-52447619D01*
X175070000Y-52542857D01*
X175117619Y-52590476D01*
X175260476Y-52685714D01*
X175450952Y-52733333D01*
X175831904Y-52733333D01*
X175927142Y-52685714D01*
X175974761Y-52638095D01*
X176022380Y-52542857D01*
X176022380Y-52352380D01*
X175974761Y-52257142D01*
X175927142Y-52209523D01*
X175831904Y-52161904D01*
X175593809Y-52161904D01*
X175498571Y-52209523D01*
X175450952Y-52257142D01*
X175403333Y-52352380D01*
X175403333Y-52542857D01*
X175450952Y-52638095D01*
X175498571Y-52685714D01*
X175593809Y-52733333D01*
D13*
X177180952Y-54019047D02*
X176990476Y-54152380D01*
X177180952Y-54247619D02*
X176780952Y-54247619D01*
X176780952Y-54095238D01*
X176800000Y-54057142D01*
X176819047Y-54038095D01*
X176857142Y-54019047D01*
X176914285Y-54019047D01*
X176952380Y-54038095D01*
X176971428Y-54057142D01*
X176990476Y-54095238D01*
X176990476Y-54247619D01*
X176780952Y-53885714D02*
X176780952Y-53638095D01*
X176933333Y-53771428D01*
X176933333Y-53714285D01*
X176952380Y-53676190D01*
X176971428Y-53657142D01*
X177009523Y-53638095D01*
X177104761Y-53638095D01*
X177142857Y-53657142D01*
X177161904Y-53676190D01*
X177180952Y-53714285D01*
X177180952Y-53828571D01*
X177161904Y-53866666D01*
X177142857Y-53885714D01*
X177180952Y-53257142D02*
X177180952Y-53485714D01*
X177180952Y-53371428D02*
X176780952Y-53371428D01*
X176838095Y-53409523D01*
X176876190Y-53447619D01*
X176895238Y-53485714D01*
X177066666Y-53104761D02*
X177066666Y-52914285D01*
X177180952Y-53142857D02*
X176780952Y-53009523D01*
X177180952Y-52876190D01*
X177180952Y-52533333D02*
X177180952Y-52761904D01*
X177180952Y-52647619D02*
X176780952Y-52647619D01*
X176838095Y-52685714D01*
X176876190Y-52723809D01*
X176895238Y-52761904D01*
D11*
X186982380Y-54400000D02*
X186982380Y-54590476D01*
X187030000Y-54685714D01*
X187077619Y-54733333D01*
X187220476Y-54828571D01*
X187410952Y-54876190D01*
X187791904Y-54876190D01*
X187887142Y-54828571D01*
X187934761Y-54780952D01*
X187982380Y-54685714D01*
X187982380Y-54495238D01*
X187934761Y-54400000D01*
X187887142Y-54352380D01*
X187791904Y-54304761D01*
X187553809Y-54304761D01*
X187458571Y-54352380D01*
X187410952Y-54400000D01*
X187363333Y-54495238D01*
X187363333Y-54685714D01*
X187410952Y-54780952D01*
X187458571Y-54828571D01*
X187553809Y-54876190D01*
X187982380Y-53352380D02*
X187982380Y-53923809D01*
X187982380Y-53638095D02*
X186982380Y-53638095D01*
X187125238Y-53733333D01*
X187220476Y-53828571D01*
X187268095Y-53923809D01*
X187887142Y-52923809D02*
X187934761Y-52876190D01*
X187982380Y-52923809D01*
X187934761Y-52971428D01*
X187887142Y-52923809D01*
X187982380Y-52923809D01*
X187982380Y-52400000D02*
X187982380Y-52209523D01*
X187934761Y-52114285D01*
X187887142Y-52066666D01*
X187744285Y-51971428D01*
X187553809Y-51923809D01*
X187172857Y-51923809D01*
X187077619Y-51971428D01*
X187030000Y-52019047D01*
X186982380Y-52114285D01*
X186982380Y-52304761D01*
X187030000Y-52400000D01*
X187077619Y-52447619D01*
X187172857Y-52495238D01*
X187410952Y-52495238D01*
X187506190Y-52447619D01*
X187553809Y-52400000D01*
X187601428Y-52304761D01*
X187601428Y-52114285D01*
X187553809Y-52019047D01*
X187506190Y-51971428D01*
X187410952Y-51923809D01*
D13*
X186280952Y-54019047D02*
X186090476Y-54152380D01*
X186280952Y-54247619D02*
X185880952Y-54247619D01*
X185880952Y-54095238D01*
X185900000Y-54057142D01*
X185919047Y-54038095D01*
X185957142Y-54019047D01*
X186014285Y-54019047D01*
X186052380Y-54038095D01*
X186071428Y-54057142D01*
X186090476Y-54095238D01*
X186090476Y-54247619D01*
X185880952Y-53885714D02*
X185880952Y-53638095D01*
X186033333Y-53771428D01*
X186033333Y-53714285D01*
X186052380Y-53676190D01*
X186071428Y-53657142D01*
X186109523Y-53638095D01*
X186204761Y-53638095D01*
X186242857Y-53657142D01*
X186261904Y-53676190D01*
X186280952Y-53714285D01*
X186280952Y-53828571D01*
X186261904Y-53866666D01*
X186242857Y-53885714D01*
X185919047Y-53485714D02*
X185900000Y-53466666D01*
X185880952Y-53428571D01*
X185880952Y-53333333D01*
X185900000Y-53295238D01*
X185919047Y-53276190D01*
X185957142Y-53257142D01*
X185995238Y-53257142D01*
X186052380Y-53276190D01*
X186280952Y-53504761D01*
X186280952Y-53257142D01*
X186166666Y-53104761D02*
X186166666Y-52914285D01*
X186280952Y-53142857D02*
X185880952Y-53009523D01*
X186280952Y-52876190D01*
X186280952Y-52533333D02*
X186280952Y-52761904D01*
X186280952Y-52647619D02*
X185880952Y-52647619D01*
X185938095Y-52685714D01*
X185976190Y-52723809D01*
X185995238Y-52761904D01*
D11*
X196971428Y-57652380D02*
X197161904Y-57652380D01*
X197257142Y-57700000D01*
X197352380Y-57795238D01*
X197400000Y-57985714D01*
X197400000Y-58319047D01*
X197352380Y-58509523D01*
X197257142Y-58604761D01*
X197161904Y-58652380D01*
X196971428Y-58652380D01*
X196876190Y-58604761D01*
X196780952Y-58509523D01*
X196733333Y-58319047D01*
X196733333Y-57985714D01*
X196780952Y-57795238D01*
X196876190Y-57700000D01*
X196971428Y-57652380D01*
X197828571Y-58652380D02*
X197828571Y-57652380D01*
X198209523Y-57652380D01*
X198304761Y-57700000D01*
X198352380Y-57747619D01*
X198400000Y-57842857D01*
X198400000Y-57985714D01*
X198352380Y-58080952D01*
X198304761Y-58128571D01*
X198209523Y-58176190D01*
X197828571Y-58176190D01*
X198780952Y-58366666D02*
X199257142Y-58366666D01*
X198685714Y-58652380D02*
X199019047Y-57652380D01*
X199352380Y-58652380D01*
X200209523Y-58652380D02*
X199638095Y-58652380D01*
X199923809Y-58652380D02*
X199923809Y-57652380D01*
X199828571Y-57795238D01*
X199733333Y-57890476D01*
X199638095Y-57938095D01*
X201066666Y-57652380D02*
X200876190Y-57652380D01*
X200780952Y-57700000D01*
X200733333Y-57747619D01*
X200638095Y-57890476D01*
X200590476Y-58080952D01*
X200590476Y-58461904D01*
X200638095Y-58557142D01*
X200685714Y-58604761D01*
X200780952Y-58652380D01*
X200971428Y-58652380D01*
X201066666Y-58604761D01*
X201114285Y-58557142D01*
X201161904Y-58461904D01*
X201161904Y-58223809D01*
X201114285Y-58128571D01*
X201066666Y-58080952D01*
X200971428Y-58033333D01*
X200780952Y-58033333D01*
X200685714Y-58080952D01*
X200638095Y-58128571D01*
X200590476Y-58223809D01*
X201780952Y-57652380D02*
X201876190Y-57652380D01*
X201971428Y-57700000D01*
X202019047Y-57747619D01*
X202066666Y-57842857D01*
X202114285Y-58033333D01*
X202114285Y-58271428D01*
X202066666Y-58461904D01*
X202019047Y-58557142D01*
X201971428Y-58604761D01*
X201876190Y-58652380D01*
X201780952Y-58652380D01*
X201685714Y-58604761D01*
X201638095Y-58557142D01*
X201590476Y-58461904D01*
X201542857Y-58271428D01*
X201542857Y-58033333D01*
X201590476Y-57842857D01*
X201638095Y-57747619D01*
X201685714Y-57700000D01*
X201780952Y-57652380D01*
X202495238Y-57747619D02*
X202542857Y-57700000D01*
X202638095Y-57652380D01*
X202876190Y-57652380D01*
X202971428Y-57700000D01*
X203019047Y-57747619D01*
X203066666Y-57842857D01*
X203066666Y-57938095D01*
X203019047Y-58080952D01*
X202447619Y-58652380D01*
X203066666Y-58652380D01*
X199153333Y-54263333D02*
X199153333Y-55056666D01*
X199200000Y-55150000D01*
X199246666Y-55196666D01*
X199340000Y-55243333D01*
X199526666Y-55243333D01*
X199620000Y-55196666D01*
X199666666Y-55150000D01*
X199713333Y-55056666D01*
X199713333Y-54263333D01*
X200133333Y-54356666D02*
X200180000Y-54310000D01*
X200273333Y-54263333D01*
X200506666Y-54263333D01*
X200600000Y-54310000D01*
X200646666Y-54356666D01*
X200693333Y-54450000D01*
X200693333Y-54543333D01*
X200646666Y-54683333D01*
X200086666Y-55243333D01*
X200693333Y-55243333D01*
X91928571Y-87412380D02*
X91452380Y-87412380D01*
X91452380Y-86412380D01*
X92119047Y-86412380D02*
X92690476Y-86412380D01*
X92404761Y-87412380D02*
X92404761Y-86412380D01*
X92928571Y-86412380D02*
X93547619Y-86412380D01*
X93214285Y-86793333D01*
X93357142Y-86793333D01*
X93452380Y-86840952D01*
X93500000Y-86888571D01*
X93547619Y-86983809D01*
X93547619Y-87221904D01*
X93500000Y-87317142D01*
X93452380Y-87364761D01*
X93357142Y-87412380D01*
X93071428Y-87412380D01*
X92976190Y-87364761D01*
X92928571Y-87317142D01*
X94166666Y-86412380D02*
X94261904Y-86412380D01*
X94357142Y-86460000D01*
X94404761Y-86507619D01*
X94452380Y-86602857D01*
X94500000Y-86793333D01*
X94500000Y-87031428D01*
X94452380Y-87221904D01*
X94404761Y-87317142D01*
X94357142Y-87364761D01*
X94261904Y-87412380D01*
X94166666Y-87412380D01*
X94071428Y-87364761D01*
X94023809Y-87317142D01*
X93976190Y-87221904D01*
X93928571Y-87031428D01*
X93928571Y-86793333D01*
X93976190Y-86602857D01*
X94023809Y-86507619D01*
X94071428Y-86460000D01*
X94166666Y-86412380D01*
X94833333Y-86412380D02*
X95452380Y-86412380D01*
X95119047Y-86793333D01*
X95261904Y-86793333D01*
X95357142Y-86840952D01*
X95404761Y-86888571D01*
X95452380Y-86983809D01*
X95452380Y-87221904D01*
X95404761Y-87317142D01*
X95357142Y-87364761D01*
X95261904Y-87412380D01*
X94976190Y-87412380D01*
X94880952Y-87364761D01*
X94833333Y-87317142D01*
X95833333Y-86507619D02*
X95880952Y-86460000D01*
X95976190Y-86412380D01*
X96214285Y-86412380D01*
X96309523Y-86460000D01*
X96357142Y-86507619D01*
X96404761Y-86602857D01*
X96404761Y-86698095D01*
X96357142Y-86840952D01*
X95785714Y-87412380D01*
X96404761Y-87412380D01*
X96833333Y-87031428D02*
X97595238Y-87031428D01*
X98547619Y-86412380D02*
X98071428Y-86412380D01*
X98023809Y-86888571D01*
X98071428Y-86840952D01*
X98166666Y-86793333D01*
X98404761Y-86793333D01*
X98500000Y-86840952D01*
X98547619Y-86888571D01*
X98595238Y-86983809D01*
X98595238Y-87221904D01*
X98547619Y-87317142D01*
X98500000Y-87364761D01*
X98404761Y-87412380D01*
X98166666Y-87412380D01*
X98071428Y-87364761D01*
X98023809Y-87317142D01*
D10*
X94466666Y-89626666D02*
X94466666Y-90193333D01*
X94500000Y-90260000D01*
X94533333Y-90293333D01*
X94600000Y-90326666D01*
X94733333Y-90326666D01*
X94800000Y-90293333D01*
X94833333Y-90260000D01*
X94866666Y-90193333D01*
X94866666Y-89626666D01*
X95133333Y-89626666D02*
X95566666Y-89626666D01*
X95333333Y-89893333D01*
X95433333Y-89893333D01*
X95500000Y-89926666D01*
X95533333Y-89960000D01*
X95566666Y-90026666D01*
X95566666Y-90193333D01*
X95533333Y-90260000D01*
X95500000Y-90293333D01*
X95433333Y-90326666D01*
X95233333Y-90326666D01*
X95166666Y-90293333D01*
X95133333Y-90260000D01*
D11*
X179523809Y-58752380D02*
X179047619Y-58752380D01*
X179047619Y-57752380D01*
X179714285Y-57752380D02*
X180285714Y-57752380D01*
X180000000Y-58752380D02*
X180000000Y-57752380D01*
X181142857Y-58752380D02*
X180571428Y-58752380D01*
X180857142Y-58752380D02*
X180857142Y-57752380D01*
X180761904Y-57895238D01*
X180666666Y-57990476D01*
X180571428Y-58038095D01*
X182047619Y-57752380D02*
X181571428Y-57752380D01*
X181523809Y-58228571D01*
X181571428Y-58180952D01*
X181666666Y-58133333D01*
X181904761Y-58133333D01*
X182000000Y-58180952D01*
X182047619Y-58228571D01*
X182095238Y-58323809D01*
X182095238Y-58561904D01*
X182047619Y-58657142D01*
X182000000Y-58704761D01*
X181904761Y-58752380D01*
X181666666Y-58752380D01*
X181571428Y-58704761D01*
X181523809Y-58657142D01*
X182952380Y-57752380D02*
X182761904Y-57752380D01*
X182666666Y-57800000D01*
X182619047Y-57847619D01*
X182523809Y-57990476D01*
X182476190Y-58180952D01*
X182476190Y-58561904D01*
X182523809Y-58657142D01*
X182571428Y-58704761D01*
X182666666Y-58752380D01*
X182857142Y-58752380D01*
X182952380Y-58704761D01*
X183000000Y-58657142D01*
X183047619Y-58561904D01*
X183047619Y-58323809D01*
X183000000Y-58228571D01*
X182952380Y-58180952D01*
X182857142Y-58133333D01*
X182666666Y-58133333D01*
X182571428Y-58180952D01*
X182523809Y-58228571D01*
X182476190Y-58323809D01*
X183619047Y-58180952D02*
X183523809Y-58133333D01*
X183476190Y-58085714D01*
X183428571Y-57990476D01*
X183428571Y-57942857D01*
X183476190Y-57847619D01*
X183523809Y-57800000D01*
X183619047Y-57752380D01*
X183809523Y-57752380D01*
X183904761Y-57800000D01*
X183952380Y-57847619D01*
X184000000Y-57942857D01*
X184000000Y-57990476D01*
X183952380Y-58085714D01*
X183904761Y-58133333D01*
X183809523Y-58180952D01*
X183619047Y-58180952D01*
X183523809Y-58228571D01*
X183476190Y-58276190D01*
X183428571Y-58371428D01*
X183428571Y-58561904D01*
X183476190Y-58657142D01*
X183523809Y-58704761D01*
X183619047Y-58752380D01*
X183809523Y-58752380D01*
X183904761Y-58704761D01*
X183952380Y-58657142D01*
X184000000Y-58561904D01*
X184000000Y-58371428D01*
X183952380Y-58276190D01*
X183904761Y-58228571D01*
X183809523Y-58180952D01*
X180890476Y-54361904D02*
X180890476Y-55009523D01*
X180928571Y-55085714D01*
X180966666Y-55123809D01*
X181042857Y-55161904D01*
X181195238Y-55161904D01*
X181271428Y-55123809D01*
X181309523Y-55085714D01*
X181347619Y-55009523D01*
X181347619Y-54361904D01*
X182109523Y-54361904D02*
X181728571Y-54361904D01*
X181690476Y-54742857D01*
X181728571Y-54704761D01*
X181804761Y-54666666D01*
X181995238Y-54666666D01*
X182071428Y-54704761D01*
X182109523Y-54742857D01*
X182147619Y-54819047D01*
X182147619Y-55009523D01*
X182109523Y-55085714D01*
X182071428Y-55123809D01*
X181995238Y-55161904D01*
X181804761Y-55161904D01*
X181728571Y-55123809D01*
X181690476Y-55085714D01*
X209439285Y-104282380D02*
X208867857Y-104282380D01*
X209153571Y-104282380D02*
X209153571Y-103282380D01*
X209058333Y-103425238D01*
X208963095Y-103520476D01*
X208867857Y-103568095D01*
X210058333Y-103282380D02*
X210153571Y-103282380D01*
X210248809Y-103330000D01*
X210296428Y-103377619D01*
X210344047Y-103472857D01*
X210391666Y-103663333D01*
X210391666Y-103901428D01*
X210344047Y-104091904D01*
X210296428Y-104187142D01*
X210248809Y-104234761D01*
X210153571Y-104282380D01*
X210058333Y-104282380D01*
X209963095Y-104234761D01*
X209915476Y-104187142D01*
X209867857Y-104091904D01*
X209820238Y-103901428D01*
X209820238Y-103663333D01*
X209867857Y-103472857D01*
X209915476Y-103377619D01*
X209963095Y-103330000D01*
X210058333Y-103282380D01*
X210820238Y-103615714D02*
X210820238Y-104282380D01*
X210820238Y-103710952D02*
X210867857Y-103663333D01*
X210963095Y-103615714D01*
X211105952Y-103615714D01*
X211201190Y-103663333D01*
X211248809Y-103758571D01*
X211248809Y-104282380D01*
X212010714Y-104663333D02*
X211963095Y-104615714D01*
X211867857Y-104472857D01*
X211820238Y-104377619D01*
X211772619Y-104234761D01*
X211725000Y-103996666D01*
X211725000Y-103806190D01*
X211772619Y-103568095D01*
X211820238Y-103425238D01*
X211867857Y-103330000D01*
X211963095Y-103187142D01*
X212010714Y-103139523D01*
X212963095Y-104187142D02*
X212915476Y-104234761D01*
X212772619Y-104282380D01*
X212677380Y-104282380D01*
X212534523Y-104234761D01*
X212439285Y-104139523D01*
X212391666Y-104044285D01*
X212344047Y-103853809D01*
X212344047Y-103710952D01*
X212391666Y-103520476D01*
X212439285Y-103425238D01*
X212534523Y-103330000D01*
X212677380Y-103282380D01*
X212772619Y-103282380D01*
X212915476Y-103330000D01*
X212963095Y-103377619D01*
X213582142Y-103282380D02*
X213677380Y-103282380D01*
X213772619Y-103330000D01*
X213820238Y-103377619D01*
X213867857Y-103472857D01*
X213915476Y-103663333D01*
X213915476Y-103901428D01*
X213867857Y-104091904D01*
X213820238Y-104187142D01*
X213772619Y-104234761D01*
X213677380Y-104282380D01*
X213582142Y-104282380D01*
X213486904Y-104234761D01*
X213439285Y-104187142D01*
X213391666Y-104091904D01*
X213344047Y-103901428D01*
X213344047Y-103663333D01*
X213391666Y-103472857D01*
X213439285Y-103377619D01*
X213486904Y-103330000D01*
X213582142Y-103282380D01*
X214867857Y-103330000D02*
X214772619Y-103282380D01*
X214629761Y-103282380D01*
X214486904Y-103330000D01*
X214391666Y-103425238D01*
X214344047Y-103520476D01*
X214296428Y-103710952D01*
X214296428Y-103853809D01*
X214344047Y-104044285D01*
X214391666Y-104139523D01*
X214486904Y-104234761D01*
X214629761Y-104282380D01*
X214725000Y-104282380D01*
X214867857Y-104234761D01*
X214915476Y-104187142D01*
X214915476Y-103853809D01*
X214725000Y-103853809D01*
X215248809Y-104663333D02*
X215296428Y-104615714D01*
X215391666Y-104472857D01*
X215439285Y-104377619D01*
X215486904Y-104234761D01*
X215534523Y-103996666D01*
X215534523Y-103806190D01*
X215486904Y-103568095D01*
X215439285Y-103425238D01*
X215391666Y-103330000D01*
X215296428Y-103187142D01*
X215248809Y-103139523D01*
D13*
X212158333Y-102542857D02*
X212139285Y-102561904D01*
X212082142Y-102580952D01*
X212044047Y-102580952D01*
X211986904Y-102561904D01*
X211948809Y-102523809D01*
X211929761Y-102485714D01*
X211910714Y-102409523D01*
X211910714Y-102352380D01*
X211929761Y-102276190D01*
X211948809Y-102238095D01*
X211986904Y-102200000D01*
X212044047Y-102180952D01*
X212082142Y-102180952D01*
X212139285Y-102200000D01*
X212158333Y-102219047D01*
X212291666Y-102180952D02*
X212539285Y-102180952D01*
X212405952Y-102333333D01*
X212463095Y-102333333D01*
X212501190Y-102352380D01*
X212520238Y-102371428D01*
X212539285Y-102409523D01*
X212539285Y-102504761D01*
X212520238Y-102542857D01*
X212501190Y-102561904D01*
X212463095Y-102580952D01*
X212348809Y-102580952D01*
X212310714Y-102561904D01*
X212291666Y-102542857D01*
D11*
X201214285Y-76522380D02*
X200642857Y-76522380D01*
X200928571Y-76522380D02*
X200928571Y-75522380D01*
X200833333Y-75665238D01*
X200738095Y-75760476D01*
X200642857Y-75808095D01*
X201833333Y-75522380D02*
X201928571Y-75522380D01*
X202023809Y-75570000D01*
X202071428Y-75617619D01*
X202119047Y-75712857D01*
X202166666Y-75903333D01*
X202166666Y-76141428D01*
X202119047Y-76331904D01*
X202071428Y-76427142D01*
X202023809Y-76474761D01*
X201928571Y-76522380D01*
X201833333Y-76522380D01*
X201738095Y-76474761D01*
X201690476Y-76427142D01*
X201642857Y-76331904D01*
X201595238Y-76141428D01*
X201595238Y-75903333D01*
X201642857Y-75712857D01*
X201690476Y-75617619D01*
X201738095Y-75570000D01*
X201833333Y-75522380D01*
X202595238Y-75855714D02*
X202595238Y-76522380D01*
X202595238Y-75950952D02*
X202642857Y-75903333D01*
X202738095Y-75855714D01*
X202880952Y-75855714D01*
X202976190Y-75903333D01*
X203023809Y-75998571D01*
X203023809Y-76522380D01*
X203785714Y-76903333D02*
X203738095Y-76855714D01*
X203642857Y-76712857D01*
X203595238Y-76617619D01*
X203547619Y-76474761D01*
X203500000Y-76236666D01*
X203500000Y-76046190D01*
X203547619Y-75808095D01*
X203595238Y-75665238D01*
X203642857Y-75570000D01*
X203738095Y-75427142D01*
X203785714Y-75379523D01*
X204738095Y-76427142D02*
X204690476Y-76474761D01*
X204547619Y-76522380D01*
X204452380Y-76522380D01*
X204309523Y-76474761D01*
X204214285Y-76379523D01*
X204166666Y-76284285D01*
X204119047Y-76093809D01*
X204119047Y-75950952D01*
X204166666Y-75760476D01*
X204214285Y-75665238D01*
X204309523Y-75570000D01*
X204452380Y-75522380D01*
X204547619Y-75522380D01*
X204690476Y-75570000D01*
X204738095Y-75617619D01*
X205357142Y-75522380D02*
X205452380Y-75522380D01*
X205547619Y-75570000D01*
X205595238Y-75617619D01*
X205642857Y-75712857D01*
X205690476Y-75903333D01*
X205690476Y-76141428D01*
X205642857Y-76331904D01*
X205595238Y-76427142D01*
X205547619Y-76474761D01*
X205452380Y-76522380D01*
X205357142Y-76522380D01*
X205261904Y-76474761D01*
X205214285Y-76427142D01*
X205166666Y-76331904D01*
X205119047Y-76141428D01*
X205119047Y-75903333D01*
X205166666Y-75712857D01*
X205214285Y-75617619D01*
X205261904Y-75570000D01*
X205357142Y-75522380D01*
X206642857Y-75570000D02*
X206547619Y-75522380D01*
X206404761Y-75522380D01*
X206261904Y-75570000D01*
X206166666Y-75665238D01*
X206119047Y-75760476D01*
X206071428Y-75950952D01*
X206071428Y-76093809D01*
X206119047Y-76284285D01*
X206166666Y-76379523D01*
X206261904Y-76474761D01*
X206404761Y-76522380D01*
X206500000Y-76522380D01*
X206642857Y-76474761D01*
X206690476Y-76427142D01*
X206690476Y-76093809D01*
X206500000Y-76093809D01*
X207023809Y-76903333D02*
X207071428Y-76855714D01*
X207166666Y-76712857D01*
X207214285Y-76617619D01*
X207261904Y-76474761D01*
X207309523Y-76236666D01*
X207309523Y-76046190D01*
X207261904Y-75808095D01*
X207214285Y-75665238D01*
X207166666Y-75570000D01*
X207071428Y-75427142D01*
X207023809Y-75379523D01*
D13*
X203933333Y-77642857D02*
X203914285Y-77661904D01*
X203857142Y-77680952D01*
X203819047Y-77680952D01*
X203761904Y-77661904D01*
X203723809Y-77623809D01*
X203704761Y-77585714D01*
X203685714Y-77509523D01*
X203685714Y-77452380D01*
X203704761Y-77376190D01*
X203723809Y-77338095D01*
X203761904Y-77300000D01*
X203819047Y-77280952D01*
X203857142Y-77280952D01*
X203914285Y-77300000D01*
X203933333Y-77319047D01*
X204276190Y-77414285D02*
X204276190Y-77680952D01*
X204180952Y-77261904D02*
X204085714Y-77547619D01*
X204333333Y-77547619D01*
D11*
X209866666Y-76952380D02*
X209866666Y-77666666D01*
X209819047Y-77809523D01*
X209723809Y-77904761D01*
X209580952Y-77952380D01*
X209485714Y-77952380D01*
X210771428Y-76952380D02*
X210580952Y-76952380D01*
X210485714Y-77000000D01*
X210438095Y-77047619D01*
X210342857Y-77190476D01*
X210295238Y-77380952D01*
X210295238Y-77761904D01*
X210342857Y-77857142D01*
X210390476Y-77904761D01*
X210485714Y-77952380D01*
X210676190Y-77952380D01*
X210771428Y-77904761D01*
X210819047Y-77857142D01*
X210866666Y-77761904D01*
X210866666Y-77523809D01*
X210819047Y-77428571D01*
X210771428Y-77380952D01*
X210676190Y-77333333D01*
X210485714Y-77333333D01*
X210390476Y-77380952D01*
X210342857Y-77428571D01*
X210295238Y-77523809D01*
X213838095Y-118117619D02*
X213885714Y-118070000D01*
X213980952Y-118022380D01*
X214219047Y-118022380D01*
X214314285Y-118070000D01*
X214361904Y-118117619D01*
X214409523Y-118212857D01*
X214409523Y-118308095D01*
X214361904Y-118450952D01*
X213790476Y-119022380D01*
X214409523Y-119022380D01*
X214790476Y-118117619D02*
X214838095Y-118070000D01*
X214933333Y-118022380D01*
X215171428Y-118022380D01*
X215266666Y-118070000D01*
X215314285Y-118117619D01*
X215361904Y-118212857D01*
X215361904Y-118308095D01*
X215314285Y-118450952D01*
X214742857Y-119022380D01*
X215361904Y-119022380D01*
D13*
X214533333Y-120180952D02*
X214400000Y-119990476D01*
X214304761Y-120180952D02*
X214304761Y-119780952D01*
X214457142Y-119780952D01*
X214495238Y-119800000D01*
X214514285Y-119819047D01*
X214533333Y-119857142D01*
X214533333Y-119914285D01*
X214514285Y-119952380D01*
X214495238Y-119971428D01*
X214457142Y-119990476D01*
X214304761Y-119990476D01*
X214914285Y-120180952D02*
X214685714Y-120180952D01*
X214800000Y-120180952D02*
X214800000Y-119780952D01*
X214761904Y-119838095D01*
X214723809Y-119876190D01*
X214685714Y-119895238D01*
D11*
X205605714Y-101800000D02*
X206272380Y-101800000D01*
X205224761Y-102038095D02*
X205939047Y-102276190D01*
X205939047Y-101657142D01*
X206272380Y-101228571D02*
X206272380Y-101038095D01*
X206224761Y-100942857D01*
X206177142Y-100895238D01*
X206034285Y-100800000D01*
X205843809Y-100752380D01*
X205462857Y-100752380D01*
X205367619Y-100800000D01*
X205320000Y-100847619D01*
X205272380Y-100942857D01*
X205272380Y-101133333D01*
X205320000Y-101228571D01*
X205367619Y-101276190D01*
X205462857Y-101323809D01*
X205700952Y-101323809D01*
X205796190Y-101276190D01*
X205843809Y-101228571D01*
X205891428Y-101133333D01*
X205891428Y-100942857D01*
X205843809Y-100847619D01*
X205796190Y-100800000D01*
X205700952Y-100752380D01*
X206177142Y-100323809D02*
X206224761Y-100276190D01*
X206272380Y-100323809D01*
X206224761Y-100371428D01*
X206177142Y-100323809D01*
X206272380Y-100323809D01*
X206272380Y-99800000D02*
X206272380Y-99609523D01*
X206224761Y-99514285D01*
X206177142Y-99466666D01*
X206034285Y-99371428D01*
X205843809Y-99323809D01*
X205462857Y-99323809D01*
X205367619Y-99371428D01*
X205320000Y-99419047D01*
X205272380Y-99514285D01*
X205272380Y-99704761D01*
X205320000Y-99800000D01*
X205367619Y-99847619D01*
X205462857Y-99895238D01*
X205700952Y-99895238D01*
X205796190Y-99847619D01*
X205843809Y-99800000D01*
X205891428Y-99704761D01*
X205891428Y-99514285D01*
X205843809Y-99419047D01*
X205796190Y-99371428D01*
X205700952Y-99323809D01*
D12*
X208461904Y-100933333D02*
X208080952Y-101200000D01*
X208461904Y-101390476D02*
X207661904Y-101390476D01*
X207661904Y-101085714D01*
X207700000Y-101009523D01*
X207738095Y-100971428D01*
X207814285Y-100933333D01*
X207928571Y-100933333D01*
X208004761Y-100971428D01*
X208042857Y-101009523D01*
X208080952Y-101085714D01*
X208080952Y-101390476D01*
X207738095Y-100628571D02*
X207700000Y-100590476D01*
X207661904Y-100514285D01*
X207661904Y-100323809D01*
X207700000Y-100247619D01*
X207738095Y-100209523D01*
X207814285Y-100171428D01*
X207890476Y-100171428D01*
X208004761Y-100209523D01*
X208461904Y-100666666D01*
X208461904Y-100171428D01*
D11*
X204714285Y-118982380D02*
X205333333Y-118982380D01*
X205000000Y-119363333D01*
X205142857Y-119363333D01*
X205238095Y-119410952D01*
X205285714Y-119458571D01*
X205333333Y-119553809D01*
X205333333Y-119791904D01*
X205285714Y-119887142D01*
X205238095Y-119934761D01*
X205142857Y-119982380D01*
X204857142Y-119982380D01*
X204761904Y-119934761D01*
X204714285Y-119887142D01*
X205809523Y-119982380D02*
X206000000Y-119982380D01*
X206095238Y-119934761D01*
X206142857Y-119887142D01*
X206238095Y-119744285D01*
X206285714Y-119553809D01*
X206285714Y-119172857D01*
X206238095Y-119077619D01*
X206190476Y-119030000D01*
X206095238Y-118982380D01*
X205904761Y-118982380D01*
X205809523Y-119030000D01*
X205761904Y-119077619D01*
X205714285Y-119172857D01*
X205714285Y-119410952D01*
X205761904Y-119506190D01*
X205809523Y-119553809D01*
X205904761Y-119601428D01*
X206095238Y-119601428D01*
X206190476Y-119553809D01*
X206238095Y-119506190D01*
X206285714Y-119410952D01*
X206904761Y-118982380D02*
X207000000Y-118982380D01*
X207095238Y-119030000D01*
X207142857Y-119077619D01*
X207190476Y-119172857D01*
X207238095Y-119363333D01*
X207238095Y-119601428D01*
X207190476Y-119791904D01*
X207142857Y-119887142D01*
X207095238Y-119934761D01*
X207000000Y-119982380D01*
X206904761Y-119982380D01*
X206809523Y-119934761D01*
X206761904Y-119887142D01*
X206714285Y-119791904D01*
X206666666Y-119601428D01*
X206666666Y-119363333D01*
X206714285Y-119172857D01*
X206761904Y-119077619D01*
X206809523Y-119030000D01*
X206904761Y-118982380D01*
D13*
X205933333Y-118280952D02*
X205800000Y-118090476D01*
X205704761Y-118280952D02*
X205704761Y-117880952D01*
X205857142Y-117880952D01*
X205895238Y-117900000D01*
X205914285Y-117919047D01*
X205933333Y-117957142D01*
X205933333Y-118014285D01*
X205914285Y-118052380D01*
X205895238Y-118071428D01*
X205857142Y-118090476D01*
X205704761Y-118090476D01*
X206276190Y-118014285D02*
X206276190Y-118280952D01*
X206180952Y-117861904D02*
X206085714Y-118147619D01*
X206333333Y-118147619D01*
D11*
X196500000Y-109005714D02*
X196500000Y-109672380D01*
X196261904Y-108624761D02*
X196023809Y-109339047D01*
X196642857Y-109339047D01*
X197071428Y-109672380D02*
X197261904Y-109672380D01*
X197357142Y-109624761D01*
X197404761Y-109577142D01*
X197500000Y-109434285D01*
X197547619Y-109243809D01*
X197547619Y-108862857D01*
X197500000Y-108767619D01*
X197452380Y-108720000D01*
X197357142Y-108672380D01*
X197166666Y-108672380D01*
X197071428Y-108720000D01*
X197023809Y-108767619D01*
X196976190Y-108862857D01*
X196976190Y-109100952D01*
X197023809Y-109196190D01*
X197071428Y-109243809D01*
X197166666Y-109291428D01*
X197357142Y-109291428D01*
X197452380Y-109243809D01*
X197500000Y-109196190D01*
X197547619Y-109100952D01*
X197976190Y-109577142D02*
X198023809Y-109624761D01*
X197976190Y-109672380D01*
X197928571Y-109624761D01*
X197976190Y-109577142D01*
X197976190Y-109672380D01*
X198500000Y-109672380D02*
X198690476Y-109672380D01*
X198785714Y-109624761D01*
X198833333Y-109577142D01*
X198928571Y-109434285D01*
X198976190Y-109243809D01*
X198976190Y-108862857D01*
X198928571Y-108767619D01*
X198880952Y-108720000D01*
X198785714Y-108672380D01*
X198595238Y-108672380D01*
X198500000Y-108720000D01*
X198452380Y-108767619D01*
X198404761Y-108862857D01*
X198404761Y-109100952D01*
X198452380Y-109196190D01*
X198500000Y-109243809D01*
X198595238Y-109291428D01*
X198785714Y-109291428D01*
X198880952Y-109243809D01*
X198928571Y-109196190D01*
X198976190Y-109100952D01*
D12*
X197366666Y-111861904D02*
X197100000Y-111480952D01*
X196909523Y-111861904D02*
X196909523Y-111061904D01*
X197214285Y-111061904D01*
X197290476Y-111100000D01*
X197328571Y-111138095D01*
X197366666Y-111214285D01*
X197366666Y-111328571D01*
X197328571Y-111404761D01*
X197290476Y-111442857D01*
X197214285Y-111480952D01*
X196909523Y-111480952D01*
X198052380Y-111061904D02*
X197900000Y-111061904D01*
X197823809Y-111100000D01*
X197785714Y-111138095D01*
X197709523Y-111252380D01*
X197671428Y-111404761D01*
X197671428Y-111709523D01*
X197709523Y-111785714D01*
X197747619Y-111823809D01*
X197823809Y-111861904D01*
X197976190Y-111861904D01*
X198052380Y-111823809D01*
X198090476Y-111785714D01*
X198128571Y-111709523D01*
X198128571Y-111519047D01*
X198090476Y-111442857D01*
X198052380Y-111404761D01*
X197976190Y-111366666D01*
X197823809Y-111366666D01*
X197747619Y-111404761D01*
X197709523Y-111442857D01*
X197671428Y-111519047D01*
D11*
X181555714Y-78761904D02*
X182222380Y-78761904D01*
X181174761Y-79000000D02*
X181889047Y-79238095D01*
X181889047Y-78619047D01*
X182222380Y-78190476D02*
X182222380Y-78000000D01*
X182174761Y-77904761D01*
X182127142Y-77857142D01*
X181984285Y-77761904D01*
X181793809Y-77714285D01*
X181412857Y-77714285D01*
X181317619Y-77761904D01*
X181270000Y-77809523D01*
X181222380Y-77904761D01*
X181222380Y-78095238D01*
X181270000Y-78190476D01*
X181317619Y-78238095D01*
X181412857Y-78285714D01*
X181650952Y-78285714D01*
X181746190Y-78238095D01*
X181793809Y-78190476D01*
X181841428Y-78095238D01*
X181841428Y-77904761D01*
X181793809Y-77809523D01*
X181746190Y-77761904D01*
X181650952Y-77714285D01*
X182222380Y-77238095D02*
X182222380Y-77047619D01*
X182174761Y-76952380D01*
X182127142Y-76904761D01*
X181984285Y-76809523D01*
X181793809Y-76761904D01*
X181412857Y-76761904D01*
X181317619Y-76809523D01*
X181270000Y-76857142D01*
X181222380Y-76952380D01*
X181222380Y-77142857D01*
X181270000Y-77238095D01*
X181317619Y-77285714D01*
X181412857Y-77333333D01*
X181650952Y-77333333D01*
X181746190Y-77285714D01*
X181793809Y-77238095D01*
X181841428Y-77142857D01*
X181841428Y-76952380D01*
X181793809Y-76857142D01*
X181746190Y-76809523D01*
X181650952Y-76761904D01*
D13*
X183380952Y-78066666D02*
X183190476Y-78200000D01*
X183380952Y-78295238D02*
X182980952Y-78295238D01*
X182980952Y-78142857D01*
X183000000Y-78104761D01*
X183019047Y-78085714D01*
X183057142Y-78066666D01*
X183114285Y-78066666D01*
X183152380Y-78085714D01*
X183171428Y-78104761D01*
X183190476Y-78142857D01*
X183190476Y-78295238D01*
X182980952Y-77933333D02*
X182980952Y-77666666D01*
X183380952Y-77838095D01*
D11*
X202215714Y-79061904D02*
X202882380Y-79061904D01*
X201834761Y-79300000D02*
X202549047Y-79538095D01*
X202549047Y-78919047D01*
X202882380Y-78490476D02*
X202882380Y-78300000D01*
X202834761Y-78204761D01*
X202787142Y-78157142D01*
X202644285Y-78061904D01*
X202453809Y-78014285D01*
X202072857Y-78014285D01*
X201977619Y-78061904D01*
X201930000Y-78109523D01*
X201882380Y-78204761D01*
X201882380Y-78395238D01*
X201930000Y-78490476D01*
X201977619Y-78538095D01*
X202072857Y-78585714D01*
X202310952Y-78585714D01*
X202406190Y-78538095D01*
X202453809Y-78490476D01*
X202501428Y-78395238D01*
X202501428Y-78204761D01*
X202453809Y-78109523D01*
X202406190Y-78061904D01*
X202310952Y-78014285D01*
X202882380Y-77538095D02*
X202882380Y-77347619D01*
X202834761Y-77252380D01*
X202787142Y-77204761D01*
X202644285Y-77109523D01*
X202453809Y-77061904D01*
X202072857Y-77061904D01*
X201977619Y-77109523D01*
X201930000Y-77157142D01*
X201882380Y-77252380D01*
X201882380Y-77442857D01*
X201930000Y-77538095D01*
X201977619Y-77585714D01*
X202072857Y-77633333D01*
X202310952Y-77633333D01*
X202406190Y-77585714D01*
X202453809Y-77538095D01*
X202501428Y-77442857D01*
X202501428Y-77252380D01*
X202453809Y-77157142D01*
X202406190Y-77109523D01*
X202310952Y-77061904D01*
D13*
X201180952Y-78366666D02*
X200990476Y-78500000D01*
X201180952Y-78595238D02*
X200780952Y-78595238D01*
X200780952Y-78442857D01*
X200800000Y-78404761D01*
X200819047Y-78385714D01*
X200857142Y-78366666D01*
X200914285Y-78366666D01*
X200952380Y-78385714D01*
X200971428Y-78404761D01*
X200990476Y-78442857D01*
X200990476Y-78595238D01*
X201180952Y-78176190D02*
X201180952Y-78100000D01*
X201161904Y-78061904D01*
X201142857Y-78042857D01*
X201085714Y-78004761D01*
X201009523Y-77985714D01*
X200857142Y-77985714D01*
X200819047Y-78004761D01*
X200800000Y-78023809D01*
X200780952Y-78061904D01*
X200780952Y-78138095D01*
X200800000Y-78176190D01*
X200819047Y-78195238D01*
X200857142Y-78214285D01*
X200952380Y-78214285D01*
X200990476Y-78195238D01*
X201009523Y-78176190D01*
X201028571Y-78138095D01*
X201028571Y-78061904D01*
X201009523Y-78023809D01*
X200990476Y-78004761D01*
X200952380Y-77985714D01*
D11*
X203447619Y-110052380D02*
X203638095Y-110052380D01*
X203733333Y-110100000D01*
X203828571Y-110195238D01*
X203876190Y-110385714D01*
X203876190Y-110719047D01*
X203828571Y-110909523D01*
X203733333Y-111004761D01*
X203638095Y-111052380D01*
X203447619Y-111052380D01*
X203352380Y-111004761D01*
X203257142Y-110909523D01*
X203209523Y-110719047D01*
X203209523Y-110385714D01*
X203257142Y-110195238D01*
X203352380Y-110100000D01*
X203447619Y-110052380D01*
X204304761Y-111052380D02*
X204304761Y-110052380D01*
X204685714Y-110052380D01*
X204780952Y-110100000D01*
X204828571Y-110147619D01*
X204876190Y-110242857D01*
X204876190Y-110385714D01*
X204828571Y-110480952D01*
X204780952Y-110528571D01*
X204685714Y-110576190D01*
X204304761Y-110576190D01*
X205257142Y-110766666D02*
X205733333Y-110766666D01*
X205161904Y-111052380D02*
X205495238Y-110052380D01*
X205828571Y-111052380D01*
X206590476Y-110052380D02*
X206400000Y-110052380D01*
X206304761Y-110100000D01*
X206257142Y-110147619D01*
X206161904Y-110290476D01*
X206114285Y-110480952D01*
X206114285Y-110861904D01*
X206161904Y-110957142D01*
X206209523Y-111004761D01*
X206304761Y-111052380D01*
X206495238Y-111052380D01*
X206590476Y-111004761D01*
X206638095Y-110957142D01*
X206685714Y-110861904D01*
X206685714Y-110623809D01*
X206638095Y-110528571D01*
X206590476Y-110480952D01*
X206495238Y-110433333D01*
X206304761Y-110433333D01*
X206209523Y-110480952D01*
X206161904Y-110528571D01*
X206114285Y-110623809D01*
X207161904Y-111052380D02*
X207352380Y-111052380D01*
X207447619Y-111004761D01*
X207495238Y-110957142D01*
X207590476Y-110814285D01*
X207638095Y-110623809D01*
X207638095Y-110242857D01*
X207590476Y-110147619D01*
X207542857Y-110100000D01*
X207447619Y-110052380D01*
X207257142Y-110052380D01*
X207161904Y-110100000D01*
X207114285Y-110147619D01*
X207066666Y-110242857D01*
X207066666Y-110480952D01*
X207114285Y-110576190D01*
X207161904Y-110623809D01*
X207257142Y-110671428D01*
X207447619Y-110671428D01*
X207542857Y-110623809D01*
X207590476Y-110576190D01*
X207638095Y-110480952D01*
X208542857Y-110052380D02*
X208066666Y-110052380D01*
X208019047Y-110528571D01*
X208066666Y-110480952D01*
X208161904Y-110433333D01*
X208400000Y-110433333D01*
X208495238Y-110480952D01*
X208542857Y-110528571D01*
X208590476Y-110623809D01*
X208590476Y-110861904D01*
X208542857Y-110957142D01*
X208495238Y-111004761D01*
X208400000Y-111052380D01*
X208161904Y-111052380D01*
X208066666Y-111004761D01*
X208019047Y-110957142D01*
X205153333Y-113463333D02*
X205153333Y-114256666D01*
X205200000Y-114350000D01*
X205246666Y-114396666D01*
X205340000Y-114443333D01*
X205526666Y-114443333D01*
X205620000Y-114396666D01*
X205666666Y-114350000D01*
X205713333Y-114256666D01*
X205713333Y-113463333D01*
X206693333Y-114443333D02*
X206133333Y-114443333D01*
X206413333Y-114443333D02*
X206413333Y-113463333D01*
X206320000Y-113603333D01*
X206226666Y-113696666D01*
X206133333Y-113743333D01*
X176095238Y-92352380D02*
X175761904Y-91876190D01*
X175523809Y-92352380D02*
X175523809Y-91352380D01*
X175904761Y-91352380D01*
X176000000Y-91400000D01*
X176047619Y-91447619D01*
X176095238Y-91542857D01*
X176095238Y-91685714D01*
X176047619Y-91780952D01*
X176000000Y-91828571D01*
X175904761Y-91876190D01*
X175523809Y-91876190D01*
X176523809Y-92352380D02*
X176523809Y-91352380D01*
X176904761Y-91352380D01*
X177000000Y-91400000D01*
X177047619Y-91447619D01*
X177095238Y-91542857D01*
X177095238Y-91685714D01*
X177047619Y-91780952D01*
X177000000Y-91828571D01*
X176904761Y-91876190D01*
X176523809Y-91876190D01*
X177523809Y-92352380D02*
X177523809Y-91352380D01*
X177761904Y-91352380D01*
X177904761Y-91400000D01*
X178000000Y-91495238D01*
X178047619Y-91590476D01*
X178095238Y-91780952D01*
X178095238Y-91923809D01*
X178047619Y-92114285D01*
X178000000Y-92209523D01*
X177904761Y-92304761D01*
X177761904Y-92352380D01*
X177523809Y-92352380D01*
X178523809Y-91971428D02*
X179285714Y-91971428D01*
X180285714Y-92352380D02*
X179714285Y-92352380D01*
X180000000Y-92352380D02*
X180000000Y-91352380D01*
X179904761Y-91495238D01*
X179809523Y-91590476D01*
X179714285Y-91638095D01*
X180714285Y-91971428D02*
X181476190Y-91971428D01*
X181095238Y-92352380D02*
X181095238Y-91590476D01*
X212582380Y-112319047D02*
X212582380Y-112890476D01*
X212582380Y-112604761D02*
X211582380Y-112604761D01*
X211725238Y-112700000D01*
X211820476Y-112795238D01*
X211868095Y-112890476D01*
X211582380Y-111700000D02*
X211582380Y-111604761D01*
X211630000Y-111509523D01*
X211677619Y-111461904D01*
X211772857Y-111414285D01*
X211963333Y-111366666D01*
X212201428Y-111366666D01*
X212391904Y-111414285D01*
X212487142Y-111461904D01*
X212534761Y-111509523D01*
X212582380Y-111604761D01*
X212582380Y-111700000D01*
X212534761Y-111795238D01*
X212487142Y-111842857D01*
X212391904Y-111890476D01*
X212201428Y-111938095D01*
X211963333Y-111938095D01*
X211772857Y-111890476D01*
X211677619Y-111842857D01*
X211630000Y-111795238D01*
X211582380Y-111700000D01*
X211582380Y-110747619D02*
X211582380Y-110652380D01*
X211630000Y-110557142D01*
X211677619Y-110509523D01*
X211772857Y-110461904D01*
X211963333Y-110414285D01*
X212201428Y-110414285D01*
X212391904Y-110461904D01*
X212487142Y-110509523D01*
X212534761Y-110557142D01*
X212582380Y-110652380D01*
X212582380Y-110747619D01*
X212534761Y-110842857D01*
X212487142Y-110890476D01*
X212391904Y-110938095D01*
X212201428Y-110985714D01*
X211963333Y-110985714D01*
X211772857Y-110938095D01*
X211677619Y-110890476D01*
X211630000Y-110842857D01*
X211582380Y-110747619D01*
X211915714Y-109985714D02*
X212582380Y-109985714D01*
X212010952Y-109985714D02*
X211963333Y-109938095D01*
X211915714Y-109842857D01*
X211915714Y-109700000D01*
X211963333Y-109604761D01*
X212058571Y-109557142D01*
X212582380Y-109557142D01*
D13*
X210842857Y-111457142D02*
X210861904Y-111476190D01*
X210880952Y-111533333D01*
X210880952Y-111571428D01*
X210861904Y-111628571D01*
X210823809Y-111666666D01*
X210785714Y-111685714D01*
X210709523Y-111704761D01*
X210652380Y-111704761D01*
X210576190Y-111685714D01*
X210538095Y-111666666D01*
X210500000Y-111628571D01*
X210480952Y-111571428D01*
X210480952Y-111533333D01*
X210500000Y-111476190D01*
X210519047Y-111457142D01*
X210880952Y-111076190D02*
X210880952Y-111304761D01*
X210880952Y-111190476D02*
X210480952Y-111190476D01*
X210538095Y-111228571D01*
X210576190Y-111266666D01*
X210595238Y-111304761D01*
X210880952Y-110695238D02*
X210880952Y-110923809D01*
X210880952Y-110809523D02*
X210480952Y-110809523D01*
X210538095Y-110847619D01*
X210576190Y-110885714D01*
X210595238Y-110923809D01*
D11*
X199922380Y-116719047D02*
X199922380Y-117290476D01*
X199922380Y-117004761D02*
X198922380Y-117004761D01*
X199065238Y-117100000D01*
X199160476Y-117195238D01*
X199208095Y-117290476D01*
X198922380Y-116100000D02*
X198922380Y-116004761D01*
X198970000Y-115909523D01*
X199017619Y-115861904D01*
X199112857Y-115814285D01*
X199303333Y-115766666D01*
X199541428Y-115766666D01*
X199731904Y-115814285D01*
X199827142Y-115861904D01*
X199874761Y-115909523D01*
X199922380Y-116004761D01*
X199922380Y-116100000D01*
X199874761Y-116195238D01*
X199827142Y-116242857D01*
X199731904Y-116290476D01*
X199541428Y-116338095D01*
X199303333Y-116338095D01*
X199112857Y-116290476D01*
X199017619Y-116242857D01*
X198970000Y-116195238D01*
X198922380Y-116100000D01*
X198922380Y-115147619D02*
X198922380Y-115052380D01*
X198970000Y-114957142D01*
X199017619Y-114909523D01*
X199112857Y-114861904D01*
X199303333Y-114814285D01*
X199541428Y-114814285D01*
X199731904Y-114861904D01*
X199827142Y-114909523D01*
X199874761Y-114957142D01*
X199922380Y-115052380D01*
X199922380Y-115147619D01*
X199874761Y-115242857D01*
X199827142Y-115290476D01*
X199731904Y-115338095D01*
X199541428Y-115385714D01*
X199303333Y-115385714D01*
X199112857Y-115338095D01*
X199017619Y-115290476D01*
X198970000Y-115242857D01*
X198922380Y-115147619D01*
X199255714Y-114385714D02*
X199922380Y-114385714D01*
X199350952Y-114385714D02*
X199303333Y-114338095D01*
X199255714Y-114242857D01*
X199255714Y-114100000D01*
X199303333Y-114004761D01*
X199398571Y-113957142D01*
X199922380Y-113957142D01*
D13*
X201042857Y-115857142D02*
X201061904Y-115876190D01*
X201080952Y-115933333D01*
X201080952Y-115971428D01*
X201061904Y-116028571D01*
X201023809Y-116066666D01*
X200985714Y-116085714D01*
X200909523Y-116104761D01*
X200852380Y-116104761D01*
X200776190Y-116085714D01*
X200738095Y-116066666D01*
X200700000Y-116028571D01*
X200680952Y-115971428D01*
X200680952Y-115933333D01*
X200700000Y-115876190D01*
X200719047Y-115857142D01*
X201080952Y-115476190D02*
X201080952Y-115704761D01*
X201080952Y-115590476D02*
X200680952Y-115590476D01*
X200738095Y-115628571D01*
X200776190Y-115666666D01*
X200795238Y-115704761D01*
X200719047Y-115323809D02*
X200700000Y-115304761D01*
X200680952Y-115266666D01*
X200680952Y-115171428D01*
X200700000Y-115133333D01*
X200719047Y-115114285D01*
X200757142Y-115095238D01*
X200795238Y-115095238D01*
X200852380Y-115114285D01*
X201080952Y-115342857D01*
X201080952Y-115095238D01*
D11*
X220345714Y-119572380D02*
X219869523Y-119572380D01*
X219821904Y-120048571D01*
X219869523Y-120000952D01*
X219964761Y-119953333D01*
X220202857Y-119953333D01*
X220298095Y-120000952D01*
X220345714Y-120048571D01*
X220393333Y-120143809D01*
X220393333Y-120381904D01*
X220345714Y-120477142D01*
X220298095Y-120524761D01*
X220202857Y-120572380D01*
X219964761Y-120572380D01*
X219869523Y-120524761D01*
X219821904Y-120477142D01*
X221012380Y-119572380D02*
X221107619Y-119572380D01*
X221202857Y-119620000D01*
X221250476Y-119667619D01*
X221298095Y-119762857D01*
X221345714Y-119953333D01*
X221345714Y-120191428D01*
X221298095Y-120381904D01*
X221250476Y-120477142D01*
X221202857Y-120524761D01*
X221107619Y-120572380D01*
X221012380Y-120572380D01*
X220917142Y-120524761D01*
X220869523Y-120477142D01*
X220821904Y-120381904D01*
X220774285Y-120191428D01*
X220774285Y-119953333D01*
X220821904Y-119762857D01*
X220869523Y-119667619D01*
X220917142Y-119620000D01*
X221012380Y-119572380D01*
X221964761Y-119572380D02*
X222060000Y-119572380D01*
X222155238Y-119620000D01*
X222202857Y-119667619D01*
X222250476Y-119762857D01*
X222298095Y-119953333D01*
X222298095Y-120191428D01*
X222250476Y-120381904D01*
X222202857Y-120477142D01*
X222155238Y-120524761D01*
X222060000Y-120572380D01*
X221964761Y-120572380D01*
X221869523Y-120524761D01*
X221821904Y-120477142D01*
X221774285Y-120381904D01*
X221726666Y-120191428D01*
X221726666Y-119953333D01*
X221774285Y-119762857D01*
X221821904Y-119667619D01*
X221869523Y-119620000D01*
X221964761Y-119572380D01*
X219704761Y-124222380D02*
X219371428Y-123746190D01*
X219133333Y-124222380D02*
X219133333Y-123222380D01*
X219514285Y-123222380D01*
X219609523Y-123270000D01*
X219657142Y-123317619D01*
X219704761Y-123412857D01*
X219704761Y-123555714D01*
X219657142Y-123650952D01*
X219609523Y-123698571D01*
X219514285Y-123746190D01*
X219133333Y-123746190D01*
X219990476Y-123222380D02*
X220323809Y-124222380D01*
X220657142Y-123222380D01*
X221514285Y-124222380D02*
X220942857Y-124222380D01*
X221228571Y-124222380D02*
X221228571Y-123222380D01*
X221133333Y-123365238D01*
X221038095Y-123460476D01*
X220942857Y-123508095D01*
M02*
