G04 #@! TF.GenerationSoftware,KiCad,Pcbnew,(5.1.9)-1*
G04 #@! TF.CreationDate,2021-10-27T20:53:23+02:00*
G04 #@! TF.ProjectId,PDH-module,5044482d-6d6f-4647-956c-652e6b696361,1.0*
G04 #@! TF.SameCoordinates,Original*
G04 #@! TF.FileFunction,Legend,Top*
G04 #@! TF.FilePolarity,Positive*
%FSLAX46Y46*%
G04 Gerber Fmt 4.6, Leading zero omitted, Abs format (unit mm)*
G04 Created by KiCad (PCBNEW (5.1.9)-1) date 2021-10-27 20:53:23*
%MOMM*%
%LPD*%
G01*
G04 APERTURE LIST*
%ADD10C,0.300000*%
%ADD11C,0.120000*%
%ADD12C,1.000000*%
%ADD13C,0.010000*%
%ADD14C,0.150000*%
%ADD15C,0.600000*%
G04 APERTURE END LIST*
D10*
X117452142Y-45928571D02*
X117452142Y-44428571D01*
X118023571Y-44428571D01*
X118166428Y-44500000D01*
X118237857Y-44571428D01*
X118309285Y-44714285D01*
X118309285Y-44928571D01*
X118237857Y-45071428D01*
X118166428Y-45142857D01*
X118023571Y-45214285D01*
X117452142Y-45214285D01*
X118952142Y-45928571D02*
X118952142Y-44428571D01*
X119309285Y-44428571D01*
X119523571Y-44500000D01*
X119666428Y-44642857D01*
X119737857Y-44785714D01*
X119809285Y-45071428D01*
X119809285Y-45285714D01*
X119737857Y-45571428D01*
X119666428Y-45714285D01*
X119523571Y-45857142D01*
X119309285Y-45928571D01*
X118952142Y-45928571D01*
X120452142Y-45928571D02*
X120452142Y-44428571D01*
X120452142Y-45142857D02*
X121309285Y-45142857D01*
X121309285Y-45928571D02*
X121309285Y-44428571D01*
X123166428Y-45928571D02*
X123166428Y-44928571D01*
X123166428Y-45071428D02*
X123237857Y-45000000D01*
X123380714Y-44928571D01*
X123595000Y-44928571D01*
X123737857Y-45000000D01*
X123809285Y-45142857D01*
X123809285Y-45928571D01*
X123809285Y-45142857D02*
X123880714Y-45000000D01*
X124023571Y-44928571D01*
X124237857Y-44928571D01*
X124380714Y-45000000D01*
X124452142Y-45142857D01*
X124452142Y-45928571D01*
X125380714Y-45928571D02*
X125237857Y-45857142D01*
X125166428Y-45785714D01*
X125095000Y-45642857D01*
X125095000Y-45214285D01*
X125166428Y-45071428D01*
X125237857Y-45000000D01*
X125380714Y-44928571D01*
X125595000Y-44928571D01*
X125737857Y-45000000D01*
X125809285Y-45071428D01*
X125880714Y-45214285D01*
X125880714Y-45642857D01*
X125809285Y-45785714D01*
X125737857Y-45857142D01*
X125595000Y-45928571D01*
X125380714Y-45928571D01*
X127166428Y-45928571D02*
X127166428Y-44428571D01*
X127166428Y-45857142D02*
X127023571Y-45928571D01*
X126737857Y-45928571D01*
X126595000Y-45857142D01*
X126523571Y-45785714D01*
X126452142Y-45642857D01*
X126452142Y-45214285D01*
X126523571Y-45071428D01*
X126595000Y-45000000D01*
X126737857Y-44928571D01*
X127023571Y-44928571D01*
X127166428Y-45000000D01*
X128523571Y-44928571D02*
X128523571Y-45928571D01*
X127880714Y-44928571D02*
X127880714Y-45714285D01*
X127952142Y-45857142D01*
X128095000Y-45928571D01*
X128309285Y-45928571D01*
X128452142Y-45857142D01*
X128523571Y-45785714D01*
X129452142Y-45928571D02*
X129309285Y-45857142D01*
X129237857Y-45714285D01*
X129237857Y-44428571D01*
X130595000Y-45857142D02*
X130452142Y-45928571D01*
X130166428Y-45928571D01*
X130023571Y-45857142D01*
X129952142Y-45714285D01*
X129952142Y-45142857D01*
X130023571Y-45000000D01*
X130166428Y-44928571D01*
X130452142Y-44928571D01*
X130595000Y-45000000D01*
X130666428Y-45142857D01*
X130666428Y-45285714D01*
X129952142Y-45428571D01*
X118237857Y-48478571D02*
X117380714Y-48478571D01*
X117809285Y-48478571D02*
X117809285Y-46978571D01*
X117666428Y-47192857D01*
X117523571Y-47335714D01*
X117380714Y-47407142D01*
X119666428Y-48478571D02*
X118809285Y-48478571D01*
X119237857Y-48478571D02*
X119237857Y-46978571D01*
X119095000Y-47192857D01*
X118952142Y-47335714D01*
X118809285Y-47407142D01*
X121380714Y-46907142D02*
X120095000Y-48835714D01*
X121809285Y-47121428D02*
X121880714Y-47050000D01*
X122023571Y-46978571D01*
X122380714Y-46978571D01*
X122523571Y-47050000D01*
X122595000Y-47121428D01*
X122666428Y-47264285D01*
X122666428Y-47407142D01*
X122595000Y-47621428D01*
X121737857Y-48478571D01*
X122666428Y-48478571D01*
X123595000Y-46978571D02*
X123737857Y-46978571D01*
X123880714Y-47050000D01*
X123952142Y-47121428D01*
X124023571Y-47264285D01*
X124095000Y-47550000D01*
X124095000Y-47907142D01*
X124023571Y-48192857D01*
X123952142Y-48335714D01*
X123880714Y-48407142D01*
X123737857Y-48478571D01*
X123595000Y-48478571D01*
X123452142Y-48407142D01*
X123380714Y-48335714D01*
X123309285Y-48192857D01*
X123237857Y-47907142D01*
X123237857Y-47550000D01*
X123309285Y-47264285D01*
X123380714Y-47121428D01*
X123452142Y-47050000D01*
X123595000Y-46978571D01*
X124666428Y-47121428D02*
X124737857Y-47050000D01*
X124880714Y-46978571D01*
X125237857Y-46978571D01*
X125380714Y-47050000D01*
X125452142Y-47121428D01*
X125523571Y-47264285D01*
X125523571Y-47407142D01*
X125452142Y-47621428D01*
X124595000Y-48478571D01*
X125523571Y-48478571D01*
X126952142Y-48478571D02*
X126095000Y-48478571D01*
X126523571Y-48478571D02*
X126523571Y-46978571D01*
X126380714Y-47192857D01*
X126237857Y-47335714D01*
X126095000Y-47407142D01*
X129595000Y-48478571D02*
X129095000Y-47764285D01*
X128737857Y-48478571D02*
X128737857Y-46978571D01*
X129309285Y-46978571D01*
X129452142Y-47050000D01*
X129523571Y-47121428D01*
X129595000Y-47264285D01*
X129595000Y-47478571D01*
X129523571Y-47621428D01*
X129452142Y-47692857D01*
X129309285Y-47764285D01*
X128737857Y-47764285D01*
X130809285Y-48407142D02*
X130666428Y-48478571D01*
X130380714Y-48478571D01*
X130237857Y-48407142D01*
X130166428Y-48264285D01*
X130166428Y-47692857D01*
X130237857Y-47550000D01*
X130380714Y-47478571D01*
X130666428Y-47478571D01*
X130809285Y-47550000D01*
X130880714Y-47692857D01*
X130880714Y-47835714D01*
X130166428Y-47978571D01*
X131380714Y-47478571D02*
X131737857Y-48478571D01*
X132095000Y-47478571D01*
X132666428Y-48335714D02*
X132737857Y-48407142D01*
X132666428Y-48478571D01*
X132595000Y-48407142D01*
X132666428Y-48335714D01*
X132666428Y-48478571D01*
X135309285Y-48478571D02*
X134452142Y-48478571D01*
X134880714Y-48478571D02*
X134880714Y-46978571D01*
X134737857Y-47192857D01*
X134595000Y-47335714D01*
X134452142Y-47407142D01*
X135952142Y-48335714D02*
X136023571Y-48407142D01*
X135952142Y-48478571D01*
X135880714Y-48407142D01*
X135952142Y-48335714D01*
X135952142Y-48478571D01*
X136952142Y-46978571D02*
X137095000Y-46978571D01*
X137237857Y-47050000D01*
X137309285Y-47121428D01*
X137380714Y-47264285D01*
X137452142Y-47550000D01*
X137452142Y-47907142D01*
X137380714Y-48192857D01*
X137309285Y-48335714D01*
X137237857Y-48407142D01*
X137095000Y-48478571D01*
X136952142Y-48478571D01*
X136809285Y-48407142D01*
X136737857Y-48335714D01*
X136666428Y-48192857D01*
X136595000Y-47907142D01*
X136595000Y-47550000D01*
X136666428Y-47264285D01*
X136737857Y-47121428D01*
X136809285Y-47050000D01*
X136952142Y-46978571D01*
X117452142Y-51028571D02*
X117452142Y-49528571D01*
X117809285Y-49528571D01*
X118023571Y-49600000D01*
X118166428Y-49742857D01*
X118237857Y-49885714D01*
X118309285Y-50171428D01*
X118309285Y-50385714D01*
X118237857Y-50671428D01*
X118166428Y-50814285D01*
X118023571Y-50957142D01*
X117809285Y-51028571D01*
X117452142Y-51028571D01*
X119523571Y-50957142D02*
X119380714Y-51028571D01*
X119095000Y-51028571D01*
X118952142Y-50957142D01*
X118880714Y-50814285D01*
X118880714Y-50242857D01*
X118952142Y-50100000D01*
X119095000Y-50028571D01*
X119380714Y-50028571D01*
X119523571Y-50100000D01*
X119595000Y-50242857D01*
X119595000Y-50385714D01*
X118880714Y-50528571D01*
X120166428Y-50957142D02*
X120309285Y-51028571D01*
X120595000Y-51028571D01*
X120737857Y-50957142D01*
X120809285Y-50814285D01*
X120809285Y-50742857D01*
X120737857Y-50600000D01*
X120595000Y-50528571D01*
X120380714Y-50528571D01*
X120237857Y-50457142D01*
X120166428Y-50314285D01*
X120166428Y-50242857D01*
X120237857Y-50100000D01*
X120380714Y-50028571D01*
X120595000Y-50028571D01*
X120737857Y-50100000D01*
X121452142Y-51028571D02*
X121452142Y-50028571D01*
X121452142Y-49528571D02*
X121380714Y-49600000D01*
X121452142Y-49671428D01*
X121523571Y-49600000D01*
X121452142Y-49528571D01*
X121452142Y-49671428D01*
X122809285Y-50028571D02*
X122809285Y-51242857D01*
X122737857Y-51385714D01*
X122666428Y-51457142D01*
X122523571Y-51528571D01*
X122309285Y-51528571D01*
X122166428Y-51457142D01*
X122809285Y-50957142D02*
X122666428Y-51028571D01*
X122380714Y-51028571D01*
X122237857Y-50957142D01*
X122166428Y-50885714D01*
X122095000Y-50742857D01*
X122095000Y-50314285D01*
X122166428Y-50171428D01*
X122237857Y-50100000D01*
X122380714Y-50028571D01*
X122666428Y-50028571D01*
X122809285Y-50100000D01*
X123523571Y-50028571D02*
X123523571Y-51028571D01*
X123523571Y-50171428D02*
X123595000Y-50100000D01*
X123737857Y-50028571D01*
X123952142Y-50028571D01*
X124095000Y-50100000D01*
X124166428Y-50242857D01*
X124166428Y-51028571D01*
X124880714Y-50885714D02*
X124952142Y-50957142D01*
X124880714Y-51028571D01*
X124809285Y-50957142D01*
X124880714Y-50885714D01*
X124880714Y-51028571D01*
X124880714Y-50100000D02*
X124952142Y-50171428D01*
X124880714Y-50242857D01*
X124809285Y-50171428D01*
X124880714Y-50100000D01*
X124880714Y-50242857D01*
X126523571Y-49528571D02*
X127380714Y-49528571D01*
X126952142Y-51028571D02*
X126952142Y-49528571D01*
X127880714Y-51028571D02*
X127880714Y-50028571D01*
X127880714Y-49528571D02*
X127809285Y-49600000D01*
X127880714Y-49671428D01*
X127952142Y-49600000D01*
X127880714Y-49528571D01*
X127880714Y-49671428D01*
X128809285Y-51028571D02*
X128666428Y-50957142D01*
X128595000Y-50814285D01*
X128595000Y-49528571D01*
X129380714Y-51028571D02*
X129380714Y-50028571D01*
X129380714Y-50171428D02*
X129452142Y-50100000D01*
X129595000Y-50028571D01*
X129809285Y-50028571D01*
X129952142Y-50100000D01*
X130023571Y-50242857D01*
X130023571Y-51028571D01*
X130023571Y-50242857D02*
X130095000Y-50100000D01*
X130237857Y-50028571D01*
X130452142Y-50028571D01*
X130595000Y-50100000D01*
X130666428Y-50242857D01*
X130666428Y-51028571D01*
X132023571Y-51028571D02*
X132023571Y-50242857D01*
X131952142Y-50100000D01*
X131809285Y-50028571D01*
X131523571Y-50028571D01*
X131380714Y-50100000D01*
X132023571Y-50957142D02*
X131880714Y-51028571D01*
X131523571Y-51028571D01*
X131380714Y-50957142D01*
X131309285Y-50814285D01*
X131309285Y-50671428D01*
X131380714Y-50528571D01*
X131523571Y-50457142D01*
X131880714Y-50457142D01*
X132023571Y-50385714D01*
X132737857Y-50028571D02*
X132737857Y-51028571D01*
X132737857Y-50171428D02*
X132809285Y-50100000D01*
X132952142Y-50028571D01*
X133166428Y-50028571D01*
X133309285Y-50100000D01*
X133380714Y-50242857D01*
X133380714Y-51028571D01*
X135237857Y-51028571D02*
X135237857Y-49528571D01*
X135809285Y-49528571D01*
X135952142Y-49600000D01*
X136023571Y-49671428D01*
X136095000Y-49814285D01*
X136095000Y-50028571D01*
X136023571Y-50171428D01*
X135952142Y-50242857D01*
X135809285Y-50314285D01*
X135237857Y-50314285D01*
X136737857Y-51028571D02*
X136737857Y-50028571D01*
X136737857Y-50314285D02*
X136809285Y-50171428D01*
X136880714Y-50100000D01*
X137023571Y-50028571D01*
X137166428Y-50028571D01*
X138237857Y-50957142D02*
X138095000Y-51028571D01*
X137809285Y-51028571D01*
X137666428Y-50957142D01*
X137595000Y-50814285D01*
X137595000Y-50242857D01*
X137666428Y-50100000D01*
X137809285Y-50028571D01*
X138095000Y-50028571D01*
X138237857Y-50100000D01*
X138309285Y-50242857D01*
X138309285Y-50385714D01*
X137595000Y-50528571D01*
X139595000Y-50028571D02*
X139595000Y-51028571D01*
X138952142Y-50028571D02*
X138952142Y-50814285D01*
X139023571Y-50957142D01*
X139166428Y-51028571D01*
X139380714Y-51028571D01*
X139523571Y-50957142D01*
X139595000Y-50885714D01*
X140237857Y-50957142D02*
X140380714Y-51028571D01*
X140666428Y-51028571D01*
X140809285Y-50957142D01*
X140880714Y-50814285D01*
X140880714Y-50742857D01*
X140809285Y-50600000D01*
X140666428Y-50528571D01*
X140452142Y-50528571D01*
X140309285Y-50457142D01*
X140237857Y-50314285D01*
X140237857Y-50242857D01*
X140309285Y-50100000D01*
X140452142Y-50028571D01*
X140666428Y-50028571D01*
X140809285Y-50100000D01*
X142166428Y-50957142D02*
X142023571Y-51028571D01*
X141737857Y-51028571D01*
X141595000Y-50957142D01*
X141523571Y-50885714D01*
X141452142Y-50742857D01*
X141452142Y-50314285D01*
X141523571Y-50171428D01*
X141595000Y-50100000D01*
X141737857Y-50028571D01*
X142023571Y-50028571D01*
X142166428Y-50100000D01*
X142809285Y-51028571D02*
X142809285Y-49528571D01*
X143452142Y-51028571D02*
X143452142Y-50242857D01*
X143380714Y-50100000D01*
X143237857Y-50028571D01*
X143023571Y-50028571D01*
X142880714Y-50100000D01*
X142809285Y-50171428D01*
X144380714Y-51028571D02*
X144237857Y-50957142D01*
X144166428Y-50885714D01*
X144095000Y-50742857D01*
X144095000Y-50314285D01*
X144166428Y-50171428D01*
X144237857Y-50100000D01*
X144380714Y-50028571D01*
X144595000Y-50028571D01*
X144737857Y-50100000D01*
X144809285Y-50171428D01*
X144880714Y-50314285D01*
X144880714Y-50742857D01*
X144809285Y-50885714D01*
X144737857Y-50957142D01*
X144595000Y-51028571D01*
X144380714Y-51028571D01*
X145309285Y-50028571D02*
X145880714Y-50028571D01*
X145523571Y-51028571D02*
X145523571Y-49742857D01*
X145595000Y-49600000D01*
X145737857Y-49528571D01*
X145880714Y-49528571D01*
X146166428Y-50028571D02*
X146737857Y-50028571D01*
X146380714Y-51028571D02*
X146380714Y-49742857D01*
X146452142Y-49600000D01*
X146595000Y-49528571D01*
X146737857Y-49528571D01*
X84178571Y-129428571D02*
X85678571Y-128928571D01*
X84178571Y-128428571D01*
X85107142Y-127928571D02*
X85107142Y-126785714D01*
X85678571Y-127357142D02*
X84535714Y-127357142D01*
D11*
X87500000Y-125500000D02*
X87500000Y-131000000D01*
X70000000Y-125500000D02*
X87500000Y-125500000D01*
X70000000Y-131000000D02*
X70000000Y-125500000D01*
X87500000Y-131000000D02*
X70000000Y-131000000D01*
D10*
X84250000Y-92642857D02*
X84178571Y-92785714D01*
X84178571Y-93000000D01*
X84250000Y-93214285D01*
X84392857Y-93357142D01*
X84535714Y-93428571D01*
X84821428Y-93500000D01*
X85035714Y-93500000D01*
X85321428Y-93428571D01*
X85464285Y-93357142D01*
X85607142Y-93214285D01*
X85678571Y-93000000D01*
X85678571Y-92857142D01*
X85607142Y-92642857D01*
X85535714Y-92571428D01*
X85035714Y-92571428D01*
X85035714Y-92857142D01*
X85678571Y-91928571D02*
X84178571Y-91928571D01*
X85678571Y-91071428D01*
X84178571Y-91071428D01*
X85678571Y-90357142D02*
X84178571Y-90357142D01*
X84178571Y-90000000D01*
X84250000Y-89785714D01*
X84392857Y-89642857D01*
X84535714Y-89571428D01*
X84821428Y-89500000D01*
X85035714Y-89500000D01*
X85321428Y-89571428D01*
X85464285Y-89642857D01*
X85607142Y-89785714D01*
X85678571Y-90000000D01*
X85678571Y-90357142D01*
D11*
X87500000Y-87500000D02*
X70000000Y-87500000D01*
X87500000Y-95000000D02*
X87500000Y-87500000D01*
X70000000Y-95000000D02*
X87500000Y-95000000D01*
X87500000Y-48000000D02*
X70000000Y-48000000D01*
X87500000Y-54500000D02*
X87500000Y-48000000D01*
X70000000Y-54500000D02*
X87500000Y-54500000D01*
D10*
X84178571Y-52428571D02*
X85678571Y-51928571D01*
X84178571Y-51428571D01*
X85107142Y-50928571D02*
X85107142Y-49785714D01*
D11*
X88240000Y-93902064D02*
X88240000Y-92697936D01*
X90960000Y-93902064D02*
X90960000Y-92697936D01*
X90960000Y-87502064D02*
X90960000Y-86297936D01*
X88240000Y-87502064D02*
X88240000Y-86297936D01*
X95162779Y-95410000D02*
X94837221Y-95410000D01*
X95162779Y-94390000D02*
X94837221Y-94390000D01*
X94949721Y-86910000D02*
X95275279Y-86910000D01*
X94949721Y-85890000D02*
X95275279Y-85890000D01*
X183690000Y-49937221D02*
X183690000Y-50262779D01*
X184710000Y-49937221D02*
X184710000Y-50262779D01*
X99840000Y-93702064D02*
X99840000Y-92497936D01*
X102560000Y-93702064D02*
X102560000Y-92497936D01*
X102460000Y-87402064D02*
X102460000Y-86197936D01*
X99740000Y-87402064D02*
X99740000Y-86197936D01*
X179310000Y-59237221D02*
X179310000Y-59562779D01*
X178290000Y-59237221D02*
X178290000Y-59562779D01*
X197410000Y-59337221D02*
X197410000Y-59662779D01*
X196390000Y-59337221D02*
X196390000Y-59662779D01*
X203410000Y-50262779D02*
X203410000Y-49937221D01*
X202390000Y-50262779D02*
X202390000Y-49937221D01*
X75340000Y-137117000D02*
X75340000Y-130767000D01*
X75340000Y-137117000D02*
X70040000Y-137117000D01*
X70040000Y-137117000D02*
X70040000Y-42883000D01*
X70040000Y-42883000D02*
X75340000Y-42883000D01*
X75340000Y-42883000D02*
X75340000Y-49233000D01*
X230000000Y-70000000D02*
X230000000Y-85000000D01*
X230000000Y-85000000D02*
X215000000Y-85000000D01*
X215000000Y-85000000D02*
X215000000Y-70000000D01*
X215000000Y-70000000D02*
X230000000Y-70000000D01*
X229800000Y-77500000D02*
X228800000Y-76500000D01*
X229800000Y-77500000D02*
X228800000Y-78500000D01*
X230000000Y-94900000D02*
X230000000Y-109900000D01*
X230000000Y-109900000D02*
X215000000Y-109900000D01*
X215000000Y-109900000D02*
X215000000Y-94900000D01*
X215000000Y-94900000D02*
X230000000Y-94900000D01*
X229800000Y-102400000D02*
X228800000Y-101400000D01*
X229800000Y-102400000D02*
X228800000Y-103400000D01*
X229820000Y-55120000D02*
X228820000Y-56120000D01*
X229820000Y-55120000D02*
X228820000Y-54120000D01*
X215020000Y-47620000D02*
X230020000Y-47620000D01*
X215020000Y-62620000D02*
X215020000Y-47620000D01*
X230020000Y-62620000D02*
X215020000Y-62620000D01*
X230020000Y-47620000D02*
X230020000Y-62620000D01*
D12*
X96904000Y-49500000D02*
G75*
G03*
X96904000Y-49500000I-254000J0D01*
G01*
X98904000Y-49500000D02*
G75*
G03*
X98904000Y-49500000I-254000J0D01*
G01*
X100904000Y-49500000D02*
G75*
G03*
X100904000Y-49500000I-254000J0D01*
G01*
X100904000Y-47500000D02*
G75*
G03*
X100904000Y-47500000I-254000J0D01*
G01*
X98904000Y-47500000D02*
G75*
G03*
X98904000Y-47500000I-254000J0D01*
G01*
X96904000Y-47500000D02*
G75*
G03*
X96904000Y-47500000I-254000J0D01*
G01*
X98904000Y-45500000D02*
G75*
G03*
X98904000Y-45500000I-254000J0D01*
G01*
X96904000Y-45500000D02*
G75*
G03*
X96904000Y-45500000I-254000J0D01*
G01*
X100904000Y-45500000D02*
G75*
G03*
X100904000Y-45500000I-254000J0D01*
G01*
D13*
G36*
X153626964Y-44790018D02*
G01*
X153683812Y-45091570D01*
X154103338Y-45264512D01*
X154354984Y-45093395D01*
X154425458Y-45045750D01*
X154489163Y-45003210D01*
X154543126Y-44967715D01*
X154584373Y-44941210D01*
X154609934Y-44925636D01*
X154616895Y-44922278D01*
X154629435Y-44930914D01*
X154656231Y-44954792D01*
X154694280Y-44990859D01*
X154740579Y-45036067D01*
X154792123Y-45087364D01*
X154845909Y-45141701D01*
X154898935Y-45196028D01*
X154948195Y-45247295D01*
X154990687Y-45292451D01*
X155023407Y-45328446D01*
X155043351Y-45352230D01*
X155048119Y-45360190D01*
X155041257Y-45374865D01*
X155022020Y-45407014D01*
X154992430Y-45453492D01*
X154954510Y-45511156D01*
X154910282Y-45576860D01*
X154884654Y-45614336D01*
X154837941Y-45682768D01*
X154796432Y-45744520D01*
X154762140Y-45796519D01*
X154737080Y-45835692D01*
X154723264Y-45858965D01*
X154721188Y-45863855D01*
X154725895Y-45877755D01*
X154738723Y-45910150D01*
X154757738Y-45956485D01*
X154781003Y-46012206D01*
X154806584Y-46072758D01*
X154832545Y-46133586D01*
X154856950Y-46190136D01*
X154877863Y-46237852D01*
X154893349Y-46272181D01*
X154901472Y-46288568D01*
X154901952Y-46289212D01*
X154914707Y-46292341D01*
X154948677Y-46299321D01*
X155000340Y-46309467D01*
X155066176Y-46322092D01*
X155142664Y-46336509D01*
X155187290Y-46344823D01*
X155269021Y-46360384D01*
X155342843Y-46375192D01*
X155405021Y-46388436D01*
X155451822Y-46399305D01*
X155479509Y-46406989D01*
X155485074Y-46409427D01*
X155490526Y-46425930D01*
X155494924Y-46463200D01*
X155498272Y-46516880D01*
X155500574Y-46582612D01*
X155501832Y-46656037D01*
X155502048Y-46732796D01*
X155501227Y-46808532D01*
X155499371Y-46878886D01*
X155496482Y-46939500D01*
X155492565Y-46986016D01*
X155487622Y-47014075D01*
X155484657Y-47019916D01*
X155466934Y-47026917D01*
X155429381Y-47036927D01*
X155376964Y-47048769D01*
X155314652Y-47061267D01*
X155292900Y-47065310D01*
X155188024Y-47084520D01*
X155105180Y-47099991D01*
X155041630Y-47112337D01*
X154994637Y-47122173D01*
X154961463Y-47130114D01*
X154939371Y-47136776D01*
X154925624Y-47142773D01*
X154917484Y-47148719D01*
X154916345Y-47149894D01*
X154904977Y-47168826D01*
X154887635Y-47205669D01*
X154866050Y-47255913D01*
X154841954Y-47315046D01*
X154817079Y-47378556D01*
X154793157Y-47441932D01*
X154771919Y-47500662D01*
X154755097Y-47550235D01*
X154744422Y-47586139D01*
X154741627Y-47603862D01*
X154741860Y-47604483D01*
X154751331Y-47618970D01*
X154772818Y-47650844D01*
X154804063Y-47696789D01*
X154842807Y-47753485D01*
X154886793Y-47817617D01*
X154899319Y-47835842D01*
X154943984Y-47901914D01*
X154983288Y-47962200D01*
X155015088Y-48013235D01*
X155037245Y-48051560D01*
X155047617Y-48073711D01*
X155048119Y-48076432D01*
X155039405Y-48090736D01*
X155015325Y-48119072D01*
X154978976Y-48158396D01*
X154933453Y-48205661D01*
X154881852Y-48257823D01*
X154827267Y-48311835D01*
X154772794Y-48364653D01*
X154721529Y-48413231D01*
X154676567Y-48454523D01*
X154641004Y-48485485D01*
X154617935Y-48503070D01*
X154611554Y-48505941D01*
X154596699Y-48499178D01*
X154566286Y-48480939D01*
X154525268Y-48454297D01*
X154493709Y-48432852D01*
X154436525Y-48393503D01*
X154368806Y-48347171D01*
X154300880Y-48300913D01*
X154264361Y-48276155D01*
X154140752Y-48192547D01*
X154036991Y-48248650D01*
X153989720Y-48273228D01*
X153949523Y-48292331D01*
X153922326Y-48303227D01*
X153915402Y-48304743D01*
X153907077Y-48293549D01*
X153890654Y-48261917D01*
X153867357Y-48212765D01*
X153838414Y-48149010D01*
X153805050Y-48073571D01*
X153768491Y-47989364D01*
X153729964Y-47899308D01*
X153690694Y-47806321D01*
X153651908Y-47713320D01*
X153614830Y-47623223D01*
X153580689Y-47538948D01*
X153550708Y-47463413D01*
X153526116Y-47399534D01*
X153508136Y-47350231D01*
X153497997Y-47318421D01*
X153496366Y-47307496D01*
X153509291Y-47293561D01*
X153537589Y-47270940D01*
X153575346Y-47244333D01*
X153578515Y-47242228D01*
X153676100Y-47164114D01*
X153754786Y-47072982D01*
X153813891Y-46971745D01*
X153852732Y-46863318D01*
X153870628Y-46750614D01*
X153866897Y-46636548D01*
X153840857Y-46524034D01*
X153791825Y-46415985D01*
X153777400Y-46392345D01*
X153702369Y-46296887D01*
X153613730Y-46220232D01*
X153514549Y-46162780D01*
X153407895Y-46124929D01*
X153296836Y-46107078D01*
X153184439Y-46109625D01*
X153073773Y-46132970D01*
X152967906Y-46177510D01*
X152869905Y-46243645D01*
X152839590Y-46270487D01*
X152762438Y-46354512D01*
X152706218Y-46442966D01*
X152667653Y-46542115D01*
X152646174Y-46640303D01*
X152640872Y-46750697D01*
X152658552Y-46861640D01*
X152697419Y-46969381D01*
X152755677Y-47070169D01*
X152831531Y-47160256D01*
X152923183Y-47235892D01*
X152935228Y-47243864D01*
X152973389Y-47269974D01*
X153002399Y-47292595D01*
X153016268Y-47307039D01*
X153016469Y-47307496D01*
X153013492Y-47323121D01*
X153001689Y-47358582D01*
X152982286Y-47410962D01*
X152956512Y-47477345D01*
X152925591Y-47554814D01*
X152890751Y-47640450D01*
X152853217Y-47731337D01*
X152814217Y-47824559D01*
X152774977Y-47917197D01*
X152736724Y-48006335D01*
X152700683Y-48089055D01*
X152668083Y-48162441D01*
X152640148Y-48223575D01*
X152618105Y-48269541D01*
X152603182Y-48297421D01*
X152597172Y-48304743D01*
X152578809Y-48299041D01*
X152544448Y-48283749D01*
X152500016Y-48261599D01*
X152475583Y-48248650D01*
X152371822Y-48192547D01*
X152248213Y-48276155D01*
X152185114Y-48318987D01*
X152116030Y-48366122D01*
X152051293Y-48410503D01*
X152018866Y-48432852D01*
X151973259Y-48463477D01*
X151934640Y-48487747D01*
X151908048Y-48502587D01*
X151899410Y-48505724D01*
X151886839Y-48497261D01*
X151859016Y-48473636D01*
X151818639Y-48437302D01*
X151768405Y-48390711D01*
X151711012Y-48336317D01*
X151674714Y-48301392D01*
X151611210Y-48238996D01*
X151556327Y-48183188D01*
X151512286Y-48136354D01*
X151481305Y-48100882D01*
X151465602Y-48079161D01*
X151464095Y-48074752D01*
X151471086Y-48057985D01*
X151490406Y-48024082D01*
X151519909Y-47976476D01*
X151557455Y-47918599D01*
X151600900Y-47853884D01*
X151613255Y-47835842D01*
X151658273Y-47770267D01*
X151698660Y-47711228D01*
X151732160Y-47662042D01*
X151756514Y-47626028D01*
X151769464Y-47606502D01*
X151770715Y-47604483D01*
X151768844Y-47588922D01*
X151758913Y-47554709D01*
X151742653Y-47506355D01*
X151721795Y-47448371D01*
X151698073Y-47385270D01*
X151673216Y-47321563D01*
X151648958Y-47261761D01*
X151627029Y-47210376D01*
X151609162Y-47171919D01*
X151597087Y-47150902D01*
X151596229Y-47149894D01*
X151588846Y-47143888D01*
X151576375Y-47137948D01*
X151556080Y-47131460D01*
X151525222Y-47123809D01*
X151481066Y-47114380D01*
X151420874Y-47102559D01*
X151341907Y-47087729D01*
X151241430Y-47069277D01*
X151219675Y-47065310D01*
X151155198Y-47052853D01*
X151098989Y-47040666D01*
X151056013Y-47029926D01*
X151031240Y-47021809D01*
X151027918Y-47019916D01*
X151022444Y-47003138D01*
X151017994Y-46965645D01*
X151014572Y-46911794D01*
X151012181Y-46845944D01*
X151010823Y-46772453D01*
X151010501Y-46695680D01*
X151011219Y-46619983D01*
X151012979Y-46549720D01*
X151015784Y-46489250D01*
X151019638Y-46442930D01*
X151024543Y-46415119D01*
X151027500Y-46409427D01*
X151043963Y-46403686D01*
X151081449Y-46394345D01*
X151136225Y-46382215D01*
X151204555Y-46368107D01*
X151282706Y-46352830D01*
X151325284Y-46344823D01*
X151406071Y-46329721D01*
X151478113Y-46316040D01*
X151537889Y-46304467D01*
X151581879Y-46295687D01*
X151606561Y-46290387D01*
X151610623Y-46289212D01*
X151617489Y-46275965D01*
X151632002Y-46244057D01*
X151652229Y-46198047D01*
X151676234Y-46142492D01*
X151702082Y-46081953D01*
X151727840Y-46020986D01*
X151751573Y-45964151D01*
X151771346Y-45916006D01*
X151785224Y-45881110D01*
X151791274Y-45864021D01*
X151791386Y-45863274D01*
X151784528Y-45849793D01*
X151765302Y-45818770D01*
X151735728Y-45773289D01*
X151697827Y-45716432D01*
X151653620Y-45651283D01*
X151627921Y-45613862D01*
X151581093Y-45545247D01*
X151539501Y-45482952D01*
X151505175Y-45430129D01*
X151480143Y-45389927D01*
X151466435Y-45365500D01*
X151464456Y-45360024D01*
X151472966Y-45347278D01*
X151496493Y-45320063D01*
X151532032Y-45281428D01*
X151576577Y-45234423D01*
X151627123Y-45182095D01*
X151680664Y-45127495D01*
X151734195Y-45073670D01*
X151784711Y-45023670D01*
X151829206Y-44980543D01*
X151864675Y-44947339D01*
X151888113Y-44927106D01*
X151895954Y-44922278D01*
X151908720Y-44929067D01*
X151939256Y-44948142D01*
X151984590Y-44977561D01*
X152041756Y-45015381D01*
X152107784Y-45059661D01*
X152157590Y-45093395D01*
X152409236Y-45264512D01*
X152618999Y-45178041D01*
X152828763Y-45091570D01*
X152885611Y-44790018D01*
X152942460Y-44488466D01*
X153570115Y-44488466D01*
X153626964Y-44790018D01*
G37*
X153626964Y-44790018D02*
X153683812Y-45091570D01*
X154103338Y-45264512D01*
X154354984Y-45093395D01*
X154425458Y-45045750D01*
X154489163Y-45003210D01*
X154543126Y-44967715D01*
X154584373Y-44941210D01*
X154609934Y-44925636D01*
X154616895Y-44922278D01*
X154629435Y-44930914D01*
X154656231Y-44954792D01*
X154694280Y-44990859D01*
X154740579Y-45036067D01*
X154792123Y-45087364D01*
X154845909Y-45141701D01*
X154898935Y-45196028D01*
X154948195Y-45247295D01*
X154990687Y-45292451D01*
X155023407Y-45328446D01*
X155043351Y-45352230D01*
X155048119Y-45360190D01*
X155041257Y-45374865D01*
X155022020Y-45407014D01*
X154992430Y-45453492D01*
X154954510Y-45511156D01*
X154910282Y-45576860D01*
X154884654Y-45614336D01*
X154837941Y-45682768D01*
X154796432Y-45744520D01*
X154762140Y-45796519D01*
X154737080Y-45835692D01*
X154723264Y-45858965D01*
X154721188Y-45863855D01*
X154725895Y-45877755D01*
X154738723Y-45910150D01*
X154757738Y-45956485D01*
X154781003Y-46012206D01*
X154806584Y-46072758D01*
X154832545Y-46133586D01*
X154856950Y-46190136D01*
X154877863Y-46237852D01*
X154893349Y-46272181D01*
X154901472Y-46288568D01*
X154901952Y-46289212D01*
X154914707Y-46292341D01*
X154948677Y-46299321D01*
X155000340Y-46309467D01*
X155066176Y-46322092D01*
X155142664Y-46336509D01*
X155187290Y-46344823D01*
X155269021Y-46360384D01*
X155342843Y-46375192D01*
X155405021Y-46388436D01*
X155451822Y-46399305D01*
X155479509Y-46406989D01*
X155485074Y-46409427D01*
X155490526Y-46425930D01*
X155494924Y-46463200D01*
X155498272Y-46516880D01*
X155500574Y-46582612D01*
X155501832Y-46656037D01*
X155502048Y-46732796D01*
X155501227Y-46808532D01*
X155499371Y-46878886D01*
X155496482Y-46939500D01*
X155492565Y-46986016D01*
X155487622Y-47014075D01*
X155484657Y-47019916D01*
X155466934Y-47026917D01*
X155429381Y-47036927D01*
X155376964Y-47048769D01*
X155314652Y-47061267D01*
X155292900Y-47065310D01*
X155188024Y-47084520D01*
X155105180Y-47099991D01*
X155041630Y-47112337D01*
X154994637Y-47122173D01*
X154961463Y-47130114D01*
X154939371Y-47136776D01*
X154925624Y-47142773D01*
X154917484Y-47148719D01*
X154916345Y-47149894D01*
X154904977Y-47168826D01*
X154887635Y-47205669D01*
X154866050Y-47255913D01*
X154841954Y-47315046D01*
X154817079Y-47378556D01*
X154793157Y-47441932D01*
X154771919Y-47500662D01*
X154755097Y-47550235D01*
X154744422Y-47586139D01*
X154741627Y-47603862D01*
X154741860Y-47604483D01*
X154751331Y-47618970D01*
X154772818Y-47650844D01*
X154804063Y-47696789D01*
X154842807Y-47753485D01*
X154886793Y-47817617D01*
X154899319Y-47835842D01*
X154943984Y-47901914D01*
X154983288Y-47962200D01*
X155015088Y-48013235D01*
X155037245Y-48051560D01*
X155047617Y-48073711D01*
X155048119Y-48076432D01*
X155039405Y-48090736D01*
X155015325Y-48119072D01*
X154978976Y-48158396D01*
X154933453Y-48205661D01*
X154881852Y-48257823D01*
X154827267Y-48311835D01*
X154772794Y-48364653D01*
X154721529Y-48413231D01*
X154676567Y-48454523D01*
X154641004Y-48485485D01*
X154617935Y-48503070D01*
X154611554Y-48505941D01*
X154596699Y-48499178D01*
X154566286Y-48480939D01*
X154525268Y-48454297D01*
X154493709Y-48432852D01*
X154436525Y-48393503D01*
X154368806Y-48347171D01*
X154300880Y-48300913D01*
X154264361Y-48276155D01*
X154140752Y-48192547D01*
X154036991Y-48248650D01*
X153989720Y-48273228D01*
X153949523Y-48292331D01*
X153922326Y-48303227D01*
X153915402Y-48304743D01*
X153907077Y-48293549D01*
X153890654Y-48261917D01*
X153867357Y-48212765D01*
X153838414Y-48149010D01*
X153805050Y-48073571D01*
X153768491Y-47989364D01*
X153729964Y-47899308D01*
X153690694Y-47806321D01*
X153651908Y-47713320D01*
X153614830Y-47623223D01*
X153580689Y-47538948D01*
X153550708Y-47463413D01*
X153526116Y-47399534D01*
X153508136Y-47350231D01*
X153497997Y-47318421D01*
X153496366Y-47307496D01*
X153509291Y-47293561D01*
X153537589Y-47270940D01*
X153575346Y-47244333D01*
X153578515Y-47242228D01*
X153676100Y-47164114D01*
X153754786Y-47072982D01*
X153813891Y-46971745D01*
X153852732Y-46863318D01*
X153870628Y-46750614D01*
X153866897Y-46636548D01*
X153840857Y-46524034D01*
X153791825Y-46415985D01*
X153777400Y-46392345D01*
X153702369Y-46296887D01*
X153613730Y-46220232D01*
X153514549Y-46162780D01*
X153407895Y-46124929D01*
X153296836Y-46107078D01*
X153184439Y-46109625D01*
X153073773Y-46132970D01*
X152967906Y-46177510D01*
X152869905Y-46243645D01*
X152839590Y-46270487D01*
X152762438Y-46354512D01*
X152706218Y-46442966D01*
X152667653Y-46542115D01*
X152646174Y-46640303D01*
X152640872Y-46750697D01*
X152658552Y-46861640D01*
X152697419Y-46969381D01*
X152755677Y-47070169D01*
X152831531Y-47160256D01*
X152923183Y-47235892D01*
X152935228Y-47243864D01*
X152973389Y-47269974D01*
X153002399Y-47292595D01*
X153016268Y-47307039D01*
X153016469Y-47307496D01*
X153013492Y-47323121D01*
X153001689Y-47358582D01*
X152982286Y-47410962D01*
X152956512Y-47477345D01*
X152925591Y-47554814D01*
X152890751Y-47640450D01*
X152853217Y-47731337D01*
X152814217Y-47824559D01*
X152774977Y-47917197D01*
X152736724Y-48006335D01*
X152700683Y-48089055D01*
X152668083Y-48162441D01*
X152640148Y-48223575D01*
X152618105Y-48269541D01*
X152603182Y-48297421D01*
X152597172Y-48304743D01*
X152578809Y-48299041D01*
X152544448Y-48283749D01*
X152500016Y-48261599D01*
X152475583Y-48248650D01*
X152371822Y-48192547D01*
X152248213Y-48276155D01*
X152185114Y-48318987D01*
X152116030Y-48366122D01*
X152051293Y-48410503D01*
X152018866Y-48432852D01*
X151973259Y-48463477D01*
X151934640Y-48487747D01*
X151908048Y-48502587D01*
X151899410Y-48505724D01*
X151886839Y-48497261D01*
X151859016Y-48473636D01*
X151818639Y-48437302D01*
X151768405Y-48390711D01*
X151711012Y-48336317D01*
X151674714Y-48301392D01*
X151611210Y-48238996D01*
X151556327Y-48183188D01*
X151512286Y-48136354D01*
X151481305Y-48100882D01*
X151465602Y-48079161D01*
X151464095Y-48074752D01*
X151471086Y-48057985D01*
X151490406Y-48024082D01*
X151519909Y-47976476D01*
X151557455Y-47918599D01*
X151600900Y-47853884D01*
X151613255Y-47835842D01*
X151658273Y-47770267D01*
X151698660Y-47711228D01*
X151732160Y-47662042D01*
X151756514Y-47626028D01*
X151769464Y-47606502D01*
X151770715Y-47604483D01*
X151768844Y-47588922D01*
X151758913Y-47554709D01*
X151742653Y-47506355D01*
X151721795Y-47448371D01*
X151698073Y-47385270D01*
X151673216Y-47321563D01*
X151648958Y-47261761D01*
X151627029Y-47210376D01*
X151609162Y-47171919D01*
X151597087Y-47150902D01*
X151596229Y-47149894D01*
X151588846Y-47143888D01*
X151576375Y-47137948D01*
X151556080Y-47131460D01*
X151525222Y-47123809D01*
X151481066Y-47114380D01*
X151420874Y-47102559D01*
X151341907Y-47087729D01*
X151241430Y-47069277D01*
X151219675Y-47065310D01*
X151155198Y-47052853D01*
X151098989Y-47040666D01*
X151056013Y-47029926D01*
X151031240Y-47021809D01*
X151027918Y-47019916D01*
X151022444Y-47003138D01*
X151017994Y-46965645D01*
X151014572Y-46911794D01*
X151012181Y-46845944D01*
X151010823Y-46772453D01*
X151010501Y-46695680D01*
X151011219Y-46619983D01*
X151012979Y-46549720D01*
X151015784Y-46489250D01*
X151019638Y-46442930D01*
X151024543Y-46415119D01*
X151027500Y-46409427D01*
X151043963Y-46403686D01*
X151081449Y-46394345D01*
X151136225Y-46382215D01*
X151204555Y-46368107D01*
X151282706Y-46352830D01*
X151325284Y-46344823D01*
X151406071Y-46329721D01*
X151478113Y-46316040D01*
X151537889Y-46304467D01*
X151581879Y-46295687D01*
X151606561Y-46290387D01*
X151610623Y-46289212D01*
X151617489Y-46275965D01*
X151632002Y-46244057D01*
X151652229Y-46198047D01*
X151676234Y-46142492D01*
X151702082Y-46081953D01*
X151727840Y-46020986D01*
X151751573Y-45964151D01*
X151771346Y-45916006D01*
X151785224Y-45881110D01*
X151791274Y-45864021D01*
X151791386Y-45863274D01*
X151784528Y-45849793D01*
X151765302Y-45818770D01*
X151735728Y-45773289D01*
X151697827Y-45716432D01*
X151653620Y-45651283D01*
X151627921Y-45613862D01*
X151581093Y-45545247D01*
X151539501Y-45482952D01*
X151505175Y-45430129D01*
X151480143Y-45389927D01*
X151466435Y-45365500D01*
X151464456Y-45360024D01*
X151472966Y-45347278D01*
X151496493Y-45320063D01*
X151532032Y-45281428D01*
X151576577Y-45234423D01*
X151627123Y-45182095D01*
X151680664Y-45127495D01*
X151734195Y-45073670D01*
X151784711Y-45023670D01*
X151829206Y-44980543D01*
X151864675Y-44947339D01*
X151888113Y-44927106D01*
X151895954Y-44922278D01*
X151908720Y-44929067D01*
X151939256Y-44948142D01*
X151984590Y-44977561D01*
X152041756Y-45015381D01*
X152107784Y-45059661D01*
X152157590Y-45093395D01*
X152409236Y-45264512D01*
X152618999Y-45178041D01*
X152828763Y-45091570D01*
X152885611Y-44790018D01*
X152942460Y-44488466D01*
X153570115Y-44488466D01*
X153626964Y-44790018D01*
G36*
X155049460Y-48958030D02*
G01*
X155092711Y-48971245D01*
X155120558Y-48987941D01*
X155129629Y-49001145D01*
X155127132Y-49016797D01*
X155110931Y-49041385D01*
X155097232Y-49058800D01*
X155068992Y-49090283D01*
X155047775Y-49103529D01*
X155029688Y-49102664D01*
X154976035Y-49089010D01*
X154936630Y-49089630D01*
X154904632Y-49105104D01*
X154893890Y-49114161D01*
X154859505Y-49146027D01*
X154859505Y-49562179D01*
X154721188Y-49562179D01*
X154721188Y-48958614D01*
X154790347Y-48958614D01*
X154831869Y-48960256D01*
X154853291Y-48966087D01*
X154859502Y-48977461D01*
X154859505Y-48977798D01*
X154862439Y-48989713D01*
X154875704Y-48988159D01*
X154894084Y-48979563D01*
X154932046Y-48963568D01*
X154962872Y-48953945D01*
X155002536Y-48951478D01*
X155049460Y-48958030D01*
G37*
X155049460Y-48958030D02*
X155092711Y-48971245D01*
X155120558Y-48987941D01*
X155129629Y-49001145D01*
X155127132Y-49016797D01*
X155110931Y-49041385D01*
X155097232Y-49058800D01*
X155068992Y-49090283D01*
X155047775Y-49103529D01*
X155029688Y-49102664D01*
X154976035Y-49089010D01*
X154936630Y-49089630D01*
X154904632Y-49105104D01*
X154893890Y-49114161D01*
X154859505Y-49146027D01*
X154859505Y-49562179D01*
X154721188Y-49562179D01*
X154721188Y-48958614D01*
X154790347Y-48958614D01*
X154831869Y-48960256D01*
X154853291Y-48966087D01*
X154859502Y-48977461D01*
X154859505Y-48977798D01*
X154862439Y-48989713D01*
X154875704Y-48988159D01*
X154894084Y-48979563D01*
X154932046Y-48963568D01*
X154962872Y-48953945D01*
X155002536Y-48951478D01*
X155049460Y-48958030D01*
G36*
X152495988Y-48969002D02*
G01*
X152527283Y-48983950D01*
X152557591Y-49005541D01*
X152580682Y-49030391D01*
X152597500Y-49062087D01*
X152608994Y-49104214D01*
X152616109Y-49160358D01*
X152619793Y-49234106D01*
X152620992Y-49329044D01*
X152621011Y-49338985D01*
X152621287Y-49562179D01*
X152482970Y-49562179D01*
X152482970Y-49356418D01*
X152482872Y-49280189D01*
X152482191Y-49224939D01*
X152480349Y-49186501D01*
X152476767Y-49160706D01*
X152470868Y-49143384D01*
X152462073Y-49130368D01*
X152449820Y-49117507D01*
X152406953Y-49089873D01*
X152360157Y-49084745D01*
X152315576Y-49102217D01*
X152300072Y-49115221D01*
X152288690Y-49127447D01*
X152280519Y-49140540D01*
X152275026Y-49158615D01*
X152271680Y-49185787D01*
X152269949Y-49226170D01*
X152269303Y-49283879D01*
X152269208Y-49354132D01*
X152269208Y-49562179D01*
X152130891Y-49562179D01*
X152130891Y-48958614D01*
X152200050Y-48958614D01*
X152241572Y-48960256D01*
X152262994Y-48966087D01*
X152269205Y-48977461D01*
X152269208Y-48977798D01*
X152272090Y-48988938D01*
X152284801Y-48987674D01*
X152310074Y-48975434D01*
X152367395Y-48957424D01*
X152432963Y-48955421D01*
X152495988Y-48969002D01*
G37*
X152495988Y-48969002D02*
X152527283Y-48983950D01*
X152557591Y-49005541D01*
X152580682Y-49030391D01*
X152597500Y-49062087D01*
X152608994Y-49104214D01*
X152616109Y-49160358D01*
X152619793Y-49234106D01*
X152620992Y-49329044D01*
X152621011Y-49338985D01*
X152621287Y-49562179D01*
X152482970Y-49562179D01*
X152482970Y-49356418D01*
X152482872Y-49280189D01*
X152482191Y-49224939D01*
X152480349Y-49186501D01*
X152476767Y-49160706D01*
X152470868Y-49143384D01*
X152462073Y-49130368D01*
X152449820Y-49117507D01*
X152406953Y-49089873D01*
X152360157Y-49084745D01*
X152315576Y-49102217D01*
X152300072Y-49115221D01*
X152288690Y-49127447D01*
X152280519Y-49140540D01*
X152275026Y-49158615D01*
X152271680Y-49185787D01*
X152269949Y-49226170D01*
X152269303Y-49283879D01*
X152269208Y-49354132D01*
X152269208Y-49562179D01*
X152130891Y-49562179D01*
X152130891Y-48958614D01*
X152200050Y-48958614D01*
X152241572Y-48960256D01*
X152262994Y-48966087D01*
X152269205Y-48977461D01*
X152269208Y-48977798D01*
X152272090Y-48988938D01*
X152284801Y-48987674D01*
X152310074Y-48975434D01*
X152367395Y-48957424D01*
X152432963Y-48955421D01*
X152495988Y-48969002D01*
G36*
X155927898Y-48956457D02*
G01*
X155960096Y-48964279D01*
X156021825Y-48992921D01*
X156074610Y-49036667D01*
X156111141Y-49089117D01*
X156116160Y-49100893D01*
X156123045Y-49131740D01*
X156127864Y-49177371D01*
X156129505Y-49223492D01*
X156129505Y-49310693D01*
X155947178Y-49310693D01*
X155871979Y-49310978D01*
X155819003Y-49312704D01*
X155785325Y-49317181D01*
X155768020Y-49325720D01*
X155764163Y-49339630D01*
X155770829Y-49360222D01*
X155782770Y-49384315D01*
X155816080Y-49424525D01*
X155862368Y-49444558D01*
X155918944Y-49443905D01*
X155983031Y-49422101D01*
X156038417Y-49395193D01*
X156084375Y-49431532D01*
X156130333Y-49467872D01*
X156087096Y-49507819D01*
X156029374Y-49545563D01*
X155958386Y-49568320D01*
X155882029Y-49574688D01*
X155808199Y-49563268D01*
X155796287Y-49559393D01*
X155731399Y-49525506D01*
X155683130Y-49474986D01*
X155650465Y-49406325D01*
X155632385Y-49318014D01*
X155632175Y-49316121D01*
X155630556Y-49219878D01*
X155637100Y-49185542D01*
X155764852Y-49185542D01*
X155776584Y-49190822D01*
X155808438Y-49194867D01*
X155855397Y-49197176D01*
X155885154Y-49197525D01*
X155940648Y-49197306D01*
X155975346Y-49195916D01*
X155993601Y-49192251D01*
X155999766Y-49185210D01*
X155998195Y-49173690D01*
X155996878Y-49169233D01*
X155974382Y-49127355D01*
X155939003Y-49093604D01*
X155907780Y-49078773D01*
X155866301Y-49079668D01*
X155824269Y-49098164D01*
X155789012Y-49128786D01*
X155767854Y-49166062D01*
X155764852Y-49185542D01*
X155637100Y-49185542D01*
X155646690Y-49135229D01*
X155678698Y-49064191D01*
X155724701Y-49008779D01*
X155782821Y-48971009D01*
X155851180Y-48952896D01*
X155927898Y-48956457D01*
G37*
X155927898Y-48956457D02*
X155960096Y-48964279D01*
X156021825Y-48992921D01*
X156074610Y-49036667D01*
X156111141Y-49089117D01*
X156116160Y-49100893D01*
X156123045Y-49131740D01*
X156127864Y-49177371D01*
X156129505Y-49223492D01*
X156129505Y-49310693D01*
X155947178Y-49310693D01*
X155871979Y-49310978D01*
X155819003Y-49312704D01*
X155785325Y-49317181D01*
X155768020Y-49325720D01*
X155764163Y-49339630D01*
X155770829Y-49360222D01*
X155782770Y-49384315D01*
X155816080Y-49424525D01*
X155862368Y-49444558D01*
X155918944Y-49443905D01*
X155983031Y-49422101D01*
X156038417Y-49395193D01*
X156084375Y-49431532D01*
X156130333Y-49467872D01*
X156087096Y-49507819D01*
X156029374Y-49545563D01*
X155958386Y-49568320D01*
X155882029Y-49574688D01*
X155808199Y-49563268D01*
X155796287Y-49559393D01*
X155731399Y-49525506D01*
X155683130Y-49474986D01*
X155650465Y-49406325D01*
X155632385Y-49318014D01*
X155632175Y-49316121D01*
X155630556Y-49219878D01*
X155637100Y-49185542D01*
X155764852Y-49185542D01*
X155776584Y-49190822D01*
X155808438Y-49194867D01*
X155855397Y-49197176D01*
X155885154Y-49197525D01*
X155940648Y-49197306D01*
X155975346Y-49195916D01*
X155993601Y-49192251D01*
X155999766Y-49185210D01*
X155998195Y-49173690D01*
X155996878Y-49169233D01*
X155974382Y-49127355D01*
X155939003Y-49093604D01*
X155907780Y-49078773D01*
X155866301Y-49079668D01*
X155824269Y-49098164D01*
X155789012Y-49128786D01*
X155767854Y-49166062D01*
X155764852Y-49185542D01*
X155637100Y-49185542D01*
X155646690Y-49135229D01*
X155678698Y-49064191D01*
X155724701Y-49008779D01*
X155782821Y-48971009D01*
X155851180Y-48952896D01*
X155927898Y-48956457D01*
G36*
X155467226Y-48963880D02*
G01*
X155540080Y-48994830D01*
X155563027Y-49009895D01*
X155592354Y-49033048D01*
X155610764Y-49051253D01*
X155613961Y-49057183D01*
X155604935Y-49070340D01*
X155581837Y-49092667D01*
X155563344Y-49108250D01*
X155512728Y-49148926D01*
X155472760Y-49115295D01*
X155441874Y-49093584D01*
X155411759Y-49086090D01*
X155377292Y-49087920D01*
X155322561Y-49101528D01*
X155284886Y-49129772D01*
X155261991Y-49175433D01*
X155251597Y-49241289D01*
X155251595Y-49241331D01*
X155252494Y-49314939D01*
X155266463Y-49368946D01*
X155294328Y-49405716D01*
X155313325Y-49418168D01*
X155363776Y-49433673D01*
X155417663Y-49433683D01*
X155464546Y-49418638D01*
X155475644Y-49411287D01*
X155503476Y-49392511D01*
X155525236Y-49389434D01*
X155548704Y-49403409D01*
X155574649Y-49428510D01*
X155615716Y-49470880D01*
X155570121Y-49508464D01*
X155499674Y-49550882D01*
X155420233Y-49571785D01*
X155337215Y-49570272D01*
X155282694Y-49556411D01*
X155218970Y-49522135D01*
X155168005Y-49468212D01*
X155144851Y-49430149D01*
X155126099Y-49375536D01*
X155116715Y-49306369D01*
X155116643Y-49231407D01*
X155125824Y-49159409D01*
X155144199Y-49099137D01*
X155147093Y-49092958D01*
X155189952Y-49032351D01*
X155247979Y-48988224D01*
X155316591Y-48961493D01*
X155391201Y-48953073D01*
X155467226Y-48963880D01*
G37*
X155467226Y-48963880D02*
X155540080Y-48994830D01*
X155563027Y-49009895D01*
X155592354Y-49033048D01*
X155610764Y-49051253D01*
X155613961Y-49057183D01*
X155604935Y-49070340D01*
X155581837Y-49092667D01*
X155563344Y-49108250D01*
X155512728Y-49148926D01*
X155472760Y-49115295D01*
X155441874Y-49093584D01*
X155411759Y-49086090D01*
X155377292Y-49087920D01*
X155322561Y-49101528D01*
X155284886Y-49129772D01*
X155261991Y-49175433D01*
X155251597Y-49241289D01*
X155251595Y-49241331D01*
X155252494Y-49314939D01*
X155266463Y-49368946D01*
X155294328Y-49405716D01*
X155313325Y-49418168D01*
X155363776Y-49433673D01*
X155417663Y-49433683D01*
X155464546Y-49418638D01*
X155475644Y-49411287D01*
X155503476Y-49392511D01*
X155525236Y-49389434D01*
X155548704Y-49403409D01*
X155574649Y-49428510D01*
X155615716Y-49470880D01*
X155570121Y-49508464D01*
X155499674Y-49550882D01*
X155420233Y-49571785D01*
X155337215Y-49570272D01*
X155282694Y-49556411D01*
X155218970Y-49522135D01*
X155168005Y-49468212D01*
X155144851Y-49430149D01*
X155126099Y-49375536D01*
X155116715Y-49306369D01*
X155116643Y-49231407D01*
X155125824Y-49159409D01*
X155144199Y-49099137D01*
X155147093Y-49092958D01*
X155189952Y-49032351D01*
X155247979Y-48988224D01*
X155316591Y-48961493D01*
X155391201Y-48953073D01*
X155467226Y-48963880D01*
G36*
X154243367Y-49154342D02*
G01*
X154244555Y-49246563D01*
X154248897Y-49316610D01*
X154257558Y-49367381D01*
X154271704Y-49401772D01*
X154292500Y-49422679D01*
X154321110Y-49433000D01*
X154356535Y-49435636D01*
X154393636Y-49432682D01*
X154421818Y-49421889D01*
X154442243Y-49400360D01*
X154456079Y-49365199D01*
X154464491Y-49313510D01*
X154468643Y-49242394D01*
X154469703Y-49154342D01*
X154469703Y-48958614D01*
X154608020Y-48958614D01*
X154608020Y-49562179D01*
X154538862Y-49562179D01*
X154497170Y-49560489D01*
X154475701Y-49554556D01*
X154469703Y-49543293D01*
X154466091Y-49533261D01*
X154451714Y-49535383D01*
X154422736Y-49549580D01*
X154356319Y-49571480D01*
X154285875Y-49569928D01*
X154218377Y-49546147D01*
X154186233Y-49527362D01*
X154161715Y-49507022D01*
X154143804Y-49481573D01*
X154131479Y-49447458D01*
X154123723Y-49401121D01*
X154119516Y-49339007D01*
X154117840Y-49257561D01*
X154117624Y-49194578D01*
X154117624Y-48958614D01*
X154243367Y-48958614D01*
X154243367Y-49154342D01*
G37*
X154243367Y-49154342D02*
X154244555Y-49246563D01*
X154248897Y-49316610D01*
X154257558Y-49367381D01*
X154271704Y-49401772D01*
X154292500Y-49422679D01*
X154321110Y-49433000D01*
X154356535Y-49435636D01*
X154393636Y-49432682D01*
X154421818Y-49421889D01*
X154442243Y-49400360D01*
X154456079Y-49365199D01*
X154464491Y-49313510D01*
X154468643Y-49242394D01*
X154469703Y-49154342D01*
X154469703Y-48958614D01*
X154608020Y-48958614D01*
X154608020Y-49562179D01*
X154538862Y-49562179D01*
X154497170Y-49560489D01*
X154475701Y-49554556D01*
X154469703Y-49543293D01*
X154466091Y-49533261D01*
X154451714Y-49535383D01*
X154422736Y-49549580D01*
X154356319Y-49571480D01*
X154285875Y-49569928D01*
X154218377Y-49546147D01*
X154186233Y-49527362D01*
X154161715Y-49507022D01*
X154143804Y-49481573D01*
X154131479Y-49447458D01*
X154123723Y-49401121D01*
X154119516Y-49339007D01*
X154117840Y-49257561D01*
X154117624Y-49194578D01*
X154117624Y-48958614D01*
X154243367Y-48958614D01*
X154243367Y-49154342D01*
G36*
X153860762Y-48966055D02*
G01*
X153924363Y-49000692D01*
X153974123Y-49055372D01*
X153997568Y-49099842D01*
X154007634Y-49139121D01*
X154014156Y-49195116D01*
X154016951Y-49259621D01*
X154015836Y-49324429D01*
X154010626Y-49381334D01*
X154004541Y-49411727D01*
X153984014Y-49453306D01*
X153948463Y-49497468D01*
X153905619Y-49536087D01*
X153863211Y-49561034D01*
X153862177Y-49561430D01*
X153809553Y-49572331D01*
X153747188Y-49572601D01*
X153687924Y-49562676D01*
X153665040Y-49554722D01*
X153606102Y-49521300D01*
X153563890Y-49477511D01*
X153536156Y-49419538D01*
X153520651Y-49343565D01*
X153517143Y-49303771D01*
X153517590Y-49253766D01*
X153652376Y-49253766D01*
X153656917Y-49326732D01*
X153669986Y-49382334D01*
X153690756Y-49417861D01*
X153705552Y-49428020D01*
X153743464Y-49435104D01*
X153788527Y-49433007D01*
X153827487Y-49422812D01*
X153837704Y-49417204D01*
X153864659Y-49384538D01*
X153882451Y-49334545D01*
X153890024Y-49273705D01*
X153886325Y-49208497D01*
X153878057Y-49169253D01*
X153854320Y-49123805D01*
X153816849Y-49095396D01*
X153771720Y-49085573D01*
X153725011Y-49095887D01*
X153689132Y-49121112D01*
X153670277Y-49141925D01*
X153659272Y-49162439D01*
X153654026Y-49190203D01*
X153652449Y-49232762D01*
X153652376Y-49253766D01*
X153517590Y-49253766D01*
X153518094Y-49197580D01*
X153535388Y-49110501D01*
X153569029Y-49042530D01*
X153619018Y-48993664D01*
X153685356Y-48963899D01*
X153699601Y-48960448D01*
X153785210Y-48952345D01*
X153860762Y-48966055D01*
G37*
X153860762Y-48966055D02*
X153924363Y-49000692D01*
X153974123Y-49055372D01*
X153997568Y-49099842D01*
X154007634Y-49139121D01*
X154014156Y-49195116D01*
X154016951Y-49259621D01*
X154015836Y-49324429D01*
X154010626Y-49381334D01*
X154004541Y-49411727D01*
X153984014Y-49453306D01*
X153948463Y-49497468D01*
X153905619Y-49536087D01*
X153863211Y-49561034D01*
X153862177Y-49561430D01*
X153809553Y-49572331D01*
X153747188Y-49572601D01*
X153687924Y-49562676D01*
X153665040Y-49554722D01*
X153606102Y-49521300D01*
X153563890Y-49477511D01*
X153536156Y-49419538D01*
X153520651Y-49343565D01*
X153517143Y-49303771D01*
X153517590Y-49253766D01*
X153652376Y-49253766D01*
X153656917Y-49326732D01*
X153669986Y-49382334D01*
X153690756Y-49417861D01*
X153705552Y-49428020D01*
X153743464Y-49435104D01*
X153788527Y-49433007D01*
X153827487Y-49422812D01*
X153837704Y-49417204D01*
X153864659Y-49384538D01*
X153882451Y-49334545D01*
X153890024Y-49273705D01*
X153886325Y-49208497D01*
X153878057Y-49169253D01*
X153854320Y-49123805D01*
X153816849Y-49095396D01*
X153771720Y-49085573D01*
X153725011Y-49095887D01*
X153689132Y-49121112D01*
X153670277Y-49141925D01*
X153659272Y-49162439D01*
X153654026Y-49190203D01*
X153652449Y-49232762D01*
X153652376Y-49253766D01*
X153517590Y-49253766D01*
X153518094Y-49197580D01*
X153535388Y-49110501D01*
X153569029Y-49042530D01*
X153619018Y-48993664D01*
X153685356Y-48963899D01*
X153699601Y-48960448D01*
X153785210Y-48952345D01*
X153860762Y-48966055D01*
G36*
X153264017Y-48956452D02*
G01*
X153311634Y-48965482D01*
X153361034Y-48984370D01*
X153366312Y-48986777D01*
X153403774Y-49006476D01*
X153429717Y-49024781D01*
X153438103Y-49036508D01*
X153430117Y-49055632D01*
X153410720Y-49083850D01*
X153402110Y-49094384D01*
X153366628Y-49135847D01*
X153320885Y-49108858D01*
X153277350Y-49090878D01*
X153227050Y-49081267D01*
X153178812Y-49080660D01*
X153141467Y-49089691D01*
X153132505Y-49095327D01*
X153115437Y-49121171D01*
X153113363Y-49150941D01*
X153126134Y-49174197D01*
X153133688Y-49178708D01*
X153156325Y-49184309D01*
X153196115Y-49190892D01*
X153245166Y-49197183D01*
X153254215Y-49198170D01*
X153332996Y-49211798D01*
X153390136Y-49234946D01*
X153428030Y-49269752D01*
X153449079Y-49318354D01*
X153455635Y-49377718D01*
X153446577Y-49445198D01*
X153417164Y-49498188D01*
X153367278Y-49536783D01*
X153296800Y-49561081D01*
X153218565Y-49570667D01*
X153154766Y-49570552D01*
X153103016Y-49561845D01*
X153067673Y-49549825D01*
X153023017Y-49528880D01*
X152981747Y-49504574D01*
X152967079Y-49493876D01*
X152929357Y-49463084D01*
X152974852Y-49417049D01*
X153020347Y-49371013D01*
X153072072Y-49405243D01*
X153123952Y-49430952D01*
X153179351Y-49444399D01*
X153232605Y-49445818D01*
X153278049Y-49435443D01*
X153310016Y-49413507D01*
X153320338Y-49394998D01*
X153318789Y-49365314D01*
X153293140Y-49342615D01*
X153243460Y-49326940D01*
X153189031Y-49319695D01*
X153105264Y-49305873D01*
X153043033Y-49279796D01*
X153001507Y-49240699D01*
X152979853Y-49187820D01*
X152976853Y-49125126D01*
X152991671Y-49059642D01*
X153025454Y-49010144D01*
X153078505Y-48976408D01*
X153151126Y-48958207D01*
X153204928Y-48954639D01*
X153264017Y-48956452D01*
G37*
X153264017Y-48956452D02*
X153311634Y-48965482D01*
X153361034Y-48984370D01*
X153366312Y-48986777D01*
X153403774Y-49006476D01*
X153429717Y-49024781D01*
X153438103Y-49036508D01*
X153430117Y-49055632D01*
X153410720Y-49083850D01*
X153402110Y-49094384D01*
X153366628Y-49135847D01*
X153320885Y-49108858D01*
X153277350Y-49090878D01*
X153227050Y-49081267D01*
X153178812Y-49080660D01*
X153141467Y-49089691D01*
X153132505Y-49095327D01*
X153115437Y-49121171D01*
X153113363Y-49150941D01*
X153126134Y-49174197D01*
X153133688Y-49178708D01*
X153156325Y-49184309D01*
X153196115Y-49190892D01*
X153245166Y-49197183D01*
X153254215Y-49198170D01*
X153332996Y-49211798D01*
X153390136Y-49234946D01*
X153428030Y-49269752D01*
X153449079Y-49318354D01*
X153455635Y-49377718D01*
X153446577Y-49445198D01*
X153417164Y-49498188D01*
X153367278Y-49536783D01*
X153296800Y-49561081D01*
X153218565Y-49570667D01*
X153154766Y-49570552D01*
X153103016Y-49561845D01*
X153067673Y-49549825D01*
X153023017Y-49528880D01*
X152981747Y-49504574D01*
X152967079Y-49493876D01*
X152929357Y-49463084D01*
X152974852Y-49417049D01*
X153020347Y-49371013D01*
X153072072Y-49405243D01*
X153123952Y-49430952D01*
X153179351Y-49444399D01*
X153232605Y-49445818D01*
X153278049Y-49435443D01*
X153310016Y-49413507D01*
X153320338Y-49394998D01*
X153318789Y-49365314D01*
X153293140Y-49342615D01*
X153243460Y-49326940D01*
X153189031Y-49319695D01*
X153105264Y-49305873D01*
X153043033Y-49279796D01*
X153001507Y-49240699D01*
X152979853Y-49187820D01*
X152976853Y-49125126D01*
X152991671Y-49059642D01*
X153025454Y-49010144D01*
X153078505Y-48976408D01*
X153151126Y-48958207D01*
X153204928Y-48954639D01*
X153264017Y-48956452D01*
G36*
X151893301Y-48972614D02*
G01*
X151905832Y-48978514D01*
X151949201Y-49010283D01*
X151990210Y-49056646D01*
X152020832Y-49107696D01*
X152029541Y-49131166D01*
X152037488Y-49173091D01*
X152042226Y-49223757D01*
X152042801Y-49244679D01*
X152042871Y-49310693D01*
X151662917Y-49310693D01*
X151671017Y-49345273D01*
X151690896Y-49386170D01*
X151725653Y-49421514D01*
X151767002Y-49444282D01*
X151793351Y-49449010D01*
X151829084Y-49443273D01*
X151871718Y-49428882D01*
X151886201Y-49422262D01*
X151939760Y-49395513D01*
X151985467Y-49430376D01*
X152011842Y-49453955D01*
X152025876Y-49473417D01*
X152026586Y-49479129D01*
X152014049Y-49492973D01*
X151986572Y-49514012D01*
X151961634Y-49530425D01*
X151894336Y-49559930D01*
X151818890Y-49573284D01*
X151744112Y-49569812D01*
X151684505Y-49551663D01*
X151623059Y-49512784D01*
X151579392Y-49461595D01*
X151552074Y-49395367D01*
X151539678Y-49311371D01*
X151538579Y-49272936D01*
X151542978Y-49184861D01*
X151543518Y-49182299D01*
X151669418Y-49182299D01*
X151672885Y-49190558D01*
X151687137Y-49195113D01*
X151716530Y-49197065D01*
X151765425Y-49197517D01*
X151784252Y-49197525D01*
X151841533Y-49196843D01*
X151877859Y-49194364D01*
X151897396Y-49189443D01*
X151904310Y-49181434D01*
X151904555Y-49178862D01*
X151896664Y-49158423D01*
X151876915Y-49129789D01*
X151868425Y-49119763D01*
X151836906Y-49091408D01*
X151804051Y-49080259D01*
X151786349Y-49079327D01*
X151738461Y-49090981D01*
X151698301Y-49122285D01*
X151672827Y-49167752D01*
X151672375Y-49169233D01*
X151669418Y-49182299D01*
X151543518Y-49182299D01*
X151557608Y-49115510D01*
X151583962Y-49060025D01*
X151616193Y-49020639D01*
X151675783Y-48977931D01*
X151745832Y-48955109D01*
X151820339Y-48953046D01*
X151893301Y-48972614D01*
G37*
X151893301Y-48972614D02*
X151905832Y-48978514D01*
X151949201Y-49010283D01*
X151990210Y-49056646D01*
X152020832Y-49107696D01*
X152029541Y-49131166D01*
X152037488Y-49173091D01*
X152042226Y-49223757D01*
X152042801Y-49244679D01*
X152042871Y-49310693D01*
X151662917Y-49310693D01*
X151671017Y-49345273D01*
X151690896Y-49386170D01*
X151725653Y-49421514D01*
X151767002Y-49444282D01*
X151793351Y-49449010D01*
X151829084Y-49443273D01*
X151871718Y-49428882D01*
X151886201Y-49422262D01*
X151939760Y-49395513D01*
X151985467Y-49430376D01*
X152011842Y-49453955D01*
X152025876Y-49473417D01*
X152026586Y-49479129D01*
X152014049Y-49492973D01*
X151986572Y-49514012D01*
X151961634Y-49530425D01*
X151894336Y-49559930D01*
X151818890Y-49573284D01*
X151744112Y-49569812D01*
X151684505Y-49551663D01*
X151623059Y-49512784D01*
X151579392Y-49461595D01*
X151552074Y-49395367D01*
X151539678Y-49311371D01*
X151538579Y-49272936D01*
X151542978Y-49184861D01*
X151543518Y-49182299D01*
X151669418Y-49182299D01*
X151672885Y-49190558D01*
X151687137Y-49195113D01*
X151716530Y-49197065D01*
X151765425Y-49197517D01*
X151784252Y-49197525D01*
X151841533Y-49196843D01*
X151877859Y-49194364D01*
X151897396Y-49189443D01*
X151904310Y-49181434D01*
X151904555Y-49178862D01*
X151896664Y-49158423D01*
X151876915Y-49129789D01*
X151868425Y-49119763D01*
X151836906Y-49091408D01*
X151804051Y-49080259D01*
X151786349Y-49079327D01*
X151738461Y-49090981D01*
X151698301Y-49122285D01*
X151672827Y-49167752D01*
X151672375Y-49169233D01*
X151669418Y-49182299D01*
X151543518Y-49182299D01*
X151557608Y-49115510D01*
X151583962Y-49060025D01*
X151616193Y-49020639D01*
X151675783Y-48977931D01*
X151745832Y-48955109D01*
X151820339Y-48953046D01*
X151893301Y-48972614D01*
G36*
X150711739Y-48965148D02*
G01*
X150777521Y-48994231D01*
X150827460Y-49042793D01*
X150861626Y-49110908D01*
X150880093Y-49198651D01*
X150881417Y-49212351D01*
X150882454Y-49308939D01*
X150869007Y-49393602D01*
X150841892Y-49462221D01*
X150827373Y-49484294D01*
X150776799Y-49531011D01*
X150712391Y-49561268D01*
X150640334Y-49573824D01*
X150566815Y-49567439D01*
X150510928Y-49547772D01*
X150462868Y-49514629D01*
X150423588Y-49471175D01*
X150422908Y-49470158D01*
X150406956Y-49443338D01*
X150396590Y-49416368D01*
X150390312Y-49382332D01*
X150386627Y-49334310D01*
X150385003Y-49294931D01*
X150384328Y-49259219D01*
X150510045Y-49259219D01*
X150511274Y-49294770D01*
X150515734Y-49342094D01*
X150523603Y-49372465D01*
X150537793Y-49394072D01*
X150551083Y-49406694D01*
X150598198Y-49433122D01*
X150647495Y-49436653D01*
X150693407Y-49417639D01*
X150716362Y-49396331D01*
X150732904Y-49374859D01*
X150742579Y-49354313D01*
X150746826Y-49327574D01*
X150747080Y-49287523D01*
X150745772Y-49250638D01*
X150742957Y-49197947D01*
X150738495Y-49163772D01*
X150730452Y-49141480D01*
X150716897Y-49124442D01*
X150706155Y-49114703D01*
X150661223Y-49089123D01*
X150612751Y-49087847D01*
X150572106Y-49102999D01*
X150537433Y-49134642D01*
X150516776Y-49186620D01*
X150510045Y-49259219D01*
X150384328Y-49259219D01*
X150383521Y-49216621D01*
X150386052Y-49158056D01*
X150393638Y-49114007D01*
X150407319Y-49079248D01*
X150428135Y-49048551D01*
X150435853Y-49039436D01*
X150484111Y-48994021D01*
X150535872Y-48967493D01*
X150599172Y-48956379D01*
X150630039Y-48955471D01*
X150711739Y-48965148D01*
G37*
X150711739Y-48965148D02*
X150777521Y-48994231D01*
X150827460Y-49042793D01*
X150861626Y-49110908D01*
X150880093Y-49198651D01*
X150881417Y-49212351D01*
X150882454Y-49308939D01*
X150869007Y-49393602D01*
X150841892Y-49462221D01*
X150827373Y-49484294D01*
X150776799Y-49531011D01*
X150712391Y-49561268D01*
X150640334Y-49573824D01*
X150566815Y-49567439D01*
X150510928Y-49547772D01*
X150462868Y-49514629D01*
X150423588Y-49471175D01*
X150422908Y-49470158D01*
X150406956Y-49443338D01*
X150396590Y-49416368D01*
X150390312Y-49382332D01*
X150386627Y-49334310D01*
X150385003Y-49294931D01*
X150384328Y-49259219D01*
X150510045Y-49259219D01*
X150511274Y-49294770D01*
X150515734Y-49342094D01*
X150523603Y-49372465D01*
X150537793Y-49394072D01*
X150551083Y-49406694D01*
X150598198Y-49433122D01*
X150647495Y-49436653D01*
X150693407Y-49417639D01*
X150716362Y-49396331D01*
X150732904Y-49374859D01*
X150742579Y-49354313D01*
X150746826Y-49327574D01*
X150747080Y-49287523D01*
X150745772Y-49250638D01*
X150742957Y-49197947D01*
X150738495Y-49163772D01*
X150730452Y-49141480D01*
X150716897Y-49124442D01*
X150706155Y-49114703D01*
X150661223Y-49089123D01*
X150612751Y-49087847D01*
X150572106Y-49102999D01*
X150537433Y-49134642D01*
X150516776Y-49186620D01*
X150510045Y-49259219D01*
X150384328Y-49259219D01*
X150383521Y-49216621D01*
X150386052Y-49158056D01*
X150393638Y-49114007D01*
X150407319Y-49079248D01*
X150428135Y-49048551D01*
X150435853Y-49039436D01*
X150484111Y-48994021D01*
X150535872Y-48967493D01*
X150599172Y-48956379D01*
X150630039Y-48955471D01*
X150711739Y-48965148D01*
G36*
X155282581Y-49904970D02*
G01*
X155342685Y-49920597D01*
X155393021Y-49952848D01*
X155417393Y-49976940D01*
X155457345Y-50033895D01*
X155480242Y-50099965D01*
X155488108Y-50181182D01*
X155488148Y-50187748D01*
X155488218Y-50253763D01*
X155108264Y-50253763D01*
X155116363Y-50288342D01*
X155130987Y-50319659D01*
X155156581Y-50352291D01*
X155161935Y-50357500D01*
X155207943Y-50385694D01*
X155260410Y-50390475D01*
X155320803Y-50371926D01*
X155331040Y-50366931D01*
X155362439Y-50351745D01*
X155383470Y-50343094D01*
X155387139Y-50342293D01*
X155399948Y-50350063D01*
X155424378Y-50369072D01*
X155436779Y-50379460D01*
X155462476Y-50403321D01*
X155470915Y-50419077D01*
X155465058Y-50433571D01*
X155461928Y-50437534D01*
X155440725Y-50454879D01*
X155405738Y-50475959D01*
X155381337Y-50488265D01*
X155312072Y-50509946D01*
X155235388Y-50516971D01*
X155162765Y-50508647D01*
X155142426Y-50502686D01*
X155079476Y-50468952D01*
X155032815Y-50417045D01*
X155002173Y-50346459D01*
X154987282Y-50256692D01*
X154985647Y-50209753D01*
X154990421Y-50141413D01*
X155110990Y-50141413D01*
X155122652Y-50146465D01*
X155153998Y-50150429D01*
X155199571Y-50152768D01*
X155230446Y-50153169D01*
X155285981Y-50152783D01*
X155321033Y-50150975D01*
X155340262Y-50146773D01*
X155348330Y-50139203D01*
X155349901Y-50128218D01*
X155339121Y-50094381D01*
X155311980Y-50060940D01*
X155276277Y-50035272D01*
X155240560Y-50024772D01*
X155192048Y-50034086D01*
X155150053Y-50061013D01*
X155120936Y-50099827D01*
X155110990Y-50141413D01*
X154990421Y-50141413D01*
X154992599Y-50110236D01*
X155014055Y-50030949D01*
X155050470Y-49971263D01*
X155102297Y-49930549D01*
X155169990Y-49908179D01*
X155206662Y-49903871D01*
X155282581Y-49904970D01*
G37*
X155282581Y-49904970D02*
X155342685Y-49920597D01*
X155393021Y-49952848D01*
X155417393Y-49976940D01*
X155457345Y-50033895D01*
X155480242Y-50099965D01*
X155488108Y-50181182D01*
X155488148Y-50187748D01*
X155488218Y-50253763D01*
X155108264Y-50253763D01*
X155116363Y-50288342D01*
X155130987Y-50319659D01*
X155156581Y-50352291D01*
X155161935Y-50357500D01*
X155207943Y-50385694D01*
X155260410Y-50390475D01*
X155320803Y-50371926D01*
X155331040Y-50366931D01*
X155362439Y-50351745D01*
X155383470Y-50343094D01*
X155387139Y-50342293D01*
X155399948Y-50350063D01*
X155424378Y-50369072D01*
X155436779Y-50379460D01*
X155462476Y-50403321D01*
X155470915Y-50419077D01*
X155465058Y-50433571D01*
X155461928Y-50437534D01*
X155440725Y-50454879D01*
X155405738Y-50475959D01*
X155381337Y-50488265D01*
X155312072Y-50509946D01*
X155235388Y-50516971D01*
X155162765Y-50508647D01*
X155142426Y-50502686D01*
X155079476Y-50468952D01*
X155032815Y-50417045D01*
X155002173Y-50346459D01*
X154987282Y-50256692D01*
X154985647Y-50209753D01*
X154990421Y-50141413D01*
X155110990Y-50141413D01*
X155122652Y-50146465D01*
X155153998Y-50150429D01*
X155199571Y-50152768D01*
X155230446Y-50153169D01*
X155285981Y-50152783D01*
X155321033Y-50150975D01*
X155340262Y-50146773D01*
X155348330Y-50139203D01*
X155349901Y-50128218D01*
X155339121Y-50094381D01*
X155311980Y-50060940D01*
X155276277Y-50035272D01*
X155240560Y-50024772D01*
X155192048Y-50034086D01*
X155150053Y-50061013D01*
X155120936Y-50099827D01*
X155110990Y-50141413D01*
X154990421Y-50141413D01*
X154992599Y-50110236D01*
X155014055Y-50030949D01*
X155050470Y-49971263D01*
X155102297Y-49930549D01*
X155169990Y-49908179D01*
X155206662Y-49903871D01*
X155282581Y-49904970D01*
G36*
X154885255Y-49901486D02*
G01*
X154933595Y-49911015D01*
X154961114Y-49925125D01*
X154990064Y-49948568D01*
X154948876Y-50000571D01*
X154923482Y-50032064D01*
X154906238Y-50047428D01*
X154889102Y-50049776D01*
X154864027Y-50042217D01*
X154852257Y-50037941D01*
X154804270Y-50031631D01*
X154760324Y-50045156D01*
X154728060Y-50075710D01*
X154722819Y-50085452D01*
X154717112Y-50111258D01*
X154712706Y-50158817D01*
X154709811Y-50224758D01*
X154708631Y-50305710D01*
X154708614Y-50317226D01*
X154708614Y-50517822D01*
X154570297Y-50517822D01*
X154570297Y-49901683D01*
X154639456Y-49901683D01*
X154679333Y-49902725D01*
X154700107Y-49907358D01*
X154707789Y-49917849D01*
X154708614Y-49927745D01*
X154708614Y-49953806D01*
X154741745Y-49927745D01*
X154779735Y-49909965D01*
X154830770Y-49901174D01*
X154885255Y-49901486D01*
G37*
X154885255Y-49901486D02*
X154933595Y-49911015D01*
X154961114Y-49925125D01*
X154990064Y-49948568D01*
X154948876Y-50000571D01*
X154923482Y-50032064D01*
X154906238Y-50047428D01*
X154889102Y-50049776D01*
X154864027Y-50042217D01*
X154852257Y-50037941D01*
X154804270Y-50031631D01*
X154760324Y-50045156D01*
X154728060Y-50075710D01*
X154722819Y-50085452D01*
X154717112Y-50111258D01*
X154712706Y-50158817D01*
X154709811Y-50224758D01*
X154708631Y-50305710D01*
X154708614Y-50317226D01*
X154708614Y-50517822D01*
X154570297Y-50517822D01*
X154570297Y-49901683D01*
X154639456Y-49901683D01*
X154679333Y-49902725D01*
X154700107Y-49907358D01*
X154707789Y-49917849D01*
X154708614Y-49927745D01*
X154708614Y-49953806D01*
X154741745Y-49927745D01*
X154779735Y-49909965D01*
X154830770Y-49901174D01*
X154885255Y-49901486D01*
G36*
X154288411Y-49905417D02*
G01*
X154341411Y-49918290D01*
X154356731Y-49925110D01*
X154386428Y-49942974D01*
X154409220Y-49963093D01*
X154426083Y-49988962D01*
X154437998Y-50024073D01*
X154445942Y-50071920D01*
X154450894Y-50135996D01*
X154453831Y-50219794D01*
X154454947Y-50275768D01*
X154459052Y-50517822D01*
X154388932Y-50517822D01*
X154346393Y-50516038D01*
X154324476Y-50509942D01*
X154318812Y-50499706D01*
X154315821Y-50488637D01*
X154302451Y-50490754D01*
X154284233Y-50499629D01*
X154238624Y-50513233D01*
X154180007Y-50516899D01*
X154118354Y-50510903D01*
X154063638Y-50495521D01*
X154058730Y-50493386D01*
X154008723Y-50458255D01*
X153975756Y-50409419D01*
X153960587Y-50352333D01*
X153961746Y-50331824D01*
X154085508Y-50331824D01*
X154096413Y-50359425D01*
X154128745Y-50379204D01*
X154180910Y-50389819D01*
X154208787Y-50391228D01*
X154255247Y-50387620D01*
X154286129Y-50373597D01*
X154293664Y-50366931D01*
X154314076Y-50330666D01*
X154318812Y-50297773D01*
X154318812Y-50253763D01*
X154257513Y-50253763D01*
X154186256Y-50257395D01*
X154136276Y-50268818D01*
X154104696Y-50288824D01*
X154097626Y-50297743D01*
X154085508Y-50331824D01*
X153961746Y-50331824D01*
X153963971Y-50292456D01*
X153986663Y-50235244D01*
X154017624Y-50196580D01*
X154036376Y-50179864D01*
X154054733Y-50168878D01*
X154078619Y-50162180D01*
X154113957Y-50158326D01*
X154166669Y-50155873D01*
X154187577Y-50155168D01*
X154318812Y-50150879D01*
X154318620Y-50111158D01*
X154313537Y-50069405D01*
X154295162Y-50044158D01*
X154258039Y-50028030D01*
X154257043Y-50027742D01*
X154204410Y-50021400D01*
X154152906Y-50029684D01*
X154114630Y-50049827D01*
X154099272Y-50059773D01*
X154082730Y-50058397D01*
X154057275Y-50043987D01*
X154042328Y-50033817D01*
X154013091Y-50012088D01*
X153994980Y-49995800D01*
X153992074Y-49991137D01*
X154004040Y-49967005D01*
X154039396Y-49938185D01*
X154054753Y-49928461D01*
X154098901Y-49911714D01*
X154158398Y-49902227D01*
X154224487Y-49900095D01*
X154288411Y-49905417D01*
G37*
X154288411Y-49905417D02*
X154341411Y-49918290D01*
X154356731Y-49925110D01*
X154386428Y-49942974D01*
X154409220Y-49963093D01*
X154426083Y-49988962D01*
X154437998Y-50024073D01*
X154445942Y-50071920D01*
X154450894Y-50135996D01*
X154453831Y-50219794D01*
X154454947Y-50275768D01*
X154459052Y-50517822D01*
X154388932Y-50517822D01*
X154346393Y-50516038D01*
X154324476Y-50509942D01*
X154318812Y-50499706D01*
X154315821Y-50488637D01*
X154302451Y-50490754D01*
X154284233Y-50499629D01*
X154238624Y-50513233D01*
X154180007Y-50516899D01*
X154118354Y-50510903D01*
X154063638Y-50495521D01*
X154058730Y-50493386D01*
X154008723Y-50458255D01*
X153975756Y-50409419D01*
X153960587Y-50352333D01*
X153961746Y-50331824D01*
X154085508Y-50331824D01*
X154096413Y-50359425D01*
X154128745Y-50379204D01*
X154180910Y-50389819D01*
X154208787Y-50391228D01*
X154255247Y-50387620D01*
X154286129Y-50373597D01*
X154293664Y-50366931D01*
X154314076Y-50330666D01*
X154318812Y-50297773D01*
X154318812Y-50253763D01*
X154257513Y-50253763D01*
X154186256Y-50257395D01*
X154136276Y-50268818D01*
X154104696Y-50288824D01*
X154097626Y-50297743D01*
X154085508Y-50331824D01*
X153961746Y-50331824D01*
X153963971Y-50292456D01*
X153986663Y-50235244D01*
X154017624Y-50196580D01*
X154036376Y-50179864D01*
X154054733Y-50168878D01*
X154078619Y-50162180D01*
X154113957Y-50158326D01*
X154166669Y-50155873D01*
X154187577Y-50155168D01*
X154318812Y-50150879D01*
X154318620Y-50111158D01*
X154313537Y-50069405D01*
X154295162Y-50044158D01*
X154258039Y-50028030D01*
X154257043Y-50027742D01*
X154204410Y-50021400D01*
X154152906Y-50029684D01*
X154114630Y-50049827D01*
X154099272Y-50059773D01*
X154082730Y-50058397D01*
X154057275Y-50043987D01*
X154042328Y-50033817D01*
X154013091Y-50012088D01*
X153994980Y-49995800D01*
X153992074Y-49991137D01*
X154004040Y-49967005D01*
X154039396Y-49938185D01*
X154054753Y-49928461D01*
X154098901Y-49911714D01*
X154158398Y-49902227D01*
X154224487Y-49900095D01*
X154288411Y-49905417D01*
G36*
X153531524Y-49904237D02*
G01*
X153581255Y-49907971D01*
X153711291Y-50297773D01*
X153731678Y-50228614D01*
X153743946Y-50185874D01*
X153760085Y-50128115D01*
X153777512Y-50064625D01*
X153786726Y-50030570D01*
X153821388Y-49901683D01*
X153964391Y-49901683D01*
X153921646Y-50036857D01*
X153900596Y-50103342D01*
X153875167Y-50183539D01*
X153848610Y-50267193D01*
X153824902Y-50341782D01*
X153770902Y-50511535D01*
X153712598Y-50515328D01*
X153654295Y-50519122D01*
X153622679Y-50414734D01*
X153603182Y-50349889D01*
X153581904Y-50278400D01*
X153563308Y-50215263D01*
X153562574Y-50212750D01*
X153548684Y-50169969D01*
X153536429Y-50140779D01*
X153527846Y-50129741D01*
X153526082Y-50131018D01*
X153519891Y-50148130D01*
X153508128Y-50184787D01*
X153492225Y-50236378D01*
X153473614Y-50298294D01*
X153463543Y-50332352D01*
X153409007Y-50517822D01*
X153293264Y-50517822D01*
X153200737Y-50225471D01*
X153174744Y-50143462D01*
X153151066Y-50068987D01*
X153130820Y-50005544D01*
X153115126Y-49956632D01*
X153105102Y-49925749D01*
X153102055Y-49916726D01*
X153104467Y-49907487D01*
X153123408Y-49903441D01*
X153162823Y-49903846D01*
X153168993Y-49904152D01*
X153242086Y-49907971D01*
X153289957Y-50084010D01*
X153307553Y-50148211D01*
X153323277Y-50204649D01*
X153335746Y-50248422D01*
X153343574Y-50274630D01*
X153345020Y-50278903D01*
X153351014Y-50273990D01*
X153363101Y-50248532D01*
X153379893Y-50205997D01*
X153400003Y-50149850D01*
X153417003Y-50099130D01*
X153481794Y-49900504D01*
X153531524Y-49904237D01*
G37*
X153531524Y-49904237D02*
X153581255Y-49907971D01*
X153711291Y-50297773D01*
X153731678Y-50228614D01*
X153743946Y-50185874D01*
X153760085Y-50128115D01*
X153777512Y-50064625D01*
X153786726Y-50030570D01*
X153821388Y-49901683D01*
X153964391Y-49901683D01*
X153921646Y-50036857D01*
X153900596Y-50103342D01*
X153875167Y-50183539D01*
X153848610Y-50267193D01*
X153824902Y-50341782D01*
X153770902Y-50511535D01*
X153712598Y-50515328D01*
X153654295Y-50519122D01*
X153622679Y-50414734D01*
X153603182Y-50349889D01*
X153581904Y-50278400D01*
X153563308Y-50215263D01*
X153562574Y-50212750D01*
X153548684Y-50169969D01*
X153536429Y-50140779D01*
X153527846Y-50129741D01*
X153526082Y-50131018D01*
X153519891Y-50148130D01*
X153508128Y-50184787D01*
X153492225Y-50236378D01*
X153473614Y-50298294D01*
X153463543Y-50332352D01*
X153409007Y-50517822D01*
X153293264Y-50517822D01*
X153200737Y-50225471D01*
X153174744Y-50143462D01*
X153151066Y-50068987D01*
X153130820Y-50005544D01*
X153115126Y-49956632D01*
X153105102Y-49925749D01*
X153102055Y-49916726D01*
X153104467Y-49907487D01*
X153123408Y-49903441D01*
X153162823Y-49903846D01*
X153168993Y-49904152D01*
X153242086Y-49907971D01*
X153289957Y-50084010D01*
X153307553Y-50148211D01*
X153323277Y-50204649D01*
X153335746Y-50248422D01*
X153343574Y-50274630D01*
X153345020Y-50278903D01*
X153351014Y-50273990D01*
X153363101Y-50248532D01*
X153379893Y-50205997D01*
X153400003Y-50149850D01*
X153417003Y-50099130D01*
X153481794Y-49900504D01*
X153531524Y-49904237D01*
G36*
X153048812Y-50517822D02*
G01*
X152979654Y-50517822D01*
X152939512Y-50516645D01*
X152918606Y-50511772D01*
X152911078Y-50501186D01*
X152910495Y-50494029D01*
X152909226Y-50479676D01*
X152901221Y-50476923D01*
X152880185Y-50485771D01*
X152863827Y-50494029D01*
X152801023Y-50513597D01*
X152732752Y-50514729D01*
X152677248Y-50500135D01*
X152625562Y-50464877D01*
X152586162Y-50412835D01*
X152564587Y-50351450D01*
X152564038Y-50348018D01*
X152560833Y-50310571D01*
X152559239Y-50256813D01*
X152559367Y-50216155D01*
X152696721Y-50216155D01*
X152699903Y-50270194D01*
X152707141Y-50314735D01*
X152716940Y-50339888D01*
X152754011Y-50374260D01*
X152798026Y-50386582D01*
X152843416Y-50376618D01*
X152882203Y-50346895D01*
X152896892Y-50326905D01*
X152905481Y-50303050D01*
X152909504Y-50268230D01*
X152910495Y-50215930D01*
X152908722Y-50164139D01*
X152904037Y-50118634D01*
X152897397Y-50088181D01*
X152896290Y-50085452D01*
X152869509Y-50053000D01*
X152830421Y-50035183D01*
X152786685Y-50032306D01*
X152745962Y-50044674D01*
X152715913Y-50072593D01*
X152712796Y-50078148D01*
X152703039Y-50112022D01*
X152697723Y-50160728D01*
X152696721Y-50216155D01*
X152559367Y-50216155D01*
X152559432Y-50195540D01*
X152560336Y-50162563D01*
X152566486Y-50080981D01*
X152579267Y-50019730D01*
X152600529Y-49974449D01*
X152632122Y-49940779D01*
X152662793Y-49921014D01*
X152705646Y-49907120D01*
X152758944Y-49902354D01*
X152813520Y-49906236D01*
X152860208Y-49918282D01*
X152884876Y-49932693D01*
X152910495Y-49955878D01*
X152910495Y-49662773D01*
X153048812Y-49662773D01*
X153048812Y-50517822D01*
G37*
X153048812Y-50517822D02*
X152979654Y-50517822D01*
X152939512Y-50516645D01*
X152918606Y-50511772D01*
X152911078Y-50501186D01*
X152910495Y-50494029D01*
X152909226Y-50479676D01*
X152901221Y-50476923D01*
X152880185Y-50485771D01*
X152863827Y-50494029D01*
X152801023Y-50513597D01*
X152732752Y-50514729D01*
X152677248Y-50500135D01*
X152625562Y-50464877D01*
X152586162Y-50412835D01*
X152564587Y-50351450D01*
X152564038Y-50348018D01*
X152560833Y-50310571D01*
X152559239Y-50256813D01*
X152559367Y-50216155D01*
X152696721Y-50216155D01*
X152699903Y-50270194D01*
X152707141Y-50314735D01*
X152716940Y-50339888D01*
X152754011Y-50374260D01*
X152798026Y-50386582D01*
X152843416Y-50376618D01*
X152882203Y-50346895D01*
X152896892Y-50326905D01*
X152905481Y-50303050D01*
X152909504Y-50268230D01*
X152910495Y-50215930D01*
X152908722Y-50164139D01*
X152904037Y-50118634D01*
X152897397Y-50088181D01*
X152896290Y-50085452D01*
X152869509Y-50053000D01*
X152830421Y-50035183D01*
X152786685Y-50032306D01*
X152745962Y-50044674D01*
X152715913Y-50072593D01*
X152712796Y-50078148D01*
X152703039Y-50112022D01*
X152697723Y-50160728D01*
X152696721Y-50216155D01*
X152559367Y-50216155D01*
X152559432Y-50195540D01*
X152560336Y-50162563D01*
X152566486Y-50080981D01*
X152579267Y-50019730D01*
X152600529Y-49974449D01*
X152632122Y-49940779D01*
X152662793Y-49921014D01*
X152705646Y-49907120D01*
X152758944Y-49902354D01*
X152813520Y-49906236D01*
X152860208Y-49918282D01*
X152884876Y-49932693D01*
X152910495Y-49955878D01*
X152910495Y-49662773D01*
X153048812Y-49662773D01*
X153048812Y-50517822D01*
G36*
X152256644Y-49903020D02*
G01*
X152275461Y-49908660D01*
X152281527Y-49921053D01*
X152281782Y-49926647D01*
X152282871Y-49942230D01*
X152290368Y-49944676D01*
X152310619Y-49933993D01*
X152322649Y-49926694D01*
X152360600Y-49911063D01*
X152405928Y-49903334D01*
X152453456Y-49902740D01*
X152498005Y-49908513D01*
X152534398Y-49919884D01*
X152557457Y-49936088D01*
X152562004Y-49956355D01*
X152559709Y-49961843D01*
X152542980Y-49984626D01*
X152517037Y-50012647D01*
X152512345Y-50017177D01*
X152487617Y-50038005D01*
X152466282Y-50044735D01*
X152436445Y-50040038D01*
X152424492Y-50036917D01*
X152387295Y-50029421D01*
X152361141Y-50032792D01*
X152339054Y-50044681D01*
X152318822Y-50060635D01*
X152303921Y-50080700D01*
X152293566Y-50108702D01*
X152286971Y-50148467D01*
X152283351Y-50203823D01*
X152281922Y-50278594D01*
X152281782Y-50323740D01*
X152281782Y-50517822D01*
X152156040Y-50517822D01*
X152156040Y-49901683D01*
X152218911Y-49901683D01*
X152256644Y-49903020D01*
G37*
X152256644Y-49903020D02*
X152275461Y-49908660D01*
X152281527Y-49921053D01*
X152281782Y-49926647D01*
X152282871Y-49942230D01*
X152290368Y-49944676D01*
X152310619Y-49933993D01*
X152322649Y-49926694D01*
X152360600Y-49911063D01*
X152405928Y-49903334D01*
X152453456Y-49902740D01*
X152498005Y-49908513D01*
X152534398Y-49919884D01*
X152557457Y-49936088D01*
X152562004Y-49956355D01*
X152559709Y-49961843D01*
X152542980Y-49984626D01*
X152517037Y-50012647D01*
X152512345Y-50017177D01*
X152487617Y-50038005D01*
X152466282Y-50044735D01*
X152436445Y-50040038D01*
X152424492Y-50036917D01*
X152387295Y-50029421D01*
X152361141Y-50032792D01*
X152339054Y-50044681D01*
X152318822Y-50060635D01*
X152303921Y-50080700D01*
X152293566Y-50108702D01*
X152286971Y-50148467D01*
X152283351Y-50203823D01*
X152281922Y-50278594D01*
X152281782Y-50323740D01*
X152281782Y-50517822D01*
X152156040Y-50517822D01*
X152156040Y-49901683D01*
X152218911Y-49901683D01*
X152256644Y-49903020D01*
G36*
X151865790Y-49906555D02*
G01*
X151924945Y-49922339D01*
X151969977Y-49950948D01*
X152001754Y-49988419D01*
X152011634Y-50004411D01*
X152018927Y-50021163D01*
X152024026Y-50042592D01*
X152027321Y-50072616D01*
X152029203Y-50115154D01*
X152030063Y-50174122D01*
X152030293Y-50253440D01*
X152030297Y-50274484D01*
X152030297Y-50517822D01*
X151969941Y-50517822D01*
X151931443Y-50515126D01*
X151902977Y-50508295D01*
X151895845Y-50504083D01*
X151876348Y-50496813D01*
X151856434Y-50504083D01*
X151823647Y-50513160D01*
X151776022Y-50516813D01*
X151723236Y-50515228D01*
X151674964Y-50508589D01*
X151646782Y-50500072D01*
X151592247Y-50465063D01*
X151558165Y-50416479D01*
X151542843Y-50351882D01*
X151542701Y-50350223D01*
X151544045Y-50321566D01*
X151665644Y-50321566D01*
X151676274Y-50354161D01*
X151693590Y-50372505D01*
X151728348Y-50386379D01*
X151774227Y-50391917D01*
X151821012Y-50389191D01*
X151858486Y-50378274D01*
X151868985Y-50371269D01*
X151887332Y-50338904D01*
X151891980Y-50302111D01*
X151891980Y-50253763D01*
X151822418Y-50253763D01*
X151756333Y-50258850D01*
X151706236Y-50273263D01*
X151675071Y-50295729D01*
X151665644Y-50321566D01*
X151544045Y-50321566D01*
X151546013Y-50279647D01*
X151569290Y-50223845D01*
X151613052Y-50181647D01*
X151619101Y-50177808D01*
X151645093Y-50165309D01*
X151677265Y-50157740D01*
X151722240Y-50154061D01*
X151775669Y-50153216D01*
X151891980Y-50153169D01*
X151891980Y-50104411D01*
X151887047Y-50066581D01*
X151874457Y-50041236D01*
X151872983Y-50039887D01*
X151844966Y-50028800D01*
X151802674Y-50024503D01*
X151755936Y-50026615D01*
X151714582Y-50034756D01*
X151690043Y-50046965D01*
X151676747Y-50056746D01*
X151662706Y-50058613D01*
X151643329Y-50050600D01*
X151614024Y-50030739D01*
X151570197Y-49997063D01*
X151566175Y-49993909D01*
X151568236Y-49982236D01*
X151585432Y-49962822D01*
X151611567Y-49941248D01*
X151640448Y-49923096D01*
X151649522Y-49918809D01*
X151682620Y-49910256D01*
X151731120Y-49904155D01*
X151785305Y-49901708D01*
X151787839Y-49901703D01*
X151865790Y-49906555D01*
G37*
X151865790Y-49906555D02*
X151924945Y-49922339D01*
X151969977Y-49950948D01*
X152001754Y-49988419D01*
X152011634Y-50004411D01*
X152018927Y-50021163D01*
X152024026Y-50042592D01*
X152027321Y-50072616D01*
X152029203Y-50115154D01*
X152030063Y-50174122D01*
X152030293Y-50253440D01*
X152030297Y-50274484D01*
X152030297Y-50517822D01*
X151969941Y-50517822D01*
X151931443Y-50515126D01*
X151902977Y-50508295D01*
X151895845Y-50504083D01*
X151876348Y-50496813D01*
X151856434Y-50504083D01*
X151823647Y-50513160D01*
X151776022Y-50516813D01*
X151723236Y-50515228D01*
X151674964Y-50508589D01*
X151646782Y-50500072D01*
X151592247Y-50465063D01*
X151558165Y-50416479D01*
X151542843Y-50351882D01*
X151542701Y-50350223D01*
X151544045Y-50321566D01*
X151665644Y-50321566D01*
X151676274Y-50354161D01*
X151693590Y-50372505D01*
X151728348Y-50386379D01*
X151774227Y-50391917D01*
X151821012Y-50389191D01*
X151858486Y-50378274D01*
X151868985Y-50371269D01*
X151887332Y-50338904D01*
X151891980Y-50302111D01*
X151891980Y-50253763D01*
X151822418Y-50253763D01*
X151756333Y-50258850D01*
X151706236Y-50273263D01*
X151675071Y-50295729D01*
X151665644Y-50321566D01*
X151544045Y-50321566D01*
X151546013Y-50279647D01*
X151569290Y-50223845D01*
X151613052Y-50181647D01*
X151619101Y-50177808D01*
X151645093Y-50165309D01*
X151677265Y-50157740D01*
X151722240Y-50154061D01*
X151775669Y-50153216D01*
X151891980Y-50153169D01*
X151891980Y-50104411D01*
X151887047Y-50066581D01*
X151874457Y-50041236D01*
X151872983Y-50039887D01*
X151844966Y-50028800D01*
X151802674Y-50024503D01*
X151755936Y-50026615D01*
X151714582Y-50034756D01*
X151690043Y-50046965D01*
X151676747Y-50056746D01*
X151662706Y-50058613D01*
X151643329Y-50050600D01*
X151614024Y-50030739D01*
X151570197Y-49997063D01*
X151566175Y-49993909D01*
X151568236Y-49982236D01*
X151585432Y-49962822D01*
X151611567Y-49941248D01*
X151640448Y-49923096D01*
X151649522Y-49918809D01*
X151682620Y-49910256D01*
X151731120Y-49904155D01*
X151785305Y-49901708D01*
X151787839Y-49901703D01*
X151865790Y-49906555D01*
G36*
X151341241Y-48969184D02*
G01*
X151367753Y-48982282D01*
X151400447Y-49005106D01*
X151424275Y-49029996D01*
X151440594Y-49061249D01*
X151450760Y-49103166D01*
X151456128Y-49160044D01*
X151458056Y-49236184D01*
X151458169Y-49268917D01*
X151457839Y-49340656D01*
X151456473Y-49391927D01*
X151453500Y-49427404D01*
X151448351Y-49451763D01*
X151440457Y-49469680D01*
X151432243Y-49481902D01*
X151379813Y-49533905D01*
X151318070Y-49565184D01*
X151251464Y-49574592D01*
X151184442Y-49560980D01*
X151163208Y-49551354D01*
X151112376Y-49524859D01*
X151112376Y-49940052D01*
X151149475Y-49920868D01*
X151198357Y-49906025D01*
X151258439Y-49902222D01*
X151318436Y-49909243D01*
X151363744Y-49925013D01*
X151401325Y-49955047D01*
X151433436Y-49998024D01*
X151435850Y-50002436D01*
X151446033Y-50023221D01*
X151453470Y-50044170D01*
X151458589Y-50069548D01*
X151461819Y-50103618D01*
X151463587Y-50150641D01*
X151464323Y-50214882D01*
X151464456Y-50287176D01*
X151464456Y-50517822D01*
X151326139Y-50517822D01*
X151326139Y-50092533D01*
X151287451Y-50059979D01*
X151247262Y-50033940D01*
X151209203Y-50029205D01*
X151170934Y-50041389D01*
X151150538Y-50053320D01*
X151135358Y-50070313D01*
X151124562Y-50095995D01*
X151117317Y-50133991D01*
X151112792Y-50187926D01*
X151110156Y-50261425D01*
X151109228Y-50310347D01*
X151106089Y-50511535D01*
X151040074Y-50515336D01*
X150974060Y-50519136D01*
X150974060Y-49270650D01*
X151112376Y-49270650D01*
X151115903Y-49340254D01*
X151127785Y-49388569D01*
X151149980Y-49418631D01*
X151184441Y-49433471D01*
X151219258Y-49436436D01*
X151258671Y-49433028D01*
X151284829Y-49419617D01*
X151301186Y-49401896D01*
X151314063Y-49382835D01*
X151321728Y-49361601D01*
X151325139Y-49331849D01*
X151325251Y-49287236D01*
X151324103Y-49249880D01*
X151321468Y-49193604D01*
X151317544Y-49156658D01*
X151310937Y-49133223D01*
X151300251Y-49117480D01*
X151290167Y-49108380D01*
X151248030Y-49088537D01*
X151198160Y-49085332D01*
X151169524Y-49092168D01*
X151141172Y-49116464D01*
X151122391Y-49163728D01*
X151113288Y-49233624D01*
X151112376Y-49270650D01*
X150974060Y-49270650D01*
X150974060Y-48958614D01*
X151043218Y-48958614D01*
X151084740Y-48960256D01*
X151106162Y-48966087D01*
X151112374Y-48977461D01*
X151112376Y-48977798D01*
X151115258Y-48988938D01*
X151127970Y-48987673D01*
X151153243Y-48975433D01*
X151212131Y-48956707D01*
X151278385Y-48954739D01*
X151341241Y-48969184D01*
G37*
X151341241Y-48969184D02*
X151367753Y-48982282D01*
X151400447Y-49005106D01*
X151424275Y-49029996D01*
X151440594Y-49061249D01*
X151450760Y-49103166D01*
X151456128Y-49160044D01*
X151458056Y-49236184D01*
X151458169Y-49268917D01*
X151457839Y-49340656D01*
X151456473Y-49391927D01*
X151453500Y-49427404D01*
X151448351Y-49451763D01*
X151440457Y-49469680D01*
X151432243Y-49481902D01*
X151379813Y-49533905D01*
X151318070Y-49565184D01*
X151251464Y-49574592D01*
X151184442Y-49560980D01*
X151163208Y-49551354D01*
X151112376Y-49524859D01*
X151112376Y-49940052D01*
X151149475Y-49920868D01*
X151198357Y-49906025D01*
X151258439Y-49902222D01*
X151318436Y-49909243D01*
X151363744Y-49925013D01*
X151401325Y-49955047D01*
X151433436Y-49998024D01*
X151435850Y-50002436D01*
X151446033Y-50023221D01*
X151453470Y-50044170D01*
X151458589Y-50069548D01*
X151461819Y-50103618D01*
X151463587Y-50150641D01*
X151464323Y-50214882D01*
X151464456Y-50287176D01*
X151464456Y-50517822D01*
X151326139Y-50517822D01*
X151326139Y-50092533D01*
X151287451Y-50059979D01*
X151247262Y-50033940D01*
X151209203Y-50029205D01*
X151170934Y-50041389D01*
X151150538Y-50053320D01*
X151135358Y-50070313D01*
X151124562Y-50095995D01*
X151117317Y-50133991D01*
X151112792Y-50187926D01*
X151110156Y-50261425D01*
X151109228Y-50310347D01*
X151106089Y-50511535D01*
X151040074Y-50515336D01*
X150974060Y-50519136D01*
X150974060Y-49270650D01*
X151112376Y-49270650D01*
X151115903Y-49340254D01*
X151127785Y-49388569D01*
X151149980Y-49418631D01*
X151184441Y-49433471D01*
X151219258Y-49436436D01*
X151258671Y-49433028D01*
X151284829Y-49419617D01*
X151301186Y-49401896D01*
X151314063Y-49382835D01*
X151321728Y-49361601D01*
X151325139Y-49331849D01*
X151325251Y-49287236D01*
X151324103Y-49249880D01*
X151321468Y-49193604D01*
X151317544Y-49156658D01*
X151310937Y-49133223D01*
X151300251Y-49117480D01*
X151290167Y-49108380D01*
X151248030Y-49088537D01*
X151198160Y-49085332D01*
X151169524Y-49092168D01*
X151141172Y-49116464D01*
X151122391Y-49163728D01*
X151113288Y-49233624D01*
X151112376Y-49270650D01*
X150974060Y-49270650D01*
X150974060Y-48958614D01*
X151043218Y-48958614D01*
X151084740Y-48960256D01*
X151106162Y-48966087D01*
X151112374Y-48977461D01*
X151112376Y-48977798D01*
X151115258Y-48988938D01*
X151127970Y-48987673D01*
X151153243Y-48975433D01*
X151212131Y-48956707D01*
X151278385Y-48954739D01*
X151341241Y-48969184D01*
G36*
X108428750Y-133487679D02*
G01*
X110673928Y-133487679D01*
X110673928Y-131219821D01*
X111853214Y-131219821D01*
X111853214Y-136980179D01*
X110673928Y-136980179D01*
X110673928Y-134462430D01*
X109557008Y-134468313D01*
X108440089Y-134474196D01*
X108434227Y-135727187D01*
X108428365Y-136980179D01*
X107249464Y-136980179D01*
X107249464Y-131219821D01*
X108428750Y-131219821D01*
X108428750Y-133487679D01*
G37*
X108428750Y-133487679D02*
X110673928Y-133487679D01*
X110673928Y-131219821D01*
X111853214Y-131219821D01*
X111853214Y-136980179D01*
X110673928Y-136980179D01*
X110673928Y-134462430D01*
X109557008Y-134468313D01*
X108440089Y-134474196D01*
X108434227Y-135727187D01*
X108428365Y-136980179D01*
X107249464Y-136980179D01*
X107249464Y-131219821D01*
X108428750Y-131219821D01*
X108428750Y-133487679D01*
G36*
X98138348Y-131227046D02*
G01*
X98494595Y-131229765D01*
X98812866Y-131232980D01*
X99092145Y-131236670D01*
X99331416Y-131240814D01*
X99529663Y-131245391D01*
X99685871Y-131250380D01*
X99799024Y-131255760D01*
X99868107Y-131261511D01*
X99878928Y-131263099D01*
X100089430Y-131304224D01*
X100263593Y-131349936D01*
X100410433Y-131404363D01*
X100538965Y-131471632D01*
X100658204Y-131555868D01*
X100777168Y-131661200D01*
X100802399Y-131685833D01*
X100897891Y-131784505D01*
X100968407Y-131869383D01*
X101024550Y-131954807D01*
X101076919Y-132055117D01*
X101079734Y-132061002D01*
X101148870Y-132216744D01*
X101197129Y-132355619D01*
X101227777Y-132492648D01*
X101244079Y-132642856D01*
X101249300Y-132821265D01*
X101249338Y-132841339D01*
X101237440Y-133095293D01*
X101199861Y-133317428D01*
X101133775Y-133515104D01*
X101036356Y-133695679D01*
X100904779Y-133866513D01*
X100822211Y-133953652D01*
X100711423Y-134056558D01*
X100600495Y-134142462D01*
X100481421Y-134215341D01*
X100346194Y-134279170D01*
X100186810Y-134337928D01*
X99995261Y-134395590D01*
X99859428Y-134431866D01*
X99783231Y-134451518D01*
X99950142Y-134564581D01*
X100119945Y-134695003D01*
X100295000Y-134857436D01*
X100464914Y-135041314D01*
X100619295Y-135236076D01*
X100642146Y-135267946D01*
X100681138Y-135325149D01*
X100737762Y-135410945D01*
X100809023Y-135520589D01*
X100891927Y-135649336D01*
X100983478Y-135792441D01*
X101080684Y-135945156D01*
X101180548Y-136102738D01*
X101280077Y-136260440D01*
X101376275Y-136413517D01*
X101466149Y-136557224D01*
X101546703Y-136686814D01*
X101614943Y-136797542D01*
X101667875Y-136884663D01*
X101702503Y-136943431D01*
X101715834Y-136969101D01*
X101715892Y-136969531D01*
X101694125Y-136972164D01*
X101632470Y-136974560D01*
X101536395Y-136976635D01*
X101411369Y-136978308D01*
X101262860Y-136979494D01*
X101096338Y-136980110D01*
X101016812Y-136980179D01*
X100317732Y-136980179D01*
X99738417Y-136112723D01*
X99613515Y-135926423D01*
X99490684Y-135744574D01*
X99373372Y-135572186D01*
X99265028Y-135414272D01*
X99169099Y-135275840D01*
X99089035Y-135161902D01*
X99028282Y-135077469D01*
X99000441Y-135040342D01*
X98880272Y-134897055D01*
X98763394Y-134786516D01*
X98641430Y-134704885D01*
X98506004Y-134648317D01*
X98348739Y-134612969D01*
X98161258Y-134595000D01*
X98020604Y-134590833D01*
X97735803Y-134587589D01*
X97724063Y-136980179D01*
X96545178Y-136980179D01*
X96545178Y-132217679D01*
X97724464Y-132217679D01*
X97724464Y-133646429D01*
X98433169Y-133646242D01*
X98619182Y-133645453D01*
X98800318Y-133643309D01*
X98968926Y-133640006D01*
X99117353Y-133635736D01*
X99237948Y-133630691D01*
X99323061Y-133625066D01*
X99340027Y-133623352D01*
X99518620Y-133595016D01*
X99660414Y-133553701D01*
X99772860Y-133496377D01*
X99863412Y-133420017D01*
X99876969Y-133405147D01*
X99969838Y-133267636D01*
X100025187Y-133107632D01*
X100043920Y-132922452D01*
X100043891Y-132909375D01*
X100024550Y-132724068D01*
X99969659Y-132566920D01*
X99879111Y-132437785D01*
X99752801Y-132336518D01*
X99590619Y-132262974D01*
X99560791Y-132253608D01*
X99522190Y-132244059D01*
X99473984Y-132236305D01*
X99411453Y-132230172D01*
X99329877Y-132225487D01*
X99224535Y-132222077D01*
X99090708Y-132219768D01*
X98923676Y-132218388D01*
X98718718Y-132217763D01*
X98582133Y-132217679D01*
X97724464Y-132217679D01*
X96545178Y-132217679D01*
X96545178Y-131216576D01*
X98138348Y-131227046D01*
G37*
X98138348Y-131227046D02*
X98494595Y-131229765D01*
X98812866Y-131232980D01*
X99092145Y-131236670D01*
X99331416Y-131240814D01*
X99529663Y-131245391D01*
X99685871Y-131250380D01*
X99799024Y-131255760D01*
X99868107Y-131261511D01*
X99878928Y-131263099D01*
X100089430Y-131304224D01*
X100263593Y-131349936D01*
X100410433Y-131404363D01*
X100538965Y-131471632D01*
X100658204Y-131555868D01*
X100777168Y-131661200D01*
X100802399Y-131685833D01*
X100897891Y-131784505D01*
X100968407Y-131869383D01*
X101024550Y-131954807D01*
X101076919Y-132055117D01*
X101079734Y-132061002D01*
X101148870Y-132216744D01*
X101197129Y-132355619D01*
X101227777Y-132492648D01*
X101244079Y-132642856D01*
X101249300Y-132821265D01*
X101249338Y-132841339D01*
X101237440Y-133095293D01*
X101199861Y-133317428D01*
X101133775Y-133515104D01*
X101036356Y-133695679D01*
X100904779Y-133866513D01*
X100822211Y-133953652D01*
X100711423Y-134056558D01*
X100600495Y-134142462D01*
X100481421Y-134215341D01*
X100346194Y-134279170D01*
X100186810Y-134337928D01*
X99995261Y-134395590D01*
X99859428Y-134431866D01*
X99783231Y-134451518D01*
X99950142Y-134564581D01*
X100119945Y-134695003D01*
X100295000Y-134857436D01*
X100464914Y-135041314D01*
X100619295Y-135236076D01*
X100642146Y-135267946D01*
X100681138Y-135325149D01*
X100737762Y-135410945D01*
X100809023Y-135520589D01*
X100891927Y-135649336D01*
X100983478Y-135792441D01*
X101080684Y-135945156D01*
X101180548Y-136102738D01*
X101280077Y-136260440D01*
X101376275Y-136413517D01*
X101466149Y-136557224D01*
X101546703Y-136686814D01*
X101614943Y-136797542D01*
X101667875Y-136884663D01*
X101702503Y-136943431D01*
X101715834Y-136969101D01*
X101715892Y-136969531D01*
X101694125Y-136972164D01*
X101632470Y-136974560D01*
X101536395Y-136976635D01*
X101411369Y-136978308D01*
X101262860Y-136979494D01*
X101096338Y-136980110D01*
X101016812Y-136980179D01*
X100317732Y-136980179D01*
X99738417Y-136112723D01*
X99613515Y-135926423D01*
X99490684Y-135744574D01*
X99373372Y-135572186D01*
X99265028Y-135414272D01*
X99169099Y-135275840D01*
X99089035Y-135161902D01*
X99028282Y-135077469D01*
X99000441Y-135040342D01*
X98880272Y-134897055D01*
X98763394Y-134786516D01*
X98641430Y-134704885D01*
X98506004Y-134648317D01*
X98348739Y-134612969D01*
X98161258Y-134595000D01*
X98020604Y-134590833D01*
X97735803Y-134587589D01*
X97724063Y-136980179D01*
X96545178Y-136980179D01*
X96545178Y-132217679D01*
X97724464Y-132217679D01*
X97724464Y-133646429D01*
X98433169Y-133646242D01*
X98619182Y-133645453D01*
X98800318Y-133643309D01*
X98968926Y-133640006D01*
X99117353Y-133635736D01*
X99237948Y-133630691D01*
X99323061Y-133625066D01*
X99340027Y-133623352D01*
X99518620Y-133595016D01*
X99660414Y-133553701D01*
X99772860Y-133496377D01*
X99863412Y-133420017D01*
X99876969Y-133405147D01*
X99969838Y-133267636D01*
X100025187Y-133107632D01*
X100043920Y-132922452D01*
X100043891Y-132909375D01*
X100024550Y-132724068D01*
X99969659Y-132566920D01*
X99879111Y-132437785D01*
X99752801Y-132336518D01*
X99590619Y-132262974D01*
X99560791Y-132253608D01*
X99522190Y-132244059D01*
X99473984Y-132236305D01*
X99411453Y-132230172D01*
X99329877Y-132225487D01*
X99224535Y-132222077D01*
X99090708Y-132219768D01*
X98923676Y-132218388D01*
X98718718Y-132217763D01*
X98582133Y-132217679D01*
X97724464Y-132217679D01*
X96545178Y-132217679D01*
X96545178Y-131216576D01*
X98138348Y-131227046D01*
G36*
X115486632Y-131144987D02*
G01*
X115715956Y-131172497D01*
X115925995Y-131216937D01*
X116124833Y-131279711D01*
X116320557Y-131362226D01*
X116363706Y-131383023D01*
X116597308Y-131521313D01*
X116797374Y-131689953D01*
X116964331Y-131889436D01*
X117098605Y-132120254D01*
X117185327Y-132335363D01*
X117221998Y-132463355D01*
X117250695Y-132598596D01*
X117265667Y-132710670D01*
X117279241Y-132886696D01*
X117213950Y-132887926D01*
X117172922Y-132889067D01*
X117093991Y-132891586D01*
X116984579Y-132895232D01*
X116852112Y-132899758D01*
X116704014Y-132904914D01*
X116627053Y-132907628D01*
X116105446Y-132926101D01*
X116064182Y-132765734D01*
X115994587Y-132572995D01*
X115893741Y-132411979D01*
X115762870Y-132284046D01*
X115603204Y-132190559D01*
X115515803Y-132158041D01*
X115410822Y-132134995D01*
X115274864Y-132119055D01*
X115121807Y-132110596D01*
X114965529Y-132109994D01*
X114819909Y-132117626D01*
X114698824Y-132133866D01*
X114690025Y-132135673D01*
X114513834Y-132186343D01*
X114360331Y-132256861D01*
X114236255Y-132343180D01*
X114148346Y-132441252D01*
X114130386Y-132471686D01*
X114107454Y-132548025D01*
X114099531Y-132647458D01*
X114106690Y-132750256D01*
X114129004Y-132836685D01*
X114129032Y-132836752D01*
X114164967Y-132896107D01*
X114220362Y-132961327D01*
X114247407Y-132987116D01*
X114306873Y-133034232D01*
X114376214Y-133078289D01*
X114459893Y-133120901D01*
X114562377Y-133163682D01*
X114688130Y-133208248D01*
X114841618Y-133256213D01*
X115027305Y-133309192D01*
X115249657Y-133368799D01*
X115436428Y-133417103D01*
X115750274Y-133501297D01*
X116023178Y-133583583D01*
X116259378Y-133666098D01*
X116463107Y-133750977D01*
X116638601Y-133840357D01*
X116790096Y-133936375D01*
X116921828Y-134041167D01*
X117038031Y-134156868D01*
X117133647Y-134273166D01*
X117242507Y-134445468D01*
X117332520Y-134642798D01*
X117395397Y-134846074D01*
X117407405Y-134903585D01*
X117425052Y-135045109D01*
X117432548Y-135210686D01*
X117430263Y-135384673D01*
X117418569Y-135551429D01*
X117397839Y-135695314D01*
X117387500Y-135741401D01*
X117323079Y-135932721D01*
X117229110Y-136130214D01*
X117114633Y-136316207D01*
X117048303Y-136404613D01*
X116873069Y-136585408D01*
X116662131Y-136740166D01*
X116417594Y-136867908D01*
X116141561Y-136967654D01*
X115836136Y-137038424D01*
X115622637Y-137068445D01*
X115446432Y-137082327D01*
X115250022Y-137089306D01*
X115047612Y-137089504D01*
X114853409Y-137083046D01*
X114681616Y-137070055D01*
X114597321Y-137059498D01*
X114287341Y-136998740D01*
X114012881Y-136914451D01*
X113769461Y-136804486D01*
X113552604Y-136666698D01*
X113357829Y-136498942D01*
X113298040Y-136437078D01*
X113151579Y-136251526D01*
X113021569Y-136032745D01*
X112912629Y-135791292D01*
X112829375Y-135537725D01*
X112776423Y-135282601D01*
X112769406Y-135228259D01*
X112762091Y-135155101D01*
X112763756Y-135116161D01*
X112777626Y-135100666D01*
X112806928Y-135097842D01*
X112808454Y-135097840D01*
X112846837Y-135095702D01*
X112922629Y-135089746D01*
X113028103Y-135080644D01*
X113155533Y-135069066D01*
X113297193Y-135055683D01*
X113327321Y-135052775D01*
X113501296Y-135035879D01*
X113635424Y-135023213D01*
X113735030Y-135014932D01*
X113805442Y-135011190D01*
X113851985Y-135012139D01*
X113879986Y-135017934D01*
X113894771Y-135028728D01*
X113901666Y-135044676D01*
X113905997Y-135065932D01*
X113906738Y-135069509D01*
X113937902Y-135184752D01*
X113983833Y-135317631D01*
X114037496Y-135450014D01*
X114091854Y-135563769D01*
X114113243Y-135601702D01*
X114236881Y-135763918D01*
X114392416Y-135894475D01*
X114578787Y-135992873D01*
X114794931Y-136058616D01*
X115039789Y-136091205D01*
X115164285Y-136094927D01*
X115417181Y-136080309D01*
X115637328Y-136035989D01*
X115826849Y-135961266D01*
X115987868Y-135855440D01*
X116044309Y-135804697D01*
X116156896Y-135669232D01*
X116230659Y-135524532D01*
X116265015Y-135376086D01*
X116259382Y-135229380D01*
X116213178Y-135089904D01*
X116132789Y-134970925D01*
X116082217Y-134919365D01*
X116023219Y-134872122D01*
X115951629Y-134827619D01*
X115863284Y-134784280D01*
X115754019Y-134740527D01*
X115619669Y-134694785D01*
X115456069Y-134645477D01*
X115259056Y-134591026D01*
X115024465Y-134529856D01*
X114853667Y-134486699D01*
X114501473Y-134389589D01*
X114192105Y-134285409D01*
X113926115Y-134174386D01*
X113704059Y-134056745D01*
X113558187Y-133957843D01*
X113369578Y-133785709D01*
X113215784Y-133588385D01*
X113097833Y-133370946D01*
X113016757Y-133138465D01*
X112973584Y-132896017D01*
X112969346Y-132648677D01*
X113005073Y-132401518D01*
X113081794Y-132159616D01*
X113160070Y-131996799D01*
X113284884Y-131813077D01*
X113445529Y-131641503D01*
X113632659Y-131490164D01*
X113836930Y-131367145D01*
X113944721Y-131317905D01*
X114111354Y-131255619D01*
X114271902Y-131208682D01*
X114437851Y-131174980D01*
X114620689Y-131152400D01*
X114831903Y-131138826D01*
X114937791Y-131135134D01*
X115229939Y-131133001D01*
X115486632Y-131144987D01*
G37*
X115486632Y-131144987D02*
X115715956Y-131172497D01*
X115925995Y-131216937D01*
X116124833Y-131279711D01*
X116320557Y-131362226D01*
X116363706Y-131383023D01*
X116597308Y-131521313D01*
X116797374Y-131689953D01*
X116964331Y-131889436D01*
X117098605Y-132120254D01*
X117185327Y-132335363D01*
X117221998Y-132463355D01*
X117250695Y-132598596D01*
X117265667Y-132710670D01*
X117279241Y-132886696D01*
X117213950Y-132887926D01*
X117172922Y-132889067D01*
X117093991Y-132891586D01*
X116984579Y-132895232D01*
X116852112Y-132899758D01*
X116704014Y-132904914D01*
X116627053Y-132907628D01*
X116105446Y-132926101D01*
X116064182Y-132765734D01*
X115994587Y-132572995D01*
X115893741Y-132411979D01*
X115762870Y-132284046D01*
X115603204Y-132190559D01*
X115515803Y-132158041D01*
X115410822Y-132134995D01*
X115274864Y-132119055D01*
X115121807Y-132110596D01*
X114965529Y-132109994D01*
X114819909Y-132117626D01*
X114698824Y-132133866D01*
X114690025Y-132135673D01*
X114513834Y-132186343D01*
X114360331Y-132256861D01*
X114236255Y-132343180D01*
X114148346Y-132441252D01*
X114130386Y-132471686D01*
X114107454Y-132548025D01*
X114099531Y-132647458D01*
X114106690Y-132750256D01*
X114129004Y-132836685D01*
X114129032Y-132836752D01*
X114164967Y-132896107D01*
X114220362Y-132961327D01*
X114247407Y-132987116D01*
X114306873Y-133034232D01*
X114376214Y-133078289D01*
X114459893Y-133120901D01*
X114562377Y-133163682D01*
X114688130Y-133208248D01*
X114841618Y-133256213D01*
X115027305Y-133309192D01*
X115249657Y-133368799D01*
X115436428Y-133417103D01*
X115750274Y-133501297D01*
X116023178Y-133583583D01*
X116259378Y-133666098D01*
X116463107Y-133750977D01*
X116638601Y-133840357D01*
X116790096Y-133936375D01*
X116921828Y-134041167D01*
X117038031Y-134156868D01*
X117133647Y-134273166D01*
X117242507Y-134445468D01*
X117332520Y-134642798D01*
X117395397Y-134846074D01*
X117407405Y-134903585D01*
X117425052Y-135045109D01*
X117432548Y-135210686D01*
X117430263Y-135384673D01*
X117418569Y-135551429D01*
X117397839Y-135695314D01*
X117387500Y-135741401D01*
X117323079Y-135932721D01*
X117229110Y-136130214D01*
X117114633Y-136316207D01*
X117048303Y-136404613D01*
X116873069Y-136585408D01*
X116662131Y-136740166D01*
X116417594Y-136867908D01*
X116141561Y-136967654D01*
X115836136Y-137038424D01*
X115622637Y-137068445D01*
X115446432Y-137082327D01*
X115250022Y-137089306D01*
X115047612Y-137089504D01*
X114853409Y-137083046D01*
X114681616Y-137070055D01*
X114597321Y-137059498D01*
X114287341Y-136998740D01*
X114012881Y-136914451D01*
X113769461Y-136804486D01*
X113552604Y-136666698D01*
X113357829Y-136498942D01*
X113298040Y-136437078D01*
X113151579Y-136251526D01*
X113021569Y-136032745D01*
X112912629Y-135791292D01*
X112829375Y-135537725D01*
X112776423Y-135282601D01*
X112769406Y-135228259D01*
X112762091Y-135155101D01*
X112763756Y-135116161D01*
X112777626Y-135100666D01*
X112806928Y-135097842D01*
X112808454Y-135097840D01*
X112846837Y-135095702D01*
X112922629Y-135089746D01*
X113028103Y-135080644D01*
X113155533Y-135069066D01*
X113297193Y-135055683D01*
X113327321Y-135052775D01*
X113501296Y-135035879D01*
X113635424Y-135023213D01*
X113735030Y-135014932D01*
X113805442Y-135011190D01*
X113851985Y-135012139D01*
X113879986Y-135017934D01*
X113894771Y-135028728D01*
X113901666Y-135044676D01*
X113905997Y-135065932D01*
X113906738Y-135069509D01*
X113937902Y-135184752D01*
X113983833Y-135317631D01*
X114037496Y-135450014D01*
X114091854Y-135563769D01*
X114113243Y-135601702D01*
X114236881Y-135763918D01*
X114392416Y-135894475D01*
X114578787Y-135992873D01*
X114794931Y-136058616D01*
X115039789Y-136091205D01*
X115164285Y-136094927D01*
X115417181Y-136080309D01*
X115637328Y-136035989D01*
X115826849Y-135961266D01*
X115987868Y-135855440D01*
X116044309Y-135804697D01*
X116156896Y-135669232D01*
X116230659Y-135524532D01*
X116265015Y-135376086D01*
X116259382Y-135229380D01*
X116213178Y-135089904D01*
X116132789Y-134970925D01*
X116082217Y-134919365D01*
X116023219Y-134872122D01*
X115951629Y-134827619D01*
X115863284Y-134784280D01*
X115754019Y-134740527D01*
X115619669Y-134694785D01*
X115456069Y-134645477D01*
X115259056Y-134591026D01*
X115024465Y-134529856D01*
X114853667Y-134486699D01*
X114501473Y-134389589D01*
X114192105Y-134285409D01*
X113926115Y-134174386D01*
X113704059Y-134056745D01*
X113558187Y-133957843D01*
X113369578Y-133785709D01*
X113215784Y-133588385D01*
X113097833Y-133370946D01*
X113016757Y-133138465D01*
X112973584Y-132896017D01*
X112969346Y-132648677D01*
X113005073Y-132401518D01*
X113081794Y-132159616D01*
X113160070Y-131996799D01*
X113284884Y-131813077D01*
X113445529Y-131641503D01*
X113632659Y-131490164D01*
X113836930Y-131367145D01*
X113944721Y-131317905D01*
X114111354Y-131255619D01*
X114271902Y-131208682D01*
X114437851Y-131174980D01*
X114620689Y-131152400D01*
X114831903Y-131138826D01*
X114937791Y-131135134D01*
X115229939Y-131133001D01*
X115486632Y-131144987D01*
G36*
X104233214Y-132730139D02*
G01*
X104384632Y-132731181D01*
X104501317Y-132734145D01*
X104593881Y-132740060D01*
X104672938Y-132749951D01*
X104749104Y-132764847D01*
X104832992Y-132785772D01*
X104846977Y-132789516D01*
X105137131Y-132890250D01*
X105404691Y-133028979D01*
X105646674Y-133203213D01*
X105860095Y-133410467D01*
X106041971Y-133648253D01*
X106184936Y-133904678D01*
X106268031Y-134108601D01*
X106326668Y-134317963D01*
X106363748Y-134545596D01*
X106380857Y-134771394D01*
X106377946Y-135105223D01*
X106338266Y-135413691D01*
X106260974Y-135699125D01*
X106145226Y-135963849D01*
X105990181Y-136210189D01*
X105794996Y-136440472D01*
X105765044Y-136470937D01*
X105543705Y-136666500D01*
X105309111Y-136821647D01*
X105053469Y-136940986D01*
X104864276Y-137003854D01*
X104746005Y-137029662D01*
X104596262Y-137050474D01*
X104428751Y-137065339D01*
X104257178Y-137073310D01*
X104095247Y-137073438D01*
X103967538Y-137065912D01*
X103730853Y-137026899D01*
X103486823Y-136958784D01*
X103247517Y-136866426D01*
X103025004Y-136754685D01*
X102831353Y-136628419D01*
X102779863Y-136587747D01*
X102586198Y-136397838D01*
X102421439Y-136175038D01*
X102287306Y-135922762D01*
X102185519Y-135644424D01*
X102117797Y-135343440D01*
X102103890Y-135245268D01*
X102081331Y-134901926D01*
X102081779Y-134893750D01*
X103230201Y-134893750D01*
X103243929Y-135163973D01*
X103287686Y-135401240D01*
X103362221Y-135607234D01*
X103468282Y-135783638D01*
X103606616Y-135932135D01*
X103734311Y-136027695D01*
X103840507Y-136089022D01*
X103940397Y-136128883D01*
X104048199Y-136150725D01*
X104178129Y-136157998D01*
X104267232Y-136156954D01*
X104383911Y-136151720D01*
X104470321Y-136141662D01*
X104541505Y-136123986D01*
X104612505Y-136095903D01*
X104623695Y-136090793D01*
X104757989Y-136010974D01*
X104889719Y-135901219D01*
X105003615Y-135775136D01*
X105046955Y-135713617D01*
X105123295Y-135561827D01*
X105182447Y-135378326D01*
X105222412Y-135174143D01*
X105241188Y-134960304D01*
X105236777Y-134747838D01*
X105231688Y-134695092D01*
X105194670Y-134465291D01*
X105138408Y-134271242D01*
X105060188Y-134106456D01*
X104957291Y-133964446D01*
X104900897Y-133904955D01*
X104740097Y-133777246D01*
X104563347Y-133688650D01*
X104376606Y-133639164D01*
X104185834Y-133628788D01*
X103996991Y-133657520D01*
X103816035Y-133725358D01*
X103648927Y-133832300D01*
X103567565Y-133905282D01*
X103443384Y-134052991D01*
X103349328Y-134218858D01*
X103283637Y-134408039D01*
X103244550Y-134625694D01*
X103230306Y-134876980D01*
X103230201Y-134893750D01*
X102081779Y-134893750D01*
X102099294Y-134574671D01*
X102157249Y-134265131D01*
X102254671Y-133974933D01*
X102391031Y-133705704D01*
X102565803Y-133459073D01*
X102744642Y-133267967D01*
X102961689Y-133092640D01*
X103209726Y-132945890D01*
X103481707Y-132831595D01*
X103611521Y-132791370D01*
X103698131Y-132768368D01*
X103772742Y-132751863D01*
X103845883Y-132740815D01*
X103928082Y-132734189D01*
X104029868Y-132730947D01*
X104161771Y-132730053D01*
X104233214Y-132730139D01*
G37*
X104233214Y-132730139D02*
X104384632Y-132731181D01*
X104501317Y-132734145D01*
X104593881Y-132740060D01*
X104672938Y-132749951D01*
X104749104Y-132764847D01*
X104832992Y-132785772D01*
X104846977Y-132789516D01*
X105137131Y-132890250D01*
X105404691Y-133028979D01*
X105646674Y-133203213D01*
X105860095Y-133410467D01*
X106041971Y-133648253D01*
X106184936Y-133904678D01*
X106268031Y-134108601D01*
X106326668Y-134317963D01*
X106363748Y-134545596D01*
X106380857Y-134771394D01*
X106377946Y-135105223D01*
X106338266Y-135413691D01*
X106260974Y-135699125D01*
X106145226Y-135963849D01*
X105990181Y-136210189D01*
X105794996Y-136440472D01*
X105765044Y-136470937D01*
X105543705Y-136666500D01*
X105309111Y-136821647D01*
X105053469Y-136940986D01*
X104864276Y-137003854D01*
X104746005Y-137029662D01*
X104596262Y-137050474D01*
X104428751Y-137065339D01*
X104257178Y-137073310D01*
X104095247Y-137073438D01*
X103967538Y-137065912D01*
X103730853Y-137026899D01*
X103486823Y-136958784D01*
X103247517Y-136866426D01*
X103025004Y-136754685D01*
X102831353Y-136628419D01*
X102779863Y-136587747D01*
X102586198Y-136397838D01*
X102421439Y-136175038D01*
X102287306Y-135922762D01*
X102185519Y-135644424D01*
X102117797Y-135343440D01*
X102103890Y-135245268D01*
X102081331Y-134901926D01*
X102081779Y-134893750D01*
X103230201Y-134893750D01*
X103243929Y-135163973D01*
X103287686Y-135401240D01*
X103362221Y-135607234D01*
X103468282Y-135783638D01*
X103606616Y-135932135D01*
X103734311Y-136027695D01*
X103840507Y-136089022D01*
X103940397Y-136128883D01*
X104048199Y-136150725D01*
X104178129Y-136157998D01*
X104267232Y-136156954D01*
X104383911Y-136151720D01*
X104470321Y-136141662D01*
X104541505Y-136123986D01*
X104612505Y-136095903D01*
X104623695Y-136090793D01*
X104757989Y-136010974D01*
X104889719Y-135901219D01*
X105003615Y-135775136D01*
X105046955Y-135713617D01*
X105123295Y-135561827D01*
X105182447Y-135378326D01*
X105222412Y-135174143D01*
X105241188Y-134960304D01*
X105236777Y-134747838D01*
X105231688Y-134695092D01*
X105194670Y-134465291D01*
X105138408Y-134271242D01*
X105060188Y-134106456D01*
X104957291Y-133964446D01*
X104900897Y-133904955D01*
X104740097Y-133777246D01*
X104563347Y-133688650D01*
X104376606Y-133639164D01*
X104185834Y-133628788D01*
X103996991Y-133657520D01*
X103816035Y-133725358D01*
X103648927Y-133832300D01*
X103567565Y-133905282D01*
X103443384Y-134052991D01*
X103349328Y-134218858D01*
X103283637Y-134408039D01*
X103244550Y-134625694D01*
X103230306Y-134876980D01*
X103230201Y-134893750D01*
X102081779Y-134893750D01*
X102099294Y-134574671D01*
X102157249Y-134265131D01*
X102254671Y-133974933D01*
X102391031Y-133705704D01*
X102565803Y-133459073D01*
X102744642Y-133267967D01*
X102961689Y-133092640D01*
X103209726Y-132945890D01*
X103481707Y-132831595D01*
X103611521Y-132791370D01*
X103698131Y-132768368D01*
X103772742Y-132751863D01*
X103845883Y-132740815D01*
X103928082Y-132734189D01*
X104029868Y-132730947D01*
X104161771Y-132730053D01*
X104233214Y-132730139D01*
D11*
X194690000Y-57062779D02*
X194690000Y-56737221D01*
X195710000Y-57062779D02*
X195710000Y-56737221D01*
X195710000Y-53762779D02*
X195710000Y-53437221D01*
X194690000Y-53762779D02*
X194690000Y-53437221D01*
X209502064Y-53740000D02*
X208297936Y-53740000D01*
X209502064Y-56460000D02*
X208297936Y-56460000D01*
X175937221Y-50290000D02*
X176262779Y-50290000D01*
X175937221Y-51310000D02*
X176262779Y-51310000D01*
X187290000Y-57062779D02*
X187290000Y-56737221D01*
X188310000Y-57062779D02*
X188310000Y-56737221D01*
X174690000Y-53237221D02*
X174690000Y-53562779D01*
X175710000Y-53237221D02*
X175710000Y-53562779D01*
X187290000Y-53237221D02*
X187290000Y-53562779D01*
X188310000Y-53237221D02*
X188310000Y-53562779D01*
X176490000Y-53237221D02*
X176490000Y-53562779D01*
X177510000Y-53237221D02*
X177510000Y-53562779D01*
X185590000Y-53562779D02*
X185590000Y-53237221D01*
X186610000Y-53562779D02*
X186610000Y-53237221D01*
X199900000Y-52240000D02*
X196450000Y-52240000D01*
X199900000Y-52240000D02*
X201850000Y-52240000D01*
X199900000Y-57360000D02*
X197950000Y-57360000D01*
X199900000Y-57360000D02*
X201850000Y-57360000D01*
X96500000Y-87900000D02*
X93500000Y-87900000D01*
X96750000Y-92120000D02*
X93500000Y-92120000D01*
D14*
X178225000Y-52075000D02*
X183500000Y-52075000D01*
X179500000Y-57475000D02*
X183500000Y-57475000D01*
D11*
X212084420Y-101890000D02*
X212365580Y-101890000D01*
X212084420Y-102910000D02*
X212365580Y-102910000D01*
X204140580Y-76990000D02*
X203859420Y-76990000D01*
X204140580Y-78010000D02*
X203859420Y-78010000D01*
X208750000Y-74145000D02*
X211650000Y-74145000D01*
X208750000Y-80855000D02*
X211650000Y-80855000D01*
X213555000Y-76050000D02*
X213555000Y-78950000D01*
X206845000Y-76050000D02*
X206845000Y-78950000D01*
X214837258Y-120522500D02*
X214362742Y-120522500D01*
X214837258Y-119477500D02*
X214362742Y-119477500D01*
X209455000Y-100076263D02*
X209455000Y-101523737D01*
X206745000Y-100076263D02*
X206745000Y-101523737D01*
X205762742Y-118622500D02*
X206237258Y-118622500D01*
X205762742Y-117577500D02*
X206237258Y-117577500D01*
X198223737Y-110145000D02*
X196776263Y-110145000D01*
X198223737Y-112855000D02*
X196776263Y-112855000D01*
X182677500Y-77762742D02*
X182677500Y-78237258D01*
X183722500Y-77762742D02*
X183722500Y-78237258D01*
X200477500Y-78537258D02*
X200477500Y-78062742D01*
X201522500Y-78537258D02*
X201522500Y-78062742D01*
X205900000Y-116560000D02*
X209350000Y-116560000D01*
X205900000Y-116560000D02*
X203950000Y-116560000D01*
X205900000Y-111440000D02*
X207850000Y-111440000D01*
X205900000Y-111440000D02*
X203950000Y-111440000D01*
D14*
X175500000Y-90500000D02*
X175500000Y-80300000D01*
X195800000Y-90500000D02*
X175500000Y-90500000D01*
X195800000Y-80300000D02*
X195800000Y-90500000D01*
X175500000Y-80300000D02*
X195800000Y-80300000D01*
X109000000Y-95870000D02*
X109000000Y-88250000D01*
X114800000Y-95870000D02*
X114800000Y-88250000D01*
X113800000Y-95870000D02*
X113800000Y-88250000D01*
X109000000Y-88250000D02*
X114800000Y-88250000D01*
X109000000Y-95870000D02*
X114800000Y-95870000D01*
D11*
X210190000Y-111340580D02*
X210190000Y-111059420D01*
X211210000Y-111340580D02*
X211210000Y-111059420D01*
X200390000Y-115459420D02*
X200390000Y-115740580D01*
X201410000Y-115459420D02*
X201410000Y-115740580D01*
X231440000Y-123770000D02*
X230681000Y-123770000D01*
X229921000Y-125070000D02*
X229921000Y-122470000D01*
X231440000Y-125070000D02*
X231440000Y-122470000D01*
X231440000Y-122470000D02*
X229921000Y-122470000D01*
X231440000Y-125070000D02*
X229921000Y-125070000D01*
X210680000Y-126290000D02*
X210680000Y-121250000D01*
X229920000Y-126290000D02*
X229920000Y-121250000D01*
X229920000Y-121250000D02*
X210680000Y-121250000D01*
X229920000Y-126290000D02*
X210680000Y-126290000D01*
D14*
X89333333Y-96857142D02*
X89285714Y-96904761D01*
X89142857Y-96952380D01*
X89047619Y-96952380D01*
X88904761Y-96904761D01*
X88809523Y-96809523D01*
X88761904Y-96714285D01*
X88714285Y-96523809D01*
X88714285Y-96380952D01*
X88761904Y-96190476D01*
X88809523Y-96095238D01*
X88904761Y-96000000D01*
X89047619Y-95952380D01*
X89142857Y-95952380D01*
X89285714Y-96000000D01*
X89333333Y-96047619D01*
X90285714Y-96952380D02*
X89714285Y-96952380D01*
X90000000Y-96952380D02*
X90000000Y-95952380D01*
X89904761Y-96095238D01*
X89809523Y-96190476D01*
X89714285Y-96238095D01*
X89433333Y-84157142D02*
X89385714Y-84204761D01*
X89242857Y-84252380D01*
X89147619Y-84252380D01*
X89004761Y-84204761D01*
X88909523Y-84109523D01*
X88861904Y-84014285D01*
X88814285Y-83823809D01*
X88814285Y-83680952D01*
X88861904Y-83490476D01*
X88909523Y-83395238D01*
X89004761Y-83300000D01*
X89147619Y-83252380D01*
X89242857Y-83252380D01*
X89385714Y-83300000D01*
X89433333Y-83347619D01*
X89814285Y-83347619D02*
X89861904Y-83300000D01*
X89957142Y-83252380D01*
X90195238Y-83252380D01*
X90290476Y-83300000D01*
X90338095Y-83347619D01*
X90385714Y-83442857D01*
X90385714Y-83538095D01*
X90338095Y-83680952D01*
X89766666Y-84252380D01*
X90385714Y-84252380D01*
X94833333Y-96687142D02*
X94785714Y-96734761D01*
X94642857Y-96782380D01*
X94547619Y-96782380D01*
X94404761Y-96734761D01*
X94309523Y-96639523D01*
X94261904Y-96544285D01*
X94214285Y-96353809D01*
X94214285Y-96210952D01*
X94261904Y-96020476D01*
X94309523Y-95925238D01*
X94404761Y-95830000D01*
X94547619Y-95782380D01*
X94642857Y-95782380D01*
X94785714Y-95830000D01*
X94833333Y-95877619D01*
X95738095Y-95782380D02*
X95261904Y-95782380D01*
X95214285Y-96258571D01*
X95261904Y-96210952D01*
X95357142Y-96163333D01*
X95595238Y-96163333D01*
X95690476Y-96210952D01*
X95738095Y-96258571D01*
X95785714Y-96353809D01*
X95785714Y-96591904D01*
X95738095Y-96687142D01*
X95690476Y-96734761D01*
X95595238Y-96782380D01*
X95357142Y-96782380D01*
X95261904Y-96734761D01*
X95214285Y-96687142D01*
X94945833Y-85327142D02*
X94898214Y-85374761D01*
X94755357Y-85422380D01*
X94660119Y-85422380D01*
X94517261Y-85374761D01*
X94422023Y-85279523D01*
X94374404Y-85184285D01*
X94326785Y-84993809D01*
X94326785Y-84850952D01*
X94374404Y-84660476D01*
X94422023Y-84565238D01*
X94517261Y-84470000D01*
X94660119Y-84422380D01*
X94755357Y-84422380D01*
X94898214Y-84470000D01*
X94945833Y-84517619D01*
X95802976Y-84422380D02*
X95612500Y-84422380D01*
X95517261Y-84470000D01*
X95469642Y-84517619D01*
X95374404Y-84660476D01*
X95326785Y-84850952D01*
X95326785Y-85231904D01*
X95374404Y-85327142D01*
X95422023Y-85374761D01*
X95517261Y-85422380D01*
X95707738Y-85422380D01*
X95802976Y-85374761D01*
X95850595Y-85327142D01*
X95898214Y-85231904D01*
X95898214Y-84993809D01*
X95850595Y-84898571D01*
X95802976Y-84850952D01*
X95707738Y-84803333D01*
X95517261Y-84803333D01*
X95422023Y-84850952D01*
X95374404Y-84898571D01*
X95326785Y-84993809D01*
X184557142Y-47566666D02*
X184604761Y-47614285D01*
X184652380Y-47757142D01*
X184652380Y-47852380D01*
X184604761Y-47995238D01*
X184509523Y-48090476D01*
X184414285Y-48138095D01*
X184223809Y-48185714D01*
X184080952Y-48185714D01*
X183890476Y-48138095D01*
X183795238Y-48090476D01*
X183700000Y-47995238D01*
X183652380Y-47852380D01*
X183652380Y-47757142D01*
X183700000Y-47614285D01*
X183747619Y-47566666D01*
X183652380Y-47233333D02*
X183652380Y-46566666D01*
X184652380Y-46995238D01*
X99277142Y-93266666D02*
X99324761Y-93314285D01*
X99372380Y-93457142D01*
X99372380Y-93552380D01*
X99324761Y-93695238D01*
X99229523Y-93790476D01*
X99134285Y-93838095D01*
X98943809Y-93885714D01*
X98800952Y-93885714D01*
X98610476Y-93838095D01*
X98515238Y-93790476D01*
X98420000Y-93695238D01*
X98372380Y-93552380D01*
X98372380Y-93457142D01*
X98420000Y-93314285D01*
X98467619Y-93266666D01*
X98800952Y-92695238D02*
X98753333Y-92790476D01*
X98705714Y-92838095D01*
X98610476Y-92885714D01*
X98562857Y-92885714D01*
X98467619Y-92838095D01*
X98420000Y-92790476D01*
X98372380Y-92695238D01*
X98372380Y-92504761D01*
X98420000Y-92409523D01*
X98467619Y-92361904D01*
X98562857Y-92314285D01*
X98610476Y-92314285D01*
X98705714Y-92361904D01*
X98753333Y-92409523D01*
X98800952Y-92504761D01*
X98800952Y-92695238D01*
X98848571Y-92790476D01*
X98896190Y-92838095D01*
X98991428Y-92885714D01*
X99181904Y-92885714D01*
X99277142Y-92838095D01*
X99324761Y-92790476D01*
X99372380Y-92695238D01*
X99372380Y-92504761D01*
X99324761Y-92409523D01*
X99277142Y-92361904D01*
X99181904Y-92314285D01*
X98991428Y-92314285D01*
X98896190Y-92361904D01*
X98848571Y-92409523D01*
X98800952Y-92504761D01*
X99177142Y-86966666D02*
X99224761Y-87014285D01*
X99272380Y-87157142D01*
X99272380Y-87252380D01*
X99224761Y-87395238D01*
X99129523Y-87490476D01*
X99034285Y-87538095D01*
X98843809Y-87585714D01*
X98700952Y-87585714D01*
X98510476Y-87538095D01*
X98415238Y-87490476D01*
X98320000Y-87395238D01*
X98272380Y-87252380D01*
X98272380Y-87157142D01*
X98320000Y-87014285D01*
X98367619Y-86966666D01*
X99272380Y-86490476D02*
X99272380Y-86300000D01*
X99224761Y-86204761D01*
X99177142Y-86157142D01*
X99034285Y-86061904D01*
X98843809Y-86014285D01*
X98462857Y-86014285D01*
X98367619Y-86061904D01*
X98320000Y-86109523D01*
X98272380Y-86204761D01*
X98272380Y-86395238D01*
X98320000Y-86490476D01*
X98367619Y-86538095D01*
X98462857Y-86585714D01*
X98700952Y-86585714D01*
X98796190Y-86538095D01*
X98843809Y-86490476D01*
X98891428Y-86395238D01*
X98891428Y-86204761D01*
X98843809Y-86109523D01*
X98796190Y-86061904D01*
X98700952Y-86014285D01*
X180587142Y-60042857D02*
X180634761Y-60090476D01*
X180682380Y-60233333D01*
X180682380Y-60328571D01*
X180634761Y-60471428D01*
X180539523Y-60566666D01*
X180444285Y-60614285D01*
X180253809Y-60661904D01*
X180110952Y-60661904D01*
X179920476Y-60614285D01*
X179825238Y-60566666D01*
X179730000Y-60471428D01*
X179682380Y-60328571D01*
X179682380Y-60233333D01*
X179730000Y-60090476D01*
X179777619Y-60042857D01*
X180682380Y-59090476D02*
X180682380Y-59661904D01*
X180682380Y-59376190D02*
X179682380Y-59376190D01*
X179825238Y-59471428D01*
X179920476Y-59566666D01*
X179968095Y-59661904D01*
X179682380Y-58471428D02*
X179682380Y-58376190D01*
X179730000Y-58280952D01*
X179777619Y-58233333D01*
X179872857Y-58185714D01*
X180063333Y-58138095D01*
X180301428Y-58138095D01*
X180491904Y-58185714D01*
X180587142Y-58233333D01*
X180634761Y-58280952D01*
X180682380Y-58376190D01*
X180682380Y-58471428D01*
X180634761Y-58566666D01*
X180587142Y-58614285D01*
X180491904Y-58661904D01*
X180301428Y-58709523D01*
X180063333Y-58709523D01*
X179872857Y-58661904D01*
X179777619Y-58614285D01*
X179730000Y-58566666D01*
X179682380Y-58471428D01*
X198687142Y-60142857D02*
X198734761Y-60190476D01*
X198782380Y-60333333D01*
X198782380Y-60428571D01*
X198734761Y-60571428D01*
X198639523Y-60666666D01*
X198544285Y-60714285D01*
X198353809Y-60761904D01*
X198210952Y-60761904D01*
X198020476Y-60714285D01*
X197925238Y-60666666D01*
X197830000Y-60571428D01*
X197782380Y-60428571D01*
X197782380Y-60333333D01*
X197830000Y-60190476D01*
X197877619Y-60142857D01*
X198782380Y-59190476D02*
X198782380Y-59761904D01*
X198782380Y-59476190D02*
X197782380Y-59476190D01*
X197925238Y-59571428D01*
X198020476Y-59666666D01*
X198068095Y-59761904D01*
X197782380Y-58857142D02*
X197782380Y-58238095D01*
X198163333Y-58571428D01*
X198163333Y-58428571D01*
X198210952Y-58333333D01*
X198258571Y-58285714D01*
X198353809Y-58238095D01*
X198591904Y-58238095D01*
X198687142Y-58285714D01*
X198734761Y-58333333D01*
X198782380Y-58428571D01*
X198782380Y-58714285D01*
X198734761Y-58809523D01*
X198687142Y-58857142D01*
X204957142Y-50742857D02*
X205004761Y-50790476D01*
X205052380Y-50933333D01*
X205052380Y-51028571D01*
X205004761Y-51171428D01*
X204909523Y-51266666D01*
X204814285Y-51314285D01*
X204623809Y-51361904D01*
X204480952Y-51361904D01*
X204290476Y-51314285D01*
X204195238Y-51266666D01*
X204100000Y-51171428D01*
X204052380Y-51028571D01*
X204052380Y-50933333D01*
X204100000Y-50790476D01*
X204147619Y-50742857D01*
X205052380Y-49790476D02*
X205052380Y-50361904D01*
X205052380Y-50076190D02*
X204052380Y-50076190D01*
X204195238Y-50171428D01*
X204290476Y-50266666D01*
X204338095Y-50361904D01*
X204385714Y-48933333D02*
X205052380Y-48933333D01*
X204004761Y-49171428D02*
X204719047Y-49409523D01*
X204719047Y-48790476D01*
X219942857Y-68852380D02*
X219609523Y-68376190D01*
X219371428Y-68852380D02*
X219371428Y-67852380D01*
X219752380Y-67852380D01*
X219847619Y-67900000D01*
X219895238Y-67947619D01*
X219942857Y-68042857D01*
X219942857Y-68185714D01*
X219895238Y-68280952D01*
X219847619Y-68328571D01*
X219752380Y-68376190D01*
X219371428Y-68376190D01*
X220752380Y-68804761D02*
X220657142Y-68852380D01*
X220466666Y-68852380D01*
X220371428Y-68804761D01*
X220323809Y-68709523D01*
X220323809Y-68328571D01*
X220371428Y-68233333D01*
X220466666Y-68185714D01*
X220657142Y-68185714D01*
X220752380Y-68233333D01*
X220800000Y-68328571D01*
X220800000Y-68423809D01*
X220323809Y-68519047D01*
X221085714Y-68185714D02*
X221466666Y-68185714D01*
X221228571Y-68852380D02*
X221228571Y-67995238D01*
X221276190Y-67900000D01*
X221371428Y-67852380D01*
X221466666Y-67852380D01*
X221561904Y-68947619D02*
X222323809Y-68947619D01*
X222561904Y-68852380D02*
X222561904Y-67852380D01*
X223038095Y-68185714D02*
X223038095Y-68852380D01*
X223038095Y-68280952D02*
X223085714Y-68233333D01*
X223180952Y-68185714D01*
X223323809Y-68185714D01*
X223419047Y-68233333D01*
X223466666Y-68328571D01*
X223466666Y-68852380D01*
X223704761Y-68947619D02*
X224466666Y-68947619D01*
X225038095Y-68328571D02*
X225180952Y-68376190D01*
X225228571Y-68423809D01*
X225276190Y-68519047D01*
X225276190Y-68661904D01*
X225228571Y-68757142D01*
X225180952Y-68804761D01*
X225085714Y-68852380D01*
X224704761Y-68852380D01*
X224704761Y-67852380D01*
X225038095Y-67852380D01*
X225133333Y-67900000D01*
X225180952Y-67947619D01*
X225228571Y-68042857D01*
X225228571Y-68138095D01*
X225180952Y-68233333D01*
X225133333Y-68280952D01*
X225038095Y-68328571D01*
X224704761Y-68328571D01*
X220566666Y-93752380D02*
X220566666Y-92752380D01*
X220947619Y-92752380D01*
X221042857Y-92800000D01*
X221090476Y-92847619D01*
X221138095Y-92942857D01*
X221138095Y-93085714D01*
X221090476Y-93180952D01*
X221042857Y-93228571D01*
X220947619Y-93276190D01*
X220566666Y-93276190D01*
X221566666Y-93752380D02*
X221566666Y-92752380D01*
X221804761Y-92752380D01*
X221947619Y-92800000D01*
X222042857Y-92895238D01*
X222090476Y-92990476D01*
X222138095Y-93180952D01*
X222138095Y-93323809D01*
X222090476Y-93514285D01*
X222042857Y-93609523D01*
X221947619Y-93704761D01*
X221804761Y-93752380D01*
X221566666Y-93752380D01*
X222328571Y-93847619D02*
X223090476Y-93847619D01*
X223328571Y-93752380D02*
X223328571Y-92752380D01*
X223804761Y-93085714D02*
X223804761Y-93752380D01*
X223804761Y-93180952D02*
X223852380Y-93133333D01*
X223947619Y-93085714D01*
X224090476Y-93085714D01*
X224185714Y-93133333D01*
X224233333Y-93228571D01*
X224233333Y-93752380D01*
X219261904Y-45528571D02*
X219595238Y-45528571D01*
X219738095Y-46052380D02*
X219261904Y-46052380D01*
X219261904Y-45052380D01*
X219738095Y-45052380D01*
X220166666Y-46052380D02*
X220166666Y-45385714D01*
X220166666Y-45576190D02*
X220214285Y-45480952D01*
X220261904Y-45433333D01*
X220357142Y-45385714D01*
X220452380Y-45385714D01*
X220785714Y-46052380D02*
X220785714Y-45385714D01*
X220785714Y-45576190D02*
X220833333Y-45480952D01*
X220880952Y-45433333D01*
X220976190Y-45385714D01*
X221071428Y-45385714D01*
X221547619Y-46052380D02*
X221452380Y-46004761D01*
X221404761Y-45957142D01*
X221357142Y-45861904D01*
X221357142Y-45576190D01*
X221404761Y-45480952D01*
X221452380Y-45433333D01*
X221547619Y-45385714D01*
X221690476Y-45385714D01*
X221785714Y-45433333D01*
X221833333Y-45480952D01*
X221880952Y-45576190D01*
X221880952Y-45861904D01*
X221833333Y-45957142D01*
X221785714Y-46004761D01*
X221690476Y-46052380D01*
X221547619Y-46052380D01*
X222309523Y-46052380D02*
X222309523Y-45385714D01*
X222309523Y-45576190D02*
X222357142Y-45480952D01*
X222404761Y-45433333D01*
X222500000Y-45385714D01*
X222595238Y-45385714D01*
X222690476Y-46147619D02*
X223452380Y-46147619D01*
X223880952Y-45052380D02*
X224071428Y-45052380D01*
X224166666Y-45100000D01*
X224261904Y-45195238D01*
X224309523Y-45385714D01*
X224309523Y-45719047D01*
X224261904Y-45909523D01*
X224166666Y-46004761D01*
X224071428Y-46052380D01*
X223880952Y-46052380D01*
X223785714Y-46004761D01*
X223690476Y-45909523D01*
X223642857Y-45719047D01*
X223642857Y-45385714D01*
X223690476Y-45195238D01*
X223785714Y-45100000D01*
X223880952Y-45052380D01*
X225166666Y-45385714D02*
X225166666Y-46052380D01*
X224738095Y-45385714D02*
X224738095Y-45909523D01*
X224785714Y-46004761D01*
X224880952Y-46052380D01*
X225023809Y-46052380D01*
X225119047Y-46004761D01*
X225166666Y-45957142D01*
X225500000Y-45385714D02*
X225880952Y-45385714D01*
X225642857Y-45052380D02*
X225642857Y-45909523D01*
X225690476Y-46004761D01*
X225785714Y-46052380D01*
X225880952Y-46052380D01*
D15*
X102757619Y-48393333D02*
X104852857Y-48393333D01*
X102338571Y-49650476D02*
X103805238Y-45250476D01*
X105271904Y-49650476D01*
X106738571Y-49650476D02*
X106738571Y-45250476D01*
X108414761Y-45250476D01*
X108833809Y-45460000D01*
X109043333Y-45669523D01*
X109252857Y-46088571D01*
X109252857Y-46717142D01*
X109043333Y-47136190D01*
X108833809Y-47345714D01*
X108414761Y-47555238D01*
X106738571Y-47555238D01*
X114071904Y-50069523D02*
X113652857Y-49860000D01*
X113233809Y-49440952D01*
X112605238Y-48812380D01*
X112186190Y-48602857D01*
X111767142Y-48602857D01*
X111976666Y-49650476D02*
X111557619Y-49440952D01*
X111138571Y-49021904D01*
X110929047Y-48183809D01*
X110929047Y-46717142D01*
X111138571Y-45879047D01*
X111557619Y-45460000D01*
X111976666Y-45250476D01*
X112814761Y-45250476D01*
X113233809Y-45460000D01*
X113652857Y-45879047D01*
X113862380Y-46717142D01*
X113862380Y-48183809D01*
X113652857Y-49021904D01*
X113233809Y-49440952D01*
X112814761Y-49650476D01*
X111976666Y-49650476D01*
D14*
X194222380Y-57066666D02*
X193746190Y-57400000D01*
X194222380Y-57638095D02*
X193222380Y-57638095D01*
X193222380Y-57257142D01*
X193270000Y-57161904D01*
X193317619Y-57114285D01*
X193412857Y-57066666D01*
X193555714Y-57066666D01*
X193650952Y-57114285D01*
X193698571Y-57161904D01*
X193746190Y-57257142D01*
X193746190Y-57638095D01*
X193222380Y-56733333D02*
X193222380Y-56114285D01*
X193603333Y-56447619D01*
X193603333Y-56304761D01*
X193650952Y-56209523D01*
X193698571Y-56161904D01*
X193793809Y-56114285D01*
X194031904Y-56114285D01*
X194127142Y-56161904D01*
X194174761Y-56209523D01*
X194222380Y-56304761D01*
X194222380Y-56590476D01*
X194174761Y-56685714D01*
X194127142Y-56733333D01*
X194222380Y-53766666D02*
X193746190Y-54100000D01*
X194222380Y-54338095D02*
X193222380Y-54338095D01*
X193222380Y-53957142D01*
X193270000Y-53861904D01*
X193317619Y-53814285D01*
X193412857Y-53766666D01*
X193555714Y-53766666D01*
X193650952Y-53814285D01*
X193698571Y-53861904D01*
X193746190Y-53957142D01*
X193746190Y-54338095D01*
X193222380Y-52861904D02*
X193222380Y-53338095D01*
X193698571Y-53385714D01*
X193650952Y-53338095D01*
X193603333Y-53242857D01*
X193603333Y-53004761D01*
X193650952Y-52909523D01*
X193698571Y-52861904D01*
X193793809Y-52814285D01*
X194031904Y-52814285D01*
X194127142Y-52861904D01*
X194174761Y-52909523D01*
X194222380Y-53004761D01*
X194222380Y-53242857D01*
X194174761Y-53338095D01*
X194127142Y-53385714D01*
X208733333Y-57832380D02*
X208400000Y-57356190D01*
X208161904Y-57832380D02*
X208161904Y-56832380D01*
X208542857Y-56832380D01*
X208638095Y-56880000D01*
X208685714Y-56927619D01*
X208733333Y-57022857D01*
X208733333Y-57165714D01*
X208685714Y-57260952D01*
X208638095Y-57308571D01*
X208542857Y-57356190D01*
X208161904Y-57356190D01*
X209304761Y-57260952D02*
X209209523Y-57213333D01*
X209161904Y-57165714D01*
X209114285Y-57070476D01*
X209114285Y-57022857D01*
X209161904Y-56927619D01*
X209209523Y-56880000D01*
X209304761Y-56832380D01*
X209495238Y-56832380D01*
X209590476Y-56880000D01*
X209638095Y-56927619D01*
X209685714Y-57022857D01*
X209685714Y-57070476D01*
X209638095Y-57165714D01*
X209590476Y-57213333D01*
X209495238Y-57260952D01*
X209304761Y-57260952D01*
X209209523Y-57308571D01*
X209161904Y-57356190D01*
X209114285Y-57451428D01*
X209114285Y-57641904D01*
X209161904Y-57737142D01*
X209209523Y-57784761D01*
X209304761Y-57832380D01*
X209495238Y-57832380D01*
X209590476Y-57784761D01*
X209638095Y-57737142D01*
X209685714Y-57641904D01*
X209685714Y-57451428D01*
X209638095Y-57356190D01*
X209590476Y-57308571D01*
X209495238Y-57260952D01*
X174552380Y-49822380D02*
X174219047Y-49346190D01*
X173980952Y-49822380D02*
X173980952Y-48822380D01*
X174361904Y-48822380D01*
X174457142Y-48870000D01*
X174504761Y-48917619D01*
X174552380Y-49012857D01*
X174552380Y-49155714D01*
X174504761Y-49250952D01*
X174457142Y-49298571D01*
X174361904Y-49346190D01*
X173980952Y-49346190D01*
X175504761Y-49822380D02*
X174933333Y-49822380D01*
X175219047Y-49822380D02*
X175219047Y-48822380D01*
X175123809Y-48965238D01*
X175028571Y-49060476D01*
X174933333Y-49108095D01*
X176457142Y-49822380D02*
X175885714Y-49822380D01*
X176171428Y-49822380D02*
X176171428Y-48822380D01*
X176076190Y-48965238D01*
X175980952Y-49060476D01*
X175885714Y-49108095D01*
X176838095Y-49536666D02*
X177314285Y-49536666D01*
X176742857Y-49822380D02*
X177076190Y-48822380D01*
X177409523Y-49822380D01*
X178266666Y-49822380D02*
X177695238Y-49822380D01*
X177980952Y-49822380D02*
X177980952Y-48822380D01*
X177885714Y-48965238D01*
X177790476Y-49060476D01*
X177695238Y-49108095D01*
X188252380Y-62347619D02*
X187776190Y-62680952D01*
X188252380Y-62919047D02*
X187252380Y-62919047D01*
X187252380Y-62538095D01*
X187300000Y-62442857D01*
X187347619Y-62395238D01*
X187442857Y-62347619D01*
X187585714Y-62347619D01*
X187680952Y-62395238D01*
X187728571Y-62442857D01*
X187776190Y-62538095D01*
X187776190Y-62919047D01*
X188252380Y-61395238D02*
X188252380Y-61966666D01*
X188252380Y-61680952D02*
X187252380Y-61680952D01*
X187395238Y-61776190D01*
X187490476Y-61871428D01*
X187538095Y-61966666D01*
X187347619Y-61014285D02*
X187300000Y-60966666D01*
X187252380Y-60871428D01*
X187252380Y-60633333D01*
X187300000Y-60538095D01*
X187347619Y-60490476D01*
X187442857Y-60442857D01*
X187538095Y-60442857D01*
X187680952Y-60490476D01*
X188252380Y-61061904D01*
X188252380Y-60442857D01*
X187966666Y-60061904D02*
X187966666Y-59585714D01*
X188252380Y-60157142D02*
X187252380Y-59823809D01*
X188252380Y-59490476D01*
X188252380Y-58633333D02*
X188252380Y-59204761D01*
X188252380Y-58919047D02*
X187252380Y-58919047D01*
X187395238Y-59014285D01*
X187490476Y-59109523D01*
X187538095Y-59204761D01*
X175652380Y-58947619D02*
X175176190Y-59280952D01*
X175652380Y-59519047D02*
X174652380Y-59519047D01*
X174652380Y-59138095D01*
X174700000Y-59042857D01*
X174747619Y-58995238D01*
X174842857Y-58947619D01*
X174985714Y-58947619D01*
X175080952Y-58995238D01*
X175128571Y-59042857D01*
X175176190Y-59138095D01*
X175176190Y-59519047D01*
X174747619Y-58566666D02*
X174700000Y-58519047D01*
X174652380Y-58423809D01*
X174652380Y-58185714D01*
X174700000Y-58090476D01*
X174747619Y-58042857D01*
X174842857Y-57995238D01*
X174938095Y-57995238D01*
X175080952Y-58042857D01*
X175652380Y-58614285D01*
X175652380Y-57995238D01*
X175652380Y-57042857D02*
X175652380Y-57614285D01*
X175652380Y-57328571D02*
X174652380Y-57328571D01*
X174795238Y-57423809D01*
X174890476Y-57519047D01*
X174938095Y-57614285D01*
X175366666Y-56661904D02*
X175366666Y-56185714D01*
X175652380Y-56757142D02*
X174652380Y-56423809D01*
X175652380Y-56090476D01*
X175652380Y-55233333D02*
X175652380Y-55804761D01*
X175652380Y-55519047D02*
X174652380Y-55519047D01*
X174795238Y-55614285D01*
X174890476Y-55709523D01*
X174938095Y-55804761D01*
X188252380Y-50947619D02*
X187776190Y-51280952D01*
X188252380Y-51519047D02*
X187252380Y-51519047D01*
X187252380Y-51138095D01*
X187300000Y-51042857D01*
X187347619Y-50995238D01*
X187442857Y-50947619D01*
X187585714Y-50947619D01*
X187680952Y-50995238D01*
X187728571Y-51042857D01*
X187776190Y-51138095D01*
X187776190Y-51519047D01*
X187347619Y-50566666D02*
X187300000Y-50519047D01*
X187252380Y-50423809D01*
X187252380Y-50185714D01*
X187300000Y-50090476D01*
X187347619Y-50042857D01*
X187442857Y-49995238D01*
X187538095Y-49995238D01*
X187680952Y-50042857D01*
X188252380Y-50614285D01*
X188252380Y-49995238D01*
X187347619Y-49614285D02*
X187300000Y-49566666D01*
X187252380Y-49471428D01*
X187252380Y-49233333D01*
X187300000Y-49138095D01*
X187347619Y-49090476D01*
X187442857Y-49042857D01*
X187538095Y-49042857D01*
X187680952Y-49090476D01*
X188252380Y-49661904D01*
X188252380Y-49042857D01*
X187966666Y-48661904D02*
X187966666Y-48185714D01*
X188252380Y-48757142D02*
X187252380Y-48423809D01*
X188252380Y-48090476D01*
X188252380Y-47233333D02*
X188252380Y-47804761D01*
X188252380Y-47519047D02*
X187252380Y-47519047D01*
X187395238Y-47614285D01*
X187490476Y-47709523D01*
X187538095Y-47804761D01*
X177552380Y-58947619D02*
X177076190Y-59280952D01*
X177552380Y-59519047D02*
X176552380Y-59519047D01*
X176552380Y-59138095D01*
X176600000Y-59042857D01*
X176647619Y-58995238D01*
X176742857Y-58947619D01*
X176885714Y-58947619D01*
X176980952Y-58995238D01*
X177028571Y-59042857D01*
X177076190Y-59138095D01*
X177076190Y-59519047D01*
X176552380Y-58614285D02*
X176552380Y-57995238D01*
X176933333Y-58328571D01*
X176933333Y-58185714D01*
X176980952Y-58090476D01*
X177028571Y-58042857D01*
X177123809Y-57995238D01*
X177361904Y-57995238D01*
X177457142Y-58042857D01*
X177504761Y-58090476D01*
X177552380Y-58185714D01*
X177552380Y-58471428D01*
X177504761Y-58566666D01*
X177457142Y-58614285D01*
X177552380Y-57042857D02*
X177552380Y-57614285D01*
X177552380Y-57328571D02*
X176552380Y-57328571D01*
X176695238Y-57423809D01*
X176790476Y-57519047D01*
X176838095Y-57614285D01*
X177266666Y-56661904D02*
X177266666Y-56185714D01*
X177552380Y-56757142D02*
X176552380Y-56423809D01*
X177552380Y-56090476D01*
X177552380Y-55233333D02*
X177552380Y-55804761D01*
X177552380Y-55519047D02*
X176552380Y-55519047D01*
X176695238Y-55614285D01*
X176790476Y-55709523D01*
X176838095Y-55804761D01*
X186652380Y-50947619D02*
X186176190Y-51280952D01*
X186652380Y-51519047D02*
X185652380Y-51519047D01*
X185652380Y-51138095D01*
X185700000Y-51042857D01*
X185747619Y-50995238D01*
X185842857Y-50947619D01*
X185985714Y-50947619D01*
X186080952Y-50995238D01*
X186128571Y-51042857D01*
X186176190Y-51138095D01*
X186176190Y-51519047D01*
X185652380Y-50614285D02*
X185652380Y-49995238D01*
X186033333Y-50328571D01*
X186033333Y-50185714D01*
X186080952Y-50090476D01*
X186128571Y-50042857D01*
X186223809Y-49995238D01*
X186461904Y-49995238D01*
X186557142Y-50042857D01*
X186604761Y-50090476D01*
X186652380Y-50185714D01*
X186652380Y-50471428D01*
X186604761Y-50566666D01*
X186557142Y-50614285D01*
X185747619Y-49614285D02*
X185700000Y-49566666D01*
X185652380Y-49471428D01*
X185652380Y-49233333D01*
X185700000Y-49138095D01*
X185747619Y-49090476D01*
X185842857Y-49042857D01*
X185938095Y-49042857D01*
X186080952Y-49090476D01*
X186652380Y-49661904D01*
X186652380Y-49042857D01*
X186366666Y-48661904D02*
X186366666Y-48185714D01*
X186652380Y-48757142D02*
X185652380Y-48423809D01*
X186652380Y-48090476D01*
X186652380Y-47233333D02*
X186652380Y-47804761D01*
X186652380Y-47519047D02*
X185652380Y-47519047D01*
X185795238Y-47614285D01*
X185890476Y-47709523D01*
X185938095Y-47804761D01*
X199138095Y-50852380D02*
X199138095Y-51661904D01*
X199185714Y-51757142D01*
X199233333Y-51804761D01*
X199328571Y-51852380D01*
X199519047Y-51852380D01*
X199614285Y-51804761D01*
X199661904Y-51757142D01*
X199709523Y-51661904D01*
X199709523Y-50852380D01*
X200138095Y-50947619D02*
X200185714Y-50900000D01*
X200280952Y-50852380D01*
X200519047Y-50852380D01*
X200614285Y-50900000D01*
X200661904Y-50947619D01*
X200709523Y-51042857D01*
X200709523Y-51138095D01*
X200661904Y-51280952D01*
X200090476Y-51852380D01*
X200709523Y-51852380D01*
X94238095Y-92512380D02*
X94238095Y-93321904D01*
X94285714Y-93417142D01*
X94333333Y-93464761D01*
X94428571Y-93512380D01*
X94619047Y-93512380D01*
X94714285Y-93464761D01*
X94761904Y-93417142D01*
X94809523Y-93321904D01*
X94809523Y-92512380D01*
X95190476Y-92512380D02*
X95809523Y-92512380D01*
X95476190Y-92893333D01*
X95619047Y-92893333D01*
X95714285Y-92940952D01*
X95761904Y-92988571D01*
X95809523Y-93083809D01*
X95809523Y-93321904D01*
X95761904Y-93417142D01*
X95714285Y-93464761D01*
X95619047Y-93512380D01*
X95333333Y-93512380D01*
X95238095Y-93464761D01*
X95190476Y-93417142D01*
X180738095Y-50752380D02*
X180738095Y-51561904D01*
X180785714Y-51657142D01*
X180833333Y-51704761D01*
X180928571Y-51752380D01*
X181119047Y-51752380D01*
X181214285Y-51704761D01*
X181261904Y-51657142D01*
X181309523Y-51561904D01*
X181309523Y-50752380D01*
X182261904Y-50752380D02*
X181785714Y-50752380D01*
X181738095Y-51228571D01*
X181785714Y-51180952D01*
X181880952Y-51133333D01*
X182119047Y-51133333D01*
X182214285Y-51180952D01*
X182261904Y-51228571D01*
X182309523Y-51323809D01*
X182309523Y-51561904D01*
X182261904Y-51657142D01*
X182214285Y-51704761D01*
X182119047Y-51752380D01*
X181880952Y-51752380D01*
X181785714Y-51704761D01*
X181738095Y-51657142D01*
X212058333Y-101327142D02*
X212010714Y-101374761D01*
X211867857Y-101422380D01*
X211772619Y-101422380D01*
X211629761Y-101374761D01*
X211534523Y-101279523D01*
X211486904Y-101184285D01*
X211439285Y-100993809D01*
X211439285Y-100850952D01*
X211486904Y-100660476D01*
X211534523Y-100565238D01*
X211629761Y-100470000D01*
X211772619Y-100422380D01*
X211867857Y-100422380D01*
X212010714Y-100470000D01*
X212058333Y-100517619D01*
X212391666Y-100422380D02*
X213010714Y-100422380D01*
X212677380Y-100803333D01*
X212820238Y-100803333D01*
X212915476Y-100850952D01*
X212963095Y-100898571D01*
X213010714Y-100993809D01*
X213010714Y-101231904D01*
X212963095Y-101327142D01*
X212915476Y-101374761D01*
X212820238Y-101422380D01*
X212534523Y-101422380D01*
X212439285Y-101374761D01*
X212391666Y-101327142D01*
X203833333Y-79287142D02*
X203785714Y-79334761D01*
X203642857Y-79382380D01*
X203547619Y-79382380D01*
X203404761Y-79334761D01*
X203309523Y-79239523D01*
X203261904Y-79144285D01*
X203214285Y-78953809D01*
X203214285Y-78810952D01*
X203261904Y-78620476D01*
X203309523Y-78525238D01*
X203404761Y-78430000D01*
X203547619Y-78382380D01*
X203642857Y-78382380D01*
X203785714Y-78430000D01*
X203833333Y-78477619D01*
X204690476Y-78715714D02*
X204690476Y-79382380D01*
X204452380Y-78334761D02*
X204214285Y-79049047D01*
X204833333Y-79049047D01*
X207914285Y-72952380D02*
X207580952Y-72476190D01*
X207342857Y-72952380D02*
X207342857Y-71952380D01*
X207723809Y-71952380D01*
X207819047Y-72000000D01*
X207866666Y-72047619D01*
X207914285Y-72142857D01*
X207914285Y-72285714D01*
X207866666Y-72380952D01*
X207819047Y-72428571D01*
X207723809Y-72476190D01*
X207342857Y-72476190D01*
X208723809Y-72904761D02*
X208628571Y-72952380D01*
X208438095Y-72952380D01*
X208342857Y-72904761D01*
X208295238Y-72809523D01*
X208295238Y-72428571D01*
X208342857Y-72333333D01*
X208438095Y-72285714D01*
X208628571Y-72285714D01*
X208723809Y-72333333D01*
X208771428Y-72428571D01*
X208771428Y-72523809D01*
X208295238Y-72619047D01*
X209057142Y-72285714D02*
X209438095Y-72285714D01*
X209200000Y-72952380D02*
X209200000Y-72095238D01*
X209247619Y-72000000D01*
X209342857Y-71952380D01*
X209438095Y-71952380D01*
X209533333Y-73047619D02*
X210295238Y-73047619D01*
X210533333Y-72952380D02*
X210533333Y-71952380D01*
X211009523Y-72285714D02*
X211009523Y-72952380D01*
X211009523Y-72380952D02*
X211057142Y-72333333D01*
X211152380Y-72285714D01*
X211295238Y-72285714D01*
X211390476Y-72333333D01*
X211438095Y-72428571D01*
X211438095Y-72952380D01*
X211676190Y-73047619D02*
X212438095Y-73047619D01*
X212628571Y-72666666D02*
X213104761Y-72666666D01*
X212533333Y-72952380D02*
X212866666Y-71952380D01*
X213200000Y-72952380D01*
X214433333Y-118852380D02*
X214100000Y-118376190D01*
X213861904Y-118852380D02*
X213861904Y-117852380D01*
X214242857Y-117852380D01*
X214338095Y-117900000D01*
X214385714Y-117947619D01*
X214433333Y-118042857D01*
X214433333Y-118185714D01*
X214385714Y-118280952D01*
X214338095Y-118328571D01*
X214242857Y-118376190D01*
X213861904Y-118376190D01*
X215385714Y-118852380D02*
X214814285Y-118852380D01*
X215100000Y-118852380D02*
X215100000Y-117852380D01*
X215004761Y-117995238D01*
X214909523Y-118090476D01*
X214814285Y-118138095D01*
X205952380Y-100966666D02*
X205476190Y-101300000D01*
X205952380Y-101538095D02*
X204952380Y-101538095D01*
X204952380Y-101157142D01*
X205000000Y-101061904D01*
X205047619Y-101014285D01*
X205142857Y-100966666D01*
X205285714Y-100966666D01*
X205380952Y-101014285D01*
X205428571Y-101061904D01*
X205476190Y-101157142D01*
X205476190Y-101538095D01*
X205047619Y-100585714D02*
X205000000Y-100538095D01*
X204952380Y-100442857D01*
X204952380Y-100204761D01*
X205000000Y-100109523D01*
X205047619Y-100061904D01*
X205142857Y-100014285D01*
X205238095Y-100014285D01*
X205380952Y-100061904D01*
X205952380Y-100633333D01*
X205952380Y-100014285D01*
X205933333Y-120052380D02*
X205600000Y-119576190D01*
X205361904Y-120052380D02*
X205361904Y-119052380D01*
X205742857Y-119052380D01*
X205838095Y-119100000D01*
X205885714Y-119147619D01*
X205933333Y-119242857D01*
X205933333Y-119385714D01*
X205885714Y-119480952D01*
X205838095Y-119528571D01*
X205742857Y-119576190D01*
X205361904Y-119576190D01*
X206790476Y-119385714D02*
X206790476Y-120052380D01*
X206552380Y-119004761D02*
X206314285Y-119719047D01*
X206933333Y-119719047D01*
X197333333Y-114232380D02*
X197000000Y-113756190D01*
X196761904Y-114232380D02*
X196761904Y-113232380D01*
X197142857Y-113232380D01*
X197238095Y-113280000D01*
X197285714Y-113327619D01*
X197333333Y-113422857D01*
X197333333Y-113565714D01*
X197285714Y-113660952D01*
X197238095Y-113708571D01*
X197142857Y-113756190D01*
X196761904Y-113756190D01*
X198190476Y-113232380D02*
X198000000Y-113232380D01*
X197904761Y-113280000D01*
X197857142Y-113327619D01*
X197761904Y-113470476D01*
X197714285Y-113660952D01*
X197714285Y-114041904D01*
X197761904Y-114137142D01*
X197809523Y-114184761D01*
X197904761Y-114232380D01*
X198095238Y-114232380D01*
X198190476Y-114184761D01*
X198238095Y-114137142D01*
X198285714Y-114041904D01*
X198285714Y-113803809D01*
X198238095Y-113708571D01*
X198190476Y-113660952D01*
X198095238Y-113613333D01*
X197904761Y-113613333D01*
X197809523Y-113660952D01*
X197761904Y-113708571D01*
X197714285Y-113803809D01*
X185082380Y-78166666D02*
X184606190Y-78500000D01*
X185082380Y-78738095D02*
X184082380Y-78738095D01*
X184082380Y-78357142D01*
X184130000Y-78261904D01*
X184177619Y-78214285D01*
X184272857Y-78166666D01*
X184415714Y-78166666D01*
X184510952Y-78214285D01*
X184558571Y-78261904D01*
X184606190Y-78357142D01*
X184606190Y-78738095D01*
X184082380Y-77833333D02*
X184082380Y-77166666D01*
X185082380Y-77595238D01*
X200022380Y-78466666D02*
X199546190Y-78800000D01*
X200022380Y-79038095D02*
X199022380Y-79038095D01*
X199022380Y-78657142D01*
X199070000Y-78561904D01*
X199117619Y-78514285D01*
X199212857Y-78466666D01*
X199355714Y-78466666D01*
X199450952Y-78514285D01*
X199498571Y-78561904D01*
X199546190Y-78657142D01*
X199546190Y-79038095D01*
X200022380Y-77990476D02*
X200022380Y-77800000D01*
X199974761Y-77704761D01*
X199927142Y-77657142D01*
X199784285Y-77561904D01*
X199593809Y-77514285D01*
X199212857Y-77514285D01*
X199117619Y-77561904D01*
X199070000Y-77609523D01*
X199022380Y-77704761D01*
X199022380Y-77895238D01*
X199070000Y-77990476D01*
X199117619Y-78038095D01*
X199212857Y-78085714D01*
X199450952Y-78085714D01*
X199546190Y-78038095D01*
X199593809Y-77990476D01*
X199641428Y-77895238D01*
X199641428Y-77704761D01*
X199593809Y-77609523D01*
X199546190Y-77561904D01*
X199450952Y-77514285D01*
X205238095Y-109652380D02*
X205238095Y-110461904D01*
X205285714Y-110557142D01*
X205333333Y-110604761D01*
X205428571Y-110652380D01*
X205619047Y-110652380D01*
X205714285Y-110604761D01*
X205761904Y-110557142D01*
X205809523Y-110461904D01*
X205809523Y-109652380D01*
X206809523Y-110652380D02*
X206238095Y-110652380D01*
X206523809Y-110652380D02*
X206523809Y-109652380D01*
X206428571Y-109795238D01*
X206333333Y-109890476D01*
X206238095Y-109938095D01*
X175538095Y-78552380D02*
X175538095Y-79361904D01*
X175585714Y-79457142D01*
X175633333Y-79504761D01*
X175728571Y-79552380D01*
X175919047Y-79552380D01*
X176014285Y-79504761D01*
X176061904Y-79457142D01*
X176109523Y-79361904D01*
X176109523Y-78552380D01*
X177014285Y-78885714D02*
X177014285Y-79552380D01*
X176776190Y-78504761D02*
X176538095Y-79219047D01*
X177157142Y-79219047D01*
X176661904Y-85952380D02*
X176661904Y-84952380D01*
X176995238Y-85666666D01*
X177328571Y-84952380D01*
X177328571Y-85952380D01*
X178376190Y-85857142D02*
X178328571Y-85904761D01*
X178185714Y-85952380D01*
X178090476Y-85952380D01*
X177947619Y-85904761D01*
X177852380Y-85809523D01*
X177804761Y-85714285D01*
X177757142Y-85523809D01*
X177757142Y-85380952D01*
X177804761Y-85190476D01*
X177852380Y-85095238D01*
X177947619Y-85000000D01*
X178090476Y-84952380D01*
X178185714Y-84952380D01*
X178328571Y-85000000D01*
X178376190Y-85047619D01*
X179280952Y-85952380D02*
X178804761Y-85952380D01*
X178804761Y-84952380D01*
X107371428Y-96995238D02*
X107371428Y-96233333D01*
X107752380Y-96614285D02*
X106990476Y-96614285D01*
X106752380Y-95280952D02*
X106752380Y-95757142D01*
X107228571Y-95804761D01*
X107180952Y-95757142D01*
X107133333Y-95661904D01*
X107133333Y-95423809D01*
X107180952Y-95328571D01*
X107228571Y-95280952D01*
X107323809Y-95233333D01*
X107561904Y-95233333D01*
X107657142Y-95280952D01*
X107704761Y-95328571D01*
X107752380Y-95423809D01*
X107752380Y-95661904D01*
X107704761Y-95757142D01*
X107657142Y-95804761D01*
X106752380Y-94947619D02*
X107752380Y-94614285D01*
X106752380Y-94280952D01*
X106800000Y-92661904D02*
X106752380Y-92757142D01*
X106752380Y-92900000D01*
X106800000Y-93042857D01*
X106895238Y-93138095D01*
X106990476Y-93185714D01*
X107180952Y-93233333D01*
X107323809Y-93233333D01*
X107514285Y-93185714D01*
X107609523Y-93138095D01*
X107704761Y-93042857D01*
X107752380Y-92900000D01*
X107752380Y-92804761D01*
X107704761Y-92661904D01*
X107657142Y-92614285D01*
X107323809Y-92614285D01*
X107323809Y-92804761D01*
X107752380Y-92185714D02*
X106752380Y-92185714D01*
X107752380Y-91614285D01*
X106752380Y-91614285D01*
X107752380Y-91138095D02*
X106752380Y-91138095D01*
X106752380Y-90900000D01*
X106800000Y-90757142D01*
X106895238Y-90661904D01*
X106990476Y-90614285D01*
X107180952Y-90566666D01*
X107323809Y-90566666D01*
X107514285Y-90614285D01*
X107609523Y-90661904D01*
X107704761Y-90757142D01*
X107752380Y-90900000D01*
X107752380Y-91138095D01*
X107371428Y-89376190D02*
X107371428Y-88614285D01*
X106752380Y-87661904D02*
X106752380Y-88138095D01*
X107228571Y-88185714D01*
X107180952Y-88138095D01*
X107133333Y-88042857D01*
X107133333Y-87804761D01*
X107180952Y-87709523D01*
X107228571Y-87661904D01*
X107323809Y-87614285D01*
X107561904Y-87614285D01*
X107657142Y-87661904D01*
X107704761Y-87709523D01*
X107752380Y-87804761D01*
X107752380Y-88042857D01*
X107704761Y-88138095D01*
X107657142Y-88185714D01*
X106752380Y-87328571D02*
X107752380Y-86995238D01*
X106752380Y-86661904D01*
X112352380Y-96727285D02*
X112352380Y-97298714D01*
X112352380Y-97013000D02*
X111352380Y-97013000D01*
X111495238Y-97108238D01*
X111590476Y-97203476D01*
X111638095Y-97298714D01*
X212557142Y-111842857D02*
X212604761Y-111890476D01*
X212652380Y-112033333D01*
X212652380Y-112128571D01*
X212604761Y-112271428D01*
X212509523Y-112366666D01*
X212414285Y-112414285D01*
X212223809Y-112461904D01*
X212080952Y-112461904D01*
X211890476Y-112414285D01*
X211795238Y-112366666D01*
X211700000Y-112271428D01*
X211652380Y-112128571D01*
X211652380Y-112033333D01*
X211700000Y-111890476D01*
X211747619Y-111842857D01*
X212652380Y-110890476D02*
X212652380Y-111461904D01*
X212652380Y-111176190D02*
X211652380Y-111176190D01*
X211795238Y-111271428D01*
X211890476Y-111366666D01*
X211938095Y-111461904D01*
X212652380Y-109938095D02*
X212652380Y-110509523D01*
X212652380Y-110223809D02*
X211652380Y-110223809D01*
X211795238Y-110319047D01*
X211890476Y-110414285D01*
X211938095Y-110509523D01*
X199657142Y-116442857D02*
X199704761Y-116490476D01*
X199752380Y-116633333D01*
X199752380Y-116728571D01*
X199704761Y-116871428D01*
X199609523Y-116966666D01*
X199514285Y-117014285D01*
X199323809Y-117061904D01*
X199180952Y-117061904D01*
X198990476Y-117014285D01*
X198895238Y-116966666D01*
X198800000Y-116871428D01*
X198752380Y-116728571D01*
X198752380Y-116633333D01*
X198800000Y-116490476D01*
X198847619Y-116442857D01*
X199752380Y-115490476D02*
X199752380Y-116061904D01*
X199752380Y-115776190D02*
X198752380Y-115776190D01*
X198895238Y-115871428D01*
X198990476Y-115966666D01*
X199038095Y-116061904D01*
X198847619Y-115109523D02*
X198800000Y-115061904D01*
X198752380Y-114966666D01*
X198752380Y-114728571D01*
X198800000Y-114633333D01*
X198847619Y-114585714D01*
X198942857Y-114538095D01*
X199038095Y-114538095D01*
X199180952Y-114585714D01*
X199752380Y-115157142D01*
X199752380Y-114538095D01*
X220464761Y-127872380D02*
X220131428Y-127396190D01*
X219893333Y-127872380D02*
X219893333Y-126872380D01*
X220274285Y-126872380D01*
X220369523Y-126920000D01*
X220417142Y-126967619D01*
X220464761Y-127062857D01*
X220464761Y-127205714D01*
X220417142Y-127300952D01*
X220369523Y-127348571D01*
X220274285Y-127396190D01*
X219893333Y-127396190D01*
X220750476Y-126872380D02*
X221083809Y-127872380D01*
X221417142Y-126872380D01*
X222274285Y-127872380D02*
X221702857Y-127872380D01*
X221988571Y-127872380D02*
X221988571Y-126872380D01*
X221893333Y-127015238D01*
X221798095Y-127110476D01*
X221702857Y-127158095D01*
M02*
