G04 #@! TF.GenerationSoftware,KiCad,Pcbnew,(5.1.9)-1*
G04 #@! TF.CreationDate,2021-10-27T20:53:23+02:00*
G04 #@! TF.ProjectId,PDH-module,5044482d-6d6f-4647-956c-652e6b696361,1.0*
G04 #@! TF.SameCoordinates,Original*
G04 #@! TF.FileFunction,Soldermask,Bot*
G04 #@! TF.FilePolarity,Negative*
%FSLAX46Y46*%
G04 Gerber Fmt 4.6, Leading zero omitted, Abs format (unit mm)*
G04 Created by KiCad (PCBNEW (5.1.9)-1) date 2021-10-27 20:53:23*
%MOMM*%
%LPD*%
G01*
G04 APERTURE LIST*
%ADD10C,3.002000*%
%ADD11C,1.902000*%
%ADD12O,2.602000X1.702000*%
%ADD13O,7.102000X3.602000*%
%ADD14C,2.152000*%
%ADD15C,2.352000*%
%ADD16C,1.626000*%
%ADD17C,2.134000*%
G04 APERTURE END LIST*
D10*
X72800000Y-134450000D03*
X72800000Y-45550000D03*
D11*
X80420000Y-50630000D03*
X80420000Y-53170000D03*
X80420000Y-55710000D03*
X80420000Y-58250000D03*
X80420000Y-60790000D03*
X80420000Y-63330000D03*
X80420000Y-65870000D03*
X80420000Y-68410000D03*
X80420000Y-70950000D03*
X80420000Y-73490000D03*
X80420000Y-76030000D03*
X80420000Y-78570000D03*
X80420000Y-81110000D03*
X80420000Y-83650000D03*
X80420000Y-86190000D03*
X80420000Y-88730000D03*
X80420000Y-91270000D03*
X80420000Y-93810000D03*
X80420000Y-96350000D03*
X80420000Y-98890000D03*
X80420000Y-101430000D03*
X80420000Y-103970000D03*
X80420000Y-106510000D03*
X80420000Y-109050000D03*
X80420000Y-111590000D03*
X80420000Y-114130000D03*
X80420000Y-116670000D03*
X80420000Y-119210000D03*
X80420000Y-124290000D03*
X80420000Y-121750000D03*
X80420000Y-126830000D03*
X80420000Y-129370000D03*
X75340000Y-50630000D03*
X75340000Y-53170000D03*
X75340000Y-55710000D03*
X75340000Y-58250000D03*
X75340000Y-60790000D03*
X75340000Y-63330000D03*
X75340000Y-65870000D03*
X75340000Y-68410000D03*
X75340000Y-70950000D03*
X75340000Y-73490000D03*
X75340000Y-76030000D03*
X75340000Y-78570000D03*
X75340000Y-81110000D03*
X75340000Y-83650000D03*
X75340000Y-86190000D03*
X75340000Y-88730000D03*
X75340000Y-91270000D03*
X75340000Y-93810000D03*
X75340000Y-96350000D03*
X75340000Y-98890000D03*
X75340000Y-101430000D03*
X75340000Y-103970000D03*
X75340000Y-106510000D03*
X75340000Y-109050000D03*
X75340000Y-111590000D03*
X75340000Y-114130000D03*
X75340000Y-116670000D03*
X75340000Y-119210000D03*
X75340000Y-124290000D03*
X75340000Y-121750000D03*
X75340000Y-126830000D03*
X75340000Y-129370000D03*
D12*
X217300000Y-74960000D03*
X217300000Y-77500000D03*
D13*
X222380000Y-82580000D03*
X222380000Y-72420000D03*
D12*
X217300000Y-99860000D03*
X217300000Y-102400000D03*
D13*
X222380000Y-107480000D03*
X222380000Y-97320000D03*
X222400000Y-50040000D03*
X222400000Y-60200000D03*
D12*
X217320000Y-55120000D03*
X217320000Y-52580000D03*
D14*
X210200000Y-77500000D03*
D15*
X212740000Y-80040000D03*
X212740000Y-74960000D03*
X207660000Y-74960000D03*
X207660000Y-80040000D03*
D16*
X178100000Y-88000000D03*
X178100000Y-82900000D03*
X183200000Y-88000000D03*
X183200000Y-82900000D03*
X188300000Y-88000000D03*
X188300000Y-82900000D03*
X193400000Y-88000000D03*
X193400000Y-82900000D03*
G36*
G01*
X112916000Y-95667000D02*
X110884000Y-95667000D01*
G75*
G02*
X110833000Y-95616000I0J51000D01*
G01*
X110833000Y-93584000D01*
G75*
G02*
X110884000Y-93533000I51000J0D01*
G01*
X112916000Y-93533000D01*
G75*
G02*
X112967000Y-93584000I0J-51000D01*
G01*
X112967000Y-95616000D01*
G75*
G02*
X112916000Y-95667000I-51000J0D01*
G01*
G37*
D17*
X111900000Y-92060000D03*
X111900000Y-89520000D03*
D11*
X213800000Y-122500000D03*
X221420000Y-125040000D03*
X226500000Y-122500000D03*
M02*
