G04 #@! TF.GenerationSoftware,KiCad,Pcbnew,(6.0.7)*
G04 #@! TF.CreationDate,2023-01-31T14:41:23+01:00*
G04 #@! TF.ProjectId,PDH_module,5044485f-6d6f-4647-956c-652e6b696361,1.1*
G04 #@! TF.SameCoordinates,Original*
G04 #@! TF.FileFunction,Soldermask,Top*
G04 #@! TF.FilePolarity,Negative*
%FSLAX46Y46*%
G04 Gerber Fmt 4.6, Leading zero omitted, Abs format (unit mm)*
G04 Created by KiCad (PCBNEW (6.0.7)) date 2023-01-31 14:41:23*
%MOMM*%
%LPD*%
G01*
G04 APERTURE LIST*
G04 Aperture macros list*
%AMRoundRect*
0 Rectangle with rounded corners*
0 $1 Rounding radius*
0 $2 $3 $4 $5 $6 $7 $8 $9 X,Y pos of 4 corners*
0 Add a 4 corners polygon primitive as box body*
4,1,4,$2,$3,$4,$5,$6,$7,$8,$9,$2,$3,0*
0 Add four circle primitives for the rounded corners*
1,1,$1+$1,$2,$3*
1,1,$1+$1,$4,$5*
1,1,$1+$1,$6,$7*
1,1,$1+$1,$8,$9*
0 Add four rect primitives between the rounded corners*
20,1,$1+$1,$2,$3,$4,$5,0*
20,1,$1+$1,$4,$5,$6,$7,0*
20,1,$1+$1,$6,$7,$8,$9,0*
20,1,$1+$1,$8,$9,$2,$3,0*%
G04 Aperture macros list end*
%ADD10C,2.850000*%
%ADD11RoundRect,0.249999X0.525001X-0.525001X0.525001X0.525001X-0.525001X0.525001X-0.525001X-0.525001X0*%
%ADD12C,1.550000*%
%ADD13RoundRect,0.250000X-1.075000X0.375000X-1.075000X-0.375000X1.075000X-0.375000X1.075000X0.375000X0*%
%ADD14RoundRect,0.250000X-0.625000X0.375000X-0.625000X-0.375000X0.625000X-0.375000X0.625000X0.375000X0*%
%ADD15RoundRect,0.225000X0.225000X0.250000X-0.225000X0.250000X-0.225000X-0.250000X0.225000X-0.250000X0*%
%ADD16RoundRect,0.218750X0.256250X-0.218750X0.256250X0.218750X-0.256250X0.218750X-0.256250X-0.218750X0*%
%ADD17RoundRect,0.218750X-0.256250X0.218750X-0.256250X-0.218750X0.256250X-0.218750X0.256250X0.218750X0*%
%ADD18R,1.600000X1.600000*%
%ADD19C,1.600000*%
%ADD20RoundRect,0.218750X-0.218750X-0.256250X0.218750X-0.256250X0.218750X0.256250X-0.218750X0.256250X0*%
%ADD21RoundRect,0.200000X-0.275000X0.200000X-0.275000X-0.200000X0.275000X-0.200000X0.275000X0.200000X0*%
%ADD22RoundRect,0.250000X0.375000X1.075000X-0.375000X1.075000X-0.375000X-1.075000X0.375000X-1.075000X0*%
%ADD23R,1.905000X2.000000*%
%ADD24O,1.905000X2.000000*%
%ADD25RoundRect,0.100000X-0.625000X-0.100000X0.625000X-0.100000X0.625000X0.100000X-0.625000X0.100000X0*%
%ADD26RoundRect,0.249999X-0.575001X-1.175001X0.575001X-1.175001X0.575001X1.175001X-0.575001X1.175001X0*%
%ADD27RoundRect,0.225000X-0.225000X-0.250000X0.225000X-0.250000X0.225000X0.250000X-0.225000X0.250000X0*%
%ADD28RoundRect,0.225000X-0.250000X0.225000X-0.250000X-0.225000X0.250000X-0.225000X0.250000X0.225000X0*%
%ADD29RoundRect,0.225000X0.250000X-0.225000X0.250000X0.225000X-0.250000X0.225000X-0.250000X-0.225000X0*%
%ADD30R,2.300000X2.500000*%
%ADD31R,5.080000X1.500000*%
%ADD32C,2.250000*%
%ADD33R,1.000000X3.800000*%
%ADD34R,3.800000X1.000000*%
%ADD35R,1.000000X1.000000*%
%ADD36R,2.440000X1.000000*%
%ADD37R,1.000000X2.440000*%
%ADD38RoundRect,0.250000X-1.075000X0.312500X-1.075000X-0.312500X1.075000X-0.312500X1.075000X0.312500X0*%
%ADD39RoundRect,0.200000X0.275000X-0.200000X0.275000X0.200000X-0.275000X0.200000X-0.275000X-0.200000X0*%
%ADD40RoundRect,0.200000X-0.200000X-0.275000X0.200000X-0.275000X0.200000X0.275000X-0.200000X0.275000X0*%
%ADD41RoundRect,0.250000X0.312500X1.075000X-0.312500X1.075000X-0.312500X-1.075000X0.312500X-1.075000X0*%
%ADD42RoundRect,0.200000X0.200000X0.275000X-0.200000X0.275000X-0.200000X-0.275000X0.200000X-0.275000X0*%
%ADD43C,1.800000*%
%ADD44RoundRect,0.150000X-0.825000X-0.150000X0.825000X-0.150000X0.825000X0.150000X-0.825000X0.150000X0*%
%ADD45R,2.410000X3.300000*%
%ADD46RoundRect,0.150000X0.825000X0.150000X-0.825000X0.150000X-0.825000X-0.150000X0.825000X-0.150000X0*%
%ADD47R,1.200000X0.400000*%
%ADD48R,2.032000X2.032000*%
%ADD49C,2.032000*%
%ADD50RoundRect,0.250000X-0.650000X0.325000X-0.650000X-0.325000X0.650000X-0.325000X0.650000X0.325000X0*%
%ADD51R,1.650000X2.850000*%
%ADD52R,1.778000X1.524000*%
%ADD53R,1.524000X1.778000*%
%ADD54O,3.500000X3.500000*%
%ADD55R,2.000000X1.905000*%
%ADD56O,2.000000X1.905000*%
%ADD57RoundRect,0.150000X0.150000X-0.587500X0.150000X0.587500X-0.150000X0.587500X-0.150000X-0.587500X0*%
G04 APERTURE END LIST*
D10*
X39360000Y-141780000D03*
X39360000Y-52880000D03*
D11*
X41900000Y-136700000D03*
D12*
X41900000Y-134160000D03*
X41900000Y-131620000D03*
X41900000Y-129080000D03*
X41900000Y-126540000D03*
X41900000Y-124000000D03*
X41900000Y-121460000D03*
X41900000Y-118920000D03*
X41900000Y-116380000D03*
X41900000Y-113840000D03*
X41900000Y-111300000D03*
X41900000Y-108760000D03*
X41900000Y-106220000D03*
X41900000Y-103680000D03*
X41900000Y-101140000D03*
X41900000Y-98600000D03*
X41900000Y-96060000D03*
X41900000Y-93520000D03*
X41900000Y-90980000D03*
X41900000Y-88440000D03*
X41900000Y-85900000D03*
X41900000Y-83360000D03*
X41900000Y-80820000D03*
X41900000Y-78280000D03*
X41900000Y-75740000D03*
X41900000Y-73200000D03*
X41900000Y-70660000D03*
X41900000Y-68120000D03*
X41900000Y-65580000D03*
X41900000Y-63040000D03*
X41900000Y-60500000D03*
X41900000Y-57960000D03*
X46980000Y-136700000D03*
X46980000Y-134160000D03*
X46980000Y-131620000D03*
X46980000Y-129080000D03*
X46980000Y-126540000D03*
X46980000Y-124000000D03*
X46980000Y-121460000D03*
X46980000Y-118920000D03*
X46980000Y-116380000D03*
X46980000Y-113840000D03*
X46980000Y-111300000D03*
X46980000Y-108760000D03*
X46980000Y-106220000D03*
X46980000Y-103680000D03*
X46980000Y-101140000D03*
X46980000Y-98600000D03*
X46980000Y-96060000D03*
X46980000Y-93520000D03*
X46980000Y-90980000D03*
X46980000Y-88440000D03*
X46980000Y-85900000D03*
X46980000Y-83360000D03*
X46980000Y-80820000D03*
X46980000Y-78280000D03*
X46980000Y-75740000D03*
X46980000Y-73200000D03*
X46980000Y-70660000D03*
X46980000Y-68120000D03*
X46980000Y-65580000D03*
X46980000Y-63040000D03*
X46980000Y-60500000D03*
X46980000Y-57960000D03*
D13*
X59000000Y-119000000D03*
X59000000Y-121800000D03*
D14*
X64500000Y-124500000D03*
X64500000Y-127300000D03*
D13*
X70800000Y-89100000D03*
X70800000Y-91900000D03*
X71300000Y-119000000D03*
X71300000Y-121800000D03*
D15*
X167375000Y-134987500D03*
X165825000Y-134987500D03*
D16*
X171300000Y-139487500D03*
X171300000Y-137912500D03*
D17*
X179200000Y-131612500D03*
X179200000Y-133187500D03*
D18*
X144000000Y-142400000D03*
D19*
X144000000Y-140400000D03*
D20*
X135912500Y-138700000D03*
X137487500Y-138700000D03*
D18*
X123800000Y-142400000D03*
D19*
X123800000Y-140400000D03*
D20*
X131012500Y-138700000D03*
X132587500Y-138700000D03*
D18*
X104000000Y-142400000D03*
D19*
X104000000Y-140400000D03*
D20*
X110812500Y-138700000D03*
X112387500Y-138700000D03*
X75425000Y-69500000D03*
X77000000Y-69500000D03*
D18*
X70400000Y-84400000D03*
D19*
X70400000Y-82400000D03*
D20*
X76112500Y-82500000D03*
X77687500Y-82500000D03*
D21*
X67000000Y-124075000D03*
X67000000Y-125725000D03*
D17*
X169000000Y-135012500D03*
X169000000Y-136587500D03*
D22*
X186050000Y-135900000D03*
X183250000Y-135900000D03*
D23*
X136000000Y-142900000D03*
D24*
X133460000Y-142900000D03*
X130920000Y-142900000D03*
D23*
X116000000Y-142900000D03*
D24*
X113460000Y-142900000D03*
X110920000Y-142900000D03*
D25*
X62850000Y-118775000D03*
X62850000Y-119425000D03*
X62850000Y-120075000D03*
X62850000Y-120725000D03*
X62850000Y-121375000D03*
X62850000Y-122025000D03*
X67150000Y-122025000D03*
X67150000Y-121375000D03*
X67150000Y-120725000D03*
X67150000Y-120075000D03*
X67150000Y-119425000D03*
X67150000Y-118775000D03*
D26*
X65000000Y-120400000D03*
D13*
X59100000Y-89100000D03*
X59100000Y-91900000D03*
D27*
X184525000Y-84700000D03*
X186075000Y-84700000D03*
D28*
X185800000Y-87125000D03*
X185800000Y-88675000D03*
D15*
X175475000Y-91500000D03*
X173925000Y-91500000D03*
D28*
X170800000Y-65000000D03*
X170800000Y-66550000D03*
D27*
X146025000Y-78500000D03*
X147575000Y-78500000D03*
X170825000Y-74600000D03*
X172375000Y-74600000D03*
D28*
X152000000Y-74700000D03*
X152000000Y-76250000D03*
D29*
X157900000Y-66200000D03*
X157900000Y-64650000D03*
D30*
X52000000Y-58350000D03*
X52000000Y-62650000D03*
X52800000Y-136650000D03*
X52800000Y-132350000D03*
D31*
X192900000Y-84700000D03*
X192900000Y-80450000D03*
X192900000Y-88950000D03*
D32*
X117300000Y-78500000D03*
X114760000Y-81040000D03*
X114760000Y-75960000D03*
X119840000Y-75960000D03*
X119840000Y-81040000D03*
D33*
X187990000Y-57450000D03*
D34*
X174950000Y-50410000D03*
D33*
X187990000Y-75550000D03*
X143810000Y-69450000D03*
D34*
X168950000Y-94590000D03*
X180950000Y-50410000D03*
X168950000Y-50410000D03*
D35*
X143810000Y-50410000D03*
D34*
X180950000Y-94590000D03*
D35*
X143810000Y-94590000D03*
D33*
X143810000Y-75550000D03*
D36*
X186270000Y-50410000D03*
D34*
X162850000Y-50410000D03*
D37*
X187990000Y-52130000D03*
D33*
X143810000Y-81550000D03*
X187990000Y-87550000D03*
D35*
X187990000Y-94590000D03*
D37*
X187990000Y-92870000D03*
D33*
X143810000Y-57450000D03*
D35*
X187990000Y-50410000D03*
D34*
X150850000Y-94590000D03*
D33*
X143810000Y-63450000D03*
D37*
X143810000Y-52130000D03*
D34*
X174950000Y-94590000D03*
D33*
X187990000Y-81550000D03*
D34*
X156850000Y-94590000D03*
D36*
X145530000Y-94590000D03*
D33*
X187990000Y-63450000D03*
X187990000Y-69450000D03*
D34*
X150850000Y-50410000D03*
X156850000Y-50410000D03*
D36*
X186270000Y-94590000D03*
X145530000Y-50410000D03*
D33*
X143810000Y-87550000D03*
D34*
X162850000Y-94590000D03*
D37*
X143810000Y-92870000D03*
D21*
X147500000Y-68375000D03*
X147500000Y-70025000D03*
D38*
X181300000Y-81837500D03*
X181300000Y-84762500D03*
D39*
X149500000Y-70025000D03*
X149500000Y-68375000D03*
D40*
X174675000Y-98500000D03*
X176325000Y-98500000D03*
X180175000Y-92600000D03*
X181825000Y-92600000D03*
D39*
X149500000Y-73525000D03*
X149500000Y-71875000D03*
D41*
X184962500Y-60400000D03*
X182037500Y-60400000D03*
D42*
X165025000Y-70800000D03*
X163375000Y-70800000D03*
D40*
X172775000Y-65400000D03*
X174425000Y-65400000D03*
D21*
X167600000Y-71475000D03*
X167600000Y-73125000D03*
X179100000Y-71375000D03*
X179100000Y-73025000D03*
X167600000Y-68300000D03*
X167600000Y-69950000D03*
D39*
X179100000Y-69650000D03*
X179100000Y-68000000D03*
D43*
X180325000Y-98500000D03*
X187945000Y-101040000D03*
X193025000Y-98500000D03*
D44*
X152425000Y-68595000D03*
X152425000Y-69865000D03*
X152425000Y-71135000D03*
X152425000Y-72405000D03*
X157375000Y-72405000D03*
X157375000Y-71135000D03*
X157375000Y-69865000D03*
X157375000Y-68595000D03*
D45*
X154900000Y-70500000D03*
D46*
X183375000Y-90705000D03*
X183375000Y-89435000D03*
X183375000Y-88165000D03*
X183375000Y-86895000D03*
X178425000Y-86895000D03*
X178425000Y-88165000D03*
X178425000Y-89435000D03*
X178425000Y-90705000D03*
D47*
X170900000Y-68377500D03*
X170900000Y-69012500D03*
X170900000Y-69647500D03*
X170900000Y-70282500D03*
X170900000Y-70917500D03*
X170900000Y-71552500D03*
X170900000Y-72187500D03*
X170900000Y-72822500D03*
X176100000Y-72822500D03*
X176100000Y-72187500D03*
X176100000Y-71552500D03*
X176100000Y-70917500D03*
X176100000Y-70282500D03*
X176100000Y-69647500D03*
X176100000Y-69012500D03*
X176100000Y-68377500D03*
D31*
X192900000Y-62400000D03*
X192900000Y-58150000D03*
X192900000Y-66650000D03*
X192900000Y-132400000D03*
X192900000Y-128150000D03*
X192900000Y-136650000D03*
D48*
X88000000Y-63640000D03*
D49*
X88000000Y-61100000D03*
X88000000Y-58560000D03*
D48*
X52900000Y-100200000D03*
D49*
X52900000Y-97660000D03*
X52900000Y-95120000D03*
D50*
X64600000Y-94925000D03*
X64600000Y-97875000D03*
D29*
X153900000Y-82375000D03*
X153900000Y-80825000D03*
D27*
X147825000Y-91300000D03*
X149375000Y-91300000D03*
D21*
X67100000Y-94775000D03*
X67100000Y-96425000D03*
D39*
X169000000Y-133312500D03*
X169000000Y-131662500D03*
D42*
X174925000Y-137900000D03*
X173275000Y-137900000D03*
D39*
X146000000Y-88925000D03*
X146000000Y-87275000D03*
D21*
X146000000Y-84075000D03*
X146000000Y-85725000D03*
D25*
X62950000Y-88875000D03*
X62950000Y-89525000D03*
X62950000Y-90175000D03*
X62950000Y-90825000D03*
X62950000Y-91475000D03*
X62950000Y-92125000D03*
X67250000Y-92125000D03*
X67250000Y-91475000D03*
X67250000Y-90825000D03*
X67250000Y-90175000D03*
X67250000Y-89525000D03*
X67250000Y-88875000D03*
D51*
X65100000Y-90500000D03*
D44*
X171800000Y-132100000D03*
X171800000Y-133370000D03*
X171800000Y-134640000D03*
X171800000Y-135910000D03*
X176750000Y-135910000D03*
X176750000Y-134640000D03*
X176750000Y-133370000D03*
X176750000Y-132100000D03*
X148425000Y-84495000D03*
X148425000Y-85765000D03*
X148425000Y-87035000D03*
X148425000Y-88305000D03*
X153375000Y-88305000D03*
X153375000Y-87035000D03*
X153375000Y-85765000D03*
X153375000Y-84495000D03*
D52*
X159331000Y-86512000D03*
X171269000Y-86512000D03*
D53*
X165300000Y-82130500D03*
X165300000Y-90893500D03*
X169745000Y-82130500D03*
X160855000Y-82130500D03*
D54*
X55740000Y-74060000D03*
D55*
X72400000Y-76600000D03*
D56*
X72400000Y-74060000D03*
X72400000Y-71520000D03*
D42*
X150825000Y-81500000D03*
X149175000Y-81500000D03*
D48*
X117500000Y-63540000D03*
D49*
X117500000Y-61000000D03*
X117500000Y-58460000D03*
D32*
X158000000Y-129900000D03*
X160540000Y-127360000D03*
X155460000Y-127360000D03*
X160540000Y-132440000D03*
X155460000Y-132440000D03*
D18*
X70500000Y-64200000D03*
D19*
X70500000Y-66200000D03*
D42*
X176025000Y-83500000D03*
X174375000Y-83500000D03*
D15*
X180975000Y-135900000D03*
X179425000Y-135900000D03*
D29*
X169000000Y-129862500D03*
X169000000Y-128312500D03*
D27*
X174325000Y-86700000D03*
X175875000Y-86700000D03*
D57*
X75750000Y-121337500D03*
X77650000Y-121337500D03*
X76700000Y-119462500D03*
D39*
X167200000Y-129925000D03*
X167200000Y-128275000D03*
D29*
X156400000Y-85675000D03*
X156400000Y-84125000D03*
D39*
X156400000Y-89125000D03*
X156400000Y-87475000D03*
M02*
