M48
; DRILL file {KiCad (6.0.7)} date Fri Feb 24 22:01:17 2023
; FORMAT={-:-/ absolute / inch / decimal}
; #@! TF.CreationDate,2023-02-24T22:01:17+01:00
; #@! TF.GenerationSoftware,Kicad,Pcbnew,(6.0.7)
; #@! TF.FileFunction,Plated,1,2,PTH
FMAT,2
INCH
; #@! TA.AperFunction,Plated,PTH,ViaDrill
T1C0.0118
; #@! TA.AperFunction,Plated,PTH,ViaDrill
T2C0.0157
; #@! TA.AperFunction,Plated,PTH,ComponentDrill
T3C0.0200
; #@! TA.AperFunction,Plated,PTH,ComponentDrill
T4C0.0315
; #@! TA.AperFunction,Plated,PTH,ComponentDrill
T5C0.0394
; #@! TA.AperFunction,Plated,PTH,ComponentDrill
T6C0.0400
; #@! TA.AperFunction,Plated,PTH,ComponentDrill
T7C0.0433
; #@! TA.AperFunction,Plated,PTH,ComponentDrill
T8C0.0591
; #@! TA.AperFunction,Plated,PTH,ComponentDrill
T9C0.0669
%
G90
G05
T1
X2.0472Y-2.5315
X2.0472Y-2.5945
X2.0472Y-2.6575
X2.0787Y-5.1063
X2.0787Y-5.1496
X2.0827Y-5.0591
X2.5591Y-4.7008
X2.5591Y-4.7402
X2.5591Y-4.7795
X2.563Y-3.5276
X2.563Y-3.563
X2.6378Y-3.8543
X2.9843Y-4.8465
X3.1457Y-3.4173
X3.1535Y-3.2087
X3.4764Y-4.1614
X3.4843Y-3.874
X3.7205Y-3.874
X5.5827Y-3.7244
X5.5866Y-3.6535
X5.5906Y-1.9646
X5.5906Y-2.063
X5.5906Y-2.2598
X5.5906Y-2.4961
X5.5906Y-2.7323
X5.5906Y-2.9685
X5.5906Y-3.2047
X5.5906Y-3.4409
X5.7087Y-1.9055
X5.8031Y-2.626
X5.811Y-3.6575
X5.8622Y-2.4764
X5.8858Y-2.9488
X5.9291Y-3.4764
X5.9331Y-3.5945
X5.937Y-3.6614
X5.9449Y-1.9055
X5.9843Y-3.0669
X6.0118Y-3.2087
X6.0236Y-2.6437
X6.0531Y-2.939
X6.0551Y-3.1339
X6.1201Y-2.6063
X6.1811Y-1.9055
X6.2047Y-3.7913
X6.2106Y-2.4862
X6.2441Y-3.1535
X6.3484Y-2.6732
X6.3681Y-2.939
X6.3976Y-2.9882
X6.4134Y-3.7874
X6.4173Y-1.9055
X6.4567Y-2.6043
X6.6535Y-1.9055
X6.6535Y-2.9783
X6.6575Y-3.7913
X6.7224Y-2.9882
X6.7244Y-2.5039
X6.7756Y-2.6299
X6.7913Y-2.8268
X6.8189Y-3.878
X6.8307Y-2.7618
X6.8465Y-3.5512
X6.8701Y-2.8307
X6.8701Y-2.939
X6.8898Y-1.9055
X6.8898Y-3.7795
X6.9291Y-2.6299
X6.9564Y-3.586
X6.9724Y-3.2874
X7.126Y-1.9055
X7.1299Y-3.7874
X7.1378Y-3.1457
X7.1614Y-3.4213
X7.3386Y-3.7874
X7.3425Y-1.9055
X7.3583Y-3.5354
X7.3819Y-5.4055
X7.3858Y-5.2638
X7.4331Y-5.2165
X7.4409Y-5.3504
X7.4488Y-3.7717
X7.4606Y-2.2598
X7.4606Y-2.4961
X7.4606Y-2.6339
X7.4606Y-2.7323
X7.4606Y-2.9685
X7.4646Y-3.2087
X7.4646Y-3.4449
X7.4646Y-3.6535
X7.4685Y-3.1181
X7.4803Y-1.9055
X7.4803Y-2.0433
X7.4803Y-5.4685
X7.5Y-4.9567
X7.5Y-5.0354
X7.5Y-5.1142
X7.5197Y-5.311
X7.5197Y-5.4685
X7.5591Y-3.0748
X7.5787Y-3.252
X7.5787Y-4.9567
X7.5787Y-5.1142
X7.5787Y-5.311
X7.5787Y-5.4685
X7.5827Y-3.4173
X7.5827Y-3.5906
X7.6181Y-2.1811
X7.6181Y-2.3583
X7.6181Y-2.5354
X7.6181Y-2.7323
X7.6378Y-4.9567
X7.6378Y-5.1142
X7.6378Y-5.311
X7.6378Y-5.4685
X7.6693Y-3.0709
X7.6732Y-3.248
X7.6811Y-3.4173
X7.6811Y-3.5906
X7.6969Y-5.311
X7.6969Y-5.4685
T2
X2.3228Y-4.8543
X2.3268Y-3.685
X2.4094Y-3.6535
X2.6378Y-4.9882
X2.7874Y-3.6772
X2.8071Y-4.8543
X3.1378Y-2.7362
X3.1457Y-3.3031
X3.2362Y-5.5551
X3.2441Y-5.2087
X3.2677Y-3.4016
X3.2913Y-4.5472
X3.2953Y-4.7047
X3.2953Y-4.8858
X3.3898Y-5.2126
X3.4449Y-2.9094
X3.4843Y-3.4016
X3.6102Y-5.5551
X3.622Y-3.9055
X3.6457Y-3.6575
X3.6732Y-2.9134
X3.8061Y-2.7038
X4.4803Y-5.4606
X5.2756Y-5.4606
X5.3386Y-3.9055
X5.3416Y-3.8179
X5.4685Y-5.4606
X5.7795Y-3.8189
X6.3346Y-2.8504
X6.3386Y-2.7559
X6.5197Y-2.8622
X6.5827Y-5.0
X6.6535Y-5.4291
X6.6575Y-4.9961
X6.7402Y-3.7913
X6.7402Y-3.8307
X6.7402Y-3.8701
X6.7402Y-3.9094
X6.7402Y-3.9488
X6.7402Y-3.9882
X6.7402Y-4.0276
X6.7402Y-4.0669
X6.7441Y-5.5472
X6.7795Y-4.0669
X6.8189Y-4.0669
X6.8583Y-4.0669
X6.8976Y-4.0669
X6.937Y-4.0669
X6.9764Y-4.0669
X7.0157Y-4.0669
X7.0551Y-4.0669
X7.0591Y-5.1299
X7.0945Y-4.0669
X7.1339Y-4.0669
X7.1732Y-4.0669
X7.2126Y-4.0669
X7.252Y-4.0669
X7.2913Y-4.0669
X7.3307Y-4.0669
X7.3701Y-4.0669
X7.4094Y-4.0669
X7.4488Y-4.0669
X7.4882Y-4.0669
X7.5276Y-4.0669
X7.5669Y-4.0669
X7.6063Y-4.0669
X7.6457Y-4.0669
X7.685Y-4.0669
T3
X6.2479Y-3.256
X6.2479Y-3.306
X6.2479Y-3.506
X6.2479Y-3.556
X6.2829Y-3.206
X6.3079Y-3.606
X6.3829Y-3.206
X6.3829Y-3.381
X6.3829Y-3.431
X6.3829Y-3.606
X6.4579Y-3.606
X6.4829Y-3.356
X6.4829Y-3.506
X6.5329Y-3.356
X6.5329Y-3.506
X6.5579Y-3.606
X6.6329Y-3.206
X6.6329Y-3.381
X6.6329Y-3.431
X6.6329Y-3.606
X6.7079Y-3.606
X6.7329Y-3.206
X6.7679Y-3.256
X6.7679Y-3.306
X6.7679Y-3.506
X6.7679Y-3.556
T4
X2.7717Y-3.2441
X2.7717Y-3.3228
X2.7756Y-2.5276
X2.7756Y-2.6063
X4.0945Y-5.5276
X4.0945Y-5.6063
X4.874Y-5.5276
X4.874Y-5.6063
X5.6693Y-5.5276
X5.6693Y-5.6063
T5
X1.6496Y-2.2819
X1.6496Y-2.3819
X1.6496Y-2.4819
X1.6496Y-2.5819
X1.6496Y-2.6819
X1.6496Y-2.7819
X1.6496Y-2.8819
X1.6496Y-2.9819
X1.6496Y-3.0819
X1.6496Y-3.1819
X1.6496Y-3.2819
X1.6496Y-3.3819
X1.6496Y-3.4819
X1.6496Y-3.5819
X1.6496Y-3.6819
X1.6496Y-3.7819
X1.6496Y-3.8819
X1.6496Y-3.9819
X1.6496Y-4.0819
X1.6496Y-4.1819
X1.6496Y-4.2819
X1.6496Y-4.3819
X1.6496Y-4.4819
X1.6496Y-4.5819
X1.6496Y-4.6819
X1.6496Y-4.7819
X1.6496Y-4.8819
X1.6496Y-4.9819
X1.6496Y-5.0819
X1.6496Y-5.1819
X1.6496Y-5.2819
X1.6496Y-5.3819
X1.8496Y-2.2819
X1.8496Y-2.3819
X1.8496Y-2.4819
X1.8496Y-2.5819
X1.8496Y-2.6819
X1.8496Y-2.7819
X1.8496Y-2.8819
X1.8496Y-2.9819
X1.8496Y-3.0819
X1.8496Y-3.1819
X1.8496Y-3.2819
X1.8496Y-3.3819
X1.8496Y-3.4819
X1.8496Y-3.5819
X1.8496Y-3.6819
X1.8496Y-3.7819
X1.8496Y-3.8819
X1.8496Y-3.9819
X1.8496Y-4.0819
X1.8496Y-4.1819
X1.8496Y-4.2819
X1.8496Y-4.3819
X1.8496Y-4.4819
X1.8496Y-4.5819
X1.8496Y-4.6819
X1.8496Y-4.7819
X1.8496Y-4.8819
X1.8496Y-4.9819
X1.8496Y-5.0819
X1.8496Y-5.1819
X1.8496Y-5.2819
X1.8496Y-5.3819
X7.0994Y-3.878
X7.3994Y-3.978
X7.5994Y-3.878
T6
X2.0827Y-3.7449
X2.0827Y-3.8449
X2.0827Y-3.9449
X3.4646Y-2.3055
X3.4646Y-2.4055
X3.4646Y-2.5055
X4.626Y-2.3016
X4.626Y-2.4016
X4.626Y-2.5016
T7
X2.8504Y-2.8157
X2.8504Y-2.9157
X2.8504Y-3.0157
X4.3669Y-5.626
X4.4669Y-5.626
X4.5669Y-5.626
X5.1543Y-5.626
X5.2543Y-5.626
X5.3543Y-5.626
T8
X4.6181Y-3.0906
X6.2205Y-5.1142
T9
X4.5181Y-2.9906
X4.5181Y-3.1906
X4.7181Y-2.9906
X4.7181Y-3.1906
X6.1205Y-5.0142
X6.1205Y-5.2142
X6.3205Y-5.0142
X6.3205Y-5.2142
T0
M30
