G04 #@! TF.GenerationSoftware,KiCad,Pcbnew,(6.0.7)*
G04 #@! TF.CreationDate,2023-01-31T14:41:23+01:00*
G04 #@! TF.ProjectId,PDH_module,5044485f-6d6f-4647-956c-652e6b696361,1.1*
G04 #@! TF.SameCoordinates,Original*
G04 #@! TF.FileFunction,Legend,Bot*
G04 #@! TF.FilePolarity,Positive*
%FSLAX46Y46*%
G04 Gerber Fmt 4.6, Leading zero omitted, Abs format (unit mm)*
G04 Created by KiCad (PCBNEW (6.0.7)) date 2023-01-31 14:41:23*
%MOMM*%
%LPD*%
G01*
G04 APERTURE LIST*
%ADD10C,0.250000*%
%ADD11C,0.010000*%
G04 APERTURE END LIST*
D10*
X180480357Y-53371071D02*
X180480357Y-51871071D01*
X180123214Y-51871071D01*
X179908928Y-51942500D01*
X179766071Y-52085357D01*
X179694642Y-52228214D01*
X179623214Y-52513928D01*
X179623214Y-52728214D01*
X179694642Y-53013928D01*
X179766071Y-53156785D01*
X179908928Y-53299642D01*
X180123214Y-53371071D01*
X180480357Y-53371071D01*
X178408928Y-53299642D02*
X178551785Y-53371071D01*
X178837500Y-53371071D01*
X178980357Y-53299642D01*
X179051785Y-53156785D01*
X179051785Y-52585357D01*
X178980357Y-52442500D01*
X178837500Y-52371071D01*
X178551785Y-52371071D01*
X178408928Y-52442500D01*
X178337500Y-52585357D01*
X178337500Y-52728214D01*
X179051785Y-52871071D01*
X177766071Y-53299642D02*
X177623214Y-53371071D01*
X177337500Y-53371071D01*
X177194642Y-53299642D01*
X177123214Y-53156785D01*
X177123214Y-53085357D01*
X177194642Y-52942500D01*
X177337500Y-52871071D01*
X177551785Y-52871071D01*
X177694642Y-52799642D01*
X177766071Y-52656785D01*
X177766071Y-52585357D01*
X177694642Y-52442500D01*
X177551785Y-52371071D01*
X177337500Y-52371071D01*
X177194642Y-52442500D01*
X176480357Y-53371071D02*
X176480357Y-52371071D01*
X176480357Y-51871071D02*
X176551785Y-51942500D01*
X176480357Y-52013928D01*
X176408928Y-51942500D01*
X176480357Y-51871071D01*
X176480357Y-52013928D01*
X175123214Y-52371071D02*
X175123214Y-53585357D01*
X175194642Y-53728214D01*
X175266071Y-53799642D01*
X175408928Y-53871071D01*
X175623214Y-53871071D01*
X175766071Y-53799642D01*
X175123214Y-53299642D02*
X175266071Y-53371071D01*
X175551785Y-53371071D01*
X175694642Y-53299642D01*
X175766071Y-53228214D01*
X175837500Y-53085357D01*
X175837500Y-52656785D01*
X175766071Y-52513928D01*
X175694642Y-52442500D01*
X175551785Y-52371071D01*
X175266071Y-52371071D01*
X175123214Y-52442500D01*
X174408928Y-52371071D02*
X174408928Y-53371071D01*
X174408928Y-52513928D02*
X174337500Y-52442500D01*
X174194642Y-52371071D01*
X173980357Y-52371071D01*
X173837500Y-52442500D01*
X173766071Y-52585357D01*
X173766071Y-53371071D01*
X171908928Y-53371071D02*
X171908928Y-51871071D01*
X171908928Y-52442500D02*
X171766071Y-52371071D01*
X171480357Y-52371071D01*
X171337500Y-52442500D01*
X171266071Y-52513928D01*
X171194642Y-52656785D01*
X171194642Y-53085357D01*
X171266071Y-53228214D01*
X171337500Y-53299642D01*
X171480357Y-53371071D01*
X171766071Y-53371071D01*
X171908928Y-53299642D01*
X170694642Y-52371071D02*
X170337500Y-53371071D01*
X169980357Y-52371071D02*
X170337500Y-53371071D01*
X170480357Y-53728214D01*
X170551785Y-53799642D01*
X170694642Y-53871071D01*
X169408928Y-53228214D02*
X169337500Y-53299642D01*
X169408928Y-53371071D01*
X169480357Y-53299642D01*
X169408928Y-53228214D01*
X169408928Y-53371071D01*
X169408928Y-52442500D02*
X169337500Y-52513928D01*
X169408928Y-52585357D01*
X169480357Y-52513928D01*
X169408928Y-52442500D01*
X169408928Y-52585357D01*
X167766071Y-51871071D02*
X166908928Y-51871071D01*
X167337500Y-53371071D02*
X167337500Y-51871071D01*
X166408928Y-53371071D02*
X166408928Y-52371071D01*
X166408928Y-51871071D02*
X166480357Y-51942500D01*
X166408928Y-52013928D01*
X166337500Y-51942500D01*
X166408928Y-51871071D01*
X166408928Y-52013928D01*
X165480357Y-53371071D02*
X165623214Y-53299642D01*
X165694642Y-53156785D01*
X165694642Y-51871071D01*
X164908928Y-53371071D02*
X164908928Y-52371071D01*
X164908928Y-52513928D02*
X164837500Y-52442500D01*
X164694642Y-52371071D01*
X164480357Y-52371071D01*
X164337500Y-52442500D01*
X164266071Y-52585357D01*
X164266071Y-53371071D01*
X164266071Y-52585357D02*
X164194642Y-52442500D01*
X164051785Y-52371071D01*
X163837500Y-52371071D01*
X163694642Y-52442500D01*
X163623214Y-52585357D01*
X163623214Y-53371071D01*
X162266071Y-53371071D02*
X162266071Y-52585357D01*
X162337500Y-52442500D01*
X162480357Y-52371071D01*
X162766071Y-52371071D01*
X162908928Y-52442500D01*
X162266071Y-53299642D02*
X162408928Y-53371071D01*
X162766071Y-53371071D01*
X162908928Y-53299642D01*
X162980357Y-53156785D01*
X162980357Y-53013928D01*
X162908928Y-52871071D01*
X162766071Y-52799642D01*
X162408928Y-52799642D01*
X162266071Y-52728214D01*
X161551785Y-52371071D02*
X161551785Y-53371071D01*
X161551785Y-52513928D02*
X161480357Y-52442500D01*
X161337500Y-52371071D01*
X161123214Y-52371071D01*
X160980357Y-52442500D01*
X160908928Y-52585357D01*
X160908928Y-53371071D01*
X159051785Y-53371071D02*
X159051785Y-51871071D01*
X158480357Y-51871071D01*
X158337500Y-51942500D01*
X158266071Y-52013928D01*
X158194642Y-52156785D01*
X158194642Y-52371071D01*
X158266071Y-52513928D01*
X158337500Y-52585357D01*
X158480357Y-52656785D01*
X159051785Y-52656785D01*
X157551785Y-53371071D02*
X157551785Y-52371071D01*
X157551785Y-52656785D02*
X157480357Y-52513928D01*
X157408928Y-52442500D01*
X157266071Y-52371071D01*
X157123214Y-52371071D01*
X156051785Y-53299642D02*
X156194642Y-53371071D01*
X156480357Y-53371071D01*
X156623214Y-53299642D01*
X156694642Y-53156785D01*
X156694642Y-52585357D01*
X156623214Y-52442500D01*
X156480357Y-52371071D01*
X156194642Y-52371071D01*
X156051785Y-52442500D01*
X155980357Y-52585357D01*
X155980357Y-52728214D01*
X156694642Y-52871071D01*
X154694642Y-52371071D02*
X154694642Y-53371071D01*
X155337500Y-52371071D02*
X155337500Y-53156785D01*
X155266071Y-53299642D01*
X155123214Y-53371071D01*
X154908928Y-53371071D01*
X154766071Y-53299642D01*
X154694642Y-53228214D01*
X154051785Y-53299642D02*
X153908928Y-53371071D01*
X153623214Y-53371071D01*
X153480357Y-53299642D01*
X153408928Y-53156785D01*
X153408928Y-53085357D01*
X153480357Y-52942500D01*
X153623214Y-52871071D01*
X153837500Y-52871071D01*
X153980357Y-52799642D01*
X154051785Y-52656785D01*
X154051785Y-52585357D01*
X153980357Y-52442500D01*
X153837500Y-52371071D01*
X153623214Y-52371071D01*
X153480357Y-52442500D01*
X152123214Y-53299642D02*
X152266071Y-53371071D01*
X152551785Y-53371071D01*
X152694642Y-53299642D01*
X152766071Y-53228214D01*
X152837500Y-53085357D01*
X152837500Y-52656785D01*
X152766071Y-52513928D01*
X152694642Y-52442500D01*
X152551785Y-52371071D01*
X152266071Y-52371071D01*
X152123214Y-52442500D01*
X151480357Y-53371071D02*
X151480357Y-51871071D01*
X150837500Y-53371071D02*
X150837500Y-52585357D01*
X150908928Y-52442500D01*
X151051785Y-52371071D01*
X151266071Y-52371071D01*
X151408928Y-52442500D01*
X151480357Y-52513928D01*
X149908928Y-53371071D02*
X150051785Y-53299642D01*
X150123214Y-53228214D01*
X150194642Y-53085357D01*
X150194642Y-52656785D01*
X150123214Y-52513928D01*
X150051785Y-52442500D01*
X149908928Y-52371071D01*
X149694642Y-52371071D01*
X149551785Y-52442500D01*
X149480357Y-52513928D01*
X149408928Y-52656785D01*
X149408928Y-53085357D01*
X149480357Y-53228214D01*
X149551785Y-53299642D01*
X149694642Y-53371071D01*
X149908928Y-53371071D01*
X148980357Y-52371071D02*
X148408928Y-52371071D01*
X148766071Y-53371071D02*
X148766071Y-52085357D01*
X148694642Y-51942500D01*
X148551785Y-51871071D01*
X148408928Y-51871071D01*
X148123214Y-52371071D02*
X147551785Y-52371071D01*
X147908928Y-53371071D02*
X147908928Y-52085357D01*
X147837500Y-51942500D01*
X147694642Y-51871071D01*
X147551785Y-51871071D01*
X180480357Y-55786071D02*
X180480357Y-54286071D01*
X179837500Y-55786071D02*
X179837500Y-55000357D01*
X179908928Y-54857500D01*
X180051785Y-54786071D01*
X180266071Y-54786071D01*
X180408928Y-54857500D01*
X180480357Y-54928928D01*
X179337500Y-54786071D02*
X178766071Y-54786071D01*
X179123214Y-54286071D02*
X179123214Y-55571785D01*
X179051785Y-55714642D01*
X178908928Y-55786071D01*
X178766071Y-55786071D01*
X178480357Y-54786071D02*
X177908928Y-54786071D01*
X178266071Y-54286071D02*
X178266071Y-55571785D01*
X178194642Y-55714642D01*
X178051785Y-55786071D01*
X177908928Y-55786071D01*
X177408928Y-54786071D02*
X177408928Y-56286071D01*
X177408928Y-54857500D02*
X177266071Y-54786071D01*
X176980357Y-54786071D01*
X176837500Y-54857500D01*
X176766071Y-54928928D01*
X176694642Y-55071785D01*
X176694642Y-55500357D01*
X176766071Y-55643214D01*
X176837500Y-55714642D01*
X176980357Y-55786071D01*
X177266071Y-55786071D01*
X177408928Y-55714642D01*
X176123214Y-55714642D02*
X175980357Y-55786071D01*
X175694642Y-55786071D01*
X175551785Y-55714642D01*
X175480357Y-55571785D01*
X175480357Y-55500357D01*
X175551785Y-55357500D01*
X175694642Y-55286071D01*
X175908928Y-55286071D01*
X176051785Y-55214642D01*
X176123214Y-55071785D01*
X176123214Y-55000357D01*
X176051785Y-54857500D01*
X175908928Y-54786071D01*
X175694642Y-54786071D01*
X175551785Y-54857500D01*
X174837500Y-55643214D02*
X174766071Y-55714642D01*
X174837500Y-55786071D01*
X174908928Y-55714642D01*
X174837500Y-55643214D01*
X174837500Y-55786071D01*
X174837500Y-54857500D02*
X174766071Y-54928928D01*
X174837500Y-55000357D01*
X174908928Y-54928928D01*
X174837500Y-54857500D01*
X174837500Y-55000357D01*
X173051785Y-54214642D02*
X174337500Y-56143214D01*
X171480357Y-54214642D02*
X172766071Y-56143214D01*
X170337500Y-54786071D02*
X170337500Y-56000357D01*
X170408928Y-56143214D01*
X170480357Y-56214642D01*
X170623214Y-56286071D01*
X170837500Y-56286071D01*
X170980357Y-56214642D01*
X170337500Y-55714642D02*
X170480357Y-55786071D01*
X170766071Y-55786071D01*
X170908928Y-55714642D01*
X170980357Y-55643214D01*
X171051785Y-55500357D01*
X171051785Y-55071785D01*
X170980357Y-54928928D01*
X170908928Y-54857500D01*
X170766071Y-54786071D01*
X170480357Y-54786071D01*
X170337500Y-54857500D01*
X169623214Y-55786071D02*
X169623214Y-54786071D01*
X169623214Y-54286071D02*
X169694642Y-54357500D01*
X169623214Y-54428928D01*
X169551785Y-54357500D01*
X169623214Y-54286071D01*
X169623214Y-54428928D01*
X169123214Y-54786071D02*
X168551785Y-54786071D01*
X168908928Y-54286071D02*
X168908928Y-55571785D01*
X168837500Y-55714642D01*
X168694642Y-55786071D01*
X168551785Y-55786071D01*
X168051785Y-55786071D02*
X168051785Y-54286071D01*
X167408928Y-55786071D02*
X167408928Y-55000357D01*
X167480357Y-54857500D01*
X167623214Y-54786071D01*
X167837500Y-54786071D01*
X167980357Y-54857500D01*
X168051785Y-54928928D01*
X166051785Y-54786071D02*
X166051785Y-55786071D01*
X166694642Y-54786071D02*
X166694642Y-55571785D01*
X166623214Y-55714642D01*
X166480357Y-55786071D01*
X166266071Y-55786071D01*
X166123214Y-55714642D01*
X166051785Y-55643214D01*
X165337500Y-55786071D02*
X165337500Y-54286071D01*
X165337500Y-54857500D02*
X165194642Y-54786071D01*
X164908928Y-54786071D01*
X164766071Y-54857500D01*
X164694642Y-54928928D01*
X164623214Y-55071785D01*
X164623214Y-55500357D01*
X164694642Y-55643214D01*
X164766071Y-55714642D01*
X164908928Y-55786071D01*
X165194642Y-55786071D01*
X165337500Y-55714642D01*
X163980357Y-55643214D02*
X163908928Y-55714642D01*
X163980357Y-55786071D01*
X164051785Y-55714642D01*
X163980357Y-55643214D01*
X163980357Y-55786071D01*
X162623214Y-55714642D02*
X162766071Y-55786071D01*
X163051785Y-55786071D01*
X163194642Y-55714642D01*
X163266071Y-55643214D01*
X163337500Y-55500357D01*
X163337500Y-55071785D01*
X163266071Y-54928928D01*
X163194642Y-54857500D01*
X163051785Y-54786071D01*
X162766071Y-54786071D01*
X162623214Y-54857500D01*
X161766071Y-55786071D02*
X161908928Y-55714642D01*
X161980357Y-55643214D01*
X162051785Y-55500357D01*
X162051785Y-55071785D01*
X161980357Y-54928928D01*
X161908928Y-54857500D01*
X161766071Y-54786071D01*
X161551785Y-54786071D01*
X161408928Y-54857500D01*
X161337500Y-54928928D01*
X161266071Y-55071785D01*
X161266071Y-55500357D01*
X161337500Y-55643214D01*
X161408928Y-55714642D01*
X161551785Y-55786071D01*
X161766071Y-55786071D01*
X160623214Y-55786071D02*
X160623214Y-54786071D01*
X160623214Y-54928928D02*
X160551785Y-54857500D01*
X160408928Y-54786071D01*
X160194642Y-54786071D01*
X160051785Y-54857500D01*
X159980357Y-55000357D01*
X159980357Y-55786071D01*
X159980357Y-55000357D02*
X159908928Y-54857500D01*
X159766071Y-54786071D01*
X159551785Y-54786071D01*
X159408928Y-54857500D01*
X159337500Y-55000357D01*
X159337500Y-55786071D01*
X157551785Y-54214642D02*
X158837500Y-56143214D01*
X157266071Y-54286071D02*
X156408928Y-54286071D01*
X156837499Y-55786071D02*
X156837499Y-54286071D01*
X155908928Y-54286071D02*
X155908928Y-55500357D01*
X155837500Y-55643214D01*
X155766071Y-55714642D01*
X155623214Y-55786071D01*
X155337500Y-55786071D01*
X155194642Y-55714642D01*
X155123214Y-55643214D01*
X155051785Y-55500357D01*
X155051785Y-54286071D01*
X154337499Y-55214642D02*
X153194642Y-55214642D01*
X152480357Y-55786071D02*
X152480357Y-54286071D01*
X152123214Y-54286071D01*
X151908928Y-54357500D01*
X151766071Y-54500357D01*
X151694642Y-54643214D01*
X151623214Y-54928928D01*
X151623214Y-55143214D01*
X151694642Y-55428928D01*
X151766071Y-55571785D01*
X151908928Y-55714642D01*
X152123214Y-55786071D01*
X152480357Y-55786071D01*
X150337499Y-55786071D02*
X150337499Y-55000357D01*
X150408928Y-54857500D01*
X150551785Y-54786071D01*
X150837499Y-54786071D01*
X150980357Y-54857500D01*
X150337499Y-55714642D02*
X150480357Y-55786071D01*
X150837499Y-55786071D01*
X150980357Y-55714642D01*
X151051785Y-55571785D01*
X151051785Y-55428928D01*
X150980357Y-55286071D01*
X150837499Y-55214642D01*
X150480357Y-55214642D01*
X150337499Y-55143214D01*
X149623214Y-55786071D02*
X149623214Y-54786071D01*
X149623214Y-55071785D02*
X149551785Y-54928928D01*
X149480357Y-54857500D01*
X149337499Y-54786071D01*
X149194642Y-54786071D01*
X148694642Y-55786071D02*
X148694642Y-54786071D01*
X148694642Y-54928928D02*
X148623214Y-54857500D01*
X148480357Y-54786071D01*
X148266071Y-54786071D01*
X148123214Y-54857500D01*
X148051785Y-55000357D01*
X148051785Y-55786071D01*
X148051785Y-55000357D02*
X147980357Y-54857500D01*
X147837499Y-54786071D01*
X147623214Y-54786071D01*
X147480357Y-54857500D01*
X147408928Y-55000357D01*
X147408928Y-55786071D01*
X146766071Y-55714642D02*
X146623214Y-55786071D01*
X146337499Y-55786071D01*
X146194642Y-55714642D01*
X146123214Y-55571785D01*
X146123214Y-55500357D01*
X146194642Y-55357500D01*
X146337499Y-55286071D01*
X146551785Y-55286071D01*
X146694642Y-55214642D01*
X146766071Y-55071785D01*
X146766071Y-55000357D01*
X146694642Y-54857500D01*
X146551785Y-54786071D01*
X146337499Y-54786071D01*
X146194642Y-54857500D01*
X145694642Y-54786071D02*
X145123214Y-54786071D01*
X145480357Y-54286071D02*
X145480357Y-55571785D01*
X145408928Y-55714642D01*
X145266071Y-55786071D01*
X145123214Y-55786071D01*
X143980357Y-55786071D02*
X143980357Y-55000357D01*
X144051785Y-54857500D01*
X144194642Y-54786071D01*
X144480357Y-54786071D01*
X144623214Y-54857500D01*
X143980357Y-55714642D02*
X144123214Y-55786071D01*
X144480357Y-55786071D01*
X144623214Y-55714642D01*
X144694642Y-55571785D01*
X144694642Y-55428928D01*
X144623214Y-55286071D01*
X144480357Y-55214642D01*
X144123214Y-55214642D01*
X143980357Y-55143214D01*
X142623214Y-55786071D02*
X142623214Y-54286071D01*
X142623214Y-55714642D02*
X142766071Y-55786071D01*
X143051785Y-55786071D01*
X143194642Y-55714642D01*
X143266071Y-55643214D01*
X143337499Y-55500357D01*
X143337499Y-55071785D01*
X143266071Y-54928928D01*
X143194642Y-54857500D01*
X143051785Y-54786071D01*
X142766071Y-54786071D01*
X142623214Y-54857500D01*
X142123214Y-54786071D02*
X141551785Y-54786071D01*
X141908928Y-54286071D02*
X141908928Y-55571785D01*
X141837499Y-55714642D01*
X141694642Y-55786071D01*
X141551785Y-55786071D01*
X141051785Y-55214642D02*
X139908928Y-55214642D01*
X139266071Y-55357500D02*
X138551785Y-55357500D01*
X139408928Y-55786071D02*
X138908928Y-54286071D01*
X138408928Y-55786071D01*
X137908928Y-55786071D02*
X137908928Y-54286071D01*
X137337499Y-54286071D01*
X137194642Y-54357500D01*
X137123214Y-54428928D01*
X137051785Y-54571785D01*
X137051785Y-54786071D01*
X137123214Y-54928928D01*
X137194642Y-55000357D01*
X137337499Y-55071785D01*
X137908928Y-55071785D01*
X135408928Y-55928928D02*
X135551785Y-55857500D01*
X135694642Y-55714642D01*
X135908928Y-55500357D01*
X136051785Y-55428928D01*
X136194642Y-55428928D01*
X136123214Y-55786071D02*
X136266071Y-55714642D01*
X136408928Y-55571785D01*
X136480357Y-55286071D01*
X136480357Y-54786071D01*
X136408928Y-54500357D01*
X136266071Y-54357500D01*
X136123214Y-54286071D01*
X135837499Y-54286071D01*
X135694642Y-54357500D01*
X135551785Y-54500357D01*
X135480357Y-54786071D01*
X135480357Y-55286071D01*
X135551785Y-55571785D01*
X135694642Y-55714642D01*
X135837499Y-55786071D01*
X136123214Y-55786071D01*
X133766071Y-54214642D02*
X135051785Y-56143214D01*
X133266071Y-55786071D02*
X133266071Y-54286071D01*
X132694642Y-54286071D01*
X132551785Y-54357500D01*
X132480357Y-54428928D01*
X132408928Y-54571785D01*
X132408928Y-54786071D01*
X132480357Y-54928928D01*
X132551785Y-55000357D01*
X132694642Y-55071785D01*
X133266071Y-55071785D01*
X131766071Y-55786071D02*
X131766071Y-54286071D01*
X131408928Y-54286071D01*
X131194642Y-54357500D01*
X131051785Y-54500357D01*
X130980357Y-54643214D01*
X130908928Y-54928928D01*
X130908928Y-55143214D01*
X130980357Y-55428928D01*
X131051785Y-55571785D01*
X131194642Y-55714642D01*
X131408928Y-55786071D01*
X131766071Y-55786071D01*
X130266071Y-55786071D02*
X130266071Y-54286071D01*
X130266071Y-55000357D02*
X129408928Y-55000357D01*
X129408928Y-55786071D02*
X129408928Y-54286071D01*
X128694642Y-55214642D02*
X127551785Y-55214642D01*
X126837499Y-55786071D02*
X126837499Y-54786071D01*
X126837499Y-54928928D02*
X126766071Y-54857500D01*
X126623214Y-54786071D01*
X126408928Y-54786071D01*
X126266071Y-54857500D01*
X126194642Y-55000357D01*
X126194642Y-55786071D01*
X126194642Y-55000357D02*
X126123214Y-54857500D01*
X125980357Y-54786071D01*
X125766071Y-54786071D01*
X125623214Y-54857500D01*
X125551785Y-55000357D01*
X125551785Y-55786071D01*
X124623214Y-55786071D02*
X124766071Y-55714642D01*
X124837499Y-55643214D01*
X124908928Y-55500357D01*
X124908928Y-55071785D01*
X124837499Y-54928928D01*
X124766071Y-54857500D01*
X124623214Y-54786071D01*
X124408928Y-54786071D01*
X124266071Y-54857500D01*
X124194642Y-54928928D01*
X124123214Y-55071785D01*
X124123214Y-55500357D01*
X124194642Y-55643214D01*
X124266071Y-55714642D01*
X124408928Y-55786071D01*
X124623214Y-55786071D01*
X122837499Y-55786071D02*
X122837499Y-54286071D01*
X122837499Y-55714642D02*
X122980357Y-55786071D01*
X123266071Y-55786071D01*
X123408928Y-55714642D01*
X123480357Y-55643214D01*
X123551785Y-55500357D01*
X123551785Y-55071785D01*
X123480357Y-54928928D01*
X123408928Y-54857500D01*
X123266071Y-54786071D01*
X122980357Y-54786071D01*
X122837499Y-54857500D01*
X121480357Y-54786071D02*
X121480357Y-55786071D01*
X122123214Y-54786071D02*
X122123214Y-55571785D01*
X122051785Y-55714642D01*
X121908928Y-55786071D01*
X121694642Y-55786071D01*
X121551785Y-55714642D01*
X121480357Y-55643214D01*
X120551785Y-55786071D02*
X120694642Y-55714642D01*
X120766071Y-55571785D01*
X120766071Y-54286071D01*
X119408928Y-55714642D02*
X119551785Y-55786071D01*
X119837499Y-55786071D01*
X119980357Y-55714642D01*
X120051785Y-55571785D01*
X120051785Y-55000357D01*
X119980357Y-54857500D01*
X119837499Y-54786071D01*
X119551785Y-54786071D01*
X119408928Y-54857500D01*
X119337499Y-55000357D01*
X119337499Y-55143214D01*
X120051785Y-55286071D01*
G36*
X188863373Y-54734310D02*
G01*
X188859688Y-54782332D01*
X188853410Y-54816368D01*
X188843044Y-54843338D01*
X188827092Y-54870158D01*
X188826412Y-54871175D01*
X188787132Y-54914629D01*
X188739072Y-54947772D01*
X188683185Y-54967439D01*
X188609666Y-54973824D01*
X188537609Y-54961268D01*
X188473201Y-54931011D01*
X188422627Y-54884294D01*
X188408108Y-54862221D01*
X188380993Y-54793602D01*
X188367546Y-54708939D01*
X188367776Y-54687523D01*
X188502920Y-54687523D01*
X188503174Y-54727574D01*
X188507421Y-54754313D01*
X188517096Y-54774859D01*
X188533638Y-54796331D01*
X188556593Y-54817639D01*
X188602505Y-54836653D01*
X188651802Y-54833122D01*
X188698917Y-54806694D01*
X188712207Y-54794072D01*
X188726397Y-54772465D01*
X188734266Y-54742094D01*
X188738726Y-54694770D01*
X188739955Y-54659219D01*
X188733224Y-54586620D01*
X188712567Y-54534642D01*
X188677894Y-54502999D01*
X188637249Y-54487847D01*
X188588777Y-54489123D01*
X188543845Y-54514703D01*
X188533103Y-54524442D01*
X188519548Y-54541480D01*
X188511505Y-54563772D01*
X188507043Y-54597947D01*
X188504228Y-54650638D01*
X188502920Y-54687523D01*
X188367776Y-54687523D01*
X188368583Y-54612351D01*
X188369907Y-54598651D01*
X188388374Y-54510908D01*
X188422540Y-54442793D01*
X188472479Y-54394231D01*
X188538261Y-54365148D01*
X188619961Y-54355471D01*
X188650828Y-54356379D01*
X188714128Y-54367493D01*
X188765889Y-54394021D01*
X188814147Y-54439436D01*
X188821865Y-54448551D01*
X188842681Y-54479248D01*
X188856362Y-54514007D01*
X188863948Y-54558056D01*
X188866479Y-54616621D01*
X188865672Y-54659219D01*
X188864997Y-54694931D01*
X188863373Y-54734310D01*
G37*
D11*
X188863373Y-54734310D02*
X188859688Y-54782332D01*
X188853410Y-54816368D01*
X188843044Y-54843338D01*
X188827092Y-54870158D01*
X188826412Y-54871175D01*
X188787132Y-54914629D01*
X188739072Y-54947772D01*
X188683185Y-54967439D01*
X188609666Y-54973824D01*
X188537609Y-54961268D01*
X188473201Y-54931011D01*
X188422627Y-54884294D01*
X188408108Y-54862221D01*
X188380993Y-54793602D01*
X188367546Y-54708939D01*
X188367776Y-54687523D01*
X188502920Y-54687523D01*
X188503174Y-54727574D01*
X188507421Y-54754313D01*
X188517096Y-54774859D01*
X188533638Y-54796331D01*
X188556593Y-54817639D01*
X188602505Y-54836653D01*
X188651802Y-54833122D01*
X188698917Y-54806694D01*
X188712207Y-54794072D01*
X188726397Y-54772465D01*
X188734266Y-54742094D01*
X188738726Y-54694770D01*
X188739955Y-54659219D01*
X188733224Y-54586620D01*
X188712567Y-54534642D01*
X188677894Y-54502999D01*
X188637249Y-54487847D01*
X188588777Y-54489123D01*
X188543845Y-54514703D01*
X188533103Y-54524442D01*
X188519548Y-54541480D01*
X188511505Y-54563772D01*
X188507043Y-54597947D01*
X188504228Y-54650638D01*
X188502920Y-54687523D01*
X188367776Y-54687523D01*
X188368583Y-54612351D01*
X188369907Y-54598651D01*
X188388374Y-54510908D01*
X188422540Y-54442793D01*
X188472479Y-54394231D01*
X188538261Y-54365148D01*
X188619961Y-54355471D01*
X188650828Y-54356379D01*
X188714128Y-54367493D01*
X188765889Y-54394021D01*
X188814147Y-54439436D01*
X188821865Y-54448551D01*
X188842681Y-54479248D01*
X188856362Y-54514007D01*
X188863948Y-54558056D01*
X188866479Y-54616621D01*
X188865672Y-54659219D01*
X188864997Y-54694931D01*
X188863373Y-54734310D01*
G36*
X184780297Y-54554342D02*
G01*
X184781357Y-54642394D01*
X184785509Y-54713510D01*
X184793921Y-54765199D01*
X184807757Y-54800360D01*
X184828182Y-54821889D01*
X184856364Y-54832682D01*
X184893465Y-54835636D01*
X184928890Y-54833000D01*
X184957500Y-54822679D01*
X184978296Y-54801772D01*
X184992442Y-54767381D01*
X185001103Y-54716610D01*
X185005445Y-54646563D01*
X185006633Y-54554342D01*
X185006633Y-54358614D01*
X185132376Y-54358614D01*
X185132376Y-54594578D01*
X185132160Y-54657561D01*
X185130484Y-54739007D01*
X185126277Y-54801121D01*
X185118521Y-54847458D01*
X185106196Y-54881573D01*
X185088285Y-54907022D01*
X185063767Y-54927362D01*
X185031623Y-54946147D01*
X184964125Y-54969928D01*
X184893681Y-54971480D01*
X184827264Y-54949580D01*
X184798286Y-54935383D01*
X184783909Y-54933261D01*
X184780297Y-54943293D01*
X184774299Y-54954556D01*
X184752830Y-54960489D01*
X184711138Y-54962179D01*
X184641980Y-54962179D01*
X184641980Y-54358614D01*
X184780297Y-54358614D01*
X184780297Y-54554342D01*
G37*
X184780297Y-54554342D02*
X184781357Y-54642394D01*
X184785509Y-54713510D01*
X184793921Y-54765199D01*
X184807757Y-54800360D01*
X184828182Y-54821889D01*
X184856364Y-54832682D01*
X184893465Y-54835636D01*
X184928890Y-54833000D01*
X184957500Y-54822679D01*
X184978296Y-54801772D01*
X184992442Y-54767381D01*
X185001103Y-54716610D01*
X185005445Y-54646563D01*
X185006633Y-54554342D01*
X185006633Y-54358614D01*
X185132376Y-54358614D01*
X185132376Y-54594578D01*
X185132160Y-54657561D01*
X185130484Y-54739007D01*
X185126277Y-54801121D01*
X185118521Y-54847458D01*
X185106196Y-54881573D01*
X185088285Y-54907022D01*
X185063767Y-54927362D01*
X185031623Y-54946147D01*
X184964125Y-54969928D01*
X184893681Y-54971480D01*
X184827264Y-54949580D01*
X184798286Y-54935383D01*
X184783909Y-54933261D01*
X184780297Y-54943293D01*
X184774299Y-54954556D01*
X184752830Y-54960489D01*
X184711138Y-54962179D01*
X184641980Y-54962179D01*
X184641980Y-54358614D01*
X184780297Y-54358614D01*
X184780297Y-54554342D01*
G36*
X185832997Y-55499130D02*
G01*
X185849997Y-55549850D01*
X185870107Y-55605997D01*
X185886899Y-55648532D01*
X185898986Y-55673990D01*
X185904980Y-55678903D01*
X185906426Y-55674630D01*
X185914254Y-55648422D01*
X185926723Y-55604649D01*
X185942447Y-55548211D01*
X185960043Y-55484010D01*
X186007914Y-55307971D01*
X186081007Y-55304152D01*
X186087177Y-55303846D01*
X186126592Y-55303441D01*
X186145533Y-55307487D01*
X186147945Y-55316726D01*
X186144898Y-55325749D01*
X186134874Y-55356632D01*
X186119180Y-55405544D01*
X186098934Y-55468987D01*
X186075256Y-55543462D01*
X186049263Y-55625471D01*
X185956736Y-55917822D01*
X185840993Y-55917822D01*
X185786457Y-55732352D01*
X185776386Y-55698294D01*
X185757775Y-55636378D01*
X185741872Y-55584787D01*
X185730109Y-55548130D01*
X185723918Y-55531018D01*
X185722154Y-55529741D01*
X185713571Y-55540779D01*
X185701316Y-55569969D01*
X185687426Y-55612750D01*
X185686692Y-55615263D01*
X185668096Y-55678400D01*
X185646818Y-55749889D01*
X185627321Y-55814734D01*
X185595705Y-55919122D01*
X185537402Y-55915328D01*
X185479098Y-55911535D01*
X185425098Y-55741782D01*
X185401390Y-55667193D01*
X185374833Y-55583539D01*
X185349404Y-55503342D01*
X185328354Y-55436857D01*
X185285609Y-55301683D01*
X185428612Y-55301683D01*
X185463274Y-55430570D01*
X185472488Y-55464625D01*
X185489915Y-55528115D01*
X185506054Y-55585874D01*
X185518322Y-55628614D01*
X185538709Y-55697773D01*
X185668745Y-55307971D01*
X185718476Y-55304237D01*
X185768206Y-55300504D01*
X185832997Y-55499130D01*
G37*
X185832997Y-55499130D02*
X185849997Y-55549850D01*
X185870107Y-55605997D01*
X185886899Y-55648532D01*
X185898986Y-55673990D01*
X185904980Y-55678903D01*
X185906426Y-55674630D01*
X185914254Y-55648422D01*
X185926723Y-55604649D01*
X185942447Y-55548211D01*
X185960043Y-55484010D01*
X186007914Y-55307971D01*
X186081007Y-55304152D01*
X186087177Y-55303846D01*
X186126592Y-55303441D01*
X186145533Y-55307487D01*
X186147945Y-55316726D01*
X186144898Y-55325749D01*
X186134874Y-55356632D01*
X186119180Y-55405544D01*
X186098934Y-55468987D01*
X186075256Y-55543462D01*
X186049263Y-55625471D01*
X185956736Y-55917822D01*
X185840993Y-55917822D01*
X185786457Y-55732352D01*
X185776386Y-55698294D01*
X185757775Y-55636378D01*
X185741872Y-55584787D01*
X185730109Y-55548130D01*
X185723918Y-55531018D01*
X185722154Y-55529741D01*
X185713571Y-55540779D01*
X185701316Y-55569969D01*
X185687426Y-55612750D01*
X185686692Y-55615263D01*
X185668096Y-55678400D01*
X185646818Y-55749889D01*
X185627321Y-55814734D01*
X185595705Y-55919122D01*
X185537402Y-55915328D01*
X185479098Y-55911535D01*
X185425098Y-55741782D01*
X185401390Y-55667193D01*
X185374833Y-55583539D01*
X185349404Y-55503342D01*
X185328354Y-55436857D01*
X185285609Y-55301683D01*
X185428612Y-55301683D01*
X185463274Y-55430570D01*
X185472488Y-55464625D01*
X185489915Y-55528115D01*
X185506054Y-55585874D01*
X185518322Y-55628614D01*
X185538709Y-55697773D01*
X185668745Y-55307971D01*
X185718476Y-55304237D01*
X185768206Y-55300504D01*
X185832997Y-55499130D01*
G36*
X187707157Y-55751882D02*
G01*
X187691835Y-55816479D01*
X187657753Y-55865063D01*
X187603218Y-55900072D01*
X187575036Y-55908589D01*
X187526764Y-55915228D01*
X187473978Y-55916813D01*
X187426353Y-55913160D01*
X187393566Y-55904083D01*
X187373652Y-55896813D01*
X187354155Y-55904083D01*
X187347023Y-55908295D01*
X187318557Y-55915126D01*
X187280059Y-55917822D01*
X187219703Y-55917822D01*
X187219703Y-55702111D01*
X187358020Y-55702111D01*
X187362668Y-55738904D01*
X187381015Y-55771269D01*
X187391514Y-55778274D01*
X187428988Y-55789191D01*
X187475773Y-55791917D01*
X187521652Y-55786379D01*
X187556410Y-55772505D01*
X187573726Y-55754161D01*
X187584356Y-55721566D01*
X187574929Y-55695729D01*
X187543764Y-55673263D01*
X187493667Y-55658850D01*
X187427582Y-55653763D01*
X187358020Y-55653763D01*
X187358020Y-55702111D01*
X187219703Y-55702111D01*
X187219703Y-55674484D01*
X187219707Y-55653440D01*
X187219937Y-55574122D01*
X187220797Y-55515154D01*
X187222679Y-55472616D01*
X187225974Y-55442592D01*
X187231073Y-55421163D01*
X187238366Y-55404411D01*
X187248246Y-55388419D01*
X187280023Y-55350948D01*
X187325055Y-55322339D01*
X187384210Y-55306555D01*
X187462161Y-55301703D01*
X187464695Y-55301708D01*
X187518880Y-55304155D01*
X187567380Y-55310256D01*
X187600478Y-55318809D01*
X187609552Y-55323096D01*
X187638433Y-55341248D01*
X187664568Y-55362822D01*
X187681764Y-55382236D01*
X187683825Y-55393909D01*
X187679803Y-55397063D01*
X187635976Y-55430739D01*
X187606671Y-55450600D01*
X187587294Y-55458613D01*
X187573253Y-55456746D01*
X187559957Y-55446965D01*
X187535418Y-55434756D01*
X187494064Y-55426615D01*
X187447326Y-55424503D01*
X187405034Y-55428800D01*
X187377017Y-55439887D01*
X187375543Y-55441236D01*
X187362953Y-55466581D01*
X187358020Y-55504411D01*
X187358020Y-55553169D01*
X187474331Y-55553216D01*
X187527760Y-55554061D01*
X187572735Y-55557740D01*
X187604907Y-55565309D01*
X187630899Y-55577808D01*
X187636948Y-55581647D01*
X187680710Y-55623845D01*
X187703987Y-55679647D01*
X187705955Y-55721566D01*
X187707299Y-55750223D01*
X187707157Y-55751882D01*
G37*
X187707157Y-55751882D02*
X187691835Y-55816479D01*
X187657753Y-55865063D01*
X187603218Y-55900072D01*
X187575036Y-55908589D01*
X187526764Y-55915228D01*
X187473978Y-55916813D01*
X187426353Y-55913160D01*
X187393566Y-55904083D01*
X187373652Y-55896813D01*
X187354155Y-55904083D01*
X187347023Y-55908295D01*
X187318557Y-55915126D01*
X187280059Y-55917822D01*
X187219703Y-55917822D01*
X187219703Y-55702111D01*
X187358020Y-55702111D01*
X187362668Y-55738904D01*
X187381015Y-55771269D01*
X187391514Y-55778274D01*
X187428988Y-55789191D01*
X187475773Y-55791917D01*
X187521652Y-55786379D01*
X187556410Y-55772505D01*
X187573726Y-55754161D01*
X187584356Y-55721566D01*
X187574929Y-55695729D01*
X187543764Y-55673263D01*
X187493667Y-55658850D01*
X187427582Y-55653763D01*
X187358020Y-55653763D01*
X187358020Y-55702111D01*
X187219703Y-55702111D01*
X187219703Y-55674484D01*
X187219707Y-55653440D01*
X187219937Y-55574122D01*
X187220797Y-55515154D01*
X187222679Y-55472616D01*
X187225974Y-55442592D01*
X187231073Y-55421163D01*
X187238366Y-55404411D01*
X187248246Y-55388419D01*
X187280023Y-55350948D01*
X187325055Y-55322339D01*
X187384210Y-55306555D01*
X187462161Y-55301703D01*
X187464695Y-55301708D01*
X187518880Y-55304155D01*
X187567380Y-55310256D01*
X187600478Y-55318809D01*
X187609552Y-55323096D01*
X187638433Y-55341248D01*
X187664568Y-55362822D01*
X187681764Y-55382236D01*
X187683825Y-55393909D01*
X187679803Y-55397063D01*
X187635976Y-55430739D01*
X187606671Y-55450600D01*
X187587294Y-55458613D01*
X187573253Y-55456746D01*
X187559957Y-55446965D01*
X187535418Y-55434756D01*
X187494064Y-55426615D01*
X187447326Y-55424503D01*
X187405034Y-55428800D01*
X187377017Y-55439887D01*
X187375543Y-55441236D01*
X187362953Y-55466581D01*
X187358020Y-55504411D01*
X187358020Y-55553169D01*
X187474331Y-55553216D01*
X187527760Y-55554061D01*
X187572735Y-55557740D01*
X187604907Y-55565309D01*
X187630899Y-55577808D01*
X187636948Y-55581647D01*
X187680710Y-55623845D01*
X187703987Y-55679647D01*
X187705955Y-55721566D01*
X187707299Y-55750223D01*
X187707157Y-55751882D01*
G36*
X186689167Y-55710571D02*
G01*
X186685962Y-55748018D01*
X186685413Y-55751450D01*
X186663838Y-55812835D01*
X186624438Y-55864877D01*
X186572752Y-55900135D01*
X186517248Y-55914729D01*
X186448977Y-55913597D01*
X186386173Y-55894029D01*
X186369815Y-55885771D01*
X186348779Y-55876923D01*
X186340774Y-55879676D01*
X186339505Y-55894029D01*
X186338922Y-55901186D01*
X186331394Y-55911772D01*
X186310488Y-55916645D01*
X186270346Y-55917822D01*
X186201188Y-55917822D01*
X186201188Y-55615930D01*
X186339505Y-55615930D01*
X186340496Y-55668230D01*
X186344519Y-55703050D01*
X186353108Y-55726905D01*
X186367797Y-55746895D01*
X186406584Y-55776618D01*
X186451974Y-55786582D01*
X186495989Y-55774260D01*
X186533060Y-55739888D01*
X186542859Y-55714735D01*
X186550097Y-55670194D01*
X186553279Y-55616155D01*
X186552277Y-55560728D01*
X186546961Y-55512022D01*
X186537204Y-55478148D01*
X186534087Y-55472593D01*
X186504038Y-55444674D01*
X186463315Y-55432306D01*
X186419579Y-55435183D01*
X186380491Y-55453000D01*
X186353710Y-55485452D01*
X186352603Y-55488181D01*
X186345963Y-55518634D01*
X186341278Y-55564139D01*
X186339505Y-55615930D01*
X186201188Y-55615930D01*
X186201188Y-55062773D01*
X186339505Y-55062773D01*
X186339505Y-55355878D01*
X186365124Y-55332693D01*
X186389792Y-55318282D01*
X186436480Y-55306236D01*
X186491056Y-55302354D01*
X186544354Y-55307120D01*
X186587207Y-55321014D01*
X186617878Y-55340779D01*
X186649471Y-55374449D01*
X186670733Y-55419730D01*
X186683514Y-55480981D01*
X186689664Y-55562563D01*
X186690568Y-55595540D01*
X186690633Y-55616155D01*
X186690761Y-55656813D01*
X186689167Y-55710571D01*
G37*
X186689167Y-55710571D02*
X186685962Y-55748018D01*
X186685413Y-55751450D01*
X186663838Y-55812835D01*
X186624438Y-55864877D01*
X186572752Y-55900135D01*
X186517248Y-55914729D01*
X186448977Y-55913597D01*
X186386173Y-55894029D01*
X186369815Y-55885771D01*
X186348779Y-55876923D01*
X186340774Y-55879676D01*
X186339505Y-55894029D01*
X186338922Y-55901186D01*
X186331394Y-55911772D01*
X186310488Y-55916645D01*
X186270346Y-55917822D01*
X186201188Y-55917822D01*
X186201188Y-55615930D01*
X186339505Y-55615930D01*
X186340496Y-55668230D01*
X186344519Y-55703050D01*
X186353108Y-55726905D01*
X186367797Y-55746895D01*
X186406584Y-55776618D01*
X186451974Y-55786582D01*
X186495989Y-55774260D01*
X186533060Y-55739888D01*
X186542859Y-55714735D01*
X186550097Y-55670194D01*
X186553279Y-55616155D01*
X186552277Y-55560728D01*
X186546961Y-55512022D01*
X186537204Y-55478148D01*
X186534087Y-55472593D01*
X186504038Y-55444674D01*
X186463315Y-55432306D01*
X186419579Y-55435183D01*
X186380491Y-55453000D01*
X186353710Y-55485452D01*
X186352603Y-55488181D01*
X186345963Y-55518634D01*
X186341278Y-55564139D01*
X186339505Y-55615930D01*
X186201188Y-55615930D01*
X186201188Y-55062773D01*
X186339505Y-55062773D01*
X186339505Y-55355878D01*
X186365124Y-55332693D01*
X186389792Y-55318282D01*
X186436480Y-55306236D01*
X186491056Y-55302354D01*
X186544354Y-55307120D01*
X186587207Y-55321014D01*
X186617878Y-55340779D01*
X186649471Y-55374449D01*
X186670733Y-55419730D01*
X186683514Y-55480981D01*
X186689664Y-55562563D01*
X186690568Y-55595540D01*
X186690633Y-55616155D01*
X186690761Y-55656813D01*
X186689167Y-55710571D01*
G36*
X185274244Y-55809419D02*
G01*
X185241277Y-55858255D01*
X185191270Y-55893386D01*
X185186362Y-55895521D01*
X185131646Y-55910903D01*
X185069993Y-55916899D01*
X185011376Y-55913233D01*
X184965767Y-55899629D01*
X184947549Y-55890754D01*
X184934179Y-55888637D01*
X184931188Y-55899706D01*
X184925524Y-55909942D01*
X184903607Y-55916038D01*
X184861068Y-55917822D01*
X184790948Y-55917822D01*
X184794680Y-55697773D01*
X184931188Y-55697773D01*
X184935924Y-55730666D01*
X184956336Y-55766931D01*
X184963871Y-55773597D01*
X184994753Y-55787620D01*
X185041213Y-55791228D01*
X185069090Y-55789819D01*
X185121255Y-55779204D01*
X185153587Y-55759425D01*
X185164492Y-55731824D01*
X185152374Y-55697743D01*
X185145304Y-55688824D01*
X185113724Y-55668818D01*
X185063744Y-55657395D01*
X184992487Y-55653763D01*
X184931188Y-55653763D01*
X184931188Y-55697773D01*
X184794680Y-55697773D01*
X184795053Y-55675768D01*
X184796169Y-55619794D01*
X184799106Y-55535996D01*
X184804058Y-55471920D01*
X184812002Y-55424073D01*
X184823917Y-55388962D01*
X184840780Y-55363093D01*
X184863572Y-55342974D01*
X184893269Y-55325110D01*
X184908589Y-55318290D01*
X184961589Y-55305417D01*
X185025513Y-55300095D01*
X185091602Y-55302227D01*
X185151099Y-55311714D01*
X185195247Y-55328461D01*
X185210604Y-55338185D01*
X185245960Y-55367005D01*
X185257926Y-55391137D01*
X185255020Y-55395800D01*
X185236909Y-55412088D01*
X185207672Y-55433817D01*
X185192725Y-55443987D01*
X185167270Y-55458397D01*
X185150728Y-55459773D01*
X185135370Y-55449827D01*
X185097094Y-55429684D01*
X185045590Y-55421400D01*
X184992957Y-55427742D01*
X184991961Y-55428030D01*
X184954838Y-55444158D01*
X184936463Y-55469405D01*
X184931380Y-55511158D01*
X184931188Y-55550879D01*
X185062423Y-55555168D01*
X185083331Y-55555873D01*
X185136043Y-55558326D01*
X185171381Y-55562180D01*
X185195267Y-55568878D01*
X185213624Y-55579864D01*
X185232376Y-55596580D01*
X185263337Y-55635244D01*
X185286029Y-55692456D01*
X185288254Y-55731824D01*
X185289413Y-55752333D01*
X185274244Y-55809419D01*
G37*
X185274244Y-55809419D02*
X185241277Y-55858255D01*
X185191270Y-55893386D01*
X185186362Y-55895521D01*
X185131646Y-55910903D01*
X185069993Y-55916899D01*
X185011376Y-55913233D01*
X184965767Y-55899629D01*
X184947549Y-55890754D01*
X184934179Y-55888637D01*
X184931188Y-55899706D01*
X184925524Y-55909942D01*
X184903607Y-55916038D01*
X184861068Y-55917822D01*
X184790948Y-55917822D01*
X184794680Y-55697773D01*
X184931188Y-55697773D01*
X184935924Y-55730666D01*
X184956336Y-55766931D01*
X184963871Y-55773597D01*
X184994753Y-55787620D01*
X185041213Y-55791228D01*
X185069090Y-55789819D01*
X185121255Y-55779204D01*
X185153587Y-55759425D01*
X185164492Y-55731824D01*
X185152374Y-55697743D01*
X185145304Y-55688824D01*
X185113724Y-55668818D01*
X185063744Y-55657395D01*
X184992487Y-55653763D01*
X184931188Y-55653763D01*
X184931188Y-55697773D01*
X184794680Y-55697773D01*
X184795053Y-55675768D01*
X184796169Y-55619794D01*
X184799106Y-55535996D01*
X184804058Y-55471920D01*
X184812002Y-55424073D01*
X184823917Y-55388962D01*
X184840780Y-55363093D01*
X184863572Y-55342974D01*
X184893269Y-55325110D01*
X184908589Y-55318290D01*
X184961589Y-55305417D01*
X185025513Y-55300095D01*
X185091602Y-55302227D01*
X185151099Y-55311714D01*
X185195247Y-55328461D01*
X185210604Y-55338185D01*
X185245960Y-55367005D01*
X185257926Y-55391137D01*
X185255020Y-55395800D01*
X185236909Y-55412088D01*
X185207672Y-55433817D01*
X185192725Y-55443987D01*
X185167270Y-55458397D01*
X185150728Y-55459773D01*
X185135370Y-55449827D01*
X185097094Y-55429684D01*
X185045590Y-55421400D01*
X184992957Y-55427742D01*
X184991961Y-55428030D01*
X184954838Y-55444158D01*
X184936463Y-55469405D01*
X184931380Y-55511158D01*
X184931188Y-55550879D01*
X185062423Y-55555168D01*
X185083331Y-55555873D01*
X185136043Y-55558326D01*
X185171381Y-55562180D01*
X185195267Y-55568878D01*
X185213624Y-55579864D01*
X185232376Y-55596580D01*
X185263337Y-55635244D01*
X185286029Y-55692456D01*
X185288254Y-55731824D01*
X185289413Y-55752333D01*
X185274244Y-55809419D01*
G36*
X184262718Y-55656692D02*
G01*
X184247827Y-55746459D01*
X184217185Y-55817045D01*
X184170524Y-55868952D01*
X184107574Y-55902686D01*
X184087235Y-55908647D01*
X184014612Y-55916971D01*
X183937928Y-55909946D01*
X183868663Y-55888265D01*
X183844262Y-55875959D01*
X183809275Y-55854879D01*
X183788072Y-55837534D01*
X183784942Y-55833571D01*
X183779085Y-55819077D01*
X183787524Y-55803321D01*
X183813221Y-55779460D01*
X183825622Y-55769072D01*
X183850052Y-55750063D01*
X183862861Y-55742293D01*
X183866530Y-55743094D01*
X183887561Y-55751745D01*
X183918960Y-55766931D01*
X183929197Y-55771926D01*
X183989590Y-55790475D01*
X184042057Y-55785694D01*
X184088065Y-55757500D01*
X184093419Y-55752291D01*
X184119013Y-55719659D01*
X184133637Y-55688342D01*
X184141736Y-55653763D01*
X183761782Y-55653763D01*
X183761852Y-55587748D01*
X183761892Y-55581182D01*
X183767022Y-55528218D01*
X183900099Y-55528218D01*
X183901670Y-55539203D01*
X183909738Y-55546773D01*
X183928967Y-55550975D01*
X183964019Y-55552783D01*
X184019554Y-55553169D01*
X184050429Y-55552768D01*
X184096002Y-55550429D01*
X184127348Y-55546465D01*
X184139010Y-55541413D01*
X184129064Y-55499827D01*
X184099947Y-55461013D01*
X184057952Y-55434086D01*
X184009440Y-55424772D01*
X183973723Y-55435272D01*
X183938020Y-55460940D01*
X183910879Y-55494381D01*
X183900099Y-55528218D01*
X183767022Y-55528218D01*
X183769758Y-55499965D01*
X183792655Y-55433895D01*
X183832607Y-55376940D01*
X183856979Y-55352848D01*
X183907315Y-55320597D01*
X183967419Y-55304970D01*
X184043338Y-55303871D01*
X184080010Y-55308179D01*
X184147703Y-55330549D01*
X184199530Y-55371263D01*
X184235945Y-55430949D01*
X184257401Y-55510236D01*
X184259579Y-55541413D01*
X184264353Y-55609753D01*
X184262718Y-55656692D01*
G37*
X184262718Y-55656692D02*
X184247827Y-55746459D01*
X184217185Y-55817045D01*
X184170524Y-55868952D01*
X184107574Y-55902686D01*
X184087235Y-55908647D01*
X184014612Y-55916971D01*
X183937928Y-55909946D01*
X183868663Y-55888265D01*
X183844262Y-55875959D01*
X183809275Y-55854879D01*
X183788072Y-55837534D01*
X183784942Y-55833571D01*
X183779085Y-55819077D01*
X183787524Y-55803321D01*
X183813221Y-55779460D01*
X183825622Y-55769072D01*
X183850052Y-55750063D01*
X183862861Y-55742293D01*
X183866530Y-55743094D01*
X183887561Y-55751745D01*
X183918960Y-55766931D01*
X183929197Y-55771926D01*
X183989590Y-55790475D01*
X184042057Y-55785694D01*
X184088065Y-55757500D01*
X184093419Y-55752291D01*
X184119013Y-55719659D01*
X184133637Y-55688342D01*
X184141736Y-55653763D01*
X183761782Y-55653763D01*
X183761852Y-55587748D01*
X183761892Y-55581182D01*
X183767022Y-55528218D01*
X183900099Y-55528218D01*
X183901670Y-55539203D01*
X183909738Y-55546773D01*
X183928967Y-55550975D01*
X183964019Y-55552783D01*
X184019554Y-55553169D01*
X184050429Y-55552768D01*
X184096002Y-55550429D01*
X184127348Y-55546465D01*
X184139010Y-55541413D01*
X184129064Y-55499827D01*
X184099947Y-55461013D01*
X184057952Y-55434086D01*
X184009440Y-55424772D01*
X183973723Y-55435272D01*
X183938020Y-55460940D01*
X183910879Y-55494381D01*
X183900099Y-55528218D01*
X183767022Y-55528218D01*
X183769758Y-55499965D01*
X183792655Y-55433895D01*
X183832607Y-55376940D01*
X183856979Y-55352848D01*
X183907315Y-55320597D01*
X183967419Y-55304970D01*
X184043338Y-55303871D01*
X184080010Y-55308179D01*
X184147703Y-55330549D01*
X184199530Y-55371263D01*
X184235945Y-55430949D01*
X184257401Y-55510236D01*
X184259579Y-55541413D01*
X184264353Y-55609753D01*
X184262718Y-55656692D01*
G36*
X184287128Y-54353945D02*
G01*
X184317954Y-54363568D01*
X184355916Y-54379563D01*
X184374296Y-54388159D01*
X184387561Y-54389713D01*
X184390495Y-54377798D01*
X184390498Y-54377461D01*
X184396709Y-54366087D01*
X184418131Y-54360256D01*
X184459653Y-54358614D01*
X184528812Y-54358614D01*
X184528812Y-54962179D01*
X184390495Y-54962179D01*
X184390495Y-54546027D01*
X184356110Y-54514161D01*
X184345368Y-54505104D01*
X184313370Y-54489630D01*
X184273965Y-54489010D01*
X184220312Y-54502664D01*
X184202225Y-54503529D01*
X184181008Y-54490283D01*
X184152768Y-54458800D01*
X184139069Y-54441385D01*
X184122868Y-54416797D01*
X184120371Y-54401145D01*
X184129442Y-54387941D01*
X184157289Y-54371245D01*
X184200540Y-54358030D01*
X184247464Y-54351478D01*
X184287128Y-54353945D01*
G37*
X184287128Y-54353945D02*
X184317954Y-54363568D01*
X184355916Y-54379563D01*
X184374296Y-54388159D01*
X184387561Y-54389713D01*
X184390495Y-54377798D01*
X184390498Y-54377461D01*
X184396709Y-54366087D01*
X184418131Y-54360256D01*
X184459653Y-54358614D01*
X184528812Y-54358614D01*
X184528812Y-54962179D01*
X184390495Y-54962179D01*
X184390495Y-54546027D01*
X184356110Y-54514161D01*
X184345368Y-54505104D01*
X184313370Y-54489630D01*
X184273965Y-54489010D01*
X184220312Y-54502664D01*
X184202225Y-54503529D01*
X184181008Y-54490283D01*
X184152768Y-54458800D01*
X184139069Y-54441385D01*
X184122868Y-54416797D01*
X184120371Y-54401145D01*
X184129442Y-54387941D01*
X184157289Y-54371245D01*
X184200540Y-54358030D01*
X184247464Y-54351478D01*
X184287128Y-54353945D01*
G36*
X188209926Y-55915336D02*
G01*
X188143911Y-55911535D01*
X188140772Y-55710347D01*
X188139844Y-55661425D01*
X188137208Y-55587926D01*
X188132683Y-55533991D01*
X188125438Y-55495995D01*
X188114642Y-55470313D01*
X188099462Y-55453320D01*
X188079066Y-55441389D01*
X188040797Y-55429205D01*
X188002738Y-55433940D01*
X187962549Y-55459979D01*
X187923861Y-55492533D01*
X187923861Y-55917822D01*
X187785544Y-55917822D01*
X187785544Y-55687176D01*
X187785677Y-55614882D01*
X187786413Y-55550641D01*
X187788181Y-55503618D01*
X187791411Y-55469548D01*
X187796530Y-55444170D01*
X187803967Y-55423221D01*
X187814150Y-55402436D01*
X187816564Y-55398024D01*
X187848675Y-55355047D01*
X187886256Y-55325013D01*
X187931564Y-55309243D01*
X187991561Y-55302222D01*
X188051643Y-55306025D01*
X188100525Y-55320868D01*
X188137624Y-55340052D01*
X188137624Y-54924859D01*
X188086792Y-54951354D01*
X188065558Y-54960980D01*
X187998536Y-54974592D01*
X187931930Y-54965184D01*
X187870187Y-54933905D01*
X187817757Y-54881902D01*
X187809543Y-54869680D01*
X187801649Y-54851763D01*
X187796500Y-54827404D01*
X187793527Y-54791927D01*
X187792161Y-54740656D01*
X187791915Y-54687236D01*
X187924749Y-54687236D01*
X187924861Y-54731849D01*
X187928272Y-54761601D01*
X187935937Y-54782835D01*
X187948814Y-54801896D01*
X187965171Y-54819617D01*
X187991329Y-54833028D01*
X188030742Y-54836436D01*
X188065559Y-54833471D01*
X188100020Y-54818631D01*
X188122215Y-54788569D01*
X188134097Y-54740254D01*
X188137624Y-54670650D01*
X188136712Y-54633624D01*
X188127609Y-54563728D01*
X188108828Y-54516464D01*
X188080476Y-54492168D01*
X188051840Y-54485332D01*
X188001970Y-54488537D01*
X187959833Y-54508380D01*
X187949749Y-54517480D01*
X187939063Y-54533223D01*
X187932456Y-54556658D01*
X187928532Y-54593604D01*
X187925897Y-54649880D01*
X187924749Y-54687236D01*
X187791915Y-54687236D01*
X187791831Y-54668917D01*
X187791944Y-54636184D01*
X187793872Y-54560044D01*
X187799240Y-54503166D01*
X187809406Y-54461249D01*
X187825725Y-54429996D01*
X187849553Y-54405106D01*
X187882247Y-54382282D01*
X187908759Y-54369184D01*
X187971615Y-54354739D01*
X188037869Y-54356707D01*
X188096757Y-54375433D01*
X188122030Y-54387673D01*
X188134742Y-54388938D01*
X188137624Y-54377798D01*
X188137626Y-54377461D01*
X188143838Y-54366087D01*
X188165260Y-54360256D01*
X188206782Y-54358614D01*
X188275940Y-54358614D01*
X188275940Y-55919136D01*
X188209926Y-55915336D01*
G37*
X188209926Y-55915336D02*
X188143911Y-55911535D01*
X188140772Y-55710347D01*
X188139844Y-55661425D01*
X188137208Y-55587926D01*
X188132683Y-55533991D01*
X188125438Y-55495995D01*
X188114642Y-55470313D01*
X188099462Y-55453320D01*
X188079066Y-55441389D01*
X188040797Y-55429205D01*
X188002738Y-55433940D01*
X187962549Y-55459979D01*
X187923861Y-55492533D01*
X187923861Y-55917822D01*
X187785544Y-55917822D01*
X187785544Y-55687176D01*
X187785677Y-55614882D01*
X187786413Y-55550641D01*
X187788181Y-55503618D01*
X187791411Y-55469548D01*
X187796530Y-55444170D01*
X187803967Y-55423221D01*
X187814150Y-55402436D01*
X187816564Y-55398024D01*
X187848675Y-55355047D01*
X187886256Y-55325013D01*
X187931564Y-55309243D01*
X187991561Y-55302222D01*
X188051643Y-55306025D01*
X188100525Y-55320868D01*
X188137624Y-55340052D01*
X188137624Y-54924859D01*
X188086792Y-54951354D01*
X188065558Y-54960980D01*
X187998536Y-54974592D01*
X187931930Y-54965184D01*
X187870187Y-54933905D01*
X187817757Y-54881902D01*
X187809543Y-54869680D01*
X187801649Y-54851763D01*
X187796500Y-54827404D01*
X187793527Y-54791927D01*
X187792161Y-54740656D01*
X187791915Y-54687236D01*
X187924749Y-54687236D01*
X187924861Y-54731849D01*
X187928272Y-54761601D01*
X187935937Y-54782835D01*
X187948814Y-54801896D01*
X187965171Y-54819617D01*
X187991329Y-54833028D01*
X188030742Y-54836436D01*
X188065559Y-54833471D01*
X188100020Y-54818631D01*
X188122215Y-54788569D01*
X188134097Y-54740254D01*
X188137624Y-54670650D01*
X188136712Y-54633624D01*
X188127609Y-54563728D01*
X188108828Y-54516464D01*
X188080476Y-54492168D01*
X188051840Y-54485332D01*
X188001970Y-54488537D01*
X187959833Y-54508380D01*
X187949749Y-54517480D01*
X187939063Y-54533223D01*
X187932456Y-54556658D01*
X187928532Y-54593604D01*
X187925897Y-54649880D01*
X187924749Y-54687236D01*
X187791915Y-54687236D01*
X187791831Y-54668917D01*
X187791944Y-54636184D01*
X187793872Y-54560044D01*
X187799240Y-54503166D01*
X187809406Y-54461249D01*
X187825725Y-54429996D01*
X187849553Y-54405106D01*
X187882247Y-54382282D01*
X187908759Y-54369184D01*
X187971615Y-54354739D01*
X188037869Y-54356707D01*
X188096757Y-54375433D01*
X188122030Y-54387673D01*
X188134742Y-54388938D01*
X188137624Y-54377798D01*
X188137626Y-54377461D01*
X188143838Y-54366087D01*
X188165260Y-54360256D01*
X188206782Y-54358614D01*
X188275940Y-54358614D01*
X188275940Y-55919136D01*
X188209926Y-55915336D01*
G36*
X185729349Y-54743565D02*
G01*
X185713844Y-54819538D01*
X185686110Y-54877511D01*
X185643898Y-54921300D01*
X185584960Y-54954722D01*
X185562076Y-54962676D01*
X185502812Y-54972601D01*
X185440447Y-54972331D01*
X185387823Y-54961430D01*
X185386789Y-54961034D01*
X185344381Y-54936087D01*
X185301537Y-54897468D01*
X185265986Y-54853306D01*
X185245459Y-54811727D01*
X185239374Y-54781334D01*
X185234164Y-54724429D01*
X185233291Y-54673705D01*
X185359976Y-54673705D01*
X185367549Y-54734545D01*
X185385341Y-54784538D01*
X185412296Y-54817204D01*
X185422513Y-54822812D01*
X185461473Y-54833007D01*
X185506536Y-54835104D01*
X185544448Y-54828020D01*
X185559244Y-54817861D01*
X185580014Y-54782334D01*
X185593083Y-54726732D01*
X185597624Y-54653766D01*
X185597551Y-54632762D01*
X185595974Y-54590203D01*
X185590728Y-54562439D01*
X185579723Y-54541925D01*
X185560868Y-54521112D01*
X185524989Y-54495887D01*
X185478280Y-54485573D01*
X185433151Y-54495396D01*
X185395680Y-54523805D01*
X185371943Y-54569253D01*
X185363675Y-54608497D01*
X185359976Y-54673705D01*
X185233291Y-54673705D01*
X185233049Y-54659621D01*
X185235844Y-54595116D01*
X185242366Y-54539121D01*
X185252432Y-54499842D01*
X185275877Y-54455372D01*
X185325637Y-54400692D01*
X185389238Y-54366055D01*
X185464790Y-54352345D01*
X185550399Y-54360448D01*
X185564644Y-54363899D01*
X185630982Y-54393664D01*
X185680971Y-54442530D01*
X185714612Y-54510501D01*
X185731906Y-54597580D01*
X185732410Y-54653766D01*
X185732857Y-54703771D01*
X185729349Y-54743565D01*
G37*
X185729349Y-54743565D02*
X185713844Y-54819538D01*
X185686110Y-54877511D01*
X185643898Y-54921300D01*
X185584960Y-54954722D01*
X185562076Y-54962676D01*
X185502812Y-54972601D01*
X185440447Y-54972331D01*
X185387823Y-54961430D01*
X185386789Y-54961034D01*
X185344381Y-54936087D01*
X185301537Y-54897468D01*
X185265986Y-54853306D01*
X185245459Y-54811727D01*
X185239374Y-54781334D01*
X185234164Y-54724429D01*
X185233291Y-54673705D01*
X185359976Y-54673705D01*
X185367549Y-54734545D01*
X185385341Y-54784538D01*
X185412296Y-54817204D01*
X185422513Y-54822812D01*
X185461473Y-54833007D01*
X185506536Y-54835104D01*
X185544448Y-54828020D01*
X185559244Y-54817861D01*
X185580014Y-54782334D01*
X185593083Y-54726732D01*
X185597624Y-54653766D01*
X185597551Y-54632762D01*
X185595974Y-54590203D01*
X185590728Y-54562439D01*
X185579723Y-54541925D01*
X185560868Y-54521112D01*
X185524989Y-54495887D01*
X185478280Y-54485573D01*
X185433151Y-54495396D01*
X185395680Y-54523805D01*
X185371943Y-54569253D01*
X185363675Y-54608497D01*
X185359976Y-54673705D01*
X185233291Y-54673705D01*
X185233049Y-54659621D01*
X185235844Y-54595116D01*
X185242366Y-54539121D01*
X185252432Y-54499842D01*
X185275877Y-54455372D01*
X185325637Y-54400692D01*
X185389238Y-54366055D01*
X185464790Y-54352345D01*
X185550399Y-54360448D01*
X185564644Y-54363899D01*
X185630982Y-54393664D01*
X185680971Y-54442530D01*
X185714612Y-54510501D01*
X185731906Y-54597580D01*
X185732410Y-54653766D01*
X185732857Y-54703771D01*
X185729349Y-54743565D01*
G36*
X186882605Y-54357424D02*
G01*
X186939926Y-54375434D01*
X186965199Y-54387674D01*
X186977910Y-54388938D01*
X186980792Y-54377798D01*
X186980795Y-54377461D01*
X186987006Y-54366087D01*
X187008428Y-54360256D01*
X187049950Y-54358614D01*
X187119109Y-54358614D01*
X187119109Y-54962179D01*
X186980792Y-54962179D01*
X186980792Y-54754132D01*
X186980697Y-54683879D01*
X186980051Y-54626170D01*
X186978320Y-54585787D01*
X186974974Y-54558615D01*
X186969481Y-54540540D01*
X186961310Y-54527447D01*
X186949928Y-54515221D01*
X186934424Y-54502217D01*
X186889843Y-54484745D01*
X186843047Y-54489873D01*
X186800180Y-54517507D01*
X186787927Y-54530368D01*
X186779132Y-54543384D01*
X186773233Y-54560706D01*
X186769651Y-54586501D01*
X186767809Y-54624939D01*
X186767128Y-54680189D01*
X186767030Y-54756418D01*
X186767030Y-54962179D01*
X186628713Y-54962179D01*
X186628989Y-54738985D01*
X186629008Y-54729044D01*
X186630207Y-54634106D01*
X186633891Y-54560358D01*
X186641006Y-54504214D01*
X186652500Y-54462087D01*
X186669318Y-54430391D01*
X186692409Y-54405541D01*
X186722717Y-54383950D01*
X186754012Y-54369002D01*
X186817037Y-54355421D01*
X186882605Y-54357424D01*
G37*
X186882605Y-54357424D02*
X186939926Y-54375434D01*
X186965199Y-54387674D01*
X186977910Y-54388938D01*
X186980792Y-54377798D01*
X186980795Y-54377461D01*
X186987006Y-54366087D01*
X187008428Y-54360256D01*
X187049950Y-54358614D01*
X187119109Y-54358614D01*
X187119109Y-54962179D01*
X186980792Y-54962179D01*
X186980792Y-54754132D01*
X186980697Y-54683879D01*
X186980051Y-54626170D01*
X186978320Y-54585787D01*
X186974974Y-54558615D01*
X186969481Y-54540540D01*
X186961310Y-54527447D01*
X186949928Y-54515221D01*
X186934424Y-54502217D01*
X186889843Y-54484745D01*
X186843047Y-54489873D01*
X186800180Y-54517507D01*
X186787927Y-54530368D01*
X186779132Y-54543384D01*
X186773233Y-54560706D01*
X186769651Y-54586501D01*
X186767809Y-54624939D01*
X186767128Y-54680189D01*
X186767030Y-54756418D01*
X186767030Y-54962179D01*
X186628713Y-54962179D01*
X186628989Y-54738985D01*
X186629008Y-54729044D01*
X186630207Y-54634106D01*
X186633891Y-54560358D01*
X186641006Y-54504214D01*
X186652500Y-54462087D01*
X186669318Y-54430391D01*
X186692409Y-54405541D01*
X186722717Y-54383950D01*
X186754012Y-54369002D01*
X186817037Y-54355421D01*
X186882605Y-54357424D01*
G36*
X186098874Y-54358207D02*
G01*
X186171495Y-54376408D01*
X186224546Y-54410144D01*
X186258329Y-54459642D01*
X186273147Y-54525126D01*
X186270147Y-54587820D01*
X186248493Y-54640699D01*
X186206967Y-54679796D01*
X186144736Y-54705873D01*
X186060969Y-54719695D01*
X186006540Y-54726940D01*
X185956860Y-54742615D01*
X185931211Y-54765314D01*
X185929662Y-54794998D01*
X185939984Y-54813507D01*
X185971951Y-54835443D01*
X186017395Y-54845818D01*
X186070649Y-54844399D01*
X186126048Y-54830952D01*
X186177928Y-54805243D01*
X186229653Y-54771013D01*
X186275148Y-54817049D01*
X186320643Y-54863084D01*
X186282921Y-54893876D01*
X186268253Y-54904574D01*
X186226983Y-54928880D01*
X186182327Y-54949825D01*
X186146984Y-54961845D01*
X186095234Y-54970552D01*
X186031435Y-54970667D01*
X185953200Y-54961081D01*
X185882722Y-54936783D01*
X185832836Y-54898188D01*
X185803423Y-54845198D01*
X185794365Y-54777718D01*
X185800921Y-54718354D01*
X185821970Y-54669752D01*
X185859864Y-54634946D01*
X185917004Y-54611798D01*
X185995785Y-54598170D01*
X186004834Y-54597183D01*
X186053885Y-54590892D01*
X186093675Y-54584309D01*
X186116312Y-54578708D01*
X186123866Y-54574197D01*
X186136637Y-54550941D01*
X186134563Y-54521171D01*
X186117495Y-54495327D01*
X186108533Y-54489691D01*
X186071188Y-54480660D01*
X186022950Y-54481267D01*
X185972650Y-54490878D01*
X185929115Y-54508858D01*
X185883372Y-54535847D01*
X185847890Y-54494384D01*
X185839280Y-54483850D01*
X185819883Y-54455632D01*
X185811897Y-54436508D01*
X185820283Y-54424781D01*
X185846226Y-54406476D01*
X185883688Y-54386777D01*
X185888966Y-54384370D01*
X185938366Y-54365482D01*
X185985983Y-54356452D01*
X186045072Y-54354639D01*
X186098874Y-54358207D01*
G37*
X186098874Y-54358207D02*
X186171495Y-54376408D01*
X186224546Y-54410144D01*
X186258329Y-54459642D01*
X186273147Y-54525126D01*
X186270147Y-54587820D01*
X186248493Y-54640699D01*
X186206967Y-54679796D01*
X186144736Y-54705873D01*
X186060969Y-54719695D01*
X186006540Y-54726940D01*
X185956860Y-54742615D01*
X185931211Y-54765314D01*
X185929662Y-54794998D01*
X185939984Y-54813507D01*
X185971951Y-54835443D01*
X186017395Y-54845818D01*
X186070649Y-54844399D01*
X186126048Y-54830952D01*
X186177928Y-54805243D01*
X186229653Y-54771013D01*
X186275148Y-54817049D01*
X186320643Y-54863084D01*
X186282921Y-54893876D01*
X186268253Y-54904574D01*
X186226983Y-54928880D01*
X186182327Y-54949825D01*
X186146984Y-54961845D01*
X186095234Y-54970552D01*
X186031435Y-54970667D01*
X185953200Y-54961081D01*
X185882722Y-54936783D01*
X185832836Y-54898188D01*
X185803423Y-54845198D01*
X185794365Y-54777718D01*
X185800921Y-54718354D01*
X185821970Y-54669752D01*
X185859864Y-54634946D01*
X185917004Y-54611798D01*
X185995785Y-54598170D01*
X186004834Y-54597183D01*
X186053885Y-54590892D01*
X186093675Y-54584309D01*
X186116312Y-54578708D01*
X186123866Y-54574197D01*
X186136637Y-54550941D01*
X186134563Y-54521171D01*
X186117495Y-54495327D01*
X186108533Y-54489691D01*
X186071188Y-54480660D01*
X186022950Y-54481267D01*
X185972650Y-54490878D01*
X185929115Y-54508858D01*
X185883372Y-54535847D01*
X185847890Y-54494384D01*
X185839280Y-54483850D01*
X185819883Y-54455632D01*
X185811897Y-54436508D01*
X185820283Y-54424781D01*
X185846226Y-54406476D01*
X185883688Y-54386777D01*
X185888966Y-54384370D01*
X185938366Y-54365482D01*
X185985983Y-54356452D01*
X186045072Y-54354639D01*
X186098874Y-54358207D01*
G36*
X183933409Y-54361493D02*
G01*
X184002021Y-54388224D01*
X184060048Y-54432351D01*
X184102907Y-54492958D01*
X184105801Y-54499137D01*
X184124176Y-54559409D01*
X184133357Y-54631407D01*
X184133285Y-54706369D01*
X184123901Y-54775536D01*
X184105149Y-54830149D01*
X184081995Y-54868212D01*
X184031030Y-54922135D01*
X183967306Y-54956411D01*
X183912785Y-54970272D01*
X183829767Y-54971785D01*
X183750326Y-54950882D01*
X183679879Y-54908464D01*
X183634284Y-54870880D01*
X183675351Y-54828510D01*
X183701296Y-54803409D01*
X183724764Y-54789434D01*
X183746524Y-54792511D01*
X183774356Y-54811287D01*
X183785454Y-54818638D01*
X183832337Y-54833683D01*
X183886224Y-54833673D01*
X183936675Y-54818168D01*
X183955672Y-54805716D01*
X183983537Y-54768946D01*
X183997506Y-54714939D01*
X183998405Y-54641331D01*
X183998403Y-54641289D01*
X183988009Y-54575433D01*
X183965114Y-54529772D01*
X183927439Y-54501528D01*
X183872708Y-54487920D01*
X183838241Y-54486090D01*
X183808126Y-54493584D01*
X183777240Y-54515295D01*
X183737272Y-54548926D01*
X183686656Y-54508250D01*
X183668163Y-54492667D01*
X183645065Y-54470340D01*
X183636039Y-54457183D01*
X183639236Y-54451253D01*
X183657646Y-54433048D01*
X183686973Y-54409895D01*
X183709920Y-54394830D01*
X183782774Y-54363880D01*
X183858799Y-54353073D01*
X183933409Y-54361493D01*
G37*
X183933409Y-54361493D02*
X184002021Y-54388224D01*
X184060048Y-54432351D01*
X184102907Y-54492958D01*
X184105801Y-54499137D01*
X184124176Y-54559409D01*
X184133357Y-54631407D01*
X184133285Y-54706369D01*
X184123901Y-54775536D01*
X184105149Y-54830149D01*
X184081995Y-54868212D01*
X184031030Y-54922135D01*
X183967306Y-54956411D01*
X183912785Y-54970272D01*
X183829767Y-54971785D01*
X183750326Y-54950882D01*
X183679879Y-54908464D01*
X183634284Y-54870880D01*
X183675351Y-54828510D01*
X183701296Y-54803409D01*
X183724764Y-54789434D01*
X183746524Y-54792511D01*
X183774356Y-54811287D01*
X183785454Y-54818638D01*
X183832337Y-54833683D01*
X183886224Y-54833673D01*
X183936675Y-54818168D01*
X183955672Y-54805716D01*
X183983537Y-54768946D01*
X183997506Y-54714939D01*
X183998405Y-54641331D01*
X183998403Y-54641289D01*
X183988009Y-54575433D01*
X183965114Y-54529772D01*
X183927439Y-54501528D01*
X183872708Y-54487920D01*
X183838241Y-54486090D01*
X183808126Y-54493584D01*
X183777240Y-54515295D01*
X183737272Y-54548926D01*
X183686656Y-54508250D01*
X183668163Y-54492667D01*
X183645065Y-54470340D01*
X183636039Y-54457183D01*
X183639236Y-54451253D01*
X183657646Y-54433048D01*
X183686973Y-54409895D01*
X183709920Y-54394830D01*
X183782774Y-54363880D01*
X183858799Y-54353073D01*
X183933409Y-54361493D01*
G36*
X187711421Y-54672936D02*
G01*
X187710322Y-54711371D01*
X187697926Y-54795367D01*
X187670608Y-54861595D01*
X187626941Y-54912784D01*
X187565495Y-54951663D01*
X187505888Y-54969812D01*
X187431110Y-54973284D01*
X187355664Y-54959930D01*
X187288366Y-54930425D01*
X187263428Y-54914012D01*
X187235951Y-54892973D01*
X187223414Y-54879129D01*
X187224124Y-54873417D01*
X187238158Y-54853955D01*
X187264533Y-54830376D01*
X187310240Y-54795513D01*
X187363799Y-54822262D01*
X187378282Y-54828882D01*
X187420916Y-54843273D01*
X187456649Y-54849010D01*
X187482998Y-54844282D01*
X187524347Y-54821514D01*
X187559104Y-54786170D01*
X187578983Y-54745273D01*
X187587083Y-54710693D01*
X187207129Y-54710693D01*
X187207199Y-54644679D01*
X187207774Y-54623757D01*
X187211972Y-54578862D01*
X187345445Y-54578862D01*
X187345690Y-54581434D01*
X187352604Y-54589443D01*
X187372141Y-54594364D01*
X187408467Y-54596843D01*
X187465748Y-54597525D01*
X187484575Y-54597517D01*
X187533470Y-54597065D01*
X187562863Y-54595113D01*
X187577115Y-54590558D01*
X187580582Y-54582299D01*
X187577625Y-54569233D01*
X187577173Y-54567752D01*
X187551699Y-54522285D01*
X187511539Y-54490981D01*
X187463651Y-54479327D01*
X187445949Y-54480259D01*
X187413094Y-54491408D01*
X187381575Y-54519763D01*
X187373085Y-54529789D01*
X187353336Y-54558423D01*
X187345445Y-54578862D01*
X187211972Y-54578862D01*
X187212512Y-54573091D01*
X187220459Y-54531166D01*
X187229168Y-54507696D01*
X187259790Y-54456646D01*
X187300799Y-54410283D01*
X187344168Y-54378514D01*
X187356699Y-54372614D01*
X187429661Y-54353046D01*
X187504168Y-54355109D01*
X187574217Y-54377931D01*
X187633807Y-54420639D01*
X187666038Y-54460025D01*
X187692392Y-54515510D01*
X187706482Y-54582299D01*
X187707022Y-54584861D01*
X187711421Y-54672936D01*
G37*
X187711421Y-54672936D02*
X187710322Y-54711371D01*
X187697926Y-54795367D01*
X187670608Y-54861595D01*
X187626941Y-54912784D01*
X187565495Y-54951663D01*
X187505888Y-54969812D01*
X187431110Y-54973284D01*
X187355664Y-54959930D01*
X187288366Y-54930425D01*
X187263428Y-54914012D01*
X187235951Y-54892973D01*
X187223414Y-54879129D01*
X187224124Y-54873417D01*
X187238158Y-54853955D01*
X187264533Y-54830376D01*
X187310240Y-54795513D01*
X187363799Y-54822262D01*
X187378282Y-54828882D01*
X187420916Y-54843273D01*
X187456649Y-54849010D01*
X187482998Y-54844282D01*
X187524347Y-54821514D01*
X187559104Y-54786170D01*
X187578983Y-54745273D01*
X187587083Y-54710693D01*
X187207129Y-54710693D01*
X187207199Y-54644679D01*
X187207774Y-54623757D01*
X187211972Y-54578862D01*
X187345445Y-54578862D01*
X187345690Y-54581434D01*
X187352604Y-54589443D01*
X187372141Y-54594364D01*
X187408467Y-54596843D01*
X187465748Y-54597525D01*
X187484575Y-54597517D01*
X187533470Y-54597065D01*
X187562863Y-54595113D01*
X187577115Y-54590558D01*
X187580582Y-54582299D01*
X187577625Y-54569233D01*
X187577173Y-54567752D01*
X187551699Y-54522285D01*
X187511539Y-54490981D01*
X187463651Y-54479327D01*
X187445949Y-54480259D01*
X187413094Y-54491408D01*
X187381575Y-54519763D01*
X187373085Y-54529789D01*
X187353336Y-54558423D01*
X187345445Y-54578862D01*
X187211972Y-54578862D01*
X187212512Y-54573091D01*
X187220459Y-54531166D01*
X187229168Y-54507696D01*
X187259790Y-54456646D01*
X187300799Y-54410283D01*
X187344168Y-54378514D01*
X187356699Y-54372614D01*
X187429661Y-54353046D01*
X187504168Y-54355109D01*
X187574217Y-54377931D01*
X187633807Y-54420639D01*
X187666038Y-54460025D01*
X187692392Y-54515510D01*
X187706482Y-54582299D01*
X187707022Y-54584861D01*
X187711421Y-54672936D01*
G36*
X186364389Y-50190018D02*
G01*
X186421237Y-50491570D01*
X186631001Y-50578041D01*
X186840764Y-50664512D01*
X187092410Y-50493395D01*
X187142216Y-50459661D01*
X187208244Y-50415381D01*
X187265410Y-50377561D01*
X187310744Y-50348142D01*
X187341280Y-50329067D01*
X187354046Y-50322278D01*
X187361887Y-50327106D01*
X187385325Y-50347339D01*
X187420794Y-50380543D01*
X187465289Y-50423670D01*
X187515805Y-50473670D01*
X187569336Y-50527495D01*
X187622877Y-50582095D01*
X187673423Y-50634423D01*
X187717968Y-50681428D01*
X187753507Y-50720063D01*
X187777034Y-50747278D01*
X187785544Y-50760024D01*
X187783565Y-50765500D01*
X187769857Y-50789927D01*
X187744825Y-50830129D01*
X187710499Y-50882952D01*
X187668907Y-50945247D01*
X187622079Y-51013862D01*
X187596380Y-51051283D01*
X187552173Y-51116432D01*
X187514272Y-51173289D01*
X187484698Y-51218770D01*
X187465472Y-51249793D01*
X187458614Y-51263274D01*
X187458726Y-51264021D01*
X187464776Y-51281110D01*
X187478654Y-51316006D01*
X187498427Y-51364151D01*
X187522160Y-51420986D01*
X187547918Y-51481953D01*
X187573766Y-51542492D01*
X187597771Y-51598047D01*
X187617998Y-51644057D01*
X187632511Y-51675965D01*
X187639377Y-51689212D01*
X187643439Y-51690387D01*
X187668121Y-51695687D01*
X187712111Y-51704467D01*
X187771887Y-51716040D01*
X187843929Y-51729721D01*
X187924716Y-51744823D01*
X187967294Y-51752830D01*
X188045445Y-51768107D01*
X188113775Y-51782215D01*
X188168551Y-51794345D01*
X188206037Y-51803686D01*
X188222500Y-51809427D01*
X188225457Y-51815119D01*
X188230362Y-51842930D01*
X188234216Y-51889250D01*
X188237021Y-51949720D01*
X188238781Y-52019983D01*
X188239499Y-52095680D01*
X188239177Y-52172453D01*
X188237819Y-52245944D01*
X188235428Y-52311794D01*
X188232006Y-52365645D01*
X188227556Y-52403138D01*
X188222082Y-52419916D01*
X188218760Y-52421809D01*
X188193987Y-52429926D01*
X188151011Y-52440666D01*
X188094802Y-52452853D01*
X188030325Y-52465310D01*
X188008570Y-52469277D01*
X187908093Y-52487729D01*
X187829126Y-52502559D01*
X187768934Y-52514380D01*
X187724778Y-52523809D01*
X187693920Y-52531460D01*
X187673625Y-52537948D01*
X187661154Y-52543888D01*
X187653771Y-52549894D01*
X187652913Y-52550902D01*
X187640838Y-52571919D01*
X187622971Y-52610376D01*
X187601042Y-52661761D01*
X187576784Y-52721563D01*
X187551927Y-52785270D01*
X187528205Y-52848371D01*
X187507347Y-52906355D01*
X187491087Y-52954709D01*
X187481156Y-52988922D01*
X187479285Y-53004483D01*
X187480536Y-53006502D01*
X187493486Y-53026028D01*
X187517840Y-53062042D01*
X187551340Y-53111228D01*
X187591727Y-53170267D01*
X187636745Y-53235842D01*
X187649100Y-53253884D01*
X187692545Y-53318599D01*
X187730091Y-53376476D01*
X187759594Y-53424082D01*
X187778914Y-53457985D01*
X187785905Y-53474752D01*
X187784398Y-53479161D01*
X187768695Y-53500882D01*
X187737714Y-53536354D01*
X187693673Y-53583188D01*
X187638790Y-53638996D01*
X187575286Y-53701392D01*
X187538988Y-53736317D01*
X187481595Y-53790711D01*
X187431361Y-53837302D01*
X187390984Y-53873636D01*
X187363161Y-53897261D01*
X187350590Y-53905724D01*
X187341952Y-53902587D01*
X187315360Y-53887747D01*
X187276741Y-53863477D01*
X187231134Y-53832852D01*
X187198707Y-53810503D01*
X187133970Y-53766122D01*
X187064886Y-53718987D01*
X187001787Y-53676155D01*
X186878178Y-53592547D01*
X186774417Y-53648650D01*
X186749984Y-53661599D01*
X186705552Y-53683749D01*
X186671191Y-53699041D01*
X186652828Y-53704743D01*
X186646818Y-53697421D01*
X186631895Y-53669541D01*
X186609852Y-53623575D01*
X186581917Y-53562441D01*
X186549317Y-53489055D01*
X186513276Y-53406335D01*
X186475023Y-53317197D01*
X186435783Y-53224559D01*
X186396783Y-53131337D01*
X186359249Y-53040450D01*
X186324409Y-52954814D01*
X186293488Y-52877345D01*
X186267714Y-52810962D01*
X186248311Y-52758582D01*
X186236508Y-52723121D01*
X186233531Y-52707496D01*
X186233732Y-52707039D01*
X186247601Y-52692595D01*
X186276611Y-52669974D01*
X186314772Y-52643864D01*
X186326817Y-52635892D01*
X186418469Y-52560256D01*
X186494323Y-52470169D01*
X186552581Y-52369381D01*
X186591448Y-52261640D01*
X186609128Y-52150697D01*
X186603826Y-52040303D01*
X186582347Y-51942115D01*
X186543782Y-51842966D01*
X186487562Y-51754512D01*
X186410410Y-51670487D01*
X186380095Y-51643645D01*
X186282094Y-51577510D01*
X186176227Y-51532970D01*
X186065561Y-51509625D01*
X185953164Y-51507078D01*
X185842105Y-51524929D01*
X185735451Y-51562780D01*
X185636270Y-51620232D01*
X185547631Y-51696887D01*
X185472600Y-51792345D01*
X185458175Y-51815985D01*
X185409143Y-51924034D01*
X185383103Y-52036548D01*
X185379372Y-52150614D01*
X185397268Y-52263318D01*
X185436109Y-52371745D01*
X185495214Y-52472982D01*
X185573900Y-52564114D01*
X185671485Y-52642228D01*
X185674654Y-52644333D01*
X185712411Y-52670940D01*
X185740709Y-52693561D01*
X185753634Y-52707496D01*
X185752003Y-52718421D01*
X185741864Y-52750231D01*
X185723884Y-52799534D01*
X185699292Y-52863413D01*
X185669311Y-52938948D01*
X185635170Y-53023223D01*
X185598092Y-53113320D01*
X185559306Y-53206321D01*
X185520036Y-53299308D01*
X185481509Y-53389364D01*
X185444950Y-53473571D01*
X185411586Y-53549010D01*
X185382643Y-53612765D01*
X185359346Y-53661917D01*
X185342923Y-53693549D01*
X185334598Y-53704743D01*
X185327674Y-53703227D01*
X185300477Y-53692331D01*
X185260280Y-53673228D01*
X185213009Y-53648650D01*
X185109248Y-53592547D01*
X184985639Y-53676155D01*
X184949120Y-53700913D01*
X184881194Y-53747171D01*
X184813475Y-53793503D01*
X184756291Y-53832852D01*
X184724732Y-53854297D01*
X184683714Y-53880939D01*
X184653301Y-53899178D01*
X184638446Y-53905941D01*
X184632065Y-53903070D01*
X184608996Y-53885485D01*
X184573433Y-53854523D01*
X184528471Y-53813231D01*
X184477206Y-53764653D01*
X184422733Y-53711835D01*
X184368148Y-53657823D01*
X184316547Y-53605661D01*
X184271024Y-53558396D01*
X184234675Y-53519072D01*
X184210595Y-53490736D01*
X184201881Y-53476432D01*
X184202383Y-53473711D01*
X184212755Y-53451560D01*
X184234912Y-53413235D01*
X184266712Y-53362200D01*
X184306016Y-53301914D01*
X184350681Y-53235842D01*
X184363207Y-53217617D01*
X184407193Y-53153485D01*
X184445937Y-53096789D01*
X184477182Y-53050844D01*
X184498669Y-53018970D01*
X184508140Y-53004483D01*
X184508373Y-53003862D01*
X184505578Y-52986139D01*
X184494903Y-52950235D01*
X184478081Y-52900662D01*
X184456843Y-52841932D01*
X184432921Y-52778556D01*
X184408046Y-52715046D01*
X184383950Y-52655913D01*
X184362365Y-52605669D01*
X184345023Y-52568826D01*
X184333655Y-52549894D01*
X184332516Y-52548719D01*
X184324376Y-52542773D01*
X184310629Y-52536776D01*
X184288537Y-52530114D01*
X184255363Y-52522173D01*
X184208370Y-52512337D01*
X184144820Y-52499991D01*
X184061976Y-52484520D01*
X183957100Y-52465310D01*
X183935348Y-52461267D01*
X183873036Y-52448769D01*
X183820619Y-52436927D01*
X183783066Y-52426917D01*
X183765343Y-52419916D01*
X183762378Y-52414075D01*
X183757435Y-52386016D01*
X183753518Y-52339500D01*
X183750629Y-52278886D01*
X183748773Y-52208532D01*
X183747952Y-52132796D01*
X183748168Y-52056037D01*
X183749426Y-51982612D01*
X183751728Y-51916880D01*
X183755076Y-51863200D01*
X183759474Y-51825930D01*
X183764926Y-51809427D01*
X183770491Y-51806989D01*
X183798178Y-51799305D01*
X183844979Y-51788436D01*
X183907157Y-51775192D01*
X183980979Y-51760384D01*
X184062710Y-51744823D01*
X184107336Y-51736509D01*
X184183824Y-51722092D01*
X184249660Y-51709467D01*
X184301323Y-51699321D01*
X184335293Y-51692341D01*
X184348048Y-51689212D01*
X184348528Y-51688568D01*
X184356651Y-51672181D01*
X184372137Y-51637852D01*
X184393050Y-51590136D01*
X184417455Y-51533586D01*
X184443416Y-51472758D01*
X184468997Y-51412206D01*
X184492262Y-51356485D01*
X184511277Y-51310150D01*
X184524105Y-51277755D01*
X184528812Y-51263855D01*
X184526736Y-51258965D01*
X184512920Y-51235692D01*
X184487860Y-51196519D01*
X184453568Y-51144520D01*
X184412059Y-51082768D01*
X184365346Y-51014336D01*
X184339718Y-50976860D01*
X184295490Y-50911156D01*
X184257570Y-50853492D01*
X184227980Y-50807014D01*
X184208743Y-50774865D01*
X184201881Y-50760190D01*
X184206649Y-50752230D01*
X184226593Y-50728446D01*
X184259313Y-50692451D01*
X184301805Y-50647295D01*
X184351065Y-50596028D01*
X184404091Y-50541701D01*
X184457877Y-50487364D01*
X184509421Y-50436067D01*
X184555720Y-50390859D01*
X184593769Y-50354792D01*
X184620565Y-50330914D01*
X184633105Y-50322278D01*
X184640066Y-50325636D01*
X184665627Y-50341210D01*
X184706874Y-50367715D01*
X184760837Y-50403210D01*
X184824542Y-50445750D01*
X184895016Y-50493395D01*
X185146662Y-50664512D01*
X185566188Y-50491570D01*
X185623036Y-50190018D01*
X185679885Y-49888466D01*
X186307540Y-49888466D01*
X186364389Y-50190018D01*
G37*
X186364389Y-50190018D02*
X186421237Y-50491570D01*
X186631001Y-50578041D01*
X186840764Y-50664512D01*
X187092410Y-50493395D01*
X187142216Y-50459661D01*
X187208244Y-50415381D01*
X187265410Y-50377561D01*
X187310744Y-50348142D01*
X187341280Y-50329067D01*
X187354046Y-50322278D01*
X187361887Y-50327106D01*
X187385325Y-50347339D01*
X187420794Y-50380543D01*
X187465289Y-50423670D01*
X187515805Y-50473670D01*
X187569336Y-50527495D01*
X187622877Y-50582095D01*
X187673423Y-50634423D01*
X187717968Y-50681428D01*
X187753507Y-50720063D01*
X187777034Y-50747278D01*
X187785544Y-50760024D01*
X187783565Y-50765500D01*
X187769857Y-50789927D01*
X187744825Y-50830129D01*
X187710499Y-50882952D01*
X187668907Y-50945247D01*
X187622079Y-51013862D01*
X187596380Y-51051283D01*
X187552173Y-51116432D01*
X187514272Y-51173289D01*
X187484698Y-51218770D01*
X187465472Y-51249793D01*
X187458614Y-51263274D01*
X187458726Y-51264021D01*
X187464776Y-51281110D01*
X187478654Y-51316006D01*
X187498427Y-51364151D01*
X187522160Y-51420986D01*
X187547918Y-51481953D01*
X187573766Y-51542492D01*
X187597771Y-51598047D01*
X187617998Y-51644057D01*
X187632511Y-51675965D01*
X187639377Y-51689212D01*
X187643439Y-51690387D01*
X187668121Y-51695687D01*
X187712111Y-51704467D01*
X187771887Y-51716040D01*
X187843929Y-51729721D01*
X187924716Y-51744823D01*
X187967294Y-51752830D01*
X188045445Y-51768107D01*
X188113775Y-51782215D01*
X188168551Y-51794345D01*
X188206037Y-51803686D01*
X188222500Y-51809427D01*
X188225457Y-51815119D01*
X188230362Y-51842930D01*
X188234216Y-51889250D01*
X188237021Y-51949720D01*
X188238781Y-52019983D01*
X188239499Y-52095680D01*
X188239177Y-52172453D01*
X188237819Y-52245944D01*
X188235428Y-52311794D01*
X188232006Y-52365645D01*
X188227556Y-52403138D01*
X188222082Y-52419916D01*
X188218760Y-52421809D01*
X188193987Y-52429926D01*
X188151011Y-52440666D01*
X188094802Y-52452853D01*
X188030325Y-52465310D01*
X188008570Y-52469277D01*
X187908093Y-52487729D01*
X187829126Y-52502559D01*
X187768934Y-52514380D01*
X187724778Y-52523809D01*
X187693920Y-52531460D01*
X187673625Y-52537948D01*
X187661154Y-52543888D01*
X187653771Y-52549894D01*
X187652913Y-52550902D01*
X187640838Y-52571919D01*
X187622971Y-52610376D01*
X187601042Y-52661761D01*
X187576784Y-52721563D01*
X187551927Y-52785270D01*
X187528205Y-52848371D01*
X187507347Y-52906355D01*
X187491087Y-52954709D01*
X187481156Y-52988922D01*
X187479285Y-53004483D01*
X187480536Y-53006502D01*
X187493486Y-53026028D01*
X187517840Y-53062042D01*
X187551340Y-53111228D01*
X187591727Y-53170267D01*
X187636745Y-53235842D01*
X187649100Y-53253884D01*
X187692545Y-53318599D01*
X187730091Y-53376476D01*
X187759594Y-53424082D01*
X187778914Y-53457985D01*
X187785905Y-53474752D01*
X187784398Y-53479161D01*
X187768695Y-53500882D01*
X187737714Y-53536354D01*
X187693673Y-53583188D01*
X187638790Y-53638996D01*
X187575286Y-53701392D01*
X187538988Y-53736317D01*
X187481595Y-53790711D01*
X187431361Y-53837302D01*
X187390984Y-53873636D01*
X187363161Y-53897261D01*
X187350590Y-53905724D01*
X187341952Y-53902587D01*
X187315360Y-53887747D01*
X187276741Y-53863477D01*
X187231134Y-53832852D01*
X187198707Y-53810503D01*
X187133970Y-53766122D01*
X187064886Y-53718987D01*
X187001787Y-53676155D01*
X186878178Y-53592547D01*
X186774417Y-53648650D01*
X186749984Y-53661599D01*
X186705552Y-53683749D01*
X186671191Y-53699041D01*
X186652828Y-53704743D01*
X186646818Y-53697421D01*
X186631895Y-53669541D01*
X186609852Y-53623575D01*
X186581917Y-53562441D01*
X186549317Y-53489055D01*
X186513276Y-53406335D01*
X186475023Y-53317197D01*
X186435783Y-53224559D01*
X186396783Y-53131337D01*
X186359249Y-53040450D01*
X186324409Y-52954814D01*
X186293488Y-52877345D01*
X186267714Y-52810962D01*
X186248311Y-52758582D01*
X186236508Y-52723121D01*
X186233531Y-52707496D01*
X186233732Y-52707039D01*
X186247601Y-52692595D01*
X186276611Y-52669974D01*
X186314772Y-52643864D01*
X186326817Y-52635892D01*
X186418469Y-52560256D01*
X186494323Y-52470169D01*
X186552581Y-52369381D01*
X186591448Y-52261640D01*
X186609128Y-52150697D01*
X186603826Y-52040303D01*
X186582347Y-51942115D01*
X186543782Y-51842966D01*
X186487562Y-51754512D01*
X186410410Y-51670487D01*
X186380095Y-51643645D01*
X186282094Y-51577510D01*
X186176227Y-51532970D01*
X186065561Y-51509625D01*
X185953164Y-51507078D01*
X185842105Y-51524929D01*
X185735451Y-51562780D01*
X185636270Y-51620232D01*
X185547631Y-51696887D01*
X185472600Y-51792345D01*
X185458175Y-51815985D01*
X185409143Y-51924034D01*
X185383103Y-52036548D01*
X185379372Y-52150614D01*
X185397268Y-52263318D01*
X185436109Y-52371745D01*
X185495214Y-52472982D01*
X185573900Y-52564114D01*
X185671485Y-52642228D01*
X185674654Y-52644333D01*
X185712411Y-52670940D01*
X185740709Y-52693561D01*
X185753634Y-52707496D01*
X185752003Y-52718421D01*
X185741864Y-52750231D01*
X185723884Y-52799534D01*
X185699292Y-52863413D01*
X185669311Y-52938948D01*
X185635170Y-53023223D01*
X185598092Y-53113320D01*
X185559306Y-53206321D01*
X185520036Y-53299308D01*
X185481509Y-53389364D01*
X185444950Y-53473571D01*
X185411586Y-53549010D01*
X185382643Y-53612765D01*
X185359346Y-53661917D01*
X185342923Y-53693549D01*
X185334598Y-53704743D01*
X185327674Y-53703227D01*
X185300477Y-53692331D01*
X185260280Y-53673228D01*
X185213009Y-53648650D01*
X185109248Y-53592547D01*
X184985639Y-53676155D01*
X184949120Y-53700913D01*
X184881194Y-53747171D01*
X184813475Y-53793503D01*
X184756291Y-53832852D01*
X184724732Y-53854297D01*
X184683714Y-53880939D01*
X184653301Y-53899178D01*
X184638446Y-53905941D01*
X184632065Y-53903070D01*
X184608996Y-53885485D01*
X184573433Y-53854523D01*
X184528471Y-53813231D01*
X184477206Y-53764653D01*
X184422733Y-53711835D01*
X184368148Y-53657823D01*
X184316547Y-53605661D01*
X184271024Y-53558396D01*
X184234675Y-53519072D01*
X184210595Y-53490736D01*
X184201881Y-53476432D01*
X184202383Y-53473711D01*
X184212755Y-53451560D01*
X184234912Y-53413235D01*
X184266712Y-53362200D01*
X184306016Y-53301914D01*
X184350681Y-53235842D01*
X184363207Y-53217617D01*
X184407193Y-53153485D01*
X184445937Y-53096789D01*
X184477182Y-53050844D01*
X184498669Y-53018970D01*
X184508140Y-53004483D01*
X184508373Y-53003862D01*
X184505578Y-52986139D01*
X184494903Y-52950235D01*
X184478081Y-52900662D01*
X184456843Y-52841932D01*
X184432921Y-52778556D01*
X184408046Y-52715046D01*
X184383950Y-52655913D01*
X184362365Y-52605669D01*
X184345023Y-52568826D01*
X184333655Y-52549894D01*
X184332516Y-52548719D01*
X184324376Y-52542773D01*
X184310629Y-52536776D01*
X184288537Y-52530114D01*
X184255363Y-52522173D01*
X184208370Y-52512337D01*
X184144820Y-52499991D01*
X184061976Y-52484520D01*
X183957100Y-52465310D01*
X183935348Y-52461267D01*
X183873036Y-52448769D01*
X183820619Y-52436927D01*
X183783066Y-52426917D01*
X183765343Y-52419916D01*
X183762378Y-52414075D01*
X183757435Y-52386016D01*
X183753518Y-52339500D01*
X183750629Y-52278886D01*
X183748773Y-52208532D01*
X183747952Y-52132796D01*
X183748168Y-52056037D01*
X183749426Y-51982612D01*
X183751728Y-51916880D01*
X183755076Y-51863200D01*
X183759474Y-51825930D01*
X183764926Y-51809427D01*
X183770491Y-51806989D01*
X183798178Y-51799305D01*
X183844979Y-51788436D01*
X183907157Y-51775192D01*
X183980979Y-51760384D01*
X184062710Y-51744823D01*
X184107336Y-51736509D01*
X184183824Y-51722092D01*
X184249660Y-51709467D01*
X184301323Y-51699321D01*
X184335293Y-51692341D01*
X184348048Y-51689212D01*
X184348528Y-51688568D01*
X184356651Y-51672181D01*
X184372137Y-51637852D01*
X184393050Y-51590136D01*
X184417455Y-51533586D01*
X184443416Y-51472758D01*
X184468997Y-51412206D01*
X184492262Y-51356485D01*
X184511277Y-51310150D01*
X184524105Y-51277755D01*
X184528812Y-51263855D01*
X184526736Y-51258965D01*
X184512920Y-51235692D01*
X184487860Y-51196519D01*
X184453568Y-51144520D01*
X184412059Y-51082768D01*
X184365346Y-51014336D01*
X184339718Y-50976860D01*
X184295490Y-50911156D01*
X184257570Y-50853492D01*
X184227980Y-50807014D01*
X184208743Y-50774865D01*
X184201881Y-50760190D01*
X184206649Y-50752230D01*
X184226593Y-50728446D01*
X184259313Y-50692451D01*
X184301805Y-50647295D01*
X184351065Y-50596028D01*
X184404091Y-50541701D01*
X184457877Y-50487364D01*
X184509421Y-50436067D01*
X184555720Y-50390859D01*
X184593769Y-50354792D01*
X184620565Y-50330914D01*
X184633105Y-50322278D01*
X184640066Y-50325636D01*
X184665627Y-50341210D01*
X184706874Y-50367715D01*
X184760837Y-50403210D01*
X184824542Y-50445750D01*
X184895016Y-50493395D01*
X185146662Y-50664512D01*
X185566188Y-50491570D01*
X185623036Y-50190018D01*
X185679885Y-49888466D01*
X186307540Y-49888466D01*
X186364389Y-50190018D01*
G36*
X187093960Y-55917822D02*
G01*
X186968218Y-55917822D01*
X186968218Y-55723740D01*
X186968078Y-55678594D01*
X186966649Y-55603823D01*
X186963029Y-55548467D01*
X186956434Y-55508702D01*
X186946079Y-55480700D01*
X186931178Y-55460635D01*
X186910946Y-55444681D01*
X186888859Y-55432792D01*
X186862705Y-55429421D01*
X186825508Y-55436917D01*
X186813555Y-55440038D01*
X186783718Y-55444735D01*
X186762383Y-55438005D01*
X186737655Y-55417177D01*
X186732963Y-55412647D01*
X186707020Y-55384626D01*
X186690291Y-55361843D01*
X186687996Y-55356355D01*
X186692543Y-55336088D01*
X186715602Y-55319884D01*
X186751995Y-55308513D01*
X186796544Y-55302740D01*
X186844072Y-55303334D01*
X186889400Y-55311063D01*
X186927351Y-55326694D01*
X186939381Y-55333993D01*
X186959632Y-55344676D01*
X186967129Y-55342230D01*
X186968218Y-55326647D01*
X186968473Y-55321053D01*
X186974539Y-55308660D01*
X186993356Y-55303020D01*
X187031089Y-55301683D01*
X187093960Y-55301683D01*
X187093960Y-55917822D01*
G37*
X187093960Y-55917822D02*
X186968218Y-55917822D01*
X186968218Y-55723740D01*
X186968078Y-55678594D01*
X186966649Y-55603823D01*
X186963029Y-55548467D01*
X186956434Y-55508702D01*
X186946079Y-55480700D01*
X186931178Y-55460635D01*
X186910946Y-55444681D01*
X186888859Y-55432792D01*
X186862705Y-55429421D01*
X186825508Y-55436917D01*
X186813555Y-55440038D01*
X186783718Y-55444735D01*
X186762383Y-55438005D01*
X186737655Y-55417177D01*
X186732963Y-55412647D01*
X186707020Y-55384626D01*
X186690291Y-55361843D01*
X186687996Y-55356355D01*
X186692543Y-55336088D01*
X186715602Y-55319884D01*
X186751995Y-55308513D01*
X186796544Y-55302740D01*
X186844072Y-55303334D01*
X186889400Y-55311063D01*
X186927351Y-55326694D01*
X186939381Y-55333993D01*
X186959632Y-55344676D01*
X186967129Y-55342230D01*
X186968218Y-55326647D01*
X186968473Y-55321053D01*
X186974539Y-55308660D01*
X186993356Y-55303020D01*
X187031089Y-55301683D01*
X187093960Y-55301683D01*
X187093960Y-55917822D01*
G36*
X184470265Y-55309965D02*
G01*
X184508255Y-55327745D01*
X184541386Y-55353806D01*
X184541386Y-55327745D01*
X184542211Y-55317849D01*
X184549893Y-55307358D01*
X184570667Y-55302725D01*
X184610544Y-55301683D01*
X184679703Y-55301683D01*
X184679703Y-55917822D01*
X184541386Y-55917822D01*
X184541386Y-55717226D01*
X184541369Y-55705710D01*
X184540189Y-55624758D01*
X184537294Y-55558817D01*
X184532888Y-55511258D01*
X184527181Y-55485452D01*
X184521940Y-55475710D01*
X184489676Y-55445156D01*
X184445730Y-55431631D01*
X184397743Y-55437941D01*
X184385973Y-55442217D01*
X184360898Y-55449776D01*
X184343762Y-55447428D01*
X184326518Y-55432064D01*
X184301124Y-55400571D01*
X184259936Y-55348568D01*
X184288886Y-55325125D01*
X184316405Y-55311015D01*
X184364745Y-55301486D01*
X184419230Y-55301174D01*
X184470265Y-55309965D01*
G37*
X184470265Y-55309965D02*
X184508255Y-55327745D01*
X184541386Y-55353806D01*
X184541386Y-55327745D01*
X184542211Y-55317849D01*
X184549893Y-55307358D01*
X184570667Y-55302725D01*
X184610544Y-55301683D01*
X184679703Y-55301683D01*
X184679703Y-55917822D01*
X184541386Y-55917822D01*
X184541386Y-55717226D01*
X184541369Y-55705710D01*
X184540189Y-55624758D01*
X184537294Y-55558817D01*
X184532888Y-55511258D01*
X184527181Y-55485452D01*
X184521940Y-55475710D01*
X184489676Y-55445156D01*
X184445730Y-55431631D01*
X184397743Y-55437941D01*
X184385973Y-55442217D01*
X184360898Y-55449776D01*
X184343762Y-55447428D01*
X184326518Y-55432064D01*
X184301124Y-55400571D01*
X184259936Y-55348568D01*
X184288886Y-55325125D01*
X184316405Y-55311015D01*
X184364745Y-55301486D01*
X184419230Y-55301174D01*
X184470265Y-55309965D01*
G36*
X183617825Y-54716121D02*
G01*
X183617615Y-54718014D01*
X183599535Y-54806325D01*
X183566870Y-54874986D01*
X183518601Y-54925506D01*
X183453713Y-54959393D01*
X183441801Y-54963268D01*
X183367971Y-54974688D01*
X183291614Y-54968320D01*
X183220626Y-54945563D01*
X183162904Y-54907819D01*
X183119667Y-54867872D01*
X183165625Y-54831532D01*
X183211583Y-54795193D01*
X183266969Y-54822101D01*
X183331056Y-54843905D01*
X183387632Y-54844558D01*
X183433920Y-54824525D01*
X183467230Y-54784315D01*
X183479171Y-54760222D01*
X183485837Y-54739630D01*
X183481980Y-54725720D01*
X183464675Y-54717181D01*
X183430997Y-54712704D01*
X183378021Y-54710978D01*
X183302822Y-54710693D01*
X183120495Y-54710693D01*
X183120495Y-54623492D01*
X183121857Y-54585210D01*
X183250234Y-54585210D01*
X183256399Y-54592251D01*
X183274654Y-54595916D01*
X183309352Y-54597306D01*
X183364846Y-54597525D01*
X183394603Y-54597176D01*
X183441562Y-54594867D01*
X183473416Y-54590822D01*
X183485148Y-54585542D01*
X183482146Y-54566062D01*
X183460988Y-54528786D01*
X183425731Y-54498164D01*
X183383699Y-54479668D01*
X183342220Y-54478773D01*
X183310997Y-54493604D01*
X183275618Y-54527355D01*
X183253122Y-54569233D01*
X183251805Y-54573690D01*
X183250234Y-54585210D01*
X183121857Y-54585210D01*
X183122136Y-54577371D01*
X183126955Y-54531740D01*
X183133840Y-54500893D01*
X183138859Y-54489117D01*
X183175390Y-54436667D01*
X183228175Y-54392921D01*
X183289904Y-54364279D01*
X183322102Y-54356457D01*
X183398820Y-54352896D01*
X183467179Y-54371009D01*
X183525299Y-54408779D01*
X183571302Y-54464191D01*
X183603310Y-54535229D01*
X183612900Y-54585542D01*
X183619444Y-54619878D01*
X183617825Y-54716121D01*
G37*
X183617825Y-54716121D02*
X183617615Y-54718014D01*
X183599535Y-54806325D01*
X183566870Y-54874986D01*
X183518601Y-54925506D01*
X183453713Y-54959393D01*
X183441801Y-54963268D01*
X183367971Y-54974688D01*
X183291614Y-54968320D01*
X183220626Y-54945563D01*
X183162904Y-54907819D01*
X183119667Y-54867872D01*
X183165625Y-54831532D01*
X183211583Y-54795193D01*
X183266969Y-54822101D01*
X183331056Y-54843905D01*
X183387632Y-54844558D01*
X183433920Y-54824525D01*
X183467230Y-54784315D01*
X183479171Y-54760222D01*
X183485837Y-54739630D01*
X183481980Y-54725720D01*
X183464675Y-54717181D01*
X183430997Y-54712704D01*
X183378021Y-54710978D01*
X183302822Y-54710693D01*
X183120495Y-54710693D01*
X183120495Y-54623492D01*
X183121857Y-54585210D01*
X183250234Y-54585210D01*
X183256399Y-54592251D01*
X183274654Y-54595916D01*
X183309352Y-54597306D01*
X183364846Y-54597525D01*
X183394603Y-54597176D01*
X183441562Y-54594867D01*
X183473416Y-54590822D01*
X183485148Y-54585542D01*
X183482146Y-54566062D01*
X183460988Y-54528786D01*
X183425731Y-54498164D01*
X183383699Y-54479668D01*
X183342220Y-54478773D01*
X183310997Y-54493604D01*
X183275618Y-54527355D01*
X183253122Y-54569233D01*
X183251805Y-54573690D01*
X183250234Y-54585210D01*
X183121857Y-54585210D01*
X183122136Y-54577371D01*
X183126955Y-54531740D01*
X183133840Y-54500893D01*
X183138859Y-54489117D01*
X183175390Y-54436667D01*
X183228175Y-54392921D01*
X183289904Y-54364279D01*
X183322102Y-54356457D01*
X183398820Y-54352896D01*
X183467179Y-54371009D01*
X183525299Y-54408779D01*
X183571302Y-54464191D01*
X183603310Y-54535229D01*
X183612900Y-54585542D01*
X183619444Y-54619878D01*
X183617825Y-54716121D01*
G36*
X102875937Y-56280179D02*
G01*
X102864197Y-53887589D01*
X102579396Y-53890833D01*
X102438742Y-53895000D01*
X102251261Y-53912969D01*
X102093996Y-53948317D01*
X101958570Y-54004885D01*
X101836606Y-54086516D01*
X101719728Y-54197055D01*
X101599559Y-54340342D01*
X101571718Y-54377469D01*
X101510965Y-54461902D01*
X101430901Y-54575840D01*
X101334972Y-54714272D01*
X101226628Y-54872186D01*
X101109316Y-55044574D01*
X100986485Y-55226423D01*
X100861583Y-55412723D01*
X100282268Y-56280179D01*
X99583188Y-56280179D01*
X99503662Y-56280110D01*
X99337140Y-56279494D01*
X99188631Y-56278308D01*
X99063605Y-56276635D01*
X98967530Y-56274560D01*
X98905875Y-56272164D01*
X98884108Y-56269531D01*
X98884166Y-56269101D01*
X98897497Y-56243431D01*
X98932125Y-56184663D01*
X98985057Y-56097542D01*
X99053297Y-55986814D01*
X99133851Y-55857224D01*
X99223725Y-55713517D01*
X99319923Y-55560440D01*
X99419452Y-55402738D01*
X99519316Y-55245156D01*
X99616522Y-55092441D01*
X99708073Y-54949336D01*
X99790977Y-54820589D01*
X99862238Y-54710945D01*
X99918862Y-54625149D01*
X99957854Y-54567946D01*
X99980705Y-54536076D01*
X100135086Y-54341314D01*
X100305000Y-54157436D01*
X100480055Y-53995003D01*
X100649858Y-53864581D01*
X100816769Y-53751518D01*
X100740572Y-53731866D01*
X100604739Y-53695590D01*
X100413190Y-53637928D01*
X100253806Y-53579170D01*
X100118579Y-53515341D01*
X99999505Y-53442462D01*
X99888577Y-53356558D01*
X99777789Y-53253652D01*
X99695221Y-53166513D01*
X99563644Y-52995679D01*
X99466225Y-52815104D01*
X99400139Y-52617428D01*
X99362560Y-52395293D01*
X99354462Y-52222452D01*
X100556080Y-52222452D01*
X100574813Y-52407632D01*
X100630162Y-52567636D01*
X100723031Y-52705147D01*
X100736588Y-52720017D01*
X100827140Y-52796377D01*
X100939586Y-52853701D01*
X101081380Y-52895016D01*
X101259973Y-52923352D01*
X101276939Y-52925066D01*
X101362052Y-52930691D01*
X101482647Y-52935736D01*
X101631074Y-52940006D01*
X101799682Y-52943309D01*
X101980818Y-52945453D01*
X102166831Y-52946242D01*
X102875536Y-52946429D01*
X102875536Y-51517679D01*
X102017867Y-51517679D01*
X101881282Y-51517763D01*
X101676324Y-51518388D01*
X101509292Y-51519768D01*
X101375465Y-51522077D01*
X101270123Y-51525487D01*
X101188547Y-51530172D01*
X101126016Y-51536305D01*
X101077810Y-51544059D01*
X101039209Y-51553608D01*
X101009381Y-51562974D01*
X100847199Y-51636518D01*
X100720889Y-51737785D01*
X100630341Y-51866920D01*
X100575450Y-52024068D01*
X100556109Y-52209375D01*
X100556080Y-52222452D01*
X99354462Y-52222452D01*
X99350662Y-52141339D01*
X99350700Y-52121265D01*
X99355921Y-51942856D01*
X99372223Y-51792648D01*
X99402871Y-51655619D01*
X99451130Y-51516744D01*
X99520266Y-51361002D01*
X99523081Y-51355117D01*
X99575450Y-51254807D01*
X99631593Y-51169383D01*
X99702109Y-51084505D01*
X99797601Y-50985833D01*
X99822832Y-50961200D01*
X99941796Y-50855868D01*
X100061035Y-50771632D01*
X100189567Y-50704363D01*
X100336407Y-50649936D01*
X100510570Y-50604224D01*
X100721072Y-50563099D01*
X100731893Y-50561511D01*
X100800976Y-50555760D01*
X100914129Y-50550380D01*
X101070337Y-50545391D01*
X101268584Y-50540814D01*
X101507855Y-50536670D01*
X101787134Y-50532980D01*
X102105405Y-50529765D01*
X102461652Y-50527046D01*
X104054822Y-50516576D01*
X104054822Y-56280179D01*
X102875937Y-56280179D01*
G37*
X102875937Y-56280179D02*
X102864197Y-53887589D01*
X102579396Y-53890833D01*
X102438742Y-53895000D01*
X102251261Y-53912969D01*
X102093996Y-53948317D01*
X101958570Y-54004885D01*
X101836606Y-54086516D01*
X101719728Y-54197055D01*
X101599559Y-54340342D01*
X101571718Y-54377469D01*
X101510965Y-54461902D01*
X101430901Y-54575840D01*
X101334972Y-54714272D01*
X101226628Y-54872186D01*
X101109316Y-55044574D01*
X100986485Y-55226423D01*
X100861583Y-55412723D01*
X100282268Y-56280179D01*
X99583188Y-56280179D01*
X99503662Y-56280110D01*
X99337140Y-56279494D01*
X99188631Y-56278308D01*
X99063605Y-56276635D01*
X98967530Y-56274560D01*
X98905875Y-56272164D01*
X98884108Y-56269531D01*
X98884166Y-56269101D01*
X98897497Y-56243431D01*
X98932125Y-56184663D01*
X98985057Y-56097542D01*
X99053297Y-55986814D01*
X99133851Y-55857224D01*
X99223725Y-55713517D01*
X99319923Y-55560440D01*
X99419452Y-55402738D01*
X99519316Y-55245156D01*
X99616522Y-55092441D01*
X99708073Y-54949336D01*
X99790977Y-54820589D01*
X99862238Y-54710945D01*
X99918862Y-54625149D01*
X99957854Y-54567946D01*
X99980705Y-54536076D01*
X100135086Y-54341314D01*
X100305000Y-54157436D01*
X100480055Y-53995003D01*
X100649858Y-53864581D01*
X100816769Y-53751518D01*
X100740572Y-53731866D01*
X100604739Y-53695590D01*
X100413190Y-53637928D01*
X100253806Y-53579170D01*
X100118579Y-53515341D01*
X99999505Y-53442462D01*
X99888577Y-53356558D01*
X99777789Y-53253652D01*
X99695221Y-53166513D01*
X99563644Y-52995679D01*
X99466225Y-52815104D01*
X99400139Y-52617428D01*
X99362560Y-52395293D01*
X99354462Y-52222452D01*
X100556080Y-52222452D01*
X100574813Y-52407632D01*
X100630162Y-52567636D01*
X100723031Y-52705147D01*
X100736588Y-52720017D01*
X100827140Y-52796377D01*
X100939586Y-52853701D01*
X101081380Y-52895016D01*
X101259973Y-52923352D01*
X101276939Y-52925066D01*
X101362052Y-52930691D01*
X101482647Y-52935736D01*
X101631074Y-52940006D01*
X101799682Y-52943309D01*
X101980818Y-52945453D01*
X102166831Y-52946242D01*
X102875536Y-52946429D01*
X102875536Y-51517679D01*
X102017867Y-51517679D01*
X101881282Y-51517763D01*
X101676324Y-51518388D01*
X101509292Y-51519768D01*
X101375465Y-51522077D01*
X101270123Y-51525487D01*
X101188547Y-51530172D01*
X101126016Y-51536305D01*
X101077810Y-51544059D01*
X101039209Y-51553608D01*
X101009381Y-51562974D01*
X100847199Y-51636518D01*
X100720889Y-51737785D01*
X100630341Y-51866920D01*
X100575450Y-52024068D01*
X100556109Y-52209375D01*
X100556080Y-52222452D01*
X99354462Y-52222452D01*
X99350662Y-52141339D01*
X99350700Y-52121265D01*
X99355921Y-51942856D01*
X99372223Y-51792648D01*
X99402871Y-51655619D01*
X99451130Y-51516744D01*
X99520266Y-51361002D01*
X99523081Y-51355117D01*
X99575450Y-51254807D01*
X99631593Y-51169383D01*
X99702109Y-51084505D01*
X99797601Y-50985833D01*
X99822832Y-50961200D01*
X99941796Y-50855868D01*
X100061035Y-50771632D01*
X100189567Y-50704363D01*
X100336407Y-50649936D01*
X100510570Y-50604224D01*
X100721072Y-50563099D01*
X100731893Y-50561511D01*
X100800976Y-50555760D01*
X100914129Y-50550380D01*
X101070337Y-50545391D01*
X101268584Y-50540814D01*
X101507855Y-50536670D01*
X101787134Y-50532980D01*
X102105405Y-50529765D01*
X102461652Y-50527046D01*
X104054822Y-50516576D01*
X104054822Y-56280179D01*
X102875937Y-56280179D01*
G36*
X98496110Y-54545268D02*
G01*
X98482203Y-54643440D01*
X98414481Y-54944424D01*
X98312694Y-55222762D01*
X98178561Y-55475038D01*
X98013802Y-55697838D01*
X97820137Y-55887747D01*
X97768647Y-55928419D01*
X97574996Y-56054685D01*
X97352483Y-56166426D01*
X97113177Y-56258784D01*
X96869147Y-56326899D01*
X96632462Y-56365912D01*
X96504753Y-56373438D01*
X96342822Y-56373310D01*
X96171249Y-56365339D01*
X96003738Y-56350474D01*
X95853995Y-56329662D01*
X95735724Y-56303854D01*
X95546531Y-56240986D01*
X95290889Y-56121647D01*
X95056295Y-55966500D01*
X94834956Y-55770937D01*
X94805004Y-55740472D01*
X94609819Y-55510189D01*
X94454774Y-55263849D01*
X94339026Y-54999125D01*
X94261734Y-54713691D01*
X94222054Y-54405223D01*
X94220790Y-54260304D01*
X95358812Y-54260304D01*
X95377588Y-54474143D01*
X95417553Y-54678326D01*
X95476705Y-54861827D01*
X95553045Y-55013617D01*
X95596385Y-55075136D01*
X95710281Y-55201219D01*
X95842011Y-55310974D01*
X95976305Y-55390793D01*
X95987495Y-55395903D01*
X96058495Y-55423986D01*
X96129679Y-55441662D01*
X96216089Y-55451720D01*
X96332768Y-55456954D01*
X96421871Y-55457998D01*
X96551801Y-55450725D01*
X96659603Y-55428883D01*
X96759493Y-55389022D01*
X96865689Y-55327695D01*
X96993384Y-55232135D01*
X97131718Y-55083638D01*
X97237779Y-54907234D01*
X97312314Y-54701240D01*
X97356071Y-54463973D01*
X97369799Y-54193750D01*
X97369694Y-54176980D01*
X97355450Y-53925694D01*
X97316363Y-53708039D01*
X97250672Y-53518858D01*
X97156616Y-53352991D01*
X97032435Y-53205282D01*
X96951073Y-53132300D01*
X96783965Y-53025358D01*
X96603009Y-52957520D01*
X96414166Y-52928788D01*
X96223394Y-52939164D01*
X96036653Y-52988650D01*
X95859903Y-53077246D01*
X95699103Y-53204955D01*
X95642709Y-53264446D01*
X95539812Y-53406456D01*
X95461592Y-53571242D01*
X95405330Y-53765291D01*
X95368312Y-53995092D01*
X95363223Y-54047838D01*
X95358812Y-54260304D01*
X94220790Y-54260304D01*
X94219143Y-54071394D01*
X94236252Y-53845596D01*
X94273332Y-53617963D01*
X94331969Y-53408601D01*
X94415064Y-53204678D01*
X94558029Y-52948253D01*
X94739905Y-52710467D01*
X94953326Y-52503213D01*
X95195309Y-52328979D01*
X95462869Y-52190250D01*
X95753023Y-52089516D01*
X95767008Y-52085772D01*
X95850896Y-52064847D01*
X95927062Y-52049951D01*
X96006119Y-52040060D01*
X96098683Y-52034145D01*
X96215368Y-52031181D01*
X96366786Y-52030139D01*
X96438229Y-52030053D01*
X96570132Y-52030947D01*
X96671918Y-52034189D01*
X96754117Y-52040815D01*
X96827258Y-52051863D01*
X96901869Y-52068368D01*
X96988479Y-52091370D01*
X97118293Y-52131595D01*
X97390274Y-52245890D01*
X97638311Y-52392640D01*
X97855358Y-52567967D01*
X98034197Y-52759073D01*
X98208969Y-53005704D01*
X98345329Y-53274933D01*
X98442751Y-53565131D01*
X98500706Y-53874671D01*
X98518221Y-54193750D01*
X98518669Y-54201926D01*
X98496110Y-54545268D01*
G37*
X98496110Y-54545268D02*
X98482203Y-54643440D01*
X98414481Y-54944424D01*
X98312694Y-55222762D01*
X98178561Y-55475038D01*
X98013802Y-55697838D01*
X97820137Y-55887747D01*
X97768647Y-55928419D01*
X97574996Y-56054685D01*
X97352483Y-56166426D01*
X97113177Y-56258784D01*
X96869147Y-56326899D01*
X96632462Y-56365912D01*
X96504753Y-56373438D01*
X96342822Y-56373310D01*
X96171249Y-56365339D01*
X96003738Y-56350474D01*
X95853995Y-56329662D01*
X95735724Y-56303854D01*
X95546531Y-56240986D01*
X95290889Y-56121647D01*
X95056295Y-55966500D01*
X94834956Y-55770937D01*
X94805004Y-55740472D01*
X94609819Y-55510189D01*
X94454774Y-55263849D01*
X94339026Y-54999125D01*
X94261734Y-54713691D01*
X94222054Y-54405223D01*
X94220790Y-54260304D01*
X95358812Y-54260304D01*
X95377588Y-54474143D01*
X95417553Y-54678326D01*
X95476705Y-54861827D01*
X95553045Y-55013617D01*
X95596385Y-55075136D01*
X95710281Y-55201219D01*
X95842011Y-55310974D01*
X95976305Y-55390793D01*
X95987495Y-55395903D01*
X96058495Y-55423986D01*
X96129679Y-55441662D01*
X96216089Y-55451720D01*
X96332768Y-55456954D01*
X96421871Y-55457998D01*
X96551801Y-55450725D01*
X96659603Y-55428883D01*
X96759493Y-55389022D01*
X96865689Y-55327695D01*
X96993384Y-55232135D01*
X97131718Y-55083638D01*
X97237779Y-54907234D01*
X97312314Y-54701240D01*
X97356071Y-54463973D01*
X97369799Y-54193750D01*
X97369694Y-54176980D01*
X97355450Y-53925694D01*
X97316363Y-53708039D01*
X97250672Y-53518858D01*
X97156616Y-53352991D01*
X97032435Y-53205282D01*
X96951073Y-53132300D01*
X96783965Y-53025358D01*
X96603009Y-52957520D01*
X96414166Y-52928788D01*
X96223394Y-52939164D01*
X96036653Y-52988650D01*
X95859903Y-53077246D01*
X95699103Y-53204955D01*
X95642709Y-53264446D01*
X95539812Y-53406456D01*
X95461592Y-53571242D01*
X95405330Y-53765291D01*
X95368312Y-53995092D01*
X95363223Y-54047838D01*
X95358812Y-54260304D01*
X94220790Y-54260304D01*
X94219143Y-54071394D01*
X94236252Y-53845596D01*
X94273332Y-53617963D01*
X94331969Y-53408601D01*
X94415064Y-53204678D01*
X94558029Y-52948253D01*
X94739905Y-52710467D01*
X94953326Y-52503213D01*
X95195309Y-52328979D01*
X95462869Y-52190250D01*
X95753023Y-52089516D01*
X95767008Y-52085772D01*
X95850896Y-52064847D01*
X95927062Y-52049951D01*
X96006119Y-52040060D01*
X96098683Y-52034145D01*
X96215368Y-52031181D01*
X96366786Y-52030139D01*
X96438229Y-52030053D01*
X96570132Y-52030947D01*
X96671918Y-52034189D01*
X96754117Y-52040815D01*
X96827258Y-52051863D01*
X96901869Y-52068368D01*
X96988479Y-52091370D01*
X97118293Y-52131595D01*
X97390274Y-52245890D01*
X97638311Y-52392640D01*
X97855358Y-52567967D01*
X98034197Y-52759073D01*
X98208969Y-53005704D01*
X98345329Y-53274933D01*
X98442751Y-53565131D01*
X98500706Y-53874671D01*
X98518221Y-54193750D01*
X98518669Y-54201926D01*
X98496110Y-54545268D01*
G36*
X85662209Y-50435134D02*
G01*
X85768097Y-50438826D01*
X85979311Y-50452400D01*
X86162149Y-50474980D01*
X86328098Y-50508682D01*
X86488646Y-50555619D01*
X86655279Y-50617905D01*
X86763070Y-50667145D01*
X86967341Y-50790164D01*
X87154471Y-50941503D01*
X87315116Y-51113077D01*
X87439930Y-51296799D01*
X87518206Y-51459616D01*
X87594927Y-51701518D01*
X87630654Y-51948677D01*
X87626416Y-52196017D01*
X87583243Y-52438465D01*
X87502167Y-52670946D01*
X87384216Y-52888385D01*
X87230422Y-53085709D01*
X87041813Y-53257843D01*
X86895941Y-53356745D01*
X86673885Y-53474386D01*
X86407895Y-53585409D01*
X86098527Y-53689589D01*
X85746333Y-53786699D01*
X85575535Y-53829856D01*
X85340944Y-53891026D01*
X85143931Y-53945477D01*
X84980331Y-53994785D01*
X84845981Y-54040527D01*
X84736716Y-54084280D01*
X84648371Y-54127619D01*
X84576781Y-54172122D01*
X84517783Y-54219365D01*
X84467211Y-54270925D01*
X84386822Y-54389904D01*
X84340618Y-54529380D01*
X84334985Y-54676086D01*
X84369341Y-54824532D01*
X84443104Y-54969232D01*
X84555691Y-55104697D01*
X84612132Y-55155440D01*
X84773151Y-55261266D01*
X84962672Y-55335989D01*
X85182819Y-55380309D01*
X85435715Y-55394927D01*
X85560211Y-55391205D01*
X85805069Y-55358616D01*
X86021213Y-55292873D01*
X86207584Y-55194475D01*
X86363119Y-55063918D01*
X86486757Y-54901702D01*
X86508146Y-54863769D01*
X86562504Y-54750014D01*
X86616167Y-54617631D01*
X86662098Y-54484752D01*
X86693262Y-54369509D01*
X86694003Y-54365932D01*
X86698334Y-54344676D01*
X86705229Y-54328728D01*
X86720014Y-54317934D01*
X86748015Y-54312139D01*
X86794558Y-54311190D01*
X86864970Y-54314932D01*
X86964576Y-54323213D01*
X87098704Y-54335879D01*
X87272679Y-54352775D01*
X87302807Y-54355683D01*
X87444467Y-54369066D01*
X87571897Y-54380644D01*
X87677371Y-54389746D01*
X87753163Y-54395702D01*
X87791546Y-54397840D01*
X87793072Y-54397842D01*
X87822374Y-54400666D01*
X87836244Y-54416161D01*
X87837909Y-54455101D01*
X87830594Y-54528259D01*
X87823577Y-54582601D01*
X87770625Y-54837725D01*
X87687371Y-55091292D01*
X87578431Y-55332745D01*
X87448421Y-55551526D01*
X87301960Y-55737078D01*
X87242171Y-55798942D01*
X87047396Y-55966698D01*
X86830539Y-56104486D01*
X86587119Y-56214451D01*
X86312659Y-56298740D01*
X86002679Y-56359498D01*
X85918384Y-56370055D01*
X85746591Y-56383046D01*
X85552388Y-56389504D01*
X85349978Y-56389306D01*
X85153568Y-56382327D01*
X84977363Y-56368445D01*
X84763864Y-56338424D01*
X84458439Y-56267654D01*
X84182406Y-56167908D01*
X83937869Y-56040166D01*
X83726931Y-55885408D01*
X83551697Y-55704613D01*
X83485367Y-55616207D01*
X83370890Y-55430214D01*
X83276921Y-55232721D01*
X83212500Y-55041401D01*
X83202161Y-54995314D01*
X83181431Y-54851429D01*
X83169737Y-54684673D01*
X83167452Y-54510686D01*
X83174948Y-54345109D01*
X83192595Y-54203585D01*
X83204603Y-54146074D01*
X83267480Y-53942798D01*
X83357493Y-53745468D01*
X83466353Y-53573166D01*
X83561969Y-53456868D01*
X83678172Y-53341167D01*
X83809904Y-53236375D01*
X83961399Y-53140357D01*
X84136893Y-53050977D01*
X84340622Y-52966098D01*
X84576822Y-52883583D01*
X84849726Y-52801297D01*
X85163572Y-52717103D01*
X85350343Y-52668799D01*
X85572695Y-52609192D01*
X85758382Y-52556213D01*
X85911870Y-52508248D01*
X86037623Y-52463682D01*
X86140107Y-52420901D01*
X86223786Y-52378289D01*
X86293127Y-52334232D01*
X86352593Y-52287116D01*
X86379638Y-52261327D01*
X86435033Y-52196107D01*
X86470968Y-52136752D01*
X86470996Y-52136685D01*
X86493310Y-52050256D01*
X86500469Y-51947458D01*
X86492546Y-51848025D01*
X86469614Y-51771686D01*
X86451654Y-51741252D01*
X86363745Y-51643180D01*
X86239669Y-51556861D01*
X86086166Y-51486343D01*
X85909975Y-51435673D01*
X85901176Y-51433866D01*
X85780091Y-51417626D01*
X85634471Y-51409994D01*
X85478193Y-51410596D01*
X85325136Y-51419055D01*
X85189178Y-51434995D01*
X85084197Y-51458041D01*
X84996796Y-51490559D01*
X84837130Y-51584046D01*
X84706259Y-51711979D01*
X84605413Y-51872995D01*
X84535818Y-52065734D01*
X84494554Y-52226101D01*
X83972947Y-52207628D01*
X83895986Y-52204914D01*
X83747888Y-52199758D01*
X83615421Y-52195232D01*
X83506009Y-52191586D01*
X83427078Y-52189067D01*
X83386050Y-52187926D01*
X83320759Y-52186696D01*
X83334333Y-52010670D01*
X83349305Y-51898596D01*
X83378002Y-51763355D01*
X83414673Y-51635363D01*
X83501395Y-51420254D01*
X83635669Y-51189436D01*
X83802626Y-50989953D01*
X84002692Y-50821313D01*
X84236294Y-50683023D01*
X84279443Y-50662226D01*
X84475167Y-50579711D01*
X84674005Y-50516937D01*
X84884044Y-50472497D01*
X85113368Y-50444987D01*
X85370061Y-50433001D01*
X85662209Y-50435134D01*
G37*
X85662209Y-50435134D02*
X85768097Y-50438826D01*
X85979311Y-50452400D01*
X86162149Y-50474980D01*
X86328098Y-50508682D01*
X86488646Y-50555619D01*
X86655279Y-50617905D01*
X86763070Y-50667145D01*
X86967341Y-50790164D01*
X87154471Y-50941503D01*
X87315116Y-51113077D01*
X87439930Y-51296799D01*
X87518206Y-51459616D01*
X87594927Y-51701518D01*
X87630654Y-51948677D01*
X87626416Y-52196017D01*
X87583243Y-52438465D01*
X87502167Y-52670946D01*
X87384216Y-52888385D01*
X87230422Y-53085709D01*
X87041813Y-53257843D01*
X86895941Y-53356745D01*
X86673885Y-53474386D01*
X86407895Y-53585409D01*
X86098527Y-53689589D01*
X85746333Y-53786699D01*
X85575535Y-53829856D01*
X85340944Y-53891026D01*
X85143931Y-53945477D01*
X84980331Y-53994785D01*
X84845981Y-54040527D01*
X84736716Y-54084280D01*
X84648371Y-54127619D01*
X84576781Y-54172122D01*
X84517783Y-54219365D01*
X84467211Y-54270925D01*
X84386822Y-54389904D01*
X84340618Y-54529380D01*
X84334985Y-54676086D01*
X84369341Y-54824532D01*
X84443104Y-54969232D01*
X84555691Y-55104697D01*
X84612132Y-55155440D01*
X84773151Y-55261266D01*
X84962672Y-55335989D01*
X85182819Y-55380309D01*
X85435715Y-55394927D01*
X85560211Y-55391205D01*
X85805069Y-55358616D01*
X86021213Y-55292873D01*
X86207584Y-55194475D01*
X86363119Y-55063918D01*
X86486757Y-54901702D01*
X86508146Y-54863769D01*
X86562504Y-54750014D01*
X86616167Y-54617631D01*
X86662098Y-54484752D01*
X86693262Y-54369509D01*
X86694003Y-54365932D01*
X86698334Y-54344676D01*
X86705229Y-54328728D01*
X86720014Y-54317934D01*
X86748015Y-54312139D01*
X86794558Y-54311190D01*
X86864970Y-54314932D01*
X86964576Y-54323213D01*
X87098704Y-54335879D01*
X87272679Y-54352775D01*
X87302807Y-54355683D01*
X87444467Y-54369066D01*
X87571897Y-54380644D01*
X87677371Y-54389746D01*
X87753163Y-54395702D01*
X87791546Y-54397840D01*
X87793072Y-54397842D01*
X87822374Y-54400666D01*
X87836244Y-54416161D01*
X87837909Y-54455101D01*
X87830594Y-54528259D01*
X87823577Y-54582601D01*
X87770625Y-54837725D01*
X87687371Y-55091292D01*
X87578431Y-55332745D01*
X87448421Y-55551526D01*
X87301960Y-55737078D01*
X87242171Y-55798942D01*
X87047396Y-55966698D01*
X86830539Y-56104486D01*
X86587119Y-56214451D01*
X86312659Y-56298740D01*
X86002679Y-56359498D01*
X85918384Y-56370055D01*
X85746591Y-56383046D01*
X85552388Y-56389504D01*
X85349978Y-56389306D01*
X85153568Y-56382327D01*
X84977363Y-56368445D01*
X84763864Y-56338424D01*
X84458439Y-56267654D01*
X84182406Y-56167908D01*
X83937869Y-56040166D01*
X83726931Y-55885408D01*
X83551697Y-55704613D01*
X83485367Y-55616207D01*
X83370890Y-55430214D01*
X83276921Y-55232721D01*
X83212500Y-55041401D01*
X83202161Y-54995314D01*
X83181431Y-54851429D01*
X83169737Y-54684673D01*
X83167452Y-54510686D01*
X83174948Y-54345109D01*
X83192595Y-54203585D01*
X83204603Y-54146074D01*
X83267480Y-53942798D01*
X83357493Y-53745468D01*
X83466353Y-53573166D01*
X83561969Y-53456868D01*
X83678172Y-53341167D01*
X83809904Y-53236375D01*
X83961399Y-53140357D01*
X84136893Y-53050977D01*
X84340622Y-52966098D01*
X84576822Y-52883583D01*
X84849726Y-52801297D01*
X85163572Y-52717103D01*
X85350343Y-52668799D01*
X85572695Y-52609192D01*
X85758382Y-52556213D01*
X85911870Y-52508248D01*
X86037623Y-52463682D01*
X86140107Y-52420901D01*
X86223786Y-52378289D01*
X86293127Y-52334232D01*
X86352593Y-52287116D01*
X86379638Y-52261327D01*
X86435033Y-52196107D01*
X86470968Y-52136752D01*
X86470996Y-52136685D01*
X86493310Y-52050256D01*
X86500469Y-51947458D01*
X86492546Y-51848025D01*
X86469614Y-51771686D01*
X86451654Y-51741252D01*
X86363745Y-51643180D01*
X86239669Y-51556861D01*
X86086166Y-51486343D01*
X85909975Y-51435673D01*
X85901176Y-51433866D01*
X85780091Y-51417626D01*
X85634471Y-51409994D01*
X85478193Y-51410596D01*
X85325136Y-51419055D01*
X85189178Y-51434995D01*
X85084197Y-51458041D01*
X84996796Y-51490559D01*
X84837130Y-51584046D01*
X84706259Y-51711979D01*
X84605413Y-51872995D01*
X84535818Y-52065734D01*
X84494554Y-52226101D01*
X83972947Y-52207628D01*
X83895986Y-52204914D01*
X83747888Y-52199758D01*
X83615421Y-52195232D01*
X83506009Y-52191586D01*
X83427078Y-52189067D01*
X83386050Y-52187926D01*
X83320759Y-52186696D01*
X83334333Y-52010670D01*
X83349305Y-51898596D01*
X83378002Y-51763355D01*
X83414673Y-51635363D01*
X83501395Y-51420254D01*
X83635669Y-51189436D01*
X83802626Y-50989953D01*
X84002692Y-50821313D01*
X84236294Y-50683023D01*
X84279443Y-50662226D01*
X84475167Y-50579711D01*
X84674005Y-50516937D01*
X84884044Y-50472497D01*
X85113368Y-50444987D01*
X85370061Y-50433001D01*
X85662209Y-50435134D01*
G36*
X89926072Y-52787679D02*
G01*
X92171250Y-52787679D01*
X92171250Y-50519821D01*
X93350536Y-50519821D01*
X93350536Y-56280179D01*
X92171635Y-56280179D01*
X92165773Y-55027187D01*
X92159911Y-53774196D01*
X91042992Y-53768313D01*
X89926072Y-53762430D01*
X89926072Y-56280179D01*
X88746786Y-56280179D01*
X88746786Y-50519821D01*
X89926072Y-50519821D01*
X89926072Y-52787679D01*
G37*
X89926072Y-52787679D02*
X92171250Y-52787679D01*
X92171250Y-50519821D01*
X93350536Y-50519821D01*
X93350536Y-56280179D01*
X92171635Y-56280179D01*
X92165773Y-55027187D01*
X92159911Y-53774196D01*
X91042992Y-53768313D01*
X89926072Y-53762430D01*
X89926072Y-56280179D01*
X88746786Y-56280179D01*
X88746786Y-50519821D01*
X89926072Y-50519821D01*
X89926072Y-52787679D01*
M02*
