G04 #@! TF.GenerationSoftware,KiCad,Pcbnew,(6.0.7)*
G04 #@! TF.CreationDate,2023-01-31T14:41:23+01:00*
G04 #@! TF.ProjectId,PDH_module,5044485f-6d6f-4647-956c-652e6b696361,1.1*
G04 #@! TF.SameCoordinates,Original*
G04 #@! TF.FileFunction,Soldermask,Bot*
G04 #@! TF.FilePolarity,Negative*
%FSLAX46Y46*%
G04 Gerber Fmt 4.6, Leading zero omitted, Abs format (unit mm)*
G04 Created by KiCad (PCBNEW (6.0.7)) date 2023-01-31 14:41:23*
%MOMM*%
%LPD*%
G01*
G04 APERTURE LIST*
G04 Aperture macros list*
%AMRoundRect*
0 Rectangle with rounded corners*
0 $1 Rounding radius*
0 $2 $3 $4 $5 $6 $7 $8 $9 X,Y pos of 4 corners*
0 Add a 4 corners polygon primitive as box body*
4,1,4,$2,$3,$4,$5,$6,$7,$8,$9,$2,$3,0*
0 Add four circle primitives for the rounded corners*
1,1,$1+$1,$2,$3*
1,1,$1+$1,$4,$5*
1,1,$1+$1,$6,$7*
1,1,$1+$1,$8,$9*
0 Add four rect primitives between the rounded corners*
20,1,$1+$1,$2,$3,$4,$5,0*
20,1,$1+$1,$4,$5,$6,$7,0*
20,1,$1+$1,$6,$7,$8,$9,0*
20,1,$1+$1,$8,$9,$2,$3,0*%
G04 Aperture macros list end*
%ADD10C,2.850000*%
%ADD11RoundRect,0.249999X0.525001X-0.525001X0.525001X0.525001X-0.525001X0.525001X-0.525001X-0.525001X0*%
%ADD12C,1.550000*%
%ADD13R,1.600000X1.600000*%
%ADD14C,1.600000*%
%ADD15R,1.905000X2.000000*%
%ADD16O,1.905000X2.000000*%
%ADD17R,5.080000X1.500000*%
%ADD18C,2.250000*%
%ADD19C,1.800000*%
%ADD20R,2.032000X2.032000*%
%ADD21C,2.032000*%
%ADD22O,3.500000X3.500000*%
%ADD23R,2.000000X1.905000*%
%ADD24O,2.000000X1.905000*%
G04 APERTURE END LIST*
D10*
X39360000Y-141780000D03*
X39360000Y-52880000D03*
D11*
X41900000Y-136700000D03*
D12*
X41900000Y-134160000D03*
X41900000Y-131620000D03*
X41900000Y-129080000D03*
X41900000Y-126540000D03*
X41900000Y-124000000D03*
X41900000Y-121460000D03*
X41900000Y-118920000D03*
X41900000Y-116380000D03*
X41900000Y-113840000D03*
X41900000Y-111300000D03*
X41900000Y-108760000D03*
X41900000Y-106220000D03*
X41900000Y-103680000D03*
X41900000Y-101140000D03*
X41900000Y-98600000D03*
X41900000Y-96060000D03*
X41900000Y-93520000D03*
X41900000Y-90980000D03*
X41900000Y-88440000D03*
X41900000Y-85900000D03*
X41900000Y-83360000D03*
X41900000Y-80820000D03*
X41900000Y-78280000D03*
X41900000Y-75740000D03*
X41900000Y-73200000D03*
X41900000Y-70660000D03*
X41900000Y-68120000D03*
X41900000Y-65580000D03*
X41900000Y-63040000D03*
X41900000Y-60500000D03*
X41900000Y-57960000D03*
X46980000Y-136700000D03*
X46980000Y-134160000D03*
X46980000Y-131620000D03*
X46980000Y-129080000D03*
X46980000Y-126540000D03*
X46980000Y-124000000D03*
X46980000Y-121460000D03*
X46980000Y-118920000D03*
X46980000Y-116380000D03*
X46980000Y-113840000D03*
X46980000Y-111300000D03*
X46980000Y-108760000D03*
X46980000Y-106220000D03*
X46980000Y-103680000D03*
X46980000Y-101140000D03*
X46980000Y-98600000D03*
X46980000Y-96060000D03*
X46980000Y-93520000D03*
X46980000Y-90980000D03*
X46980000Y-88440000D03*
X46980000Y-85900000D03*
X46980000Y-83360000D03*
X46980000Y-80820000D03*
X46980000Y-78280000D03*
X46980000Y-75740000D03*
X46980000Y-73200000D03*
X46980000Y-70660000D03*
X46980000Y-68120000D03*
X46980000Y-65580000D03*
X46980000Y-63040000D03*
X46980000Y-60500000D03*
X46980000Y-57960000D03*
D13*
X144000000Y-142400000D03*
D14*
X144000000Y-140400000D03*
D13*
X123800000Y-142400000D03*
D14*
X123800000Y-140400000D03*
D13*
X104000000Y-142400000D03*
D14*
X104000000Y-140400000D03*
D13*
X70400000Y-84400000D03*
D14*
X70400000Y-82400000D03*
D15*
X136000000Y-142900000D03*
D16*
X133460000Y-142900000D03*
X130920000Y-142900000D03*
D15*
X116000000Y-142900000D03*
D16*
X113460000Y-142900000D03*
X110920000Y-142900000D03*
D17*
X192900000Y-80450000D03*
X192900000Y-88950000D03*
D18*
X117300000Y-78500000D03*
X114760000Y-81040000D03*
X114760000Y-75960000D03*
X119840000Y-75960000D03*
X119840000Y-81040000D03*
D19*
X180325000Y-98500000D03*
X187945000Y-101040000D03*
X193025000Y-98500000D03*
D17*
X192900000Y-58150000D03*
X192900000Y-66650000D03*
X192900000Y-136650000D03*
X192900000Y-128150000D03*
D20*
X88000000Y-63640000D03*
D21*
X88000000Y-61100000D03*
X88000000Y-58560000D03*
D20*
X52900000Y-100200000D03*
D21*
X52900000Y-97660000D03*
X52900000Y-95120000D03*
D22*
X55740000Y-74060000D03*
D23*
X72400000Y-76600000D03*
D24*
X72400000Y-74060000D03*
X72400000Y-71520000D03*
D20*
X117500000Y-63540000D03*
D21*
X117500000Y-61000000D03*
X117500000Y-58460000D03*
D18*
X158000000Y-129900000D03*
X160540000Y-127360000D03*
X155460000Y-127360000D03*
X160540000Y-132440000D03*
X155460000Y-132440000D03*
D13*
X70500000Y-64200000D03*
D14*
X70500000Y-66200000D03*
M02*
