G04 #@! TF.GenerationSoftware,KiCad,Pcbnew,(6.0.7)*
G04 #@! TF.CreationDate,2022-11-16T12:07:25+01:00*
G04 #@! TF.ProjectId,PDH_module,5044485f-6d6f-4647-956c-652e6b696361,1.1*
G04 #@! TF.SameCoordinates,Original*
G04 #@! TF.FileFunction,Soldermask,Bot*
G04 #@! TF.FilePolarity,Negative*
%FSLAX46Y46*%
G04 Gerber Fmt 4.6, Leading zero omitted, Abs format (unit mm)*
G04 Created by KiCad (PCBNEW (6.0.7)) date 2022-11-16 12:07:25*
%MOMM*%
%LPD*%
G01*
G04 APERTURE LIST*
G04 Aperture macros list*
%AMRoundRect*
0 Rectangle with rounded corners*
0 $1 Rounding radius*
0 $2 $3 $4 $5 $6 $7 $8 $9 X,Y pos of 4 corners*
0 Add a 4 corners polygon primitive as box body*
4,1,4,$2,$3,$4,$5,$6,$7,$8,$9,$2,$3,0*
0 Add four circle primitives for the rounded corners*
1,1,$1+$1,$2,$3*
1,1,$1+$1,$4,$5*
1,1,$1+$1,$6,$7*
1,1,$1+$1,$8,$9*
0 Add four rect primitives between the rounded corners*
20,1,$1+$1,$2,$3,$4,$5,0*
20,1,$1+$1,$4,$5,$6,$7,0*
20,1,$1+$1,$6,$7,$8,$9,0*
20,1,$1+$1,$8,$9,$2,$3,0*%
G04 Aperture macros list end*
%ADD10C,2.050000*%
%ADD11C,2.250000*%
%ADD12C,2.850000*%
%ADD13RoundRect,0.249999X0.525001X-0.525001X0.525001X0.525001X-0.525001X0.525001X-0.525001X-0.525001X0*%
%ADD14C,1.550000*%
%ADD15R,1.600000X1.600000*%
%ADD16C,1.600000*%
%ADD17R,1.905000X2.000000*%
%ADD18O,1.905000X2.000000*%
%ADD19R,5.080000X1.500000*%
%ADD20C,1.800000*%
%ADD21R,2.032000X2.032000*%
%ADD22C,2.032000*%
%ADD23O,3.500000X3.500000*%
%ADD24R,2.000000X1.905000*%
%ADD25O,2.000000X1.905000*%
G04 APERTURE END LIST*
D10*
X204400000Y-112500000D03*
D11*
X206940000Y-109960000D03*
X201860000Y-115040000D03*
X206940000Y-115040000D03*
X201860000Y-109960000D03*
D10*
X179300000Y-76100000D03*
D11*
X181840000Y-73560000D03*
X176760000Y-78640000D03*
X181840000Y-78640000D03*
X176760000Y-73560000D03*
D12*
X82860000Y-139380000D03*
X82860000Y-50480000D03*
D13*
X85400000Y-134300000D03*
D14*
X85400000Y-131760000D03*
X85400000Y-129220000D03*
X85400000Y-126680000D03*
X85400000Y-124140000D03*
X85400000Y-121600000D03*
X85400000Y-119060000D03*
X85400000Y-116520000D03*
X85400000Y-113980000D03*
X85400000Y-111440000D03*
X85400000Y-108900000D03*
X85400000Y-106360000D03*
X85400000Y-103820000D03*
X85400000Y-101280000D03*
X85400000Y-98740000D03*
X85400000Y-96200000D03*
X85400000Y-93660000D03*
X85400000Y-91120000D03*
X85400000Y-88580000D03*
X85400000Y-86040000D03*
X85400000Y-83500000D03*
X85400000Y-80960000D03*
X85400000Y-78420000D03*
X85400000Y-75880000D03*
X85400000Y-73340000D03*
X85400000Y-70800000D03*
X85400000Y-68260000D03*
X85400000Y-65720000D03*
X85400000Y-63180000D03*
X85400000Y-60640000D03*
X85400000Y-58100000D03*
X85400000Y-55560000D03*
X90480000Y-134300000D03*
X90480000Y-131760000D03*
X90480000Y-129220000D03*
X90480000Y-126680000D03*
X90480000Y-124140000D03*
X90480000Y-121600000D03*
X90480000Y-119060000D03*
X90480000Y-116520000D03*
X90480000Y-113980000D03*
X90480000Y-111440000D03*
X90480000Y-108900000D03*
X90480000Y-106360000D03*
X90480000Y-103820000D03*
X90480000Y-101280000D03*
X90480000Y-98740000D03*
X90480000Y-96200000D03*
X90480000Y-93660000D03*
X90480000Y-91120000D03*
X90480000Y-88580000D03*
X90480000Y-86040000D03*
X90480000Y-83500000D03*
X90480000Y-80960000D03*
X90480000Y-78420000D03*
X90480000Y-75880000D03*
X90480000Y-73340000D03*
X90480000Y-70800000D03*
X90480000Y-68260000D03*
X90480000Y-65720000D03*
X90480000Y-63180000D03*
X90480000Y-60640000D03*
X90480000Y-58100000D03*
X90480000Y-55560000D03*
D15*
X187500000Y-140000000D03*
D16*
X187500000Y-138000000D03*
D15*
X167300000Y-140000000D03*
D16*
X167300000Y-138000000D03*
D15*
X147500000Y-140000000D03*
D16*
X147500000Y-138000000D03*
D15*
X113900000Y-82000000D03*
D16*
X113900000Y-80000000D03*
D17*
X179500000Y-140500000D03*
D18*
X176960000Y-140500000D03*
X174420000Y-140500000D03*
D17*
X159500000Y-140500000D03*
D18*
X156960000Y-140500000D03*
X154420000Y-140500000D03*
D19*
X236400000Y-78050000D03*
X236400000Y-86550000D03*
D20*
X225400000Y-96100000D03*
X233020000Y-98640000D03*
X238100000Y-96100000D03*
D19*
X236400000Y-55750000D03*
X236400000Y-64250000D03*
X236400000Y-134250000D03*
X236400000Y-125750000D03*
D21*
X131500000Y-66140000D03*
D22*
X131500000Y-63600000D03*
X131500000Y-61060000D03*
D21*
X96400000Y-97800000D03*
D22*
X96400000Y-95260000D03*
X96400000Y-92720000D03*
D23*
X99240000Y-71660000D03*
D24*
X115900000Y-74200000D03*
D25*
X115900000Y-71660000D03*
X115900000Y-69120000D03*
D21*
X153200000Y-66340000D03*
D22*
X153200000Y-63800000D03*
X153200000Y-61260000D03*
D15*
X114000000Y-61800000D03*
D16*
X114000000Y-63800000D03*
M02*
